<svg id="Grupo_983483" data-name="Grupo 983483" xmlns="http://www.w3.org/2000/svg" width="1284" height="1249" viewBox="0 0 1284 1249">
  <rect id="Rect치ngulo_343792" data-name="Rect치ngulo 343792" width="1284" height="1249" fill="#fff"/>
  <path id="Sustracci칩n_5" data-name="Sustracci칩n 5" d="M505.607,0a492.653,492.653,0,0,0-51.7,2.725A486.064,486.064,0,0,0,308.8,41.464c-15.027,6.631-29.9,14.107-44.2,22.217-14.229,8.066-28.254,16.958-41.687,26.428-13.36,9.415-26.456,19.634-38.923,30.374-12.421,10.694-24.5,22.149-35.906,34.051s-22.376,24.5-32.635,37.467c-10.27,12.987-20.062,26.653-29.106,40.617-9.068,14.006-17.587,28.641-25.324,43.5-7.783,14.953-14.947,30.47-21.292,46.122-6.4,15.776-12.118,32.087-17,48.474C17.794,387.285,13.6,404.3,10.272,421.278,6.894,438.5,4.316,456.128,2.611,473.665.878,491.469,0,509.619,0,527.609s.878,36.143,2.611,53.947c1.706,17.54,4.284,35.165,7.662,52.382,3.332,16.986,7.522,34,12.457,50.563,4.877,16.361,10.6,32.671,17,48.477,6.339,15.642,13.5,31.159,21.292,46.119,7.739,14.865,16.259,29.5,25.324,43.5,9.042,13.963,18.834,27.627,29.106,40.617,10.255,12.966,21.235,25.573,32.635,37.468S171.574,924.041,184,934.736c12.43,10.711,25.526,20.929,38.923,30.372,13.448,9.479,27.474,18.373,41.687,26.429,14.3,8.107,29.166,15.583,44.2,22.217a488.262,488.262,0,0,0,297.323,31.036V894.768a351.075,351.075,0,0,1-100.518,14.648c-201.75,0-365.886-171.278-365.886-381.807s164.135-381.8,365.886-381.8a351.059,351.059,0,0,1,100.518,14.647V10.427a487.13,487.13,0,0,0-48.822-7.7A492.648,492.648,0,0,0,505.607,0Z" transform="translate(606.125 1180.217) rotate(180)" fill="#e5faf8"/>
</svg>
