<svg id="Grupo_982089" data-name="Grupo 982089" xmlns="http://www.w3.org/2000/svg" width="18.576" height="59.732" viewBox="0 0 18.576 59.732">
  <g id="Grupo_152551" data-name="Grupo 152551" transform="translate(0 59.732) rotate(-90)">
    <rect id="Rectángulo_45220" data-name="Rectángulo 45220" width="43.139" height="12.846" transform="translate(59.732 12.846) rotate(180)" fill="#4b63a2"/>
    <g id="Grupo_152556" data-name="Grupo 152556" transform="translate(0 7.116)">
      <rect id="Rectángulo_45221" data-name="Rectángulo 45221" width="2.183" height="2.183" transform="translate(46.385 9.277)" fill="#fff"/>
      <rect id="Rectángulo_45222" data-name="Rectángulo 45222" width="2.183" height="2.183" transform="translate(41.747 9.277)" fill="#fff"/>
      <rect id="Rectángulo_45223" data-name="Rectángulo 45223" width="2.183" height="2.183" transform="translate(37.108 9.277)" fill="#fff"/>
      <rect id="Rectángulo_45224" data-name="Rectángulo 45224" width="2.183" height="2.183" transform="translate(32.47 9.277)" fill="#fff"/>
      <rect id="Rectángulo_45225" data-name="Rectángulo 45225" width="2.183" height="2.183" transform="translate(27.831 9.277)" fill="#fff"/>
      <rect id="Rectángulo_45226" data-name="Rectángulo 45226" width="2.183" height="2.183" transform="translate(23.193 9.277)" fill="#fff"/>
      <rect id="Rectángulo_45227" data-name="Rectángulo 45227" width="2.183" height="2.183" transform="translate(18.554 9.277)" fill="#fff"/>
      <rect id="Rectángulo_45228" data-name="Rectángulo 45228" width="2.183" height="2.183" transform="translate(13.916 9.277)" fill="#fff"/>
      <rect id="Rectángulo_45229" data-name="Rectángulo 45229" width="2.183" height="2.183" transform="translate(9.277 9.277)" fill="#fff"/>
      <rect id="Rectángulo_45230" data-name="Rectángulo 45230" width="2.183" height="2.183" transform="translate(4.639 9.277)" fill="#fff"/>
      <rect id="Rectángulo_45231" data-name="Rectángulo 45231" width="2.183" height="2.183" transform="translate(0 9.277)" fill="#fff"/>
      <rect id="Rectángulo_45232" data-name="Rectángulo 45232" width="2.183" height="2.183" transform="translate(46.385 4.639)" fill="#fff"/>
      <rect id="Rectángulo_45233" data-name="Rectángulo 45233" width="2.183" height="2.183" transform="translate(41.747 4.639)" fill="#fff"/>
      <rect id="Rectángulo_45234" data-name="Rectángulo 45234" width="2.183" height="2.183" transform="translate(37.108 4.639)" fill="#fff"/>
      <rect id="Rectángulo_45235" data-name="Rectángulo 45235" width="2.183" height="2.183" transform="translate(32.47 4.639)" fill="#fff"/>
      <rect id="Rectángulo_45236" data-name="Rectángulo 45236" width="2.183" height="2.183" transform="translate(27.831 4.639)" fill="#fff"/>
      <rect id="Rectángulo_45237" data-name="Rectángulo 45237" width="2.183" height="2.183" transform="translate(23.193 4.639)" fill="#fff"/>
      <rect id="Rectángulo_45238" data-name="Rectángulo 45238" width="2.183" height="2.183" transform="translate(18.554 4.639)" fill="#fff"/>
      <rect id="Rectángulo_45239" data-name="Rectángulo 45239" width="2.183" height="2.183" transform="translate(13.916 4.639)" fill="#fff"/>
      <rect id="Rectángulo_45240" data-name="Rectángulo 45240" width="2.183" height="2.183" transform="translate(9.277 4.639)" fill="#fff"/>
      <rect id="Rectángulo_45241" data-name="Rectángulo 45241" width="2.183" height="2.183" transform="translate(4.639 4.639)" fill="#fff"/>
      <rect id="Rectángulo_45242" data-name="Rectángulo 45242" width="2.183" height="2.183" transform="translate(0 4.639)" fill="#fff"/>
      <rect id="Rectángulo_45243" data-name="Rectángulo 45243" width="2.183" height="2.183" transform="translate(46.385)" fill="#fff"/>
      <rect id="Rectángulo_45244" data-name="Rectángulo 45244" width="2.183" height="2.183" transform="translate(41.747)" fill="#fff"/>
      <rect id="Rectángulo_45245" data-name="Rectángulo 45245" width="2.183" height="2.183" transform="translate(37.108)" fill="#fff"/>
      <rect id="Rectángulo_45246" data-name="Rectángulo 45246" width="2.183" height="2.183" transform="translate(32.47)" fill="#fff"/>
      <rect id="Rectángulo_45247" data-name="Rectángulo 45247" width="2.183" height="2.183" transform="translate(27.831)" fill="#fff"/>
      <rect id="Rectángulo_45248" data-name="Rectángulo 45248" width="2.183" height="2.183" transform="translate(23.193)" fill="#fff"/>
      <rect id="Rectángulo_45249" data-name="Rectángulo 45249" width="2.183" height="2.183" transform="translate(18.554)" fill="#fff"/>
      <rect id="Rectángulo_45250" data-name="Rectángulo 45250" width="2.183" height="2.183" transform="translate(13.916)" fill="#fff"/>
      <rect id="Rectángulo_45251" data-name="Rectángulo 45251" width="2.183" height="2.183" transform="translate(9.277)" fill="#fff"/>
      <rect id="Rectángulo_45252" data-name="Rectángulo 45252" width="2.183" height="2.183" transform="translate(4.639)" fill="#fff"/>
      <rect id="Rectángulo_45253" data-name="Rectángulo 45253" width="2.183" height="2.183" fill="#fff"/>
    </g>
  </g>
</svg>
