<svg id="Grupo_982127" data-name="Grupo 982127" xmlns="http://www.w3.org/2000/svg" xmlns:xlink="http://www.w3.org/1999/xlink" width="162" height="132.448" viewBox="0 0 162 132.448">
  <defs>
    <clipPath id="clip-path">
      <rect id="Rectángulo_343438" data-name="Rectángulo 343438" width="162" height="132.448" fill="none"/>
    </clipPath>
    <clipPath id="clip-path-3">
      <rect id="Rectángulo_343419" data-name="Rectángulo 343419" width="91.349" height="64.766" fill="none"/>
    </clipPath>
    <clipPath id="clip-path-4">
      <rect id="Rectángulo_343436" data-name="Rectángulo 343436" width="162" height="60.16" fill="none" stroke="#373f51" stroke-width="1"/>
    </clipPath>
  </defs>
  <g id="Grupo_982126" data-name="Grupo 982126" clip-path="url(#clip-path)">
    <g id="Grupo_982125" data-name="Grupo 982125">
      <g id="Grupo_982124" data-name="Grupo 982124" clip-path="url(#clip-path)">
        <path id="Trazado_656132" data-name="Trazado 656132" d="M168.711,295.23c0-1.324-25.082-2.4-56.022-2.4s-56.022,1.074-56.022,2.4,25.082,2.4,56.022,2.4,56.022-1.074,56.022-2.4" transform="translate(-31.965 -165.18)" fill="#5573c6"/>
        <path id="Trazado_656133" data-name="Trazado 656133" d="M181.115,279.245H148.747l4.214-11.821H176.9Z" transform="translate(-83.905 -150.847)" fill="#e2e1e1"/>
        <path id="Trazado_656134" data-name="Trazado 656134" d="M180.211,267.424h-23.94l-1.637,4.592h27.213Z" transform="translate(-87.226 -150.847)" fill="#aeaeae"/>
        <path id="Trazado_656135" data-name="Trazado 656135" d="M141.2,294.388h38.947v-1.034A1.952,1.952,0,0,0,178.2,291.4H143.152a1.952,1.952,0,0,0-1.952,1.952Z" transform="translate(-79.648 -164.373)" fill="#aeaeae"/>
        <path id="Trazado_656136" data-name="Trazado 656136" d="M169.359,93.923a3.168,3.168,0,0,0-3.168-3.168H63.659a3.168,3.168,0,0,0-3.168,3.168v65.82H169.359Z" transform="translate(-34.122 -51.193)" fill="#003243"/>
        <path id="Trazado_656137" data-name="Trazado 656137" d="M60.491,249.013v6.438a3.168,3.168,0,0,0,3.168,3.168H166.191a3.168,3.168,0,0,0,3.168-3.168v-6.438Z" transform="translate(-34.122 -140.462)" fill="#e2e1e1"/>
        <rect id="Rectángulo_343417" data-name="Rectángulo 343417" width="98.729" height="59.24" transform="translate(31.324 44.109)" fill="#96d6f7"/>
        <rect id="Rectángulo_343418" data-name="Rectángulo 343418" width="96.101" height="57.664" transform="translate(32.638 44.898)" fill="#d6eefd"/>
        <g id="Grupo_982120" data-name="Grupo 982120" transform="translate(43.889 39.562)" opacity="0.37">
          <g id="Grupo_982119" data-name="Grupo 982119">
            <g id="Grupo_982118" data-name="Grupo 982118" clip-path="url(#clip-path-3)">
              <path id="Trazado_656138" data-name="Trazado 656138" d="M192.029,93.923a3.168,3.168,0,0,0-3.168-3.168h-88.18l91.348,64.765Z" transform="translate(-100.681 -90.755)" fill="#fff"/>
            </g>
          </g>
        </g>
        <path id="Trazado_656139" data-name="Trazado 656139" d="M320.32,235.358l6.231,17.758,3.427-5.608,4.362,3.895,3.144-3.672-4.459-3.8,5.52-2.969Z" transform="translate(-180.685 -132.76)" fill="#fff"/>
        <path id="Trazado_656140" data-name="Trazado 656140" d="M320.32,235.358l6.231,17.758,3.427-5.608,4.362,3.895,1.591-1.857-15.594-14.182Z" transform="translate(-180.685 -132.76)" fill="#d8d8d8"/>
        <rect id="Rectángulo_343420" data-name="Rectángulo 343420" width="74.558" height="76.734" transform="translate(42.963 26.612)" fill="#fff"/>
        <path id="Trazado_656141" data-name="Trazado 656141" d="M173.115,48.858H98.557V37.52a3.3,3.3,0,0,1,3.3-3.3h67.966a3.3,3.3,0,0,1,3.3,3.3Z" transform="translate(-55.594 -19.305)" fill="#f4a338"/>
        <path id="Trazado_656142" data-name="Trazado 656142" d="M116.874,48.276a2.148,2.148,0,1,1-2.148-2.148,2.148,2.148,0,0,1,2.148,2.148" transform="translate(-63.503 -26.02)" fill="#5573c6"/>
        <path id="Trazado_656143" data-name="Trazado 656143" d="M131.129,48.276a2.148,2.148,0,1,1-2.148-2.148,2.148,2.148,0,0,1,2.148,2.148" transform="translate(-71.544 -26.02)" fill="#373f51"/>
        <path id="Trazado_656144" data-name="Trazado 656144" d="M145.385,48.276a2.148,2.148,0,1,1-2.148-2.148,2.148,2.148,0,0,1,2.148,2.148" transform="translate(-79.585 -26.02)" fill="#373f51"/>
        <rect id="Rectángulo_343421" data-name="Rectángulo 343421" width="37.622" height="6.13" transform="translate(72.951 19.231)" fill="#fff"/>
        <rect id="Rectángulo_343422" data-name="Rectángulo 343422" width="63.191" height="35.998" transform="translate(48.54 34.668)" fill="#ddf1fd"/>
        <rect id="Rectángulo_343423" data-name="Rectángulo 343423" width="17.817" height="2.131" transform="translate(60.23 74.179)" fill="#e2e1e1"/>
        <rect id="Rectángulo_343424" data-name="Rectángulo 343424" width="41.197" height="2.131" transform="translate(48.54 79.392)" fill="#e2e1e1"/>
        <rect id="Rectángulo_343425" data-name="Rectángulo 343425" width="41.197" height="2.131" transform="translate(48.54 84.605)" fill="#e2e1e1"/>
        <rect id="Rectángulo_343426" data-name="Rectángulo 343426" width="41.197" height="2.131" transform="translate(48.54 89.818)" fill="#e2e1e1"/>
        <rect id="Rectángulo_343427" data-name="Rectángulo 343427" width="41.197" height="2.131" transform="translate(48.54 95.03)" fill="#e2e1e1"/>
        <rect id="Rectángulo_343428" data-name="Rectángulo 343428" width="12.611" height="2.131" transform="translate(97.473 74.179)" fill="#e2e1e1"/>
        <rect id="Rectángulo_343429" data-name="Rectángulo 343429" width="12.611" height="2.131" transform="translate(97.473 79.392)" fill="#e2e1e1"/>
        <rect id="Rectángulo_343430" data-name="Rectángulo 343430" width="12.611" height="2.131" transform="translate(97.473 84.605)" fill="#e2e1e1"/>
        <rect id="Rectángulo_343431" data-name="Rectángulo 343431" width="12.611" height="2.131" transform="translate(97.473 89.818)" fill="#e2e1e1"/>
        <rect id="Rectángulo_343432" data-name="Rectángulo 343432" width="12.611" height="2.131" transform="translate(97.473 95.03)" fill="#e2e1e1"/>
        <rect id="Rectángulo_343433" data-name="Rectángulo 343433" width="63.191" height="35.998" transform="translate(48.54 34.668)" fill="none" stroke="#5573c6" stroke-miterlimit="10" stroke-width="2"/>
        <line id="Línea_2091" data-name="Línea 2091" x1="63.191" y2="35.998" transform="translate(48.54 34.668)" fill="none" stroke="#5573c6" stroke-miterlimit="10" stroke-width="2"/>
        <line id="Línea_2092" data-name="Línea 2092" x2="63.191" y2="35.998" transform="translate(48.54 34.668)" fill="none" stroke="#5573c6" stroke-miterlimit="10" stroke-width="2"/>
        <path id="Trazado_656145" data-name="Trazado 656145" d="M186.124,258.349a1.516,1.516,0,1,1-1.516-1.516,1.516,1.516,0,0,1,1.516,1.516" transform="translate(-103.277 -144.874)" fill="silver"/>
        <g id="Grupo_982123" data-name="Grupo 982123" opacity="0.47">
          <g id="Grupo_982122" data-name="Grupo 982122">
            <g id="Grupo_982121" data-name="Grupo 982121" clip-path="url(#clip-path-4)">
              <path id="Trazado_656146" data-name="Trazado 656146" d="M344.579,89.552a3.88,3.88,0,0,0-1.02.14,5.457,5.457,0,0,0-10.466,2.169c0,.142.01.281.021.42a2.533,2.533,0,0,0,.369,5.038h11.1a3.884,3.884,0,0,0,0-7.767Z" transform="translate(-186.681 -48.738)" fill="none" stroke="#373f51" stroke-miterlimit="10" stroke-width="1"/>
              <path id="Trazado_656147" data-name="Trazado 656147" d="M317.308,51.762v-3.49h-2.267A6.205,6.205,0,0,0,314.518,47l1.6-1.6-2.468-2.468-1.6,1.6a6.226,6.226,0,0,0-1.269-.523V41.745h-3.49v2.267a6.226,6.226,0,0,0-1.269.523l-1.6-1.6L301.953,45.4l1.6,1.6a6.2,6.2,0,0,0-.523,1.269h-2.267v3.49h2.267a6.213,6.213,0,0,0,.523,1.269l-1.6,1.6,2.468,2.467,1.6-1.6a6.223,6.223,0,0,0,1.269.523v2.268h3.49V56.021a6.222,6.222,0,0,0,1.269-.523l1.6,1.6,2.468-2.467-1.6-1.6a6.241,6.241,0,0,0,.523-1.269Zm-8.272.49a2.236,2.236,0,1,1,2.235-2.235A2.235,2.235,0,0,1,309.036,52.252Z" transform="translate(-169.654 -23.547)" fill="none" stroke="#373f51" stroke-miterlimit="10" stroke-width="1"/>
              <path id="Trazado_656148" data-name="Trazado 656148" d="M295.99,27.713V25.79h-1.25a3.428,3.428,0,0,0-.288-.7l.882-.883-1.36-1.36-.883.883a3.41,3.41,0,0,0-.7-.289v-1.25h-1.924v1.25a3.41,3.41,0,0,0-.7.289l-.883-.883-1.36,1.36.883.883a3.428,3.428,0,0,0-.289.7h-1.25v1.924h1.25a3.434,3.434,0,0,0,.289.7l-.883.883,1.36,1.361.883-.883a3.435,3.435,0,0,0,.7.289v1.25h1.924v-1.25a3.434,3.434,0,0,0,.7-.289l.883.883,1.36-1.361-.883-.883a3.438,3.438,0,0,0,.289-.7Zm-4.56.27a1.232,1.232,0,1,1,1.232-1.232A1.233,1.233,0,0,1,291.43,27.984Z" transform="translate(-161.817 -12.517)" fill="none" stroke="#373f51" stroke-miterlimit="10" stroke-width="0.75"/>
              <path id="Trazado_656149" data-name="Trazado 656149" d="M326.837,20.907V18.983h-1.25a3.433,3.433,0,0,0-.288-.7l.882-.883-1.36-1.36-.883.882a3.434,3.434,0,0,0-.7-.288v-1.25h-1.924v1.25a3.434,3.434,0,0,0-.7.288l-.883-.882-1.36,1.36.882.883a3.457,3.457,0,0,0-.288.7h-1.25v1.924h1.25a3.434,3.434,0,0,0,.289.7l-.883.883,1.36,1.36.883-.883a3.435,3.435,0,0,0,.7.289v1.25h1.924v-1.25a3.435,3.435,0,0,0,.7-.289l.883.883,1.36-1.36-.883-.883a3.434,3.434,0,0,0,.289-.7Zm-4.56.27a1.232,1.232,0,1,1,1.232-1.232A1.233,1.233,0,0,1,322.277,21.178Z" transform="translate(-179.217 -8.678)" fill="none" stroke="#373f51" stroke-miterlimit="10" stroke-width="0.75"/>
              <rect id="Rectángulo_343434" data-name="Rectángulo 343434" width="16.494" height="3.648" transform="translate(11.799 42.379) rotate(-38.854)" fill="none" stroke="#373f51" stroke-miterlimit="10" stroke-width="1"/>
              <rect id="Rectángulo_343435" data-name="Rectángulo 343435" width="1.34" height="3.648" transform="matrix(0.779, -0.627, 0.627, 0.779, 10.755, 43.22)" fill="none" stroke="#373f51" stroke-miterlimit="10" stroke-width="1"/>
              <path id="Trazado_656150" data-name="Trazado 656150" d="M56.533,72.462l3.879-.786L58.822,75.3" transform="translate(-31.889 -40.43)" fill="none" stroke="#373f51" stroke-miterlimit="10" stroke-width="1"/>
              <path id="Trazado_656151" data-name="Trazado 656151" d="M23.519,102.963a1.438,1.438,0,0,1-2.021-.218l-.485-.6a1.437,1.437,0,0,1,.218-2.021l1.188-.957,2.289,2.841Z" transform="translate(-11.673 -55.937)" fill="none" stroke="#373f51" stroke-miterlimit="10" stroke-width="1"/>
              <path id="Trazado_656152" data-name="Trazado 656152" d="M24.889,24.884,47.2,37.153,42.077,19.805Zm16.778,5.355-8.02-4.386L39.822,24Z" transform="translate(-14.039 -11.172)" fill="none" stroke="#373f51" stroke-miterlimit="10" stroke-width="1"/>
              <path id="Trazado_656153" data-name="Trazado 656153" d="M18.665,52.755A7.459,7.459,0,1,1,11.206,45.3,7.459,7.459,0,0,1,18.665,52.755Z" transform="translate(-2.113 -25.55)" fill="none" stroke="#373f51" stroke-miterlimit="10" stroke-width="1"/>
              <line id="Línea_2093" data-name="Línea 2093" y1="14.919" transform="translate(9.079 19.745)" fill="none" stroke="#373f51" stroke-miterlimit="10" stroke-width="1"/>
              <path id="Trazado_656154" data-name="Trazado 656154" d="M16.2,60.215S12.619,57,12.619,52.756,16.2,45.3,16.2,45.3" transform="translate(-7.118 -25.55)" fill="none" stroke="#373f51" stroke-miterlimit="10" stroke-width="1"/>
              <path id="Trazado_656155" data-name="Trazado 656155" d="M12.962,60.215s-6.077-1.261-6.077-7.459c0-6.251,6.077-7.46,6.077-7.46" transform="translate(-3.884 -25.55)" fill="none" stroke="#373f51" stroke-miterlimit="10" stroke-width="1"/>
              <path id="Trazado_656156" data-name="Trazado 656156" d="M20.889,60.215S24.467,57,24.467,52.756s-3.578-7.46-3.578-7.46" transform="translate(-11.783 -25.55)" fill="none" stroke="#373f51" stroke-miterlimit="10" stroke-width="1"/>
              <path id="Trazado_656157" data-name="Trazado 656157" d="M20.889,60.215s6.077-1.261,6.077-7.459c0-6.251-6.077-7.46-6.077-7.46" transform="translate(-11.783 -25.55)" fill="none" stroke="#373f51" stroke-miterlimit="10" stroke-width="1"/>
              <line id="Línea_2094" data-name="Línea 2094" x1="14.923" transform="translate(1.629 27.228)" fill="none" stroke="#373f51" stroke-miterlimit="10" stroke-width="1"/>
              <path id="Trazado_656158" data-name="Trazado 656158" d="M80.575,25.306l.2.626h.658l-.533.387.2.626-.533-.387-.533.387.2-.626-.533-.387h.658Z" transform="translate(-44.964 -14.275)" fill="#fff" stroke="#373f51" stroke-width="1"/>
              <path id="Trazado_656159" data-name="Trazado 656159" d="M273.714,17.318l.148.456h.479l-.388.282.148.456-.388-.282-.388.282.148-.456-.388-.282h.479Z" transform="translate(-154.042 -9.769)" fill="#fff" stroke="#373f51" stroke-width="1"/>
              <path id="Trazado_656160" data-name="Trazado 656160" d="M279.71,8.531l.485,1.492h1.568l-1.269.922.485,1.492-1.269-.922-1.269.922.485-1.492-1.269-.922h1.568Z" transform="translate(-156.62 -4.812)" fill="#fff" stroke="#373f51" stroke-width="1"/>
              <path id="Trazado_656161" data-name="Trazado 656161" d="M287.024,55.328l.126.387h.407l-.329.239.126.387-.329-.239-.329.239.126-.387-.329-.239h.407Z" transform="translate(-161.603 -31.209)" fill="#fff" stroke="#373f51" stroke-width="1"/>
              <path id="Trazado_656162" data-name="Trazado 656162" d="M80.608,75.27l.2.607h.639l-.517.375.2.608-.517-.376-.517.376.2-.608-.517-.375h.639Z" transform="translate(-44.997 -42.458)" fill="#fff" stroke="#373f51" stroke-width="1"/>
              <path id="Trazado_656163" data-name="Trazado 656163" d="M32.419,123.551l.6,1.847h1.942L33.39,126.54l.6,1.847-1.571-1.142-1.572,1.142.6-1.847L29.877,125.4h1.942Z" transform="translate(-16.853 -69.692)" fill="#fff" stroke="#373f51" stroke-width="1"/>
              <path id="Trazado_656164" data-name="Trazado 656164" d="M85.328,17.379l.247.759h.8l-.646.469.246.759-.646-.47-.646.47.247-.759-.646-.469h.8Z" transform="translate(-47.542 -9.803)" fill="#fff" stroke="#373f51" stroke-width="1"/>
              <path id="Trazado_656165" data-name="Trazado 656165" d="M1.4,96.9l.33,1.015H2.8l-.864.628.33,1.015L1.4,98.93l-.864.627.33-1.015L0,97.915H1.068Z" transform="translate(0 -54.659)" fill="#fff" stroke="#373f51" stroke-width="1"/>
              <path id="Trazado_656166" data-name="Trazado 656166" d="M351.893,66.77l.548,1.686h1.772L352.78,69.5l.548,1.686-1.434-1.042-1.434,1.042.548-1.686-1.434-1.042h1.772Z" transform="translate(-197.186 -37.664)" fill="#fff" stroke="#373f51" stroke-width="1"/>
              <path id="Trazado_656167" data-name="Trazado 656167" d="M360.722,59.413l.186.572h.6l-.486.353.186.572-.486-.354-.487.354.186-.572-.486-.353h.6Z" transform="translate(-203.031 -33.513)" fill="#fff" stroke="#373f51" stroke-width="1"/>
              <path id="Trazado_656168" data-name="Trazado 656168" d="M330.556,131.908l.33,1.015h1.068l-.864.628.33,1.015-.864-.627-.864.627.33-1.015-.864-.628h1.068Z" transform="translate(-185.671 -74.406)" fill="#fff" stroke="#373f51" stroke-width="1"/>
              <path id="Trazado_656169" data-name="Trazado 656169" d="M67.323,0l.693,2.133h2.243L68.444,3.452l.693,2.133L67.323,4.267,65.508,5.585,66.2,3.452,64.386,2.133H66.63Z" transform="translate(-36.319)" fill="#fff" stroke="#373f51" stroke-width="1"/>
              <path id="Trazado_656170" data-name="Trazado 656170" d="M178.139,7.636l.6,1.847h1.942l-1.571,1.142.6,1.847-1.572-1.142-1.572,1.142.6-1.847L175.6,9.484h1.942Z" transform="translate(-99.05 -4.307)" fill="#fff" stroke="#373f51" stroke-width="1"/>
              <path id="Trazado_656171" data-name="Trazado 656171" d="M197.16,18.328l.252.774h.814l-.659.479.252.774-.659-.479-.659.479.252-.774-.659-.479h.814Z" transform="translate(-110.612 -10.338)" fill="#fff" stroke="#373f51" stroke-width="1"/>
              <path id="Trazado_656172" data-name="Trazado 656172" d="M123.064,10.054l.5,1.548H125.2l-1.317.957.5,1.548-1.317-.957-1.317.957.5-1.548-1.317-.957h1.628Z" transform="translate(-68.215 -5.671)" fill="#fff" stroke="#373f51" stroke-width="1"/>
            </g>
          </g>
        </g>
      </g>
    </g>
  </g>
</svg>
