<svg xmlns="http://www.w3.org/2000/svg" width="820" height="322" viewBox="0 0 820 322">
  <g id="Grupo_984194" data-name="Grupo 984194" transform="translate(9382 9424)">
    <path id="Trazado_656131" data-name="Trazado 656131" d="M0,0H820V322H0Z" transform="translate(-9382 -9424)" fill="#12263f"/>
    <path id="Trazado_659060" data-name="Trazado 659060" d="M8.719-5.915H3.173V-1.38H9.615V0H1.485V-12.8H9.527v1.38H3.173v4.122H8.719Zm7.172-1.978,3.067-4.9h1.986L16.9-6.451,21.041,0h-2L15.891-4.992,12.727,0h-2L14.88-6.451,10.828-12.8h1.978Zm8.8,2.883V0H23V-12.8h4.72a4.742,4.742,0,0,1,3.292,1.072A3.635,3.635,0,0,1,32.2-8.886a3.587,3.587,0,0,1-1.165,2.87A4.954,4.954,0,0,1,27.7-5.01Zm0-1.38h3.032a3.032,3.032,0,0,0,2.074-.638,2.334,2.334,0,0,0,.721-1.845,2.411,2.411,0,0,0-.721-1.831,2.84,2.84,0,0,0-1.978-.713H24.688ZM36.053-1.38h6.064V0H34.356V-12.8h1.7ZM53.314-5.985A7.916,7.916,0,0,1,52.682-2.7a4.793,4.793,0,0,1-1.793,2.14,4.933,4.933,0,0,1-2.707.738A4.891,4.891,0,0,1,45.5-.567a4.908,4.908,0,0,1-1.815-2.118,7.6,7.6,0,0,1-.664-3.186v-.923a7.822,7.822,0,0,1,.642-3.261,4.891,4.891,0,0,1,1.815-2.167,4.87,4.87,0,0,1,2.685-.751,4.961,4.961,0,0,1,2.711.743,4.784,4.784,0,0,1,1.806,2.153,7.955,7.955,0,0,1,.633,3.283Zm-1.679-.826a5.738,5.738,0,0,0-.914-3.494,3.015,3.015,0,0,0-2.558-1.217,2.982,2.982,0,0,0-2.518,1.217A5.62,5.62,0,0,0,44.7-6.926v.94a5.746,5.746,0,0,0,.927,3.467,3,3,0,0,0,2.553,1.261,2.983,2.983,0,0,0,2.531-1.191,5.714,5.714,0,0,0,.923-3.415Zm8.9,1.635H57.533V0h-1.7V-12.8h4.236a5.014,5.014,0,0,1,3.327.984,3.542,3.542,0,0,1,1.165,2.865,3.445,3.445,0,0,1-.646,2.083,3.856,3.856,0,0,1-1.8,1.327L65.127-.105V0H63.316Zm-3.006-1.38h2.593a2.924,2.924,0,0,0,2-.652,2.2,2.2,0,0,0,.743-1.743,2.32,2.32,0,0,0-.708-1.823,3,3,0,0,0-2.043-.643H57.533Zm16.629.642H68.616V-1.38h6.442V0h-8.13V-12.8h8.042v1.38H68.616v4.122h5.546Zm7.69.738H78.847V0h-1.7V-12.8h4.236a5.014,5.014,0,0,1,3.327.984,3.542,3.542,0,0,1,1.165,2.865,3.445,3.445,0,0,1-.646,2.083,3.856,3.856,0,0,1-1.8,1.327L86.44-.105V0H84.63Zm-3.006-1.38h2.593a2.924,2.924,0,0,0,2-.652,2.2,2.2,0,0,0,.743-1.743,2.32,2.32,0,0,0-.708-1.823,3,3,0,0,0-2.043-.643H78.847Z" transform="translate(-9350 -9386)" fill="#fff"/>
    <path id="Trazado_659061" data-name="Trazado 659061" d="M10.642-1.527a4.322,4.322,0,0,1-1.9,1.249A7.961,7.961,0,0,1,6.018.166,5.393,5.393,0,0,1,3.266-.519,4.568,4.568,0,0,1,1.44-2.507,7,7,0,0,1,.78-5.57v-.822a7.431,7.431,0,0,1,.61-3.134,4.513,4.513,0,0,1,1.76-2.025,5.069,5.069,0,0,1,2.694-.7,5.048,5.048,0,0,1,3.362,1.025,4.381,4.381,0,0,1,1.436,2.984H8.218a2.41,2.41,0,0,0-.735-1.519,2.346,2.346,0,0,0-1.565-.481,2.208,2.208,0,0,0-1.934.955A5.02,5.02,0,0,0,3.312-6.45v.772a4.778,4.778,0,0,0,.722,2.872,2.473,2.473,0,0,0,2.117.971,2.762,2.762,0,0,0,2-.6V-4.516H5.885V-6.35h4.756ZM19.93-5.254H15.149V-2H20.76V0h-8.1V-12.086h8.085v2.017H15.149v2.88H19.93Zm8.558,2.083a1.278,1.278,0,0,0-.5-1.083,6.533,6.533,0,0,0-1.793-.8,12.71,12.71,0,0,1-2.05-.826,3.35,3.35,0,0,1-2.059-3,2.919,2.919,0,0,1,.552-1.747,3.6,3.6,0,0,1,1.585-1.2,5.967,5.967,0,0,1,2.32-.432,5.432,5.432,0,0,1,2.308.469,3.674,3.674,0,0,1,1.573,1.324,3.464,3.464,0,0,1,.56,1.942H28.5a1.63,1.63,0,0,0-.523-1.291,2.15,2.15,0,0,0-1.469-.461,2.3,2.3,0,0,0-1.419.386,1.217,1.217,0,0,0-.506,1.017,1.166,1.166,0,0,0,.594.988,6.705,6.705,0,0,0,1.747.747,7.55,7.55,0,0,1,3.1,1.585,3.157,3.157,0,0,1,.971,2.357A2.909,2.909,0,0,1,29.8-.726a5.2,5.2,0,0,1-3.2.892,6.171,6.171,0,0,1-2.54-.51,4.019,4.019,0,0,1-1.747-1.4,3.582,3.582,0,0,1-.6-2.059h2.5q0,2,2.391,2a2.326,2.326,0,0,0,1.386-.361A1.175,1.175,0,0,0,28.488-3.171Zm13.281-6.9h-3.7V0h-2.49V-10.069H31.925v-2.017H41.77ZM45.837,0h-2.49V-12.086h2.49ZM58.072-5.769a7.3,7.3,0,0,1-.631,3.129A4.751,4.751,0,0,1,55.636-.564a4.994,4.994,0,0,1-2.694.73,5.028,5.028,0,0,1-2.681-.722,4.8,4.8,0,0,1-1.826-2.063A7.087,7.087,0,0,1,47.779-5.7v-.6a7.258,7.258,0,0,1,.643-3.142,4.79,4.79,0,0,1,1.818-2.083,5,5,0,0,1,2.685-.726,5,5,0,0,1,2.685.726,4.79,4.79,0,0,1,1.818,2.083,7.237,7.237,0,0,1,.643,3.134Zm-2.523-.548a5.086,5.086,0,0,0-.681-2.889,2.218,2.218,0,0,0-1.942-.988,2.219,2.219,0,0,0-1.934.975,5.028,5.028,0,0,0-.689,2.86v.589A5.15,5.15,0,0,0,50.983-2.9a2.212,2.212,0,0,0,1.959,1.021,2.192,2.192,0,0,0,1.926-.984,5.12,5.12,0,0,0,.681-2.868ZM69.71,0H67.22L62.372-7.952V0h-2.49V-12.086h2.49l4.856,7.969v-7.969H69.71ZM80.625-4.208H75.952V-6.143h4.673ZM94.214-5.254H89.433V-2h5.611V0h-8.1V-12.086h8.085v2.017H89.433v2.88h4.781Zm5.545-6.832,3.1,8.766,3.088-8.766h3.271V0h-2.5V-3.3l.249-5.7L103.71,0H102L98.746-9,99-3.3V0H96.5V-12.086Zm14.128,7.828V0H111.4V-12.086h4.715a5.455,5.455,0,0,1,2.395.5,3.67,3.67,0,0,1,1.59,1.415,3.946,3.946,0,0,1,.556,2.088,3.47,3.47,0,0,1-1.216,2.8,5.065,5.065,0,0,1-3.366,1.025Zm0-2.017h2.225a2.187,2.187,0,0,0,1.507-.465,1.691,1.691,0,0,0,.519-1.328,1.994,1.994,0,0,0-.523-1.436,1.953,1.953,0,0,0-1.444-.564h-2.283ZM124.852-2h5.288V0h-7.778V-12.086h2.49Zm13.987-3.254h-4.781V-2h5.611V0h-8.1V-12.086h8.085v2.017h-5.595v2.88h4.781Zm9.114,2.764h-4.366L142.757,0h-2.648l4.5-12.086h2.308L151.439,0h-2.648Zm-3.694-2.017h3.021l-1.519-4.524ZM152.568,0V-12.086h3.719a5.647,5.647,0,0,1,2.851.718A5.007,5.007,0,0,1,161.1-9.326a6.3,6.3,0,0,1,.706,3.009v.556a6.316,6.316,0,0,1-.693,3A4.964,4.964,0,0,1,159.159-.73a5.69,5.69,0,0,1-2.847.73Zm2.49-10.069V-2h1.2a2.7,2.7,0,0,0,2.233-.955,4.314,4.314,0,0,0,.789-2.731v-.639a4.382,4.382,0,0,0-.764-2.793,2.7,2.7,0,0,0-2.233-.95Zm18.486,4.3a7.3,7.3,0,0,1-.631,3.129,4.751,4.751,0,0,1-1.805,2.075,4.994,4.994,0,0,1-2.694.73,5.028,5.028,0,0,1-2.681-.722,4.8,4.8,0,0,1-1.826-2.063,7.087,7.087,0,0,1-.656-3.084v-.6a7.258,7.258,0,0,1,.643-3.142,4.79,4.79,0,0,1,1.818-2.083,5,5,0,0,1,2.685-.726,5,5,0,0,1,2.685.726A4.79,4.79,0,0,1,172.9-9.442a7.237,7.237,0,0,1,.643,3.134Zm-2.523-.548a5.086,5.086,0,0,0-.681-2.889,2.218,2.218,0,0,0-1.942-.988,2.219,2.219,0,0,0-1.934.975,5.028,5.028,0,0,0-.689,2.86v.589a5.15,5.15,0,0,0,.681,2.872,2.212,2.212,0,0,0,1.959,1.021,2.192,2.192,0,0,0,1.926-.984,5.12,5.12,0,0,0,.681-2.868Zm10.6,3.146a1.278,1.278,0,0,0-.5-1.083,6.533,6.533,0,0,0-1.793-.8,12.71,12.71,0,0,1-2.05-.826,3.35,3.35,0,0,1-2.059-3,2.919,2.919,0,0,1,.552-1.747,3.6,3.6,0,0,1,1.585-1.2,5.967,5.967,0,0,1,2.32-.432,5.432,5.432,0,0,1,2.308.469,3.674,3.674,0,0,1,1.573,1.324,3.464,3.464,0,0,1,.56,1.942h-2.49a1.63,1.63,0,0,0-.523-1.291,2.15,2.15,0,0,0-1.469-.461,2.3,2.3,0,0,0-1.419.386,1.217,1.217,0,0,0-.506,1.017,1.166,1.166,0,0,0,.594.988,6.705,6.705,0,0,0,1.747.747,7.55,7.55,0,0,1,3.1,1.585,3.157,3.157,0,0,1,.971,2.357,2.909,2.909,0,0,1-1.187,2.461,5.2,5.2,0,0,1-3.2.892,6.171,6.171,0,0,1-2.54-.51,4.019,4.019,0,0,1-1.747-1.4,3.582,3.582,0,0,1-.6-2.059h2.5q0,2,2.391,2a2.326,2.326,0,0,0,1.386-.361A1.175,1.175,0,0,0,181.621-3.171Z" transform="translate(-9326 -9343)" fill="#fff"/>
    <path id="Trazado_659062" data-name="Trazado 659062" d="M8.766-4.391a5.34,5.34,0,0,1-.946,3.308A3.024,3.024,0,0,1,5.279.166a3.131,3.131,0,0,1-2.631-1.2L2.573,0H1.162V-12.75H2.7v4.756A3.113,3.113,0,0,1,5.263-9.147,3.042,3.042,0,0,1,7.832-7.911a5.5,5.5,0,0,1,.934,3.387ZM7.23-4.565a4.15,4.15,0,0,0-.606-2.424,2.006,2.006,0,0,0-1.743-.855A2.255,2.255,0,0,0,2.7-6.433v3.885A2.318,2.318,0,0,0,4.9-1.137a2,2,0,0,0,1.718-.855A4.413,4.413,0,0,0,7.23-4.565ZM16.245,0a3.226,3.226,0,0,1-.216-.946A3.426,3.426,0,0,1,13.472.166a3.17,3.17,0,0,1-2.179-.751,2.43,2.43,0,0,1-.851-1.905,2.539,2.539,0,0,1,1.067-2.179,5.029,5.029,0,0,1,3-.776H16v-.706a1.725,1.725,0,0,0-.481-1.282A1.935,1.935,0,0,0,14.1-7.911a2.239,2.239,0,0,0-1.378.415,1.223,1.223,0,0,0-.556,1H10.625a2.119,2.119,0,0,1,.477-1.3A3.258,3.258,0,0,1,12.4-8.782a4.356,4.356,0,0,1,1.8-.365,3.551,3.551,0,0,1,2.432.776,2.8,2.8,0,0,1,.913,2.137V-2.1a5.054,5.054,0,0,0,.315,1.967V0ZM13.7-1.17a2.7,2.7,0,0,0,1.37-.374A2.259,2.259,0,0,0,16-2.515V-4.358H14.8q-2.822,0-2.822,1.652a1.4,1.4,0,0,0,.481,1.129A1.85,1.85,0,0,0,13.7-1.17Zm9.853.083a2.212,2.212,0,0,0,1.436-.5,1.752,1.752,0,0,0,.681-1.245h1.453a2.785,2.785,0,0,1-.531,1.469A3.5,3.5,0,0,1,25.28-.249a3.772,3.772,0,0,1-1.731.415,3.7,3.7,0,0,1-2.918-1.224,4.877,4.877,0,0,1-1.083-3.349v-.257A5.407,5.407,0,0,1,20.03-7a3.667,3.667,0,0,1,1.382-1.585,3.926,3.926,0,0,1,2.129-.564,3.6,3.6,0,0,1,2.511.9,3.234,3.234,0,0,1,1.067,2.349H25.666a2.116,2.116,0,0,0-.66-1.432,2.053,2.053,0,0,0-1.465-.56,2.149,2.149,0,0,0-1.814.843,3.957,3.957,0,0,0-.643,2.436v.291a3.878,3.878,0,0,0,.639,2.391A2.16,2.16,0,0,0,23.549-1.087Zm7.8-3.071-.963,1V0H28.854V-12.75h1.536v7.711l.822-.988,2.8-2.955h1.868L32.381-5.229,36.283,0h-1.8ZM41.022.166a3.924,3.924,0,0,1-2.972-1.2,4.452,4.452,0,0,1-1.146-3.208v-.282a5.39,5.39,0,0,1,.51-2.386,3.982,3.982,0,0,1,1.428-1.644,3.59,3.59,0,0,1,1.988-.594,3.364,3.364,0,0,1,2.723,1.154,5,5,0,0,1,.971,3.3v.639H38.441a3.193,3.193,0,0,0,.776,2.146,2.44,2.44,0,0,0,1.888.818,2.675,2.675,0,0,0,1.378-.332,3.462,3.462,0,0,0,.988-.88l.938.73A3.772,3.772,0,0,1,41.022.166Zm-.191-8.052a2.048,2.048,0,0,0-1.561.677,3.288,3.288,0,0,0-.78,1.9h4.5v-.116a2.925,2.925,0,0,0-.631-1.814A1.928,1.928,0,0,0,40.832-7.886Zm6.923-1.1.05,1.129a3.273,3.273,0,0,1,2.689-1.295q2.847,0,2.872,3.212V0H51.83V-5.943a2.068,2.068,0,0,0-.444-1.436,1.78,1.78,0,0,0-1.357-.465,2.216,2.216,0,0,0-1.312.4,2.706,2.706,0,0,0-.88,1.046V0H46.3V-8.981Zm7.554,4.416a5.261,5.261,0,0,1,.979-3.324,3.1,3.1,0,0,1,2.565-1.258,3.115,3.115,0,0,1,2.5,1.079V-12.75h1.536V0H61.476L61.4-.963A3.127,3.127,0,0,1,58.836.166a3.068,3.068,0,0,1-2.544-1.278,5.321,5.321,0,0,1-.984-3.337Zm1.536.174A3.984,3.984,0,0,0,57.475-2a2.039,2.039,0,0,0,1.743.863,2.24,2.24,0,0,0,2.133-1.312V-6.574a2.257,2.257,0,0,0-2.117-1.27,2.049,2.049,0,0,0-1.76.872A4.386,4.386,0,0,0,56.844-4.391Z" transform="translate(-9302 -9316)" fill="#fff"/>
    <path id="Trazado_659063" data-name="Trazado 659063" d="M8.749-4.391a5.378,5.378,0,0,1-.938,3.3A3.006,3.006,0,0,1,5.271.166,3.294,3.294,0,0,1,2.7-.872V3.453H1.162V-8.981h1.4l.075,1A3.163,3.163,0,0,1,5.246-9.147a3.063,3.063,0,0,1,2.561,1.22,5.437,5.437,0,0,1,.942,3.4ZM7.213-4.565a3.968,3.968,0,0,0-.647-2.4,2.086,2.086,0,0,0-1.776-.88A2.257,2.257,0,0,0,2.7-6.607v4.292A2.262,2.262,0,0,0,4.806-1.087a2.076,2.076,0,0,0,1.756-.876A4.332,4.332,0,0,0,7.213-4.565ZM16.245,0a3.226,3.226,0,0,1-.216-.946A3.426,3.426,0,0,1,13.472.166a3.17,3.17,0,0,1-2.179-.751,2.43,2.43,0,0,1-.851-1.905,2.539,2.539,0,0,1,1.067-2.179,5.029,5.029,0,0,1,3-.776H16v-.706a1.725,1.725,0,0,0-.481-1.282A1.935,1.935,0,0,0,14.1-7.911a2.239,2.239,0,0,0-1.378.415,1.223,1.223,0,0,0-.556,1H10.625a2.119,2.119,0,0,1,.477-1.3A3.258,3.258,0,0,1,12.4-8.782a4.356,4.356,0,0,1,1.8-.365,3.551,3.551,0,0,1,2.432.776,2.8,2.8,0,0,1,.913,2.137V-2.1a5.054,5.054,0,0,0,.315,1.967V0ZM13.7-1.17a2.7,2.7,0,0,0,1.37-.374A2.259,2.259,0,0,0,16-2.515V-4.358H14.8q-2.822,0-2.822,1.652a1.4,1.4,0,0,0,.481,1.129A1.85,1.85,0,0,0,13.7-1.17Zm9.853.083a2.212,2.212,0,0,0,1.436-.5,1.752,1.752,0,0,0,.681-1.245h1.453a2.785,2.785,0,0,1-.531,1.469A3.5,3.5,0,0,1,25.28-.249a3.772,3.772,0,0,1-1.731.415,3.7,3.7,0,0,1-2.918-1.224,4.877,4.877,0,0,1-1.083-3.349v-.257A5.407,5.407,0,0,1,20.03-7a3.667,3.667,0,0,1,1.382-1.585,3.926,3.926,0,0,1,2.129-.564,3.6,3.6,0,0,1,2.511.9,3.234,3.234,0,0,1,1.067,2.349H25.666a2.116,2.116,0,0,0-.66-1.432,2.053,2.053,0,0,0-1.465-.56,2.149,2.149,0,0,0-1.814.843,3.957,3.957,0,0,0-.643,2.436v.291a3.878,3.878,0,0,0,.639,2.391A2.16,2.16,0,0,0,23.549-1.087Zm7.8-3.071-.963,1V0H28.854V-12.75h1.536v7.711l.822-.988,2.8-2.955h1.868L32.381-5.229,36.283,0h-1.8ZM43.006,0a3.226,3.226,0,0,1-.216-.946A3.426,3.426,0,0,1,40.234.166a3.17,3.17,0,0,1-2.179-.751A2.43,2.43,0,0,1,37.2-2.49a2.539,2.539,0,0,1,1.067-2.179,5.029,5.029,0,0,1,3-.776h1.494v-.706a1.725,1.725,0,0,0-.481-1.282,1.935,1.935,0,0,0-1.419-.477,2.239,2.239,0,0,0-1.378.415,1.223,1.223,0,0,0-.556,1H37.387a2.119,2.119,0,0,1,.477-1.3,3.258,3.258,0,0,1,1.295-.992,4.356,4.356,0,0,1,1.8-.365,3.551,3.551,0,0,1,2.432.776A2.8,2.8,0,0,1,44.3-6.234V-2.1a5.054,5.054,0,0,0,.315,1.967V0ZM40.458-1.17a2.7,2.7,0,0,0,1.37-.374,2.259,2.259,0,0,0,.938-.971V-4.358h-1.2q-2.822,0-2.822,1.652a1.4,1.4,0,0,0,.481,1.129A1.85,1.85,0,0,0,40.458-1.17Zm5.885-3.4a5.279,5.279,0,0,1,.971-3.341,3.106,3.106,0,0,1,2.573-1.241,3.09,3.09,0,0,1,2.565,1.162l.075-1h1.4V-.216A3.654,3.654,0,0,1,52.9,2.532a3.814,3.814,0,0,1-2.777,1,4.619,4.619,0,0,1-1.9-.415A3.272,3.272,0,0,1,46.8,1.984l.8-.921a3,3,0,0,0,2.416,1.22,2.353,2.353,0,0,0,1.747-.631,2.411,2.411,0,0,0,.627-1.776V-.9A3.156,3.156,0,0,1,49.871.166,3.068,3.068,0,0,1,47.319-1.1,5.55,5.55,0,0,1,46.343-4.565Zm1.544.174A4.027,4.027,0,0,0,48.51-2a2.023,2.023,0,0,0,1.743.867,2.249,2.249,0,0,0,2.133-1.32v-4.1A2.276,2.276,0,0,0,50.27-7.844a2.041,2.041,0,0,0-1.751.872A4.386,4.386,0,0,0,47.887-4.391ZM59.973.166A3.924,3.924,0,0,1,57-1.033a4.452,4.452,0,0,1-1.146-3.208v-.282a5.39,5.39,0,0,1,.51-2.386,3.982,3.982,0,0,1,1.428-1.644,3.59,3.59,0,0,1,1.988-.594A3.364,3.364,0,0,1,62.5-7.994a5,5,0,0,1,.971,3.3v.639H57.392a3.193,3.193,0,0,0,.776,2.146,2.44,2.44,0,0,0,1.888.818,2.675,2.675,0,0,0,1.378-.332,3.462,3.462,0,0,0,.988-.88l.938.73A3.772,3.772,0,0,1,59.973.166Zm-.191-8.052a2.048,2.048,0,0,0-1.561.677,3.288,3.288,0,0,0-.78,1.9h4.5v-.116a2.925,2.925,0,0,0-.631-1.814A1.928,1.928,0,0,0,59.782-7.886Zm5.5,7.081a.962.962,0,0,1,.237-.664.9.9,0,0,1,.71-.266.928.928,0,0,1,.718.266.942.942,0,0,1,.245.664.891.891,0,0,1-.245.639.945.945,0,0,1-.718.257.917.917,0,0,1-.71-.257A.909.909,0,0,1,65.286-.805Zm6.026-8.176V1.038q0,2.59-2.349,2.59a2.865,2.865,0,0,1-.938-.149V2.258a2.969,2.969,0,0,0,.7.066,1.043,1.043,0,0,0,.784-.278,1.376,1.376,0,0,0,.27-.968V-8.981Zm-1.693-2.382a.921.921,0,0,1,.228-.627.839.839,0,0,1,.668-.261.87.87,0,0,1,.681.257.907.907,0,0,1,.232.631.877.877,0,0,1-.232.623.886.886,0,0,1-.681.249.859.859,0,0,1-.672-.249A.9.9,0,0,1,69.619-11.364Zm9.4,8.981a1.131,1.131,0,0,0-.469-.967,4.514,4.514,0,0,0-1.635-.594,7.731,7.731,0,0,1-1.851-.6,2.633,2.633,0,0,1-1.013-.83,1.986,1.986,0,0,1-.328-1.146,2.33,2.33,0,0,1,.934-1.868,3.647,3.647,0,0,1,2.386-.764,3.753,3.753,0,0,1,2.478.789,2.5,2.5,0,0,1,.95,2.017H78.924a1.386,1.386,0,0,0-.535-1.087,2.006,2.006,0,0,0-1.349-.457,2.1,2.1,0,0,0-1.312.365,1.15,1.15,0,0,0-.473.955.932.932,0,0,0,.44.838,5.413,5.413,0,0,0,1.59.54,8.283,8.283,0,0,1,1.864.614,2.718,2.718,0,0,1,1.058.859,2.112,2.112,0,0,1,.344,1.224,2.3,2.3,0,0,1-.963,1.93,4.039,4.039,0,0,1-2.5.726A4.523,4.523,0,0,1,75.18-.216a3.105,3.105,0,0,1-1.3-1.067,2.571,2.571,0,0,1-.469-1.482h1.536a1.59,1.59,0,0,0,.618,1.224,2.4,2.4,0,0,0,1.523.452,2.476,2.476,0,0,0,1.4-.353A1.084,1.084,0,0,0,79.015-2.382Zm3.129-2.191a5.3,5.3,0,0,1,.519-2.374,3.87,3.87,0,0,1,1.444-1.627,3.932,3.932,0,0,1,2.113-.573,3.788,3.788,0,0,1,2.968,1.27A4.886,4.886,0,0,1,90.321-4.5v.108a5.351,5.351,0,0,1-.5,2.353A3.813,3.813,0,0,1,88.383-.415a3.977,3.977,0,0,1-2.146.581A3.778,3.778,0,0,1,83.278-1.1a4.861,4.861,0,0,1-1.133-3.362Zm1.544.183a3.842,3.842,0,0,0,.693,2.4,2.218,2.218,0,0,0,1.855.9A2.2,2.2,0,0,0,88.1-2a4.2,4.2,0,0,0,.689-2.569,3.836,3.836,0,0,0-.7-2.395,2.23,2.23,0,0,0-1.864-.917,2.205,2.205,0,0,0-1.834.9A4.17,4.17,0,0,0,83.688-4.391ZM93.7-8.981l.05,1.129a3.273,3.273,0,0,1,2.689-1.295q2.847,0,2.872,3.212V0H97.775V-5.943a2.068,2.068,0,0,0-.444-1.436,1.78,1.78,0,0,0-1.357-.465,2.216,2.216,0,0,0-1.312.4,2.706,2.706,0,0,0-.88,1.046V0H92.247V-8.981Z" transform="translate(-9302 -9143)" fill="#fff"/>
    <path id="Trazado_659064" data-name="Trazado 659064" d="M8.749-4.391a5.378,5.378,0,0,1-.938,3.3A3.006,3.006,0,0,1,5.271.166,3.294,3.294,0,0,1,2.7-.872V3.453H1.162V-8.981h1.4l.075,1A3.163,3.163,0,0,1,5.246-9.147a3.063,3.063,0,0,1,2.561,1.22,5.437,5.437,0,0,1,.942,3.4ZM7.213-4.565a3.968,3.968,0,0,0-.647-2.4,2.086,2.086,0,0,0-1.776-.88A2.257,2.257,0,0,0,2.7-6.607v4.292A2.262,2.262,0,0,0,4.806-1.087a2.076,2.076,0,0,0,1.756-.876A4.332,4.332,0,0,0,7.213-4.565ZM16.245,0a3.226,3.226,0,0,1-.216-.946A3.426,3.426,0,0,1,13.472.166a3.17,3.17,0,0,1-2.179-.751,2.43,2.43,0,0,1-.851-1.905,2.539,2.539,0,0,1,1.067-2.179,5.029,5.029,0,0,1,3-.776H16v-.706a1.725,1.725,0,0,0-.481-1.282A1.935,1.935,0,0,0,14.1-7.911a2.239,2.239,0,0,0-1.378.415,1.223,1.223,0,0,0-.556,1H10.625a2.119,2.119,0,0,1,.477-1.3A3.258,3.258,0,0,1,12.4-8.782a4.356,4.356,0,0,1,1.8-.365,3.551,3.551,0,0,1,2.432.776,2.8,2.8,0,0,1,.913,2.137V-2.1a5.054,5.054,0,0,0,.315,1.967V0ZM13.7-1.17a2.7,2.7,0,0,0,1.37-.374A2.259,2.259,0,0,0,16-2.515V-4.358H14.8q-2.822,0-2.822,1.652a1.4,1.4,0,0,0,.481,1.129A1.85,1.85,0,0,0,13.7-1.17Zm9.853.083a2.212,2.212,0,0,0,1.436-.5,1.752,1.752,0,0,0,.681-1.245h1.453a2.785,2.785,0,0,1-.531,1.469A3.5,3.5,0,0,1,25.28-.249a3.772,3.772,0,0,1-1.731.415,3.7,3.7,0,0,1-2.918-1.224,4.877,4.877,0,0,1-1.083-3.349v-.257A5.407,5.407,0,0,1,20.03-7a3.667,3.667,0,0,1,1.382-1.585,3.926,3.926,0,0,1,2.129-.564,3.6,3.6,0,0,1,2.511.9,3.234,3.234,0,0,1,1.067,2.349H25.666a2.116,2.116,0,0,0-.66-1.432,2.053,2.053,0,0,0-1.465-.56,2.149,2.149,0,0,0-1.814.843,3.957,3.957,0,0,0-.643,2.436v.291a3.878,3.878,0,0,0,.639,2.391A2.16,2.16,0,0,0,23.549-1.087Zm7.8-3.071-.963,1V0H28.854V-12.75h1.536v7.711l.822-.988,2.8-2.955h1.868L32.381-5.229,36.283,0h-1.8ZM43.006,0a3.226,3.226,0,0,1-.216-.946A3.426,3.426,0,0,1,40.234.166a3.17,3.17,0,0,1-2.179-.751A2.43,2.43,0,0,1,37.2-2.49a2.539,2.539,0,0,1,1.067-2.179,5.029,5.029,0,0,1,3-.776h1.494v-.706a1.725,1.725,0,0,0-.481-1.282,1.935,1.935,0,0,0-1.419-.477,2.239,2.239,0,0,0-1.378.415,1.223,1.223,0,0,0-.556,1H37.387a2.119,2.119,0,0,1,.477-1.3,3.258,3.258,0,0,1,1.295-.992,4.356,4.356,0,0,1,1.8-.365,3.551,3.551,0,0,1,2.432.776A2.8,2.8,0,0,1,44.3-6.234V-2.1a5.054,5.054,0,0,0,.315,1.967V0ZM40.458-1.17a2.7,2.7,0,0,0,1.37-.374,2.259,2.259,0,0,0,.938-.971V-4.358h-1.2q-2.822,0-2.822,1.652a1.4,1.4,0,0,0,.481,1.129A1.85,1.85,0,0,0,40.458-1.17Zm5.885-3.4a5.279,5.279,0,0,1,.971-3.341,3.106,3.106,0,0,1,2.573-1.241,3.09,3.09,0,0,1,2.565,1.162l.075-1h1.4V-.216A3.654,3.654,0,0,1,52.9,2.532a3.814,3.814,0,0,1-2.777,1,4.619,4.619,0,0,1-1.9-.415A3.272,3.272,0,0,1,46.8,1.984l.8-.921a3,3,0,0,0,2.416,1.22,2.353,2.353,0,0,0,1.747-.631,2.411,2.411,0,0,0,.627-1.776V-.9A3.156,3.156,0,0,1,49.871.166,3.068,3.068,0,0,1,47.319-1.1,5.55,5.55,0,0,1,46.343-4.565Zm1.544.174A4.027,4.027,0,0,0,48.51-2a2.023,2.023,0,0,0,1.743.867,2.249,2.249,0,0,0,2.133-1.32v-4.1A2.276,2.276,0,0,0,50.27-7.844a2.041,2.041,0,0,0-1.751.872A4.386,4.386,0,0,0,47.887-4.391ZM59.973.166A3.924,3.924,0,0,1,57-1.033a4.452,4.452,0,0,1-1.146-3.208v-.282a5.39,5.39,0,0,1,.51-2.386,3.982,3.982,0,0,1,1.428-1.644,3.59,3.59,0,0,1,1.988-.594A3.364,3.364,0,0,1,62.5-7.994a5,5,0,0,1,.971,3.3v.639H57.392a3.193,3.193,0,0,0,.776,2.146,2.44,2.44,0,0,0,1.888.818,2.675,2.675,0,0,0,1.378-.332,3.462,3.462,0,0,0,.988-.88l.938.73A3.772,3.772,0,0,1,59.973.166Zm-.191-8.052a2.048,2.048,0,0,0-1.561.677,3.288,3.288,0,0,0-.78,1.9h4.5v-.116a2.925,2.925,0,0,0-.631-1.814A1.928,1.928,0,0,0,59.782-7.886Zm8.666,3.378H64.4V-5.761h4.051ZM71.611,0H70.075V-12.75h1.536Zm2.05-4.574a5.3,5.3,0,0,1,.519-2.374,3.87,3.87,0,0,1,1.444-1.627,3.932,3.932,0,0,1,2.113-.573A3.788,3.788,0,0,1,80.7-7.877,4.886,4.886,0,0,1,81.837-4.5v.108a5.351,5.351,0,0,1-.5,2.353A3.813,3.813,0,0,1,79.9-.415a3.977,3.977,0,0,1-2.146.581A3.778,3.778,0,0,1,74.794-1.1a4.861,4.861,0,0,1-1.133-3.362Zm1.544.183a3.842,3.842,0,0,0,.693,2.4,2.218,2.218,0,0,0,1.855.9A2.2,2.2,0,0,0,79.613-2,4.2,4.2,0,0,0,80.3-4.574a3.836,3.836,0,0,0-.7-2.395,2.23,2.23,0,0,0-1.864-.917,2.205,2.205,0,0,0-1.834.9A4.17,4.17,0,0,0,75.205-4.391Zm12.161,3.3a2.212,2.212,0,0,0,1.436-.5,1.752,1.752,0,0,0,.681-1.245h1.453A2.785,2.785,0,0,1,90.4-1.361,3.5,3.5,0,0,1,89.1-.249a3.772,3.772,0,0,1-1.731.415,3.7,3.7,0,0,1-2.918-1.224,4.877,4.877,0,0,1-1.083-3.349v-.257A5.407,5.407,0,0,1,83.846-7a3.667,3.667,0,0,1,1.382-1.585,3.926,3.926,0,0,1,2.129-.564,3.6,3.6,0,0,1,2.511.9,3.234,3.234,0,0,1,1.067,2.349H89.482a2.116,2.116,0,0,0-.66-1.432,2.053,2.053,0,0,0-1.465-.56,2.149,2.149,0,0,0-1.814.843A3.957,3.957,0,0,0,84.9-4.607v.291a3.878,3.878,0,0,0,.639,2.391A2.16,2.16,0,0,0,87.366-1.087Zm7.8-3.071-.963,1V0H92.67V-12.75h1.536v7.711l.822-.988,2.8-2.955h1.868L96.2-5.229,100.1,0H98.3Zm6.143,3.354a.962.962,0,0,1,.237-.664.9.9,0,0,1,.71-.266.928.928,0,0,1,.718.266.942.942,0,0,1,.245.664.891.891,0,0,1-.245.639.945.945,0,0,1-.718.257.917.917,0,0,1-.71-.257A.909.909,0,0,1,101.311-.805Zm6.026-8.176V1.038q0,2.59-2.349,2.59a2.865,2.865,0,0,1-.938-.149V2.258a2.969,2.969,0,0,0,.7.066,1.043,1.043,0,0,0,.784-.278,1.376,1.376,0,0,0,.27-.968V-8.981Zm-1.693-2.382a.921.921,0,0,1,.228-.627.839.839,0,0,1,.668-.261.87.87,0,0,1,.681.257.907.907,0,0,1,.232.631.877.877,0,0,1-.232.623.886.886,0,0,1-.681.249.859.859,0,0,1-.672-.249A.9.9,0,0,1,105.644-11.364Zm9.4,8.981a1.131,1.131,0,0,0-.469-.967,4.514,4.514,0,0,0-1.635-.594,7.731,7.731,0,0,1-1.851-.6,2.633,2.633,0,0,1-1.013-.83,1.986,1.986,0,0,1-.328-1.146,2.33,2.33,0,0,1,.934-1.868,3.647,3.647,0,0,1,2.386-.764,3.753,3.753,0,0,1,2.478.789,2.5,2.5,0,0,1,.95,2.017h-1.544a1.386,1.386,0,0,0-.535-1.087,2.006,2.006,0,0,0-1.349-.457,2.1,2.1,0,0,0-1.312.365,1.15,1.15,0,0,0-.473.955.932.932,0,0,0,.44.838,5.413,5.413,0,0,0,1.59.54,8.283,8.283,0,0,1,1.864.614,2.718,2.718,0,0,1,1.058.859,2.112,2.112,0,0,1,.344,1.224,2.3,2.3,0,0,1-.963,1.93,4.039,4.039,0,0,1-2.5.726,4.523,4.523,0,0,1-1.909-.382,3.105,3.105,0,0,1-1.3-1.067,2.571,2.571,0,0,1-.469-1.482h1.536a1.59,1.59,0,0,0,.618,1.224,2.4,2.4,0,0,0,1.523.452,2.476,2.476,0,0,0,1.4-.353A1.084,1.084,0,0,0,115.041-2.382Zm3.129-2.191a5.3,5.3,0,0,1,.519-2.374,3.87,3.87,0,0,1,1.444-1.627,3.932,3.932,0,0,1,2.113-.573,3.788,3.788,0,0,1,2.968,1.27A4.886,4.886,0,0,1,126.346-4.5v.108a5.351,5.351,0,0,1-.5,2.353,3.813,3.813,0,0,1-1.436,1.623,3.977,3.977,0,0,1-2.146.581A3.778,3.778,0,0,1,119.3-1.1a4.861,4.861,0,0,1-1.133-3.362Zm1.544.183a3.842,3.842,0,0,0,.693,2.4,2.218,2.218,0,0,0,1.855.9A2.2,2.2,0,0,0,124.122-2a4.2,4.2,0,0,0,.689-2.569,3.836,3.836,0,0,0-.7-2.395,2.23,2.23,0,0,0-1.864-.917,2.205,2.205,0,0,0-1.834.9A4.17,4.17,0,0,0,119.714-4.391Zm10.011-4.59.05,1.129a3.273,3.273,0,0,1,2.689-1.295q2.847,0,2.872,3.212V0H133.8V-5.943a2.068,2.068,0,0,0-.444-1.436A1.78,1.78,0,0,0,132-7.844a2.216,2.216,0,0,0-1.312.4,2.706,2.706,0,0,0-.88,1.046V0h-1.536V-8.981Z" transform="translate(-9302 -9169)" fill="#fff"/>
    <path id="Trazado_659065" data-name="Trazado 659065" d="M9.455,3.038A4.125,4.125,0,0,1,7.242,1.673,3.964,3.964,0,0,1,6.5-.838V-2.49q0-2.017-1.76-2.017v-1.2q1.76,0,1.76-2.009V-9.446A3.958,3.958,0,0,1,7.242-11.9a4.13,4.13,0,0,1,2.212-1.357l.315.955q-1.735.556-1.735,2.9v1.677A2.712,2.712,0,0,1,6.649-5.1,2.745,2.745,0,0,1,8.035-2.457v1.71Q8.06,1.536,9.77,2.083Zm4.873-.955A2.606,2.606,0,0,0,16.07-.664V-2.49a2.614,2.614,0,0,1,1.5-2.615,2.594,2.594,0,0,1-1.5-2.615V-9.4q0-2.341-1.735-2.9l.315-.955a4.15,4.15,0,0,1,2.208,1.349,3.9,3.9,0,0,1,.747,2.469v1.743q0,1.984,1.76,1.984v1.2q-1.76,0-1.76,2.017V-.813a3.881,3.881,0,0,1-.751,2.5,4.2,4.2,0,0,1-2.2,1.353Z" transform="translate(-9332 -9169)" fill="#ffbe68"/>
    <path id="Trazado_659066" data-name="Trazado 659066" d="M9.455,3.038A4.125,4.125,0,0,1,7.242,1.673,3.964,3.964,0,0,1,6.5-.838V-2.49q0-2.017-1.76-2.017v-1.2q1.76,0,1.76-2.009V-9.446A3.958,3.958,0,0,1,7.242-11.9a4.13,4.13,0,0,1,2.212-1.357l.315.955q-1.735.556-1.735,2.9v1.677A2.712,2.712,0,0,1,6.649-5.1,2.745,2.745,0,0,1,8.035-2.457v1.71Q8.06,1.536,9.77,2.083Zm4.873-.955A2.606,2.606,0,0,0,16.07-.664V-2.49a2.614,2.614,0,0,1,1.5-2.615,2.594,2.594,0,0,1-1.5-2.615V-9.4q0-2.341-1.735-2.9l.315-.955a4.15,4.15,0,0,1,2.208,1.349,3.9,3.9,0,0,1,.747,2.469v1.743q0,1.984,1.76,1.984v1.2q-1.76,0-1.76,2.017V-.813a3.881,3.881,0,0,1-.751,2.5,4.2,4.2,0,0,1-2.2,1.353Z" transform="translate(-9332 -9142)" fill="#ffbe68"/>
    <path id="Trazado_659067" data-name="Trazado 659067" d="M4.765-1.087a2.212,2.212,0,0,0,1.436-.5,1.752,1.752,0,0,0,.681-1.245H8.334A2.785,2.785,0,0,1,7.8-1.361,3.5,3.5,0,0,1,6.5-.249,3.772,3.772,0,0,1,4.765.166,3.7,3.7,0,0,1,1.847-1.058,4.877,4.877,0,0,1,.764-4.408v-.257A5.407,5.407,0,0,1,1.245-7,3.667,3.667,0,0,1,2.627-8.583a3.926,3.926,0,0,1,2.129-.564,3.6,3.6,0,0,1,2.511.9A3.234,3.234,0,0,1,8.334-5.894H6.881a2.116,2.116,0,0,0-.66-1.432,2.053,2.053,0,0,0-1.465-.56,2.149,2.149,0,0,0-1.814.843A3.957,3.957,0,0,0,2.3-4.607v.291a3.878,3.878,0,0,0,.639,2.391A2.16,2.16,0,0,0,4.765-1.087ZM9.654-4.574a5.3,5.3,0,0,1,.519-2.374,3.87,3.87,0,0,1,1.444-1.627,3.932,3.932,0,0,1,2.113-.573A3.788,3.788,0,0,1,16.7-7.877,4.886,4.886,0,0,1,17.83-4.5v.108a5.351,5.351,0,0,1-.5,2.353A3.813,3.813,0,0,1,15.892-.415a3.977,3.977,0,0,1-2.146.581A3.778,3.778,0,0,1,10.787-1.1,4.861,4.861,0,0,1,9.654-4.466Zm1.544.183a3.842,3.842,0,0,0,.693,2.4,2.218,2.218,0,0,0,1.855.9A2.2,2.2,0,0,0,15.605-2a4.2,4.2,0,0,0,.689-2.569,3.836,3.836,0,0,0-.7-2.395,2.23,2.23,0,0,0-1.864-.917,2.205,2.205,0,0,0-1.834.9A4.17,4.17,0,0,0,11.2-4.391Zm10.011-4.59.05,1.129a3.273,3.273,0,0,1,2.689-1.295q2.847,0,2.872,3.212V0H25.284V-5.943a2.068,2.068,0,0,0-.444-1.436,1.78,1.78,0,0,0-1.357-.465,2.216,2.216,0,0,0-1.312.4,2.706,2.706,0,0,0-.88,1.046V0H19.756V-8.981Zm10.011-2.175v2.175H32.9v1.187H31.219v5.577a1.247,1.247,0,0,0,.224.81.943.943,0,0,0,.764.27,3.718,3.718,0,0,0,.73-.1V0a4.478,4.478,0,0,1-1.179.165,1.912,1.912,0,0,1-1.552-.623,2.675,2.675,0,0,1-.523-1.768v-5.57H28.048V-8.981h1.635v-2.175ZM39.03-7.6a4.6,4.6,0,0,0-.755-.058,2.024,2.024,0,0,0-2.05,1.287V0H34.689V-8.981h1.494l.025,1.038a2.391,2.391,0,0,1,2.142-1.2,1.569,1.569,0,0,1,.681.116Zm.838,3.03a5.3,5.3,0,0,1,.519-2.374,3.87,3.87,0,0,1,1.444-1.627,3.932,3.932,0,0,1,2.113-.573,3.788,3.788,0,0,1,2.968,1.27A4.886,4.886,0,0,1,48.045-4.5v.108a5.351,5.351,0,0,1-.5,2.353A3.813,3.813,0,0,1,46.107-.415a3.977,3.977,0,0,1-2.146.581A3.778,3.778,0,0,1,41-1.1a4.861,4.861,0,0,1-1.133-3.362Zm1.544.183a3.842,3.842,0,0,0,.693,2.4,2.218,2.218,0,0,0,1.855.9A2.2,2.2,0,0,0,45.82-2a4.2,4.2,0,0,0,.689-2.569,3.836,3.836,0,0,0-.7-2.395,2.23,2.23,0,0,0-1.864-.917,2.205,2.205,0,0,0-1.834.9A4.17,4.17,0,0,0,41.413-4.391ZM51.639,0H50.1V-12.75h1.536Zm4.125,0H54.229V-12.75h1.536Zm6.184.166a3.924,3.924,0,0,1-2.972-1.2,4.452,4.452,0,0,1-1.146-3.208v-.282a5.39,5.39,0,0,1,.51-2.386A3.982,3.982,0,0,1,59.77-8.554a3.59,3.59,0,0,1,1.988-.594A3.364,3.364,0,0,1,64.48-7.994a5,5,0,0,1,.971,3.3v.639H59.367a3.193,3.193,0,0,0,.776,2.146,2.44,2.44,0,0,0,1.888.818,2.675,2.675,0,0,0,1.378-.332A3.462,3.462,0,0,0,64.4-2.3l.938.73A3.772,3.772,0,0,1,61.949.166Zm-.191-8.052a2.048,2.048,0,0,0-1.561.677,3.288,3.288,0,0,0-.78,1.9h4.5v-.116a2.925,2.925,0,0,0-.631-1.814A1.928,1.928,0,0,0,61.758-7.886Zm9.812.282a4.6,4.6,0,0,0-.755-.058,2.024,2.024,0,0,0-2.05,1.287V0H67.228V-8.981h1.494l.025,1.038a2.391,2.391,0,0,1,2.142-1.2,1.569,1.569,0,0,1,.681.116ZM78.21-2.382a1.131,1.131,0,0,0-.469-.967,4.514,4.514,0,0,0-1.635-.594,7.731,7.731,0,0,1-1.851-.6,2.633,2.633,0,0,1-1.013-.83,1.986,1.986,0,0,1-.328-1.146,2.33,2.33,0,0,1,.934-1.868,3.647,3.647,0,0,1,2.386-.764,3.753,3.753,0,0,1,2.478.789,2.5,2.5,0,0,1,.95,2.017H78.119a1.386,1.386,0,0,0-.535-1.087,2.006,2.006,0,0,0-1.349-.457,2.1,2.1,0,0,0-1.312.365,1.15,1.15,0,0,0-.473.955.932.932,0,0,0,.44.838,5.413,5.413,0,0,0,1.59.54,8.283,8.283,0,0,1,1.864.614,2.718,2.718,0,0,1,1.058.859,2.112,2.112,0,0,1,.344,1.224,2.3,2.3,0,0,1-.963,1.93,4.039,4.039,0,0,1-2.5.726,4.523,4.523,0,0,1-1.909-.382,3.105,3.105,0,0,1-1.3-1.067,2.571,2.571,0,0,1-.469-1.482h1.536a1.59,1.59,0,0,0,.618,1.224,2.4,2.4,0,0,0,1.523.452,2.476,2.476,0,0,0,1.4-.353A1.084,1.084,0,0,0,78.21-2.382Z" transform="translate(-9283 -9289)" fill="#fff"/>
    <path id="Trazado_659068" data-name="Trazado 659068" d="M2.606-8.981l.042,1A3.317,3.317,0,0,1,5.313-9.147,2.568,2.568,0,0,1,7.877-7.7,3.4,3.4,0,0,1,9.044-8.749a3.445,3.445,0,0,1,1.7-.4q2.955,0,3,3.129V0H12.21V-5.927a2.062,2.062,0,0,0-.44-1.44,1.937,1.937,0,0,0-1.478-.477,2.036,2.036,0,0,0-1.419.51A2.071,2.071,0,0,0,8.218-5.96V0H6.674V-5.885A1.713,1.713,0,0,0,4.756-7.844,2.055,2.055,0,0,0,2.689-6.558V0H1.154V-8.981ZM15.655-4.574a5.3,5.3,0,0,1,.519-2.374,3.87,3.87,0,0,1,1.444-1.627,3.932,3.932,0,0,1,2.113-.573A3.788,3.788,0,0,1,22.7-7.877,4.886,4.886,0,0,1,23.832-4.5v.108a5.351,5.351,0,0,1-.5,2.353A3.813,3.813,0,0,1,21.893-.415a3.977,3.977,0,0,1-2.146.581A3.778,3.778,0,0,1,16.788-1.1a4.861,4.861,0,0,1-1.133-3.362Zm1.544.183a3.842,3.842,0,0,0,.693,2.4,2.218,2.218,0,0,0,1.855.9A2.2,2.2,0,0,0,21.607-2,4.2,4.2,0,0,0,22.3-4.574a3.836,3.836,0,0,0-.7-2.395,2.23,2.23,0,0,0-1.864-.917,2.205,2.205,0,0,0-1.834.9A4.17,4.17,0,0,0,17.2-4.391Zm8.185-.174a5.261,5.261,0,0,1,.979-3.324,3.1,3.1,0,0,1,2.565-1.258,3.115,3.115,0,0,1,2.5,1.079V-12.75h1.536V0H31.551l-.075-.963A3.127,3.127,0,0,1,28.912.166a3.068,3.068,0,0,1-2.544-1.278,5.321,5.321,0,0,1-.984-3.337Zm1.536.174A3.984,3.984,0,0,0,27.55-2a2.039,2.039,0,0,0,1.743.863,2.24,2.24,0,0,0,2.133-1.312V-6.574a2.257,2.257,0,0,0-2.117-1.27,2.049,2.049,0,0,0-1.76.872A4.386,4.386,0,0,0,26.919-4.391ZM39.072.166a3.924,3.924,0,0,1-2.972-1.2,4.452,4.452,0,0,1-1.146-3.208v-.282a5.39,5.39,0,0,1,.51-2.386,3.982,3.982,0,0,1,1.428-1.644,3.59,3.59,0,0,1,1.988-.594A3.364,3.364,0,0,1,41.6-7.994a5,5,0,0,1,.971,3.3v.639H36.49a3.193,3.193,0,0,0,.776,2.146,2.44,2.44,0,0,0,1.888.818,2.675,2.675,0,0,0,1.378-.332,3.462,3.462,0,0,0,.988-.88l.938.73A3.772,3.772,0,0,1,39.072.166Zm-.191-8.052a2.048,2.048,0,0,0-1.561.677,3.288,3.288,0,0,0-.78,1.9h4.5v-.116a2.925,2.925,0,0,0-.631-1.814A1.928,1.928,0,0,0,38.881-7.886ZM46.02,0H44.484V-12.75H46.02Zm7.687-2.382a1.13,1.13,0,0,0-.469-.967A4.514,4.514,0,0,0,51.6-3.943a7.731,7.731,0,0,1-1.851-.6,2.633,2.633,0,0,1-1.013-.83,1.986,1.986,0,0,1-.328-1.146,2.33,2.33,0,0,1,.934-1.868,3.647,3.647,0,0,1,2.386-.764,3.753,3.753,0,0,1,2.478.789,2.5,2.5,0,0,1,.95,2.017H53.615a1.386,1.386,0,0,0-.535-1.087,2.006,2.006,0,0,0-1.349-.457,2.1,2.1,0,0,0-1.312.365,1.15,1.15,0,0,0-.473.955.932.932,0,0,0,.44.838,5.413,5.413,0,0,0,1.59.54,8.283,8.283,0,0,1,1.864.614,2.718,2.718,0,0,1,1.058.859,2.112,2.112,0,0,1,.344,1.224,2.3,2.3,0,0,1-.963,1.93,4.039,4.039,0,0,1-2.5.726,4.523,4.523,0,0,1-1.909-.382,3.105,3.105,0,0,1-1.3-1.067A2.571,2.571,0,0,1,48.1-2.764h1.536a1.59,1.59,0,0,0,.618,1.224,2.4,2.4,0,0,0,1.523.452,2.476,2.476,0,0,0,1.4-.353A1.084,1.084,0,0,0,53.706-2.382Z" transform="translate(-9283 -9267)" fill="#fff"/>
    <path id="Trazado_659069" data-name="Trazado 659069" d="M5.5-7.6a4.6,4.6,0,0,0-.755-.058A2.024,2.024,0,0,0,2.7-6.375V0H1.162V-8.981H2.656l.025,1.038a2.391,2.391,0,0,1,2.142-1.2,1.569,1.569,0,0,1,.681.116Zm.838,3.03a5.3,5.3,0,0,1,.519-2.374A3.87,3.87,0,0,1,8.3-8.575a3.932,3.932,0,0,1,2.113-.573,3.788,3.788,0,0,1,2.968,1.27A4.886,4.886,0,0,1,14.518-4.5v.108a5.351,5.351,0,0,1-.5,2.353A3.813,3.813,0,0,1,12.58-.415a3.977,3.977,0,0,1-2.146.581A3.778,3.778,0,0,1,7.475-1.1,4.861,4.861,0,0,1,6.342-4.466Zm1.544.183a3.842,3.842,0,0,0,.693,2.4,2.218,2.218,0,0,0,1.855.9A2.2,2.2,0,0,0,12.293-2a4.2,4.2,0,0,0,.689-2.569,3.836,3.836,0,0,0-.7-2.395,2.23,2.23,0,0,0-1.864-.917,2.205,2.205,0,0,0-1.834.9A4.17,4.17,0,0,0,7.886-4.391Zm14.1,3.5A3.262,3.262,0,0,1,19.357.166,2.792,2.792,0,0,1,17.17-.668a3.611,3.611,0,0,1-.76-2.469V-8.981h1.536v5.8q0,2.042,1.66,2.042a2.3,2.3,0,0,0,2.341-1.312V-8.981h1.536V0H22.022ZM27.9-11.156v2.175h1.677v1.187H27.9v5.577a1.247,1.247,0,0,0,.224.81.943.943,0,0,0,.764.27,3.718,3.718,0,0,0,.73-.1V0a4.478,4.478,0,0,1-1.179.165,1.912,1.912,0,0,1-1.552-.623,2.675,2.675,0,0,1-.523-1.768v-5.57H24.728V-8.981h1.635v-2.175ZM35.1.166a3.924,3.924,0,0,1-2.972-1.2,4.452,4.452,0,0,1-1.146-3.208v-.282a5.39,5.39,0,0,1,.51-2.386,3.982,3.982,0,0,1,1.428-1.644A3.59,3.59,0,0,1,34.9-9.147a3.364,3.364,0,0,1,2.723,1.154,5,5,0,0,1,.971,3.3v.639H32.514a3.193,3.193,0,0,0,.776,2.146,2.44,2.44,0,0,0,1.888.818,2.675,2.675,0,0,0,1.378-.332,3.462,3.462,0,0,0,.988-.88l.938.73A3.772,3.772,0,0,1,35.1.166ZM34.9-7.886a2.048,2.048,0,0,0-1.561.677,3.288,3.288,0,0,0-.78,1.9h4.5v-.116a2.925,2.925,0,0,0-.631-1.814A1.928,1.928,0,0,0,34.9-7.886Zm10.7,5.5a1.13,1.13,0,0,0-.469-.967A4.514,4.514,0,0,0,43.5-3.943a7.731,7.731,0,0,1-1.851-.6,2.633,2.633,0,0,1-1.013-.83,1.986,1.986,0,0,1-.328-1.146,2.33,2.33,0,0,1,.934-1.868,3.647,3.647,0,0,1,2.386-.764,3.753,3.753,0,0,1,2.478.789,2.5,2.5,0,0,1,.95,2.017H45.513a1.386,1.386,0,0,0-.535-1.087,2.006,2.006,0,0,0-1.349-.457,2.1,2.1,0,0,0-1.312.365,1.15,1.15,0,0,0-.473.955.932.932,0,0,0,.44.838,5.413,5.413,0,0,0,1.59.54,8.283,8.283,0,0,1,1.864.614,2.718,2.718,0,0,1,1.058.859A2.112,2.112,0,0,1,47.14-2.49a2.3,2.3,0,0,1-.963,1.93,4.039,4.039,0,0,1-2.5.726A4.523,4.523,0,0,1,41.77-.216a3.105,3.105,0,0,1-1.3-1.067A2.571,2.571,0,0,1,40-2.764h1.536a1.59,1.59,0,0,0,.618,1.224,2.4,2.4,0,0,0,1.523.452,2.476,2.476,0,0,0,1.4-.353A1.084,1.084,0,0,0,45.6-2.382Z" transform="translate(-9283 -9245)" fill="#fff"/>
    <path id="Trazado_659070" data-name="Trazado 659070" d="M.789-4.565A5.261,5.261,0,0,1,1.768-7.89,3.1,3.1,0,0,1,4.333-9.147a3.115,3.115,0,0,1,2.5,1.079V-12.75H8.367V0H6.956L6.881-.963A3.127,3.127,0,0,1,4.316.166,3.068,3.068,0,0,1,1.772-1.112,5.321,5.321,0,0,1,.789-4.449Zm1.536.174A3.984,3.984,0,0,0,2.955-2,2.039,2.039,0,0,0,4.7-1.137,2.24,2.24,0,0,0,6.832-2.449V-6.574a2.257,2.257,0,0,0-2.117-1.27,2.049,2.049,0,0,0-1.76.872A4.386,4.386,0,0,0,2.324-4.391ZM16.294,0a3.226,3.226,0,0,1-.216-.946A3.426,3.426,0,0,1,13.522.166a3.17,3.17,0,0,1-2.179-.751,2.43,2.43,0,0,1-.851-1.905,2.539,2.539,0,0,1,1.067-2.179,5.029,5.029,0,0,1,3-.776h1.494v-.706a1.725,1.725,0,0,0-.481-1.282,1.935,1.935,0,0,0-1.419-.477,2.239,2.239,0,0,0-1.378.415,1.223,1.223,0,0,0-.556,1H10.675a2.119,2.119,0,0,1,.477-1.3,3.258,3.258,0,0,1,1.295-.992,4.356,4.356,0,0,1,1.8-.365,3.551,3.551,0,0,1,2.432.776,2.8,2.8,0,0,1,.913,2.137V-2.1A5.054,5.054,0,0,0,17.9-.133V0ZM13.746-1.17a2.7,2.7,0,0,0,1.37-.374,2.259,2.259,0,0,0,.938-.971V-4.358h-1.2q-2.822,0-2.822,1.652a1.4,1.4,0,0,0,.481,1.129A1.85,1.85,0,0,0,13.746-1.17Zm8.334-9.986v2.175h1.677v1.187H22.08v5.577a1.247,1.247,0,0,0,.224.81.943.943,0,0,0,.764.27,3.718,3.718,0,0,0,.73-.1V0A4.478,4.478,0,0,1,22.62.166a1.912,1.912,0,0,1-1.552-.623,2.675,2.675,0,0,1-.523-1.768v-5.57H18.909V-8.981h1.635v-2.175ZM31.095,0a3.226,3.226,0,0,1-.216-.946A3.426,3.426,0,0,1,28.322.166a3.17,3.17,0,0,1-2.179-.751,2.43,2.43,0,0,1-.851-1.905,2.539,2.539,0,0,1,1.067-2.179,5.029,5.029,0,0,1,3-.776h1.494v-.706a1.725,1.725,0,0,0-.481-1.282,1.935,1.935,0,0,0-1.419-.477,2.239,2.239,0,0,0-1.378.415,1.223,1.223,0,0,0-.556,1H25.475a2.119,2.119,0,0,1,.477-1.3,3.258,3.258,0,0,1,1.295-.992,4.356,4.356,0,0,1,1.8-.365,3.551,3.551,0,0,1,2.432.776,2.8,2.8,0,0,1,.913,2.137V-2.1a5.054,5.054,0,0,0,.315,1.967V0ZM28.546-1.17a2.7,2.7,0,0,0,1.37-.374,2.259,2.259,0,0,0,.938-.971V-4.358h-1.2q-2.822,0-2.822,1.652a1.4,1.4,0,0,0,.481,1.129A1.85,1.85,0,0,0,28.546-1.17ZM42.4-4.391a5.34,5.34,0,0,1-.946,3.308A3.024,3.024,0,0,1,38.914.166a3.131,3.131,0,0,1-2.631-1.2L36.208,0H34.8V-12.75h1.536v4.756A3.113,3.113,0,0,1,38.9-9.147a3.042,3.042,0,0,1,2.569,1.237A5.5,5.5,0,0,1,42.4-4.524Zm-1.536-.174a4.15,4.15,0,0,0-.606-2.424,2.006,2.006,0,0,0-1.743-.855,2.255,2.255,0,0,0-2.183,1.411v3.885a2.318,2.318,0,0,0,2.2,1.411,2,2,0,0,0,1.718-.855A4.413,4.413,0,0,0,40.865-4.565ZM49.879,0a3.226,3.226,0,0,1-.216-.946A3.426,3.426,0,0,1,47.107.166a3.17,3.17,0,0,1-2.179-.751,2.43,2.43,0,0,1-.851-1.905,2.539,2.539,0,0,1,1.067-2.179,5.029,5.029,0,0,1,3-.776h1.494v-.706a1.725,1.725,0,0,0-.481-1.282,1.935,1.935,0,0,0-1.419-.477A2.239,2.239,0,0,0,46.36-7.5a1.223,1.223,0,0,0-.556,1H44.26a2.119,2.119,0,0,1,.477-1.3,3.258,3.258,0,0,1,1.295-.992,4.356,4.356,0,0,1,1.8-.365,3.551,3.551,0,0,1,2.432.776,2.8,2.8,0,0,1,.913,2.137V-2.1A5.054,5.054,0,0,0,51.49-.133V0ZM47.331-1.17a2.7,2.7,0,0,0,1.37-.374,2.259,2.259,0,0,0,.938-.971V-4.358h-1.2q-2.822,0-2.822,1.652a1.4,1.4,0,0,0,.481,1.129A1.85,1.85,0,0,0,47.331-1.17Zm11.48-1.212a1.13,1.13,0,0,0-.469-.967,4.514,4.514,0,0,0-1.635-.594,7.731,7.731,0,0,1-1.851-.6,2.633,2.633,0,0,1-1.013-.83,1.986,1.986,0,0,1-.328-1.146,2.33,2.33,0,0,1,.934-1.868,3.647,3.647,0,0,1,2.386-.764,3.753,3.753,0,0,1,2.478.789,2.5,2.5,0,0,1,.95,2.017H58.72a1.386,1.386,0,0,0-.535-1.087,2.006,2.006,0,0,0-1.349-.457,2.1,2.1,0,0,0-1.312.365,1.15,1.15,0,0,0-.473.955.932.932,0,0,0,.44.838,5.413,5.413,0,0,0,1.59.54,8.283,8.283,0,0,1,1.864.614A2.718,2.718,0,0,1,60-3.715a2.112,2.112,0,0,1,.344,1.224,2.3,2.3,0,0,1-.963,1.93,4.039,4.039,0,0,1-2.5.726,4.523,4.523,0,0,1-1.909-.382,3.105,3.105,0,0,1-1.3-1.067,2.571,2.571,0,0,1-.469-1.482h1.536a1.59,1.59,0,0,0,.618,1.224,2.4,2.4,0,0,0,1.523.452,2.476,2.476,0,0,0,1.4-.353A1.084,1.084,0,0,0,58.811-2.382ZM66.074.166a3.924,3.924,0,0,1-2.972-1.2,4.452,4.452,0,0,1-1.146-3.208v-.282a5.39,5.39,0,0,1,.51-2.386A3.982,3.982,0,0,1,63.9-8.554a3.59,3.59,0,0,1,1.988-.594,3.364,3.364,0,0,1,2.723,1.154,5,5,0,0,1,.971,3.3v.639H63.493a3.193,3.193,0,0,0,.776,2.146,2.44,2.44,0,0,0,1.888.818,2.675,2.675,0,0,0,1.378-.332,3.462,3.462,0,0,0,.988-.88l.938.73A3.772,3.772,0,0,1,66.074.166Zm-.191-8.052a2.048,2.048,0,0,0-1.561.677,3.288,3.288,0,0,0-.78,1.9h4.5v-.116a2.925,2.925,0,0,0-.631-1.814A1.928,1.928,0,0,0,65.883-7.886Zm5.5,7.081a.962.962,0,0,1,.237-.664.9.9,0,0,1,.71-.266.928.928,0,0,1,.718.266.942.942,0,0,1,.245.664.891.891,0,0,1-.245.639.945.945,0,0,1-.718.257.917.917,0,0,1-.71-.257A.909.909,0,0,1,71.387-.805Zm6.026-8.176V1.038q0,2.59-2.349,2.59a2.865,2.865,0,0,1-.938-.149V2.258a2.969,2.969,0,0,0,.7.066,1.043,1.043,0,0,0,.784-.278,1.376,1.376,0,0,0,.27-.968V-8.981ZM75.72-11.364a.921.921,0,0,1,.228-.627.839.839,0,0,1,.668-.261.87.87,0,0,1,.681.257.907.907,0,0,1,.232.631.877.877,0,0,1-.232.623.886.886,0,0,1-.681.249.859.859,0,0,1-.672-.249A.9.9,0,0,1,75.72-11.364Zm9.4,8.981a1.131,1.131,0,0,0-.469-.967,4.514,4.514,0,0,0-1.635-.594,7.731,7.731,0,0,1-1.851-.6,2.633,2.633,0,0,1-1.013-.83,1.986,1.986,0,0,1-.328-1.146,2.33,2.33,0,0,1,.934-1.868,3.647,3.647,0,0,1,2.386-.764,3.753,3.753,0,0,1,2.478.789,2.5,2.5,0,0,1,.95,2.017H85.025a1.386,1.386,0,0,0-.535-1.087,2.006,2.006,0,0,0-1.349-.457,2.1,2.1,0,0,0-1.312.365,1.15,1.15,0,0,0-.473.955.932.932,0,0,0,.44.838,5.413,5.413,0,0,0,1.59.54,8.283,8.283,0,0,1,1.864.614,2.718,2.718,0,0,1,1.058.859,2.112,2.112,0,0,1,.344,1.224,2.3,2.3,0,0,1-.963,1.93,4.039,4.039,0,0,1-2.5.726,4.523,4.523,0,0,1-1.909-.382,3.105,3.105,0,0,1-1.3-1.067,2.571,2.571,0,0,1-.469-1.482h1.536a1.59,1.59,0,0,0,.618,1.224,2.4,2.4,0,0,0,1.523.452,2.476,2.476,0,0,0,1.4-.353A1.084,1.084,0,0,0,85.116-2.382Z" transform="translate(-9283 -9223)" fill="#fff"/>
    <path id="Trazado_659071" data-name="Trazado 659071" d="M2.831,0H1.295V-8.981H2.831ZM1.17-11.364a.917.917,0,0,1,.228-.631.857.857,0,0,1,.677-.257.87.87,0,0,1,.681.257.907.907,0,0,1,.232.631.877.877,0,0,1-.232.623.886.886,0,0,1-.681.249.872.872,0,0,1-.677-.249A.886.886,0,0,1,1.17-11.364ZM6.74-8.981l.05,1.129A3.273,3.273,0,0,1,9.479-9.147q2.847,0,2.872,3.212V0H10.816V-5.943a2.068,2.068,0,0,0-.444-1.436,1.78,1.78,0,0,0-1.357-.465,2.216,2.216,0,0,0-1.312.4A2.706,2.706,0,0,0,6.823-6.4V0H5.288V-8.981Zm7.554,4.416a5.261,5.261,0,0,1,.979-3.324,3.1,3.1,0,0,1,2.565-1.258,3.115,3.115,0,0,1,2.5,1.079V-12.75h1.536V0H20.461l-.075-.963A3.127,3.127,0,0,1,17.822.166a3.068,3.068,0,0,1-2.544-1.278,5.321,5.321,0,0,1-.984-3.337Zm1.536.174A3.984,3.984,0,0,0,16.46-2a2.039,2.039,0,0,0,1.743.863,2.24,2.24,0,0,0,2.133-1.312V-6.574a2.257,2.257,0,0,0-2.117-1.27,2.049,2.049,0,0,0-1.76.872A4.386,4.386,0,0,0,15.83-4.391ZM27.982.166a3.924,3.924,0,0,1-2.972-1.2,4.452,4.452,0,0,1-1.146-3.208v-.282a5.39,5.39,0,0,1,.51-2.386A3.982,3.982,0,0,1,25.8-8.554a3.59,3.59,0,0,1,1.988-.594,3.364,3.364,0,0,1,2.723,1.154,5,5,0,0,1,.971,3.3v.639H25.4a3.193,3.193,0,0,0,.776,2.146,2.44,2.44,0,0,0,1.888.818,2.675,2.675,0,0,0,1.378-.332,3.462,3.462,0,0,0,.988-.88l.938.73A3.772,3.772,0,0,1,27.982.166Zm-.191-8.052a2.048,2.048,0,0,0-1.561.677,3.288,3.288,0,0,0-.78,1.9h4.5v-.116a2.925,2.925,0,0,0-.631-1.814A1.928,1.928,0,0,0,27.791-7.886ZM36.274-5.7l1.992-3.279H40.06L37.121-4.541,40.151,0H38.375L36.3-3.362,34.224,0H32.439l3.03-4.541L32.531-8.981h1.776Zm5.445,4.9a.962.962,0,0,1,.237-.664.9.9,0,0,1,.71-.266.928.928,0,0,1,.718.266.942.942,0,0,1,.245.664.891.891,0,0,1-.245.639.945.945,0,0,1-.718.257.917.917,0,0,1-.71-.257A.909.909,0,0,1,41.72-.805Zm6.026-8.176V1.038q0,2.59-2.349,2.59a2.865,2.865,0,0,1-.938-.149V2.258a2.969,2.969,0,0,0,.7.066,1.043,1.043,0,0,0,.784-.278,1.376,1.376,0,0,0,.27-.968V-8.981Zm-1.693-2.382a.921.921,0,0,1,.228-.627.839.839,0,0,1,.668-.261.87.87,0,0,1,.681.257.907.907,0,0,1,.232.631.877.877,0,0,1-.232.623.886.886,0,0,1-.681.249.859.859,0,0,1-.672-.249A.9.9,0,0,1,46.053-11.364Zm9.4,8.981a1.13,1.13,0,0,0-.469-.967,4.514,4.514,0,0,0-1.635-.594,7.731,7.731,0,0,1-1.851-.6,2.633,2.633,0,0,1-1.013-.83,1.986,1.986,0,0,1-.328-1.146,2.33,2.33,0,0,1,.934-1.868,3.647,3.647,0,0,1,2.386-.764,3.753,3.753,0,0,1,2.478.789,2.5,2.5,0,0,1,.95,2.017H55.358a1.386,1.386,0,0,0-.535-1.087,2.006,2.006,0,0,0-1.349-.457,2.1,2.1,0,0,0-1.312.365,1.15,1.15,0,0,0-.473.955.932.932,0,0,0,.44.838,5.413,5.413,0,0,0,1.59.54,8.283,8.283,0,0,1,1.864.614,2.718,2.718,0,0,1,1.058.859,2.112,2.112,0,0,1,.344,1.224,2.3,2.3,0,0,1-.963,1.93,4.039,4.039,0,0,1-2.5.726,4.523,4.523,0,0,1-1.909-.382,3.105,3.105,0,0,1-1.3-1.067,2.571,2.571,0,0,1-.469-1.482h1.536A1.59,1.59,0,0,0,52-1.54a2.4,2.4,0,0,0,1.523.452,2.476,2.476,0,0,0,1.4-.353A1.084,1.084,0,0,0,55.449-2.382Z" transform="translate(-9283 -9196)" fill="#fff"/>
    <path id="Trazado_659072" data-name="Trazado 659072" d="M6.466-12.086h1.6v8.558A3.545,3.545,0,0,1,7.027-.813,3.889,3.889,0,0,1,4.25.166,4,4,0,0,1,1.444-.755a3.327,3.327,0,0,1-1-2.582H2.034A2.216,2.216,0,0,0,2.6-1.718a2.2,2.2,0,0,0,1.648.581,2.137,2.137,0,0,0,1.6-.623A2.412,2.412,0,0,0,6.466-3.5Zm7.877,6.7A7.494,7.494,0,0,1,11.36-6.836a2.768,2.768,0,0,1-.934-2.121,2.923,2.923,0,0,1,1.141-2.362,4.536,4.536,0,0,1,2.968-.934,4.951,4.951,0,0,1,2.22.481,3.651,3.651,0,0,1,1.511,1.328A3.4,3.4,0,0,1,18.8-8.591H17.2a2.21,2.21,0,0,0-.7-1.729,2.835,2.835,0,0,0-1.967-.629,2.9,2.9,0,0,0-1.839.52,1.734,1.734,0,0,0-.66,1.443,1.56,1.56,0,0,0,.627,1.252A6.147,6.147,0,0,0,14.8-6.8a9.9,9.9,0,0,1,2.357.935,3.577,3.577,0,0,1,1.262,1.191,3.04,3.04,0,0,1,.411,1.6A2.824,2.824,0,0,1,17.681-.718a4.884,4.884,0,0,1-3.063.884,5.681,5.681,0,0,1-2.324-.477,3.911,3.911,0,0,1-1.664-1.307A3.191,3.191,0,0,1,10.044-3.5h1.6a2.082,2.082,0,0,0,.809,1.731,3.408,3.408,0,0,0,2.162.635,3.133,3.133,0,0,0,1.934-.515,1.672,1.672,0,0,0,.672-1.4A1.641,1.641,0,0,0,16.6-4.428,7.178,7.178,0,0,0,14.344-5.387Z" transform="translate(-9312 -9223)" fill="#ffbe68"/>
    <path id="Trazado_659073" data-name="Trazado 659073" d="M6.466-12.086h1.6v8.558A3.545,3.545,0,0,1,7.027-.813,3.889,3.889,0,0,1,4.25.166,4,4,0,0,1,1.444-.755a3.327,3.327,0,0,1-1-2.582H2.034A2.216,2.216,0,0,0,2.6-1.718a2.2,2.2,0,0,0,1.648.581,2.137,2.137,0,0,0,1.6-.623A2.412,2.412,0,0,0,6.466-3.5Zm7.877,6.7A7.494,7.494,0,0,1,11.36-6.836a2.768,2.768,0,0,1-.934-2.121,2.923,2.923,0,0,1,1.141-2.362,4.536,4.536,0,0,1,2.968-.934,4.951,4.951,0,0,1,2.22.481,3.651,3.651,0,0,1,1.511,1.328A3.4,3.4,0,0,1,18.8-8.591H17.2a2.21,2.21,0,0,0-.7-1.729,2.835,2.835,0,0,0-1.967-.629,2.9,2.9,0,0,0-1.839.52,1.734,1.734,0,0,0-.66,1.443,1.56,1.56,0,0,0,.627,1.252A6.147,6.147,0,0,0,14.8-6.8a9.9,9.9,0,0,1,2.357.935,3.577,3.577,0,0,1,1.262,1.191,3.04,3.04,0,0,1,.411,1.6A2.824,2.824,0,0,1,17.681-.718a4.884,4.884,0,0,1-3.063.884,5.681,5.681,0,0,1-2.324-.477,3.911,3.911,0,0,1-1.664-1.307A3.191,3.191,0,0,1,10.044-3.5h1.6a2.082,2.082,0,0,0,.809,1.731,3.408,3.408,0,0,0,2.162.635,3.133,3.133,0,0,0,1.934-.515,1.672,1.672,0,0,0,.672-1.4A1.641,1.641,0,0,0,16.6-4.428,7.178,7.178,0,0,0,14.344-5.387Z" transform="translate(-9312 -9196)" fill="#ffbe68"/>
    <path id="Trazado_659074" data-name="Trazado 659074" d="M2.109-1.421a1.7,1.7,0,0,1,.417-1.172,1.591,1.591,0,0,1,1.252-.469,1.638,1.638,0,0,1,1.267.469,1.663,1.663,0,0,1,.432,1.172A1.573,1.573,0,0,1,5.046-.293,1.668,1.668,0,0,1,3.779.161,1.619,1.619,0,0,1,2.527-.293,1.6,1.6,0,0,1,2.109-1.421Zm7.9,0a1.7,1.7,0,0,1,.417-1.172,1.591,1.591,0,0,1,1.252-.469,1.638,1.638,0,0,1,1.267.469,1.663,1.663,0,0,1,.432,1.172,1.573,1.573,0,0,1-.432,1.128,1.668,1.668,0,0,1-1.267.454,1.619,1.619,0,0,1-1.252-.454A1.6,1.6,0,0,1,10-1.421Zm7.9,0a1.7,1.7,0,0,1,.417-1.172,1.591,1.591,0,0,1,1.252-.469,1.638,1.638,0,0,1,1.267.469,1.663,1.663,0,0,1,.432,1.172,1.573,1.573,0,0,1-.432,1.128A1.668,1.668,0,0,1,19.57.161a1.619,1.619,0,0,1-1.252-.454A1.6,1.6,0,0,1,17.9-1.421Z" transform="translate(-8647 -9391)" fill="#fff"/>
    <path id="Trazado_656012" data-name="Trazado 656012" d="M-7483-10282.388l6.421,6.421,6.421-6.421" transform="translate(-1867 932)" fill="none" stroke="#fff" stroke-width="2"/>
    <path id="Trazado_656013" data-name="Trazado 656013" d="M-7483-10282.388l6.421,6.421,6.421-6.421" transform="translate(-1843 959)" fill="none" stroke="#fff" stroke-width="2"/>
    <path id="Trazado_656014" data-name="Trazado 656014" d="M-7483-10282.388l6.421,6.421,6.421-6.421" transform="translate(-1824 986)" fill="none" stroke="#fff" stroke-width="2"/>
    <path id="Trazado_656015" data-name="Trazado 656015" d="M-7483-10282.388l6.421,6.421,6.421-6.421" transform="translate(-1824 1008)" fill="none" stroke="#fff" stroke-width="2"/>
    <path id="Trazado_656016" data-name="Trazado 656016" d="M-7483-10282.388l6.421,6.421,6.421-6.421" transform="translate(-1824 1030)" fill="none" stroke="#fff" stroke-width="2"/>
    <path id="Trazado_656018" data-name="Trazado 656018" d="M-7452.58-10248.679v119.856" transform="translate(-1867 939)" fill="none" stroke="#afafaf" stroke-width="1"/>
  </g>
</svg>
