<svg id="Grupo_981931" data-name="Grupo 981931" xmlns="http://www.w3.org/2000/svg" xmlns:xlink="http://www.w3.org/1999/xlink" width="153.397" height="60.264" viewBox="0 0 153.397 60.264">
  <defs>
    <clipPath id="clip-path">
      <rect id="Rectángulo_59032" data-name="Rectángulo 59032" width="153.397" height="60.264" fill="none"/>
    </clipPath>
    <clipPath id="clip-path-3">
      <rect id="Rectángulo_59018" data-name="Rectángulo 59018" width="79.075" height="54.69" fill="none"/>
    </clipPath>
    <clipPath id="clip-path-4">
      <rect id="Rectángulo_59019" data-name="Rectángulo 59019" width="10.807" height="10.448" fill="none"/>
    </clipPath>
    <clipPath id="clip-path-5">
      <rect id="Rectángulo_59020" data-name="Rectángulo 59020" width="8.72" height="12.684" fill="none"/>
    </clipPath>
    <clipPath id="clip-path-6">
      <rect id="Rectángulo_59021" data-name="Rectángulo 59021" width="1.184" height="14.415" fill="none"/>
    </clipPath>
    <clipPath id="clip-path-7">
      <rect id="Rectángulo_59022" data-name="Rectángulo 59022" width="1.185" height="14.522" fill="none"/>
    </clipPath>
    <clipPath id="clip-path-8">
      <rect id="Rectángulo_59023" data-name="Rectángulo 59023" width="8.72" height="12.68" fill="none"/>
    </clipPath>
    <clipPath id="clip-path-9">
      <rect id="Rectángulo_59024" data-name="Rectángulo 59024" width="60.546" height="42.715" fill="none"/>
    </clipPath>
    <clipPath id="clip-path-10">
      <rect id="Rectángulo_59025" data-name="Rectángulo 59025" width="7.466" height="11.178" fill="none"/>
    </clipPath>
    <clipPath id="clip-path-11">
      <rect id="Rectángulo_59026" data-name="Rectángulo 59026" width="7.859" height="8.973" fill="none"/>
    </clipPath>
    <clipPath id="clip-path-12">
      <rect id="Rectángulo_59027" data-name="Rectángulo 59027" width="4.591" height="11.936" fill="none"/>
    </clipPath>
    <clipPath id="clip-path-13">
      <rect id="Rectángulo_59028" data-name="Rectángulo 59028" width="4.671" height="11.941" fill="none"/>
    </clipPath>
    <clipPath id="clip-path-14">
      <rect id="Rectángulo_59029" data-name="Rectángulo 59029" width="4.458" height="9.046" fill="none"/>
    </clipPath>
    <clipPath id="clip-path-15">
      <rect id="Rectángulo_59030" data-name="Rectángulo 59030" width="3.638" height="12.454" fill="none"/>
    </clipPath>
  </defs>
  <g id="Grupo_182783" data-name="Grupo 182783" clip-path="url(#clip-path)">
    <g id="Grupo_182782" data-name="Grupo 182782" transform="translate(0 0)">
      <g id="Grupo_182781" data-name="Grupo 182781" clip-path="url(#clip-path)">
        <path id="Trazado_235987" data-name="Trazado 235987" d="M83.543,24.608l.019,9.918a.962.962,0,0,0,.89.948l6.78.429,0,9.555h0a.582.582,0,0,0,.332.485l7.148,4.127a1.789,1.789,0,0,0,.906.184v.014a1.7,1.7,0,0,0,.677-.128l7.245-3.357a2.662,2.662,0,0,1,1.657-.1,43,43,0,0,0,5.625,1.337,1.368,1.368,0,0,1,1.047,1.018l.907,4.775a1.076,1.076,0,0,0,.392.625v0a1.073,1.073,0,0,0,.666.249h10.508a1.042,1.042,0,0,0,.6-.227,1.1,1.1,0,0,0,.135-.122,1.17,1.17,0,0,0,.148-.133V54.1c.058-.1.154-.174.175-.286l.907-4.775a1.366,1.366,0,0,1,1.047-1.017,43.06,43.06,0,0,0,5.624-1.338,2.665,2.665,0,0,1,1.658.1l7.245,3.357a1.7,1.7,0,0,0,.438.073v.048a2.032,2.032,0,0,0,.254-.005,1.664,1.664,0,0,0,.189,0,1.7,1.7,0,0,0,.684-.179.118.118,0,0,1,.017,0l7.148-4.127a.7.7,0,0,0,.254-.242.086.086,0,0,1,.014-.013.44.44,0,0,0,.055-.189c0-.011.01-.02.011-.03h0l0-2.276,0-1.694,0-.1v-.009l0-4.981-.283-.484.381-.029,6.558-.416.125-.008c.067,0,.109-.064.171-.082a.608.608,0,0,0,.593-.553c.041-.1.123-.185.125-.3v-.011l0,0V29.209l0-3.726V20.165a.963.963,0,0,0-.891-.948l-6.784-.429.006-9.543-.005.012a.57.57,0,0,0-.33-.509l-7.147-4.127a1.929,1.929,0,0,0-1.582-.071l-7.245,3.357a2.657,2.657,0,0,1-1.657.1,43.036,43.036,0,0,0-5.625-1.337,1.369,1.369,0,0,1-1.047-1.018L129.4.876A1.119,1.119,0,0,0,128.344,0H117.835a1.119,1.119,0,0,0-1.058.876l-.907,4.774a1.369,1.369,0,0,1-1.047,1.018A43.011,43.011,0,0,0,109.2,8.006a2.665,2.665,0,0,1-1.658-.1L100.3,4.55a1.928,1.928,0,0,0-1.582.07L91.566,8.748a.565.565,0,0,0-.328.52l-.005,0,0,9.522-6.777.43a.963.963,0,0,0-.891.948v4.256a.924.924,0,0,0-.02.187m27.47,3.374c6.669-3.85,17.481-3.85,24.15,0,.505.291.971.589,1.4.891a14.757,14.757,0,0,1-1.4.92c-6.669,3.85-17.482,3.85-24.151,0a14.913,14.913,0,0,1-1.4-.915c.426-.3.889-.6,1.395-.9" transform="translate(-9.22 0)" fill="#27debf"/>
        <g id="Grupo_182744" data-name="Grupo 182744" transform="translate(74.323 0)" opacity="0.2">
          <g id="Grupo_182743" data-name="Grupo 182743">
            <g id="Grupo_182742" data-name="Grupo 182742" clip-path="url(#clip-path-3)">
              <path id="Trazado_235988" data-name="Trazado 235988" d="M83.543,24.608l.019,9.918a.962.962,0,0,0,.89.948l6.78.429,0,9.555h0a.582.582,0,0,0,.332.485l7.148,4.127a1.789,1.789,0,0,0,.906.184v.014a1.7,1.7,0,0,0,.677-.128l7.245-3.357a2.662,2.662,0,0,1,1.657-.1,43,43,0,0,0,5.625,1.337,1.368,1.368,0,0,1,1.047,1.018l.907,4.775a1.076,1.076,0,0,0,.392.625v0a1.073,1.073,0,0,0,.666.249h10.508a1.042,1.042,0,0,0,.6-.227,1.1,1.1,0,0,0,.135-.122,1.17,1.17,0,0,0,.148-.133V54.1c.058-.1.154-.174.175-.286l.907-4.775a1.366,1.366,0,0,1,1.047-1.017,43.06,43.06,0,0,0,5.624-1.338,2.665,2.665,0,0,1,1.658.1l7.245,3.357a1.7,1.7,0,0,0,.438.073v.048a2.032,2.032,0,0,0,.254-.005,1.664,1.664,0,0,0,.189,0,1.7,1.7,0,0,0,.684-.179.118.118,0,0,1,.017,0l7.148-4.127a.7.7,0,0,0,.254-.242.086.086,0,0,1,.014-.013.44.44,0,0,0,.055-.189c0-.011.01-.02.011-.03h0l0-2.276,0-1.694,0-.1v-.009l0-4.981-.283-.484.381-.029,6.558-.416.125-.008c.067,0,.109-.064.171-.082a.608.608,0,0,0,.593-.553c.041-.1.123-.185.125-.3v-.011l0,0V29.209l0-3.726V20.165a.963.963,0,0,0-.891-.948l-6.784-.429.006-9.543-.005.012a.57.57,0,0,0-.33-.509l-7.147-4.127a1.929,1.929,0,0,0-1.582-.071l-7.245,3.357a2.657,2.657,0,0,1-1.657.1,43.036,43.036,0,0,0-5.625-1.337,1.369,1.369,0,0,1-1.047-1.018L129.4.876A1.119,1.119,0,0,0,128.344,0H117.835a1.119,1.119,0,0,0-1.058.876l-.907,4.774a1.369,1.369,0,0,1-1.047,1.018A43.011,43.011,0,0,0,109.2,8.006a2.665,2.665,0,0,1-1.658-.1L100.3,4.55a1.928,1.928,0,0,0-1.582.07L91.566,8.748a.565.565,0,0,0-.328.52l-.005,0,0,9.522-6.777.43a.963.963,0,0,0-.891.948v4.256a.924.924,0,0,0-.02.187m27.47,3.374c6.669-3.85,17.481-3.85,24.15,0,.505.291.971.589,1.4.891a14.757,14.757,0,0,1-1.4.92c-6.669,3.85-17.482,3.85-24.151,0a14.913,14.913,0,0,1-1.4-.915c.426-.3.889-.6,1.395-.9" transform="translate(-83.543)"/>
            </g>
          </g>
        </g>
        <path id="Trazado_235989" data-name="Trazado 235989" d="M145.887,4.55l-7.245,3.357a2.657,2.657,0,0,1-1.657.1,42.752,42.752,0,0,0-5.625-1.337,1.372,1.372,0,0,1-1.048-1.018L129.405.876A1.119,1.119,0,0,0,128.347,0H117.837a1.119,1.119,0,0,0-1.058.876l-.907,4.775a1.369,1.369,0,0,1-1.047,1.018A42.867,42.867,0,0,0,109.2,8a2.653,2.653,0,0,1-1.658-.1L100.3,4.55a1.928,1.928,0,0,0-1.582.071L91.568,8.748a.533.533,0,0,0-.048.967l5.664,4.075a.755.755,0,0,1,.1,1.163,14.26,14.26,0,0,0-2.022,2.805,1.761,1.761,0,0,1-1.287.855l-9.524.6a.963.963,0,0,0-.891.948v5.314a.962.962,0,0,0,.89.948l9.524.6a1.758,1.758,0,0,1,1.287.855,14.266,14.266,0,0,0,2.023,2.805.755.755,0,0,1-.1,1.163L91.52,35.928a.533.533,0,0,0,.048.967l7.148,4.126a1.925,1.925,0,0,0,1.582.071l7.244-3.357a2.65,2.65,0,0,1,1.657-.1,43.071,43.071,0,0,0,5.625,1.337,1.369,1.369,0,0,1,1.047,1.018l.907,4.775a1.118,1.118,0,0,0,1.058.875h10.51a1.12,1.12,0,0,0,1.059-.876l.906-4.776a1.369,1.369,0,0,1,1.047-1.017,43.038,43.038,0,0,0,5.625-1.337,2.656,2.656,0,0,1,1.657.1l7.246,3.357a1.925,1.925,0,0,0,1.582-.071l7.147-4.126a.533.533,0,0,0,.048-.967L149,31.852a.754.754,0,0,1-.1-1.162,14.255,14.255,0,0,0,2.022-2.806,1.763,1.763,0,0,1,1.287-.855l9.525-.6a.962.962,0,0,0,.89-.948V20.165a.963.963,0,0,0-.89-.948l-9.525-.6a1.759,1.759,0,0,1-1.286-.854,14.264,14.264,0,0,0-2.022-2.806.755.755,0,0,1,.1-1.163l5.665-4.075a.533.533,0,0,0-.049-.967l-7.148-4.127a1.923,1.923,0,0,0-1.581-.071m-10.719,11.3c6.669,3.85,6.669,10.093,0,13.943s-17.482,3.85-24.151,0-6.669-10.093,0-13.943,17.48-3.85,24.15,0" transform="translate(-9.222 0)" fill="#27debf"/>
        <g id="Grupo_182747" data-name="Grupo 182747" transform="translate(142.589 25.478)" opacity="0.15">
          <g id="Grupo_182746" data-name="Grupo 182746">
            <g id="Grupo_182745" data-name="Grupo 182745" clip-path="url(#clip-path-4)">
              <path id="Trazado_235990" data-name="Trazado 235990" d="M163.129,39.086l-2.851-2.052V30.284a1.322,1.322,0,0,1,.394-.1l9.525-.6a.957.957,0,0,0,.888-.947V37.7a.964.964,0,0,1-.888.931h-.005l-.12.01-5.417.343Z" transform="translate(-160.278 -28.638)"/>
            </g>
          </g>
        </g>
        <g id="Grupo_182750" data-name="Grupo 182750" transform="translate(128.874 37.59)" opacity="0.15">
          <g id="Grupo_182749" data-name="Grupo 182749">
            <g id="Grupo_182748" data-name="Grupo 182748" clip-path="url(#clip-path-5)">
              <path id="Trazado_235991" data-name="Trazado 235991" d="M144.861,42.253a2.1,2.1,0,0,1,.548.146l7.242,3.356a1.854,1.854,0,0,0,.931.117v9.05a2.171,2.171,0,0,1-.487,0h0v-.048a1.534,1.534,0,0,1-.439-.073L145.4,51.447a2.162,2.162,0,0,0-.543-.125Z" transform="translate(-144.861 -42.253)"/>
            </g>
          </g>
        </g>
        <g id="Grupo_182753" data-name="Grupo 182753" transform="translate(120.046 39.628)" opacity="0.15">
          <g id="Grupo_182752" data-name="Grupo 182752">
            <g id="Grupo_182751" data-name="Grupo 182751" clip-path="url(#clip-path-6)">
              <path id="Trazado_235992" data-name="Trazado 235992" d="M134.938,50.021a.989.989,0,0,0,.134-.341l.908-4.775a1.1,1.1,0,0,1,.141-.363V53.6a1.009,1.009,0,0,0-.141.353l-.908,4.775a.552.552,0,0,1-.134.229Z" transform="translate(-134.938 -44.544)"/>
            </g>
          </g>
        </g>
        <g id="Grupo_182756" data-name="Grupo 182756" transform="translate(106.508 39.632)" opacity="0.15">
          <g id="Grupo_182755" data-name="Grupo 182755">
            <g id="Grupo_182754" data-name="Grupo 182754" clip-path="url(#clip-path-7)">
              <path id="Trazado_235993" data-name="Trazado 235993" d="M119.721,44.548a1.147,1.147,0,0,1,.14.359l.907,4.775a1.035,1.035,0,0,0,.137.345V59.07a1.011,1.011,0,0,1-.137-.34l-.907-4.775a.911.911,0,0,0-.14-.326Z" transform="translate(-119.721 -44.548)"/>
            </g>
          </g>
        </g>
        <g id="Grupo_182759" data-name="Grupo 182759" transform="translate(90.145 37.59)" opacity="0.15">
          <g id="Grupo_182758" data-name="Grupo 182758">
            <g id="Grupo_182757" data-name="Grupo 182757" clip-path="url(#clip-path-8)">
              <path id="Trazado_235994" data-name="Trazado 235994" d="M101.328,45.872a1.822,1.822,0,0,0,.928-.117L109.5,42.4a2.1,2.1,0,0,1,.545-.146v9.052a2.045,2.045,0,0,0-.545.142L102.256,54.8a1.667,1.667,0,0,1-.676.13v-.014c-.085,0-.168,0-.252-.008Z" transform="translate(-101.328 -42.253)"/>
            </g>
          </g>
        </g>
        <path id="Trazado_235995" data-name="Trazado 235995" d="M60.546,41.767v-.011l0,0a.389.389,0,0,0-.05-.171l0,0c0-3.114.008-8.514.006-8.853,0-.006,0-.011,0-.017a.731.731,0,0,0-.153-.424L57.58,28.429a1.316,1.316,0,0,0-1.139-.534l-7.227,1.212a2.231,2.231,0,0,1-1.382-.394c-.45-.312-.932-.616-1.433-.9l.008-5.748-.005.009c.007-.23-.217-.451-.574-.536L38.49,19.779A1.37,1.37,0,0,0,37.31,20L33.8,23.695a1.665,1.665,0,0,1-1.152.359,38.56,38.56,0,0,0-4.778.008,1.88,1.88,0,0,1-1.289-.56l-3.141-3.3a1.443,1.443,0,0,0-1.226-.451l-7.626,1.819a.5.5,0,0,0-.394.5.131.131,0,0,0,0,.028c0,.318-.005,3.044-.005,5.7a18.619,18.619,0,0,0-1.7,1.084,1.96,1.96,0,0,1-1.257.213l-7-1.178a1.238,1.238,0,0,0-1.112.324L.08,32.471a.313.313,0,0,0-.064.188l0,.031c0,.642-.017,10.935-.018,11a.39.39,0,0,0,.059.176c0,3.165-.008,5.434-.012,5.566a.762.762,0,0,0,.157.448l2.765,3.856a1.316,1.316,0,0,0,1.139.534l7.225-1.216a2.259,2.259,0,0,1,1.382.394c.452.316.932.616,1.435.908l-.005,5.724c-.015.236.214.464.576.552l7.331,1.753a1.371,1.371,0,0,0,1.189-.222l3.509-3.692a1.639,1.639,0,0,1,1.152-.358,39.63,39.63,0,0,0,4.778-.008,1.883,1.883,0,0,1,1.286.556l3.144,3.308a1.454,1.454,0,0,0,1.226.451L45.958,60.6a.488.488,0,0,0,.39-.419c.02-.125.011-5.809.011-5.809q.9-.508,1.7-1.078a1.928,1.928,0,0,1,1.255-.218l7,1.182a1.236,1.236,0,0,0,1.11-.328l3.039-4.235a.345.345,0,0,0,.065-.195c0-.2.013-7.34.012-7.727Zm-40.82.224q.5-.354,1.088-.693c5.242-3.026,13.73-3.025,18.971,0,.381.222.74.451,1.066.678a10.235,10.235,0,0,1-1.152.752c-3.722,2.116-9.417,2.865-14.551,1.639a16.249,16.249,0,0,1-4.3-1.648,10.666,10.666,0,0,1-1.121-.728" transform="translate(0 -2.177)" fill="#27debf"/>
        <g id="Grupo_182762" data-name="Grupo 182762" transform="translate(0 17.549)" opacity="0.2">
          <g id="Grupo_182761" data-name="Grupo 182761">
            <g id="Grupo_182760" data-name="Grupo 182760" clip-path="url(#clip-path-9)">
              <path id="Trazado_235996" data-name="Trazado 235996" d="M60.546,41.767v-.011l0,0a.389.389,0,0,0-.05-.171l0,0c0-3.114.008-8.514.006-8.853,0-.006,0-.011,0-.017a.731.731,0,0,0-.153-.424L57.58,28.429a1.316,1.316,0,0,0-1.139-.534l-7.227,1.212a2.231,2.231,0,0,1-1.382-.394c-.45-.312-.932-.616-1.433-.9l.008-5.748-.005.009c.007-.23-.217-.451-.574-.536L38.49,19.779A1.37,1.37,0,0,0,37.31,20L33.8,23.695a1.665,1.665,0,0,1-1.152.359,38.56,38.56,0,0,0-4.778.008,1.88,1.88,0,0,1-1.289-.56l-3.141-3.3a1.443,1.443,0,0,0-1.226-.451l-7.626,1.819a.5.5,0,0,0-.394.5.131.131,0,0,0,0,.028c0,.318-.005,3.044-.005,5.7a18.619,18.619,0,0,0-1.7,1.084,1.96,1.96,0,0,1-1.257.213l-7-1.178a1.238,1.238,0,0,0-1.112.324L.08,32.471a.313.313,0,0,0-.064.188l0,.031c0,.642-.017,10.935-.018,11a.39.39,0,0,0,.059.176c0,3.165-.008,5.434-.012,5.566a.762.762,0,0,0,.157.448l2.765,3.856a1.316,1.316,0,0,0,1.139.534l7.225-1.216a2.259,2.259,0,0,1,1.382.394c.452.316.932.616,1.435.908l-.005,5.724c-.015.236.214.464.576.552l7.331,1.753a1.371,1.371,0,0,0,1.189-.222l3.509-3.692a1.639,1.639,0,0,1,1.152-.358,39.63,39.63,0,0,0,4.778-.008,1.883,1.883,0,0,1,1.286.556l3.144,3.308a1.454,1.454,0,0,0,1.226.451L45.958,60.6a.488.488,0,0,0,.39-.419c.02-.125.011-5.809.011-5.809q.9-.508,1.7-1.078a1.928,1.928,0,0,1,1.255-.218l7,1.182a1.236,1.236,0,0,0,1.11-.328l3.039-4.235a.345.345,0,0,0,.065-.195c0-.2.013-7.34.012-7.727Zm-40.82.224q.5-.354,1.088-.693c5.242-3.026,13.73-3.025,18.971,0,.381.222.74.451,1.066.678a10.235,10.235,0,0,1-1.152.752c-3.722,2.116-9.417,2.865-14.551,1.639a16.249,16.249,0,0,1-4.3-1.648,10.666,10.666,0,0,1-1.121-.728" transform="translate(0 -19.726)"/>
            </g>
          </g>
        </g>
        <g id="Grupo_182765" data-name="Grupo 182765" transform="translate(0.004 30.512)" opacity="0.15">
          <g id="Grupo_182764" data-name="Grupo 182764">
            <g id="Grupo_182763" data-name="Grupo 182763" clip-path="url(#clip-path-10)">
              <path id="Trazado_235997" data-name="Trazado 235997" d="M7.464,37.59a7.535,7.535,0,0,0-.01,2.39.771.771,0,0,1-.489.843L.369,42.91a.426.426,0,0,0-.31.42c.005.134,0,2.145,0,2.145A.392.392,0,0,1,0,45.315C.009,41.567.019,35.3.019,34.756V34.3c.011.2.21.394.529.494l6.233,1.977a.854.854,0,0,1,.683.823" transform="translate(-0.004 -34.297)"/>
            </g>
          </g>
        </g>
        <g id="Grupo_182768" data-name="Grupo 182768" transform="translate(3.736 43.128)" opacity="0.15">
          <g id="Grupo_182767" data-name="Grupo 182767">
            <g id="Grupo_182766" data-name="Grupo 182766" clip-path="url(#clip-path-11)">
              <path id="Trazado_235998" data-name="Trazado 235998" d="M12.059,48.482v7.744a1.125,1.125,0,0,0-.264,0L4.569,57.443a.859.859,0,0,1-.369-.029V49.684a.938.938,0,0,0,.384.025l7.226-1.218a.987.987,0,0,1,.249-.01" transform="translate(-4.2 -48.479)"/>
            </g>
          </g>
        </g>
        <g id="Grupo_182771" data-name="Grupo 182771" transform="translate(22.599 48.306)" opacity="0.15">
          <g id="Grupo_182770" data-name="Grupo 182770">
            <g id="Grupo_182769" data-name="Grupo 182769" clip-path="url(#clip-path-12)">
              <path id="Trazado_235999" data-name="Trazado 235999" d="M29.994,54.3v7.739a1.117,1.117,0,0,0-.444.249L26.042,65.98a1.083,1.083,0,0,1-.639.254V58.5a1.039,1.039,0,0,0,.654-.249l3.512-3.7a1.106,1.106,0,0,1,.424-.25" transform="translate(-25.403 -54.299)"/>
            </g>
          </g>
        </g>
        <g id="Grupo_182774" data-name="Grupo 182774" transform="translate(33.138 48.261)" opacity="0.15">
          <g id="Grupo_182773" data-name="Grupo 182773">
            <g id="Grupo_182772" data-name="Grupo 182772" clip-path="url(#clip-path-13)">
              <path id="Trazado_236000" data-name="Trazado 236000" d="M41.92,58.455v7.734a1.571,1.571,0,0,1-.7-.409l-3.144-3.309a2.016,2.016,0,0,0-.828-.484V54.248a2.018,2.018,0,0,1,.843.489l3.144,3.3a1.6,1.6,0,0,0,.683.415" transform="translate(-37.249 -54.248)"/>
            </g>
          </g>
        </g>
        <g id="Grupo_182777" data-name="Grupo 182777" transform="translate(44.364 43.146)" opacity="0.15">
          <g id="Grupo_182776" data-name="Grupo 182776">
            <g id="Grupo_182775" data-name="Grupo 182775" clip-path="url(#clip-path-14)">
              <path id="Trazado_236001" data-name="Trazado 236001" d="M54.326,48.5v7.739a1.651,1.651,0,0,0-.763.23,19.957,19.957,0,0,1-1.7,1.078s.012-1.769.01-2.011a.728.728,0,0,0-.079-.314L49.96,51.593a.659.659,0,0,1,.23-.919,21.349,21.349,0,0,0,3.389-1.94,1.515,1.515,0,0,1,.748-.235" transform="translate(-49.868 -48.499)"/>
            </g>
          </g>
        </g>
        <g id="Grupo_182780" data-name="Grupo 182780" transform="translate(56.906 39.594)" opacity="0.15">
          <g id="Grupo_182779" data-name="Grupo 182779">
            <g id="Grupo_182778" data-name="Grupo 182778" clip-path="url(#clip-path-15)">
              <path id="Trazado_236002" data-name="Trazado 236002" d="M67.6,44.505c0,.384-.01,7.525-.01,7.729a.386.386,0,0,1-.07.194L64.484,56.66a.88.88,0,0,1-.519.3V49.231a.952.952,0,0,0,.539-.3l3.034-4.236a.287.287,0,0,0,.065-.185" transform="translate(-63.965 -44.505)"/>
            </g>
          </g>
        </g>
        <path id="Trazado_236003" data-name="Trazado 236003" d="M14.194,22.069a.122.122,0,0,0,0,.027.714.714,0,0,0,.083.293l1.826,3.62a.656.656,0,0,1-.23.92c-.581.271-1.149.56-1.685.865a19.2,19.2,0,0,0-1.7,1.084,1.964,1.964,0,0,1-1.256.214l-7-1.179a1.235,1.235,0,0,0-1.112.325L.082,32.471a.314.314,0,0,0-.065.188.192.192,0,0,1,0,.031c.012.2.21.391.532.491l6.232,1.978a.856.856,0,0,1,.681.826,7.518,7.518,0,0,0-.007,2.388.775.775,0,0,1-.489.843L.372,41.3a.42.42,0,0,0-.311.416.8.8,0,0,0,.157.428L2.986,46a1.294,1.294,0,0,0,1.139.534l7.226-1.216a2.208,2.208,0,0,1,1.377.4,21.313,21.313,0,0,0,2.93,1.684c.428.211.667.585.526.867L14.2,52.2c-.14.281.1.588.537.7l7.336,1.75a1.363,1.363,0,0,0,1.183-.22l3.512-3.694a1.666,1.666,0,0,1,1.15-.362,39.608,39.608,0,0,0,4.776,0,1.893,1.893,0,0,1,1.291.554l3.144,3.308a1.469,1.469,0,0,0,1.222.454l7.627-1.826a.532.532,0,0,0,.311-.815l-1.828-3.625a.66.66,0,0,1,.229-.92,21.39,21.39,0,0,0,3.386-1.944,1.907,1.907,0,0,1,1.254-.217l7.005,1.175a1.229,1.229,0,0,0,1.111-.324l3.035-4.233a.29.29,0,0,0,.064-.188l0,0a.025.025,0,0,0,0-.015.367.367,0,0,0-.05-.171l0,0a.832.832,0,0,0-.479-.334L53.78,39.274c-.438-.141-.734-.5-.681-.826a7.732,7.732,0,0,0,.007-2.388.764.764,0,0,1,.489-.843l6.6-2.091a.415.415,0,0,0,.3-.4c0-.006,0-.011,0-.017a.722.722,0,0,0-.154-.423l-2.764-3.856a1.318,1.318,0,0,0-1.14-.534l-7.227,1.212a2.236,2.236,0,0,1-1.382-.394c-.45-.311-.932-.616-1.433-.9-.474-.271-.974-.532-1.492-.783-.431-.2-.672-.584-.529-.859l1.989-3.942a.328.328,0,0,0,.036-.155c.007-.231-.217-.452-.574-.537l-7.339-1.754A1.37,1.37,0,0,0,37.311,20L33.8,23.7a1.661,1.661,0,0,1-1.151.358,38.573,38.573,0,0,0-4.779.009,1.879,1.879,0,0,1-1.289-.561l-3.141-3.3a1.447,1.447,0,0,0-1.226-.451l-7.627,1.819a.5.5,0,0,0-.394.5M41.932,33.388c.064.065.128.126.188.194.048.047.087.1.129.141.1.108.185.217.271.329.1.131.2.264.285.4q.084.127.16.256c.025.041.048.082.072.123a4.741,4.741,0,0,1-.367,5.348,8.088,8.088,0,0,1-1.818,1.8,10.1,10.1,0,0,1-1.151.751c-3.723,2.117-9.418,2.865-14.551,1.64a16.249,16.249,0,0,1-4.3-1.648,10.363,10.363,0,0,1-1.122-.728,7.519,7.519,0,0,1-2.288-2.544.1.1,0,0,1-.016-.035c-.028-.049-.052-.1-.076-.15a1.731,1.731,0,0,1-.069-.159,1.094,1.094,0,0,1-.071-.169,4.732,4.732,0,0,1,.683-4.681c2.836-3.951,10.683-5.828,17.522-4.19a13.5,13.5,0,0,1,6.519,3.326" transform="translate(-0.002 -2.177)" fill="#27debf"/>
      </g>
    </g>
    <g id="Grupo_981153" data-name="Grupo 981153" transform="translate(0 0)">
      <g id="Grupo_182781-2" data-name="Grupo 182781" clip-path="url(#clip-path)">
        <path id="Trazado_235987-2" data-name="Trazado 235987" d="M83.543,24.608l.019,9.918a.962.962,0,0,0,.89.948l6.78.429,0,9.555h0a.582.582,0,0,0,.332.485l7.148,4.127a1.789,1.789,0,0,0,.906.184v.014a1.7,1.7,0,0,0,.677-.128l7.245-3.357a2.662,2.662,0,0,1,1.657-.1,43,43,0,0,0,5.625,1.337,1.368,1.368,0,0,1,1.047,1.018l.907,4.775a1.076,1.076,0,0,0,.392.625v0a1.073,1.073,0,0,0,.666.249h10.508a1.042,1.042,0,0,0,.6-.227,1.1,1.1,0,0,0,.135-.122,1.17,1.17,0,0,0,.148-.133V54.1c.058-.1.154-.174.175-.286l.907-4.775a1.366,1.366,0,0,1,1.047-1.017,43.06,43.06,0,0,0,5.624-1.338,2.665,2.665,0,0,1,1.658.1l7.245,3.357a1.7,1.7,0,0,0,.438.073v.048a2.032,2.032,0,0,0,.254-.005,1.664,1.664,0,0,0,.189,0,1.7,1.7,0,0,0,.684-.179.118.118,0,0,1,.017,0l7.148-4.127a.7.7,0,0,0,.254-.242.086.086,0,0,1,.014-.013.44.44,0,0,0,.055-.189c0-.011.01-.02.011-.03h0l0-2.276,0-1.694,0-.1v-.009l0-4.981-.283-.484.381-.029,6.558-.416.125-.008c.067,0,.109-.064.171-.082a.608.608,0,0,0,.593-.553c.041-.1.123-.185.125-.3v-.011l0,0V29.209l0-3.726V20.165a.963.963,0,0,0-.891-.948l-6.784-.429.006-9.543-.005.012a.57.57,0,0,0-.33-.509l-7.147-4.127a1.929,1.929,0,0,0-1.582-.071l-7.245,3.357a2.657,2.657,0,0,1-1.657.1,43.036,43.036,0,0,0-5.625-1.337,1.369,1.369,0,0,1-1.047-1.018L129.4.876A1.119,1.119,0,0,0,128.344,0H117.835a1.119,1.119,0,0,0-1.058.876l-.907,4.774a1.369,1.369,0,0,1-1.047,1.018A43.011,43.011,0,0,0,109.2,8.006a2.665,2.665,0,0,1-1.658-.1L100.3,4.55a1.928,1.928,0,0,0-1.582.07L91.566,8.748a.565.565,0,0,0-.328.52l-.005,0,0,9.522-6.777.43a.963.963,0,0,0-.891.948v4.256a.924.924,0,0,0-.02.187m27.47,3.374c6.669-3.85,17.481-3.85,24.15,0,.505.291.971.589,1.4.891a14.757,14.757,0,0,1-1.4.92c-6.669,3.85-17.482,3.85-24.151,0a14.913,14.913,0,0,1-1.4-.915c.426-.3.889-.6,1.395-.9" transform="translate(-9.22 0)" fill="#27debf"/>
        <g id="Grupo_182744-2" data-name="Grupo 182744" transform="translate(74.323 0)" opacity="0.2">
          <g id="Grupo_182743-2" data-name="Grupo 182743">
            <g id="Grupo_182742-2" data-name="Grupo 182742" clip-path="url(#clip-path-3)">
              <path id="Trazado_235988-2" data-name="Trazado 235988" d="M83.543,24.608l.019,9.918a.962.962,0,0,0,.89.948l6.78.429,0,9.555h0a.582.582,0,0,0,.332.485l7.148,4.127a1.789,1.789,0,0,0,.906.184v.014a1.7,1.7,0,0,0,.677-.128l7.245-3.357a2.662,2.662,0,0,1,1.657-.1,43,43,0,0,0,5.625,1.337,1.368,1.368,0,0,1,1.047,1.018l.907,4.775a1.076,1.076,0,0,0,.392.625v0a1.073,1.073,0,0,0,.666.249h10.508a1.042,1.042,0,0,0,.6-.227,1.1,1.1,0,0,0,.135-.122,1.17,1.17,0,0,0,.148-.133V54.1c.058-.1.154-.174.175-.286l.907-4.775a1.366,1.366,0,0,1,1.047-1.017,43.06,43.06,0,0,0,5.624-1.338,2.665,2.665,0,0,1,1.658.1l7.245,3.357a1.7,1.7,0,0,0,.438.073v.048a2.032,2.032,0,0,0,.254-.005,1.664,1.664,0,0,0,.189,0,1.7,1.7,0,0,0,.684-.179.118.118,0,0,1,.017,0l7.148-4.127a.7.7,0,0,0,.254-.242.086.086,0,0,1,.014-.013.44.44,0,0,0,.055-.189c0-.011.01-.02.011-.03h0l0-2.276,0-1.694,0-.1v-.009l0-4.981-.283-.484.381-.029,6.558-.416.125-.008c.067,0,.109-.064.171-.082a.608.608,0,0,0,.593-.553c.041-.1.123-.185.125-.3v-.011l0,0V29.209l0-3.726V20.165a.963.963,0,0,0-.891-.948l-6.784-.429.006-9.543-.005.012a.57.57,0,0,0-.33-.509l-7.147-4.127a1.929,1.929,0,0,0-1.582-.071l-7.245,3.357a2.657,2.657,0,0,1-1.657.1,43.036,43.036,0,0,0-5.625-1.337,1.369,1.369,0,0,1-1.047-1.018L129.4.876A1.119,1.119,0,0,0,128.344,0H117.835a1.119,1.119,0,0,0-1.058.876l-.907,4.774a1.369,1.369,0,0,1-1.047,1.018A43.011,43.011,0,0,0,109.2,8.006a2.665,2.665,0,0,1-1.658-.1L100.3,4.55a1.928,1.928,0,0,0-1.582.07L91.566,8.748a.565.565,0,0,0-.328.52l-.005,0,0,9.522-6.777.43a.963.963,0,0,0-.891.948v4.256a.924.924,0,0,0-.02.187m27.47,3.374c6.669-3.85,17.481-3.85,24.15,0,.505.291.971.589,1.4.891a14.757,14.757,0,0,1-1.4.92c-6.669,3.85-17.482,3.85-24.151,0a14.913,14.913,0,0,1-1.4-.915c.426-.3.889-.6,1.395-.9" transform="translate(-83.543)"/>
            </g>
          </g>
        </g>
        <path id="Trazado_235989-2" data-name="Trazado 235989" d="M145.887,4.55l-7.245,3.357a2.657,2.657,0,0,1-1.657.1,42.752,42.752,0,0,0-5.625-1.337,1.372,1.372,0,0,1-1.048-1.018L129.405.876A1.119,1.119,0,0,0,128.347,0H117.837a1.119,1.119,0,0,0-1.058.876l-.907,4.775a1.369,1.369,0,0,1-1.047,1.018A42.867,42.867,0,0,0,109.2,8a2.653,2.653,0,0,1-1.658-.1L100.3,4.55a1.928,1.928,0,0,0-1.582.071L91.568,8.748a.533.533,0,0,0-.048.967l5.664,4.075a.755.755,0,0,1,.1,1.163,14.26,14.26,0,0,0-2.022,2.805,1.761,1.761,0,0,1-1.287.855l-9.524.6a.963.963,0,0,0-.891.948v5.314a.962.962,0,0,0,.89.948l9.524.6a1.758,1.758,0,0,1,1.287.855,14.266,14.266,0,0,0,2.023,2.805.755.755,0,0,1-.1,1.163L91.52,35.928a.533.533,0,0,0,.048.967l7.148,4.126a1.925,1.925,0,0,0,1.582.071l7.244-3.357a2.65,2.65,0,0,1,1.657-.1,43.071,43.071,0,0,0,5.625,1.337,1.369,1.369,0,0,1,1.047,1.018l.907,4.775a1.118,1.118,0,0,0,1.058.875h10.51a1.12,1.12,0,0,0,1.059-.876l.906-4.776a1.369,1.369,0,0,1,1.047-1.017,43.038,43.038,0,0,0,5.625-1.337,2.656,2.656,0,0,1,1.657.1l7.246,3.357a1.925,1.925,0,0,0,1.582-.071l7.147-4.126a.533.533,0,0,0,.048-.967L149,31.852a.754.754,0,0,1-.1-1.162,14.255,14.255,0,0,0,2.022-2.806,1.763,1.763,0,0,1,1.287-.855l9.525-.6a.962.962,0,0,0,.89-.948V20.165a.963.963,0,0,0-.89-.948l-9.525-.6a1.759,1.759,0,0,1-1.286-.854,14.264,14.264,0,0,0-2.022-2.806.755.755,0,0,1,.1-1.163l5.665-4.075a.533.533,0,0,0-.049-.967l-7.148-4.127a1.923,1.923,0,0,0-1.581-.071m-10.719,11.3c6.669,3.85,6.669,10.093,0,13.943s-17.482,3.85-24.151,0-6.669-10.093,0-13.943,17.48-3.85,24.15,0" transform="translate(-9.222 0)" fill="#27debf"/>
        <g id="Grupo_182747-2" data-name="Grupo 182747" transform="translate(142.589 25.478)" opacity="0.15">
          <g id="Grupo_182746-2" data-name="Grupo 182746">
            <g id="Grupo_182745-2" data-name="Grupo 182745" clip-path="url(#clip-path-4)">
              <path id="Trazado_235990-2" data-name="Trazado 235990" d="M163.129,39.086l-2.851-2.052V30.284a1.322,1.322,0,0,1,.394-.1l9.525-.6a.957.957,0,0,0,.888-.947V37.7a.964.964,0,0,1-.888.931h-.005l-.12.01-5.417.343Z" transform="translate(-160.278 -28.638)"/>
            </g>
          </g>
        </g>
        <g id="Grupo_182750-2" data-name="Grupo 182750" transform="translate(128.874 37.59)" opacity="0.15">
          <g id="Grupo_182749-2" data-name="Grupo 182749">
            <g id="Grupo_182748-2" data-name="Grupo 182748" clip-path="url(#clip-path-5)">
              <path id="Trazado_235991-2" data-name="Trazado 235991" d="M144.861,42.253a2.1,2.1,0,0,1,.548.146l7.242,3.356a1.854,1.854,0,0,0,.931.117v9.05a2.171,2.171,0,0,1-.487,0h0v-.048a1.534,1.534,0,0,1-.439-.073L145.4,51.447a2.162,2.162,0,0,0-.543-.125Z" transform="translate(-144.861 -42.253)"/>
            </g>
          </g>
        </g>
        <g id="Grupo_182753-2" data-name="Grupo 182753" transform="translate(120.046 39.628)" opacity="0.15">
          <g id="Grupo_182752-2" data-name="Grupo 182752">
            <g id="Grupo_182751-2" data-name="Grupo 182751" clip-path="url(#clip-path-6)">
              <path id="Trazado_235992-2" data-name="Trazado 235992" d="M134.938,50.021a.989.989,0,0,0,.134-.341l.908-4.775a1.1,1.1,0,0,1,.141-.363V53.6a1.009,1.009,0,0,0-.141.353l-.908,4.775a.552.552,0,0,1-.134.229Z" transform="translate(-134.938 -44.544)"/>
            </g>
          </g>
        </g>
        <g id="Grupo_182756-2" data-name="Grupo 182756" transform="translate(106.508 39.632)" opacity="0.15">
          <g id="Grupo_182755-2" data-name="Grupo 182755">
            <g id="Grupo_182754-2" data-name="Grupo 182754" clip-path="url(#clip-path-7)">
              <path id="Trazado_235993-2" data-name="Trazado 235993" d="M119.721,44.548a1.147,1.147,0,0,1,.14.359l.907,4.775a1.035,1.035,0,0,0,.137.345V59.07a1.011,1.011,0,0,1-.137-.34l-.907-4.775a.911.911,0,0,0-.14-.326Z" transform="translate(-119.721 -44.548)"/>
            </g>
          </g>
        </g>
        <g id="Grupo_182759-2" data-name="Grupo 182759" transform="translate(90.145 37.59)" opacity="0.15">
          <g id="Grupo_182758-2" data-name="Grupo 182758">
            <g id="Grupo_182757-2" data-name="Grupo 182757" clip-path="url(#clip-path-8)">
              <path id="Trazado_235994-2" data-name="Trazado 235994" d="M101.328,45.872a1.822,1.822,0,0,0,.928-.117L109.5,42.4a2.1,2.1,0,0,1,.545-.146v9.052a2.045,2.045,0,0,0-.545.142L102.256,54.8a1.667,1.667,0,0,1-.676.13v-.014c-.085,0-.168,0-.252-.008Z" transform="translate(-101.328 -42.253)"/>
            </g>
          </g>
        </g>
        <path id="Trazado_235995-2" data-name="Trazado 235995" d="M60.546,41.767v-.011l0,0a.389.389,0,0,0-.05-.171l0,0c0-3.114.008-8.514.006-8.853,0-.006,0-.011,0-.017a.731.731,0,0,0-.153-.424L57.58,28.429a1.316,1.316,0,0,0-1.139-.534l-7.227,1.212a2.231,2.231,0,0,1-1.382-.394c-.45-.312-.932-.616-1.433-.9l.008-5.748-.005.009c.007-.23-.217-.451-.574-.536L38.49,19.779A1.37,1.37,0,0,0,37.31,20L33.8,23.695a1.665,1.665,0,0,1-1.152.359,38.56,38.56,0,0,0-4.778.008,1.88,1.88,0,0,1-1.289-.56l-3.141-3.3a1.443,1.443,0,0,0-1.226-.451l-7.626,1.819a.5.5,0,0,0-.394.5.131.131,0,0,0,0,.028c0,.318-.005,3.044-.005,5.7a18.619,18.619,0,0,0-1.7,1.084,1.96,1.96,0,0,1-1.257.213l-7-1.178a1.238,1.238,0,0,0-1.112.324L.08,32.471a.313.313,0,0,0-.064.188l0,.031c0,.642-.017,10.935-.018,11a.39.39,0,0,0,.059.176c0,3.165-.008,5.434-.012,5.566a.762.762,0,0,0,.157.448l2.765,3.856a1.316,1.316,0,0,0,1.139.534l7.225-1.216a2.259,2.259,0,0,1,1.382.394c.452.316.932.616,1.435.908l-.005,5.724c-.015.236.214.464.576.552l7.331,1.753a1.371,1.371,0,0,0,1.189-.222l3.509-3.692a1.639,1.639,0,0,1,1.152-.358,39.63,39.63,0,0,0,4.778-.008,1.883,1.883,0,0,1,1.286.556l3.144,3.308a1.454,1.454,0,0,0,1.226.451L45.958,60.6a.488.488,0,0,0,.39-.419c.02-.125.011-5.809.011-5.809q.9-.508,1.7-1.078a1.928,1.928,0,0,1,1.255-.218l7,1.182a1.236,1.236,0,0,0,1.11-.328l3.039-4.235a.345.345,0,0,0,.065-.195c0-.2.013-7.34.012-7.727Zm-40.82.224q.5-.354,1.088-.693c5.242-3.026,13.73-3.025,18.971,0,.381.222.74.451,1.066.678a10.235,10.235,0,0,1-1.152.752c-3.722,2.116-9.417,2.865-14.551,1.639a16.249,16.249,0,0,1-4.3-1.648,10.666,10.666,0,0,1-1.121-.728" transform="translate(0 -2.177)" fill="#27debf"/>
        <g id="Grupo_182762-2" data-name="Grupo 182762" transform="translate(0 17.549)" opacity="0.2">
          <g id="Grupo_182761-2" data-name="Grupo 182761">
            <g id="Grupo_182760-2" data-name="Grupo 182760" clip-path="url(#clip-path-9)">
              <path id="Trazado_235996-2" data-name="Trazado 235996" d="M60.546,41.767v-.011l0,0a.389.389,0,0,0-.05-.171l0,0c0-3.114.008-8.514.006-8.853,0-.006,0-.011,0-.017a.731.731,0,0,0-.153-.424L57.58,28.429a1.316,1.316,0,0,0-1.139-.534l-7.227,1.212a2.231,2.231,0,0,1-1.382-.394c-.45-.312-.932-.616-1.433-.9l.008-5.748-.005.009c.007-.23-.217-.451-.574-.536L38.49,19.779A1.37,1.37,0,0,0,37.31,20L33.8,23.695a1.665,1.665,0,0,1-1.152.359,38.56,38.56,0,0,0-4.778.008,1.88,1.88,0,0,1-1.289-.56l-3.141-3.3a1.443,1.443,0,0,0-1.226-.451l-7.626,1.819a.5.5,0,0,0-.394.5.131.131,0,0,0,0,.028c0,.318-.005,3.044-.005,5.7a18.619,18.619,0,0,0-1.7,1.084,1.96,1.96,0,0,1-1.257.213l-7-1.178a1.238,1.238,0,0,0-1.112.324L.08,32.471a.313.313,0,0,0-.064.188l0,.031c0,.642-.017,10.935-.018,11a.39.39,0,0,0,.059.176c0,3.165-.008,5.434-.012,5.566a.762.762,0,0,0,.157.448l2.765,3.856a1.316,1.316,0,0,0,1.139.534l7.225-1.216a2.259,2.259,0,0,1,1.382.394c.452.316.932.616,1.435.908l-.005,5.724c-.015.236.214.464.576.552l7.331,1.753a1.371,1.371,0,0,0,1.189-.222l3.509-3.692a1.639,1.639,0,0,1,1.152-.358,39.63,39.63,0,0,0,4.778-.008,1.883,1.883,0,0,1,1.286.556l3.144,3.308a1.454,1.454,0,0,0,1.226.451L45.958,60.6a.488.488,0,0,0,.39-.419c.02-.125.011-5.809.011-5.809q.9-.508,1.7-1.078a1.928,1.928,0,0,1,1.255-.218l7,1.182a1.236,1.236,0,0,0,1.11-.328l3.039-4.235a.345.345,0,0,0,.065-.195c0-.2.013-7.34.012-7.727Zm-40.82.224q.5-.354,1.088-.693c5.242-3.026,13.73-3.025,18.971,0,.381.222.74.451,1.066.678a10.235,10.235,0,0,1-1.152.752c-3.722,2.116-9.417,2.865-14.551,1.639a16.249,16.249,0,0,1-4.3-1.648,10.666,10.666,0,0,1-1.121-.728" transform="translate(0 -19.726)"/>
            </g>
          </g>
        </g>
        <g id="Grupo_182765-2" data-name="Grupo 182765" transform="translate(0.004 30.512)" opacity="0.15">
          <g id="Grupo_182764-2" data-name="Grupo 182764">
            <g id="Grupo_182763-2" data-name="Grupo 182763" clip-path="url(#clip-path-10)">
              <path id="Trazado_235997-2" data-name="Trazado 235997" d="M7.464,37.59a7.535,7.535,0,0,0-.01,2.39.771.771,0,0,1-.489.843L.369,42.91a.426.426,0,0,0-.31.42c.005.134,0,2.145,0,2.145A.392.392,0,0,1,0,45.315C.009,41.567.019,35.3.019,34.756V34.3c.011.2.21.394.529.494l6.233,1.977a.854.854,0,0,1,.683.823" transform="translate(-0.004 -34.297)"/>
            </g>
          </g>
        </g>
        <g id="Grupo_182768-2" data-name="Grupo 182768" transform="translate(3.736 43.128)" opacity="0.15">
          <g id="Grupo_182767-2" data-name="Grupo 182767">
            <g id="Grupo_182766-2" data-name="Grupo 182766" clip-path="url(#clip-path-11)">
              <path id="Trazado_235998-2" data-name="Trazado 235998" d="M12.059,48.482v7.744a1.125,1.125,0,0,0-.264,0L4.569,57.443a.859.859,0,0,1-.369-.029V49.684a.938.938,0,0,0,.384.025l7.226-1.218a.987.987,0,0,1,.249-.01" transform="translate(-4.2 -48.479)"/>
            </g>
          </g>
        </g>
        <g id="Grupo_182771-2" data-name="Grupo 182771" transform="translate(22.599 48.306)" opacity="0.15">
          <g id="Grupo_182770-2" data-name="Grupo 182770">
            <g id="Grupo_182769-2" data-name="Grupo 182769" clip-path="url(#clip-path-12)">
              <path id="Trazado_235999-2" data-name="Trazado 235999" d="M29.994,54.3v7.739a1.117,1.117,0,0,0-.444.249L26.042,65.98a1.083,1.083,0,0,1-.639.254V58.5a1.039,1.039,0,0,0,.654-.249l3.512-3.7a1.106,1.106,0,0,1,.424-.25" transform="translate(-25.403 -54.299)"/>
            </g>
          </g>
        </g>
        <g id="Grupo_182774-2" data-name="Grupo 182774" transform="translate(33.138 48.261)" opacity="0.15">
          <g id="Grupo_182773-2" data-name="Grupo 182773">
            <g id="Grupo_182772-2" data-name="Grupo 182772" clip-path="url(#clip-path-13)">
              <path id="Trazado_236000-2" data-name="Trazado 236000" d="M41.92,58.455v7.734a1.571,1.571,0,0,1-.7-.409l-3.144-3.309a2.016,2.016,0,0,0-.828-.484V54.248a2.018,2.018,0,0,1,.843.489l3.144,3.3a1.6,1.6,0,0,0,.683.415" transform="translate(-37.249 -54.248)"/>
            </g>
          </g>
        </g>
        <g id="Grupo_182777-2" data-name="Grupo 182777" transform="translate(44.364 43.146)" opacity="0.15">
          <g id="Grupo_182776-2" data-name="Grupo 182776">
            <g id="Grupo_182775-2" data-name="Grupo 182775" clip-path="url(#clip-path-14)">
              <path id="Trazado_236001-2" data-name="Trazado 236001" d="M54.326,48.5v7.739a1.651,1.651,0,0,0-.763.23,19.957,19.957,0,0,1-1.7,1.078s.012-1.769.01-2.011a.728.728,0,0,0-.079-.314L49.96,51.593a.659.659,0,0,1,.23-.919,21.349,21.349,0,0,0,3.389-1.94,1.515,1.515,0,0,1,.748-.235" transform="translate(-49.868 -48.499)"/>
            </g>
          </g>
        </g>
        <g id="Grupo_182780-2" data-name="Grupo 182780" transform="translate(56.906 39.594)" opacity="0.15">
          <g id="Grupo_182779-2" data-name="Grupo 182779">
            <g id="Grupo_182778-2" data-name="Grupo 182778" clip-path="url(#clip-path-15)">
              <path id="Trazado_236002-2" data-name="Trazado 236002" d="M67.6,44.505c0,.384-.01,7.525-.01,7.729a.386.386,0,0,1-.07.194L64.484,56.66a.88.88,0,0,1-.519.3V49.231a.952.952,0,0,0,.539-.3l3.034-4.236a.287.287,0,0,0,.065-.185" transform="translate(-63.965 -44.505)"/>
            </g>
          </g>
        </g>
        <path id="Trazado_236003-2" data-name="Trazado 236003" d="M14.194,22.069a.122.122,0,0,0,0,.027.714.714,0,0,0,.083.293l1.826,3.62a.656.656,0,0,1-.23.92c-.581.271-1.149.56-1.685.865a19.2,19.2,0,0,0-1.7,1.084,1.964,1.964,0,0,1-1.256.214l-7-1.179a1.235,1.235,0,0,0-1.112.325L.082,32.471a.314.314,0,0,0-.065.188.192.192,0,0,1,0,.031c.012.2.21.391.532.491l6.232,1.978a.856.856,0,0,1,.681.826,7.518,7.518,0,0,0-.007,2.388.775.775,0,0,1-.489.843L.372,41.3a.42.42,0,0,0-.311.416.8.8,0,0,0,.157.428L2.986,46a1.294,1.294,0,0,0,1.139.534l7.226-1.216a2.208,2.208,0,0,1,1.377.4,21.313,21.313,0,0,0,2.93,1.684c.428.211.667.585.526.867L14.2,52.2c-.14.281.1.588.537.7l7.336,1.75a1.363,1.363,0,0,0,1.183-.22l3.512-3.694a1.666,1.666,0,0,1,1.15-.362,39.608,39.608,0,0,0,4.776,0,1.893,1.893,0,0,1,1.291.554l3.144,3.308a1.469,1.469,0,0,0,1.222.454l7.627-1.826a.532.532,0,0,0,.311-.815l-1.828-3.625a.66.66,0,0,1,.229-.92,21.39,21.39,0,0,0,3.386-1.944,1.907,1.907,0,0,1,1.254-.217l7.005,1.175a1.229,1.229,0,0,0,1.111-.324l3.035-4.233a.29.29,0,0,0,.064-.188l0,0a.025.025,0,0,0,0-.015.367.367,0,0,0-.05-.171l0,0a.832.832,0,0,0-.479-.334L53.78,39.274c-.438-.141-.734-.5-.681-.826a7.732,7.732,0,0,0,.007-2.388.764.764,0,0,1,.489-.843l6.6-2.091a.415.415,0,0,0,.3-.4c0-.006,0-.011,0-.017a.722.722,0,0,0-.154-.423l-2.764-3.856a1.318,1.318,0,0,0-1.14-.534l-7.227,1.212a2.236,2.236,0,0,1-1.382-.394c-.45-.311-.932-.616-1.433-.9-.474-.271-.974-.532-1.492-.783-.431-.2-.672-.584-.529-.859l1.989-3.942a.328.328,0,0,0,.036-.155c.007-.231-.217-.452-.574-.537l-7.339-1.754A1.37,1.37,0,0,0,37.311,20L33.8,23.7a1.661,1.661,0,0,1-1.151.358,38.573,38.573,0,0,0-4.779.009,1.879,1.879,0,0,1-1.289-.561l-3.141-3.3a1.447,1.447,0,0,0-1.226-.451l-7.627,1.819a.5.5,0,0,0-.394.5M41.932,33.388c.064.065.128.126.188.194.048.047.087.1.129.141.1.108.185.217.271.329.1.131.2.264.285.4q.084.127.16.256c.025.041.048.082.072.123a4.741,4.741,0,0,1-.367,5.348,8.088,8.088,0,0,1-1.818,1.8,10.1,10.1,0,0,1-1.151.751c-3.723,2.117-9.418,2.865-14.551,1.64a16.249,16.249,0,0,1-4.3-1.648,10.363,10.363,0,0,1-1.122-.728,7.519,7.519,0,0,1-2.288-2.544.1.1,0,0,1-.016-.035c-.028-.049-.052-.1-.076-.15a1.731,1.731,0,0,1-.069-.159,1.094,1.094,0,0,1-.071-.169,4.732,4.732,0,0,1,.683-4.681c2.836-3.951,10.683-5.828,17.522-4.19a13.5,13.5,0,0,1,6.519,3.326" transform="translate(-0.002 -2.177)" fill="#27debf"/>
      </g>
    </g>
  </g>
</svg>
