<svg xmlns="http://www.w3.org/2000/svg" xmlns:xlink="http://www.w3.org/1999/xlink" width="293.092" height="361.892" viewBox="0 0 293.092 361.892">
  <defs>
    <clipPath id="clip-path">
      <rect id="Rectángulo_58994" data-name="Rectángulo 58994" width="151.159" height="314.561" fill="#fff"/>
    </clipPath>
    <clipPath id="clip-path-2">
      <rect id="Rectángulo_58995" data-name="Rectángulo 58995" width="154.545" height="89.502" fill="none"/>
    </clipPath>
    <clipPath id="clip-path-3">
      <rect id="Rectángulo_58996" data-name="Rectángulo 58996" width="8.337" height="26.388" fill="none"/>
    </clipPath>
    <clipPath id="clip-path-4">
      <rect id="Rectángulo_58997" data-name="Rectángulo 58997" width="66.648" height="40.308" fill="none"/>
    </clipPath>
    <clipPath id="clip-path-5">
      <rect id="Rectángulo_58998" data-name="Rectángulo 58998" width="15.687" height="10.879" fill="none"/>
    </clipPath>
    <clipPath id="clip-path-7">
      <rect id="Rectángulo_59000" data-name="Rectángulo 59000" width="15.687" height="10.877" fill="none"/>
    </clipPath>
    <clipPath id="clip-path-9">
      <rect id="Rectángulo_59002" data-name="Rectángulo 59002" width="15.687" height="10.878" fill="none"/>
    </clipPath>
    <clipPath id="clip-path-11">
      <rect id="Rectángulo_59004" data-name="Rectángulo 59004" width="19.322" height="12.938" fill="none"/>
    </clipPath>
  </defs>
  <g id="Grupo_984254" data-name="Grupo 984254" transform="translate(11717.425 12277.408)">
    <g id="Grupo_981937" data-name="Grupo 981937">
      <g id="Grupo_981932" data-name="Grupo 981932" transform="translate(-1023.366 -81.12)">
        <path id="Trazado_655337" data-name="Trazado 655337" d="M195.8,274.659l-125.4-72.4c-4.652-2.686-8.421-9.22-8.421-14.591V79.368c0-5.371,3.769-7.551,8.425-4.865l125.4,72.4c4.652,2.686,8.425,9.22,8.425,14.591v108.3C204.227,275.17,200.454,277.345,195.8,274.659Z" transform="translate(-10732.292 -12197.881)" fill="none" stroke="#e0e0e0" stroke-miterlimit="10" stroke-width="0.917"/>
        <path id="Trazado_655338" data-name="Trazado 655338" d="M100.149,92.318a1.459,1.459,0,0,0,.728-2.726l-4.213-2.433a1.479,1.479,0,0,0-1.993.537A1.457,1.457,0,0,0,95.2,89.69l4.217,2.433a1.446,1.446,0,0,0,.728.2" transform="translate(-10620.534 -12151.041)" fill="#fff"/>
        <path id="Trazado_655339" data-name="Trazado 655339" d="M196.225,148.021,187.36,142.9a1.461,1.461,0,0,1-.537-2,1.481,1.481,0,0,1,2-.537l8.865,5.118a1.461,1.461,0,0,1-.732,2.726,1.487,1.487,0,0,1-.728-.191M178.5,137.784l-8.865-5.123a1.456,1.456,0,0,1-.537-1.993,1.484,1.484,0,0,1,2-.537l8.86,5.118a1.459,1.459,0,0,1-.728,2.726,1.487,1.487,0,0,1-.728-.191m-17.73-10.241-8.865-5.118a1.455,1.455,0,0,1-.537-1.993,1.478,1.478,0,0,1,1.993-.537l8.865,5.118a1.459,1.459,0,0,1-.728,2.726,1.48,1.48,0,0,1-.728-.2m-17.73-10.236-8.865-5.118a1.459,1.459,0,0,1-.533-1.993,1.476,1.476,0,0,1,1.993-.537l8.865,5.118a1.459,1.459,0,0,1-.728,2.726,1.509,1.509,0,0,1-.732-.2m-17.73-10.236-8.865-5.118a1.461,1.461,0,0,1,1.46-2.53l8.865,5.118a1.459,1.459,0,0,1-.728,2.726,1.509,1.509,0,0,1-.732-.2m-17.73-10.236-8.865-5.118a1.464,1.464,0,0,1-.537-1.993,1.484,1.484,0,0,1,2-.537l8.865,5.118a1.459,1.459,0,0,1-.728,2.726,1.509,1.509,0,0,1-.732-.2M89.848,86.6,80.983,81.48a1.461,1.461,0,1,1,1.46-2.53l8.865,5.118a1.46,1.46,0,0,1-.728,2.726,1.484,1.484,0,0,1-.732-.2M72.118,76.361l-8.865-5.118a1.46,1.46,0,0,1-.537-1.993,1.48,1.48,0,0,1,2-.537l8.865,5.118a1.462,1.462,0,0,1-.732,2.726,1.48,1.48,0,0,1-.728-.2" transform="translate(-10730.419 -12214.486)" fill="#27debf"/>
        <path id="Trazado_655340" data-name="Trazado 655340" d="M65.247,72.172a1.459,1.459,0,0,0,.728-2.726l-4.208-2.433a1.481,1.481,0,0,0-2,.537,1.463,1.463,0,0,0,.537,1.993l4.213,2.433a1.434,1.434,0,0,0,.728.2" transform="translate(-10740.551 -12220.338)" fill="#fff"/>
        <path id="Trazado_655341" data-name="Trazado 655341" d="M98.343,130.44a1.459,1.459,0,0,0,1.46-1.46v-4.861a1.46,1.46,0,0,0-2.921,0v4.861a1.462,1.462,0,0,0,1.46,1.46" transform="translate(-10612.253 -12028.318)" fill="#fff"/>
        <path id="Trazado_655342" data-name="Trazado 655342" d="M96.883,215.941v-9.326a1.46,1.46,0,0,1,2.921,0v9.326a1.46,1.46,0,1,1-2.921,0m0-18.653v-9.326a1.46,1.46,0,0,1,2.921,0v9.326a1.46,1.46,0,1,1-2.921,0m0-18.648v-9.331a1.46,1.46,0,0,1,2.921,0v9.331a1.46,1.46,0,0,1-2.921,0m0-18.657,0-9.322a1.458,1.458,0,1,1,2.916,0v9.322a1.46,1.46,0,1,1-2.921,0m0-18.653v-9.322a1.458,1.458,0,1,1,2.916,0v9.322a1.458,1.458,0,1,1-2.916,0m0-18.648v-9.326a1.458,1.458,0,1,1,2.916,0v9.326a1.458,1.458,0,1,1-2.916,0m0-18.653V94.7a1.458,1.458,0,0,1,2.916,0v9.326a1.458,1.458,0,1,1-2.916,0" transform="translate(-10612.253 -12129.468)" fill="#27debf"/>
        <path id="Trazado_655343" data-name="Trazado 655343" d="M98.344,97.83a1.462,1.462,0,0,0,1.46-1.46V91.508a1.46,1.46,0,0,0-2.921,0v4.861a1.459,1.459,0,0,0,1.46,1.46" transform="translate(-10612.248 -12140.467)" fill="#fff"/>
        <path id="Trazado_655344" data-name="Trazado 655344" d="M65.222,109.228a1.461,1.461,0,0,0,.732-2.726l-4.217-2.428a1.473,1.473,0,0,0-1.993.533,1.457,1.457,0,0,0,.533,1.993l4.217,2.433a1.446,1.446,0,0,0,.728.2" transform="translate(-10740.649 -12092.882)" fill="#fff"/>
        <path id="Trazado_655345" data-name="Trazado 655345" d="M196.307,185.139l-8.869-5.118a1.463,1.463,0,0,1,1.46-2.535l8.869,5.123a1.461,1.461,0,0,1-.732,2.726,1.434,1.434,0,0,1-.728-.2M178.565,174.9l-8.869-5.123a1.46,1.46,0,1,1,1.456-2.53l8.874,5.123a1.457,1.457,0,0,1-.728,2.721,1.5,1.5,0,0,1-.732-.191m-17.743-10.245-8.874-5.123a1.464,1.464,0,0,1-.537-1.993,1.481,1.481,0,0,1,2-.537l8.874,5.123a1.462,1.462,0,0,1-.732,2.726,1.48,1.48,0,0,1-.728-.2m-17.747-10.245-8.869-5.127a1.458,1.458,0,0,1,1.456-2.526l8.874,5.123a1.462,1.462,0,0,1-.728,2.726,1.5,1.5,0,0,1-.732-.2m-17.743-10.25-8.874-5.118a1.465,1.465,0,0,1-.537-2,1.48,1.48,0,0,1,2-.537l8.869,5.123a1.459,1.459,0,0,1-.728,2.726,1.435,1.435,0,0,1-.728-.2m-17.747-10.241-8.869-5.123a1.461,1.461,0,0,1,1.46-2.53l8.869,5.123a1.459,1.459,0,0,1,.537,1.993,1.476,1.476,0,0,1-1.265.728,1.491,1.491,0,0,1-.732-.191M89.846,123.671l-8.874-5.123a1.457,1.457,0,0,1-.537-1.993,1.475,1.475,0,0,1,1.993-.537l8.874,5.123a1.457,1.457,0,0,1,.537,1.993,1.458,1.458,0,0,1-1.993.537M72.1,113.426,63.225,108.3a1.459,1.459,0,0,1-.533-1.993,1.476,1.476,0,0,1,1.993-.537l8.874,5.123a1.462,1.462,0,0,1-.732,2.726,1.48,1.48,0,0,1-.728-.2" transform="translate(-10730.511 -12087.031)" fill="#27debf"/>
        <path id="Trazado_655346" data-name="Trazado 655346" d="M100.149,129.4a1.459,1.459,0,0,0,.728-2.726l-4.213-2.433a1.463,1.463,0,0,0-1.46,2.535l4.217,2.428a1.446,1.446,0,0,0,.728.2" transform="translate(-10620.534 -12023.537)" fill="#fff"/>
        <path id="Trazado_655347" data-name="Trazado 655347" d="M59.548,75.431a1.459,1.459,0,0,0,1.46-1.46V69.109a1.46,1.46,0,0,0-2.921,0V73.97a1.462,1.462,0,0,0,1.46,1.46" transform="translate(-10745.67 -12217.497)" fill="#fff"/>
        <path id="Trazado_655348" data-name="Trazado 655348" d="M58.088,193.541v-9.326a1.46,1.46,0,0,1,2.921,0v9.326a1.46,1.46,0,0,1-2.921,0m0-18.653v-9.326a1.46,1.46,0,0,1,2.921,0v9.326a1.46,1.46,0,1,1-2.921,0m0-18.648v-9.331a1.46,1.46,0,1,1,2.921,0v9.331a1.46,1.46,0,0,1-2.921,0m0-18.653,0-9.326a1.458,1.458,0,1,1,2.916,0v9.326a1.46,1.46,0,0,1-2.921,0m0-18.653v-9.326a1.458,1.458,0,1,1,2.916,0v9.326a1.458,1.458,0,0,1-2.916,0m0-18.653V90.959a1.458,1.458,0,1,1,2.916,0v9.322a1.458,1.458,0,1,1-2.916,0m0-18.653V72.3a1.458,1.458,0,0,1,2.916,0v9.326a1.458,1.458,0,1,1-2.916,0" transform="translate(-10745.67 -12206.503)" fill="#27debf"/>
        <path id="Trazado_655349" data-name="Trazado 655349" d="M59.547,108.04a1.459,1.459,0,0,0,1.46-1.46v-4.861a1.46,1.46,0,1,0-2.921,0v4.861a1.462,1.462,0,0,0,1.46,1.46" transform="translate(-10745.673 -12105.354)" fill="#fff"/>
        <path id="Trazado_655350" data-name="Trazado 655350" d="M70.319,88.613,57.357,81.129a1.461,1.461,0,0,1-.728-1.265V64.9a1.458,1.458,0,0,1,2.188-1.265l12.962,7.484a1.471,1.471,0,0,1,.728,1.265V87.348a1.459,1.459,0,0,1-2.188,1.265M59.545,67.421v11.6l10.041,5.8v-11.6Z" transform="translate(-10750.688 -12231.994)" fill="#fff"/>
        <path id="Trazado_655351" data-name="Trazado 655351" d="M70.319,125.687,57.357,118.2a1.461,1.461,0,0,1-.728-1.265V101.969a1.456,1.456,0,0,1,.728-1.265,1.477,1.477,0,0,1,1.46,0l12.962,7.484a1.471,1.471,0,0,1,.728,1.265v14.969a1.459,1.459,0,0,1-2.188,1.265M59.545,104.495v11.6l10.041,5.8V110.3Z" transform="translate(-10750.688 -12104.485)" fill="#fff"/>
        <path id="Trazado_655352" data-name="Trazado 655352" d="M109.114,111.012l-12.962-7.489a1.456,1.456,0,0,1-.728-1.265V87.294a1.458,1.458,0,0,1,2.188-1.265l12.958,7.484a1.465,1.465,0,0,1,.732,1.265v14.968a1.465,1.465,0,0,1-.732,1.265,1.484,1.484,0,0,1-1.456,0M98.34,89.82v11.595l10.041,5.8V95.622Z" transform="translate(-10617.27 -12154.963)" fill="#fff"/>
        <path id="Trazado_655353" data-name="Trazado 655353" d="M109.114,148.086,96.152,140.6a1.461,1.461,0,0,1-.728-1.265V124.368a1.461,1.461,0,0,1,.728-1.265,1.477,1.477,0,0,1,1.46,0l12.958,7.484a1.465,1.465,0,0,1,.732,1.265V146.82a1.459,1.459,0,0,1-2.188,1.265M98.34,126.894v11.6l10.041,5.8V132.7Z" transform="translate(-10617.27 -12027.453)" fill="#fff"/>
        <path id="Trazado_655354" data-name="Trazado 655354" d="M56.947,90.486c0,4.807,2.921,10.383,6.525,12.469S70,102.831,70,98.024s-2.921-10.392-6.525-12.469-6.525.124-6.525,4.932" transform="translate(-10749.595 -12158.615)" fill="#fff"/>
        <path id="Trazado_655355" data-name="Trazado 655355" d="M76.359,81.071c0,4.807,2.921,10.387,6.525,12.469s6.53-.129,6.53-4.932-2.925-10.392-6.53-12.469-6.525.124-6.525,4.932" transform="translate(-10682.835 -12190.995)" fill="#fff"/>
        <path id="Trazado_655356" data-name="Trazado 655356" d="M76.359,118.149c0,4.8,2.921,10.387,6.525,12.469s6.53-.129,6.53-4.932-2.925-10.392-6.53-12.474-6.525.129-6.525,4.936" transform="translate(-10682.835 -12063.49)" fill="#fff"/>
        <path id="Trazado_655357" data-name="Trazado 655357" d="M95.744,112.935c0,4.807,2.921,10.387,6.525,12.469s6.525-.129,6.525-4.932-2.921-10.392-6.525-12.469-6.525.124-6.525,4.932" transform="translate(-10616.169 -12081.412)" fill="#fff"/>
        <path id="Trazado_655358" data-name="Trazado 655358" d="M71.276,116.745l7.888,5.553a3.21,3.21,0,0,1,1.105,1.673,51.535,51.535,0,0,0,2,6.694,1.651,1.651,0,0,1-.431,1.709l-4.448,3.835a1.351,1.351,0,0,0-.28,1.638l6.348,11a1.36,1.36,0,0,0,1.558.577l5.544-1.935a1.655,1.655,0,0,1,1.7.479,52.262,52.262,0,0,0,4.8,5.078,3.22,3.22,0,0,1,.9,1.793l.866,9.611a2.332,2.332,0,0,0,1.03,1.611l8.634,4.985a.646.646,0,0,0,1.043-.533l.843-8.39a.909.909,0,0,1,1.15-.812,17.144,17.144,0,0,0,4.159.422,2.135,2.135,0,0,1,1.673.83l6.383,9.6a1.158,1.158,0,0,0,1.527.36l5.562-3.209a1.162,1.162,0,0,0,.453-1.5l-5.123-10.33a2.138,2.138,0,0,1,.12-1.864,17.179,17.179,0,0,0,1.709-3.809.917.917,0,0,1,1.283-.595l7.684,3.467a.645.645,0,0,0,.985-.635v-9.975a2.319,2.319,0,0,0-.883-1.7l-7.888-5.553a3.21,3.21,0,0,1-1.105-1.674,51.312,51.312,0,0,0-2-6.694,1.651,1.651,0,0,1,.431-1.709l4.448-3.835a1.347,1.347,0,0,0,.28-1.634l-6.348-11a1.358,1.358,0,0,0-1.558-.577l-5.544,1.935a1.658,1.658,0,0,1-1.7-.479,51.735,51.735,0,0,0-4.8-5.078,3.234,3.234,0,0,1-.9-1.793l-.866-9.611a2.332,2.332,0,0,0-1.03-1.611l-8.634-4.985a.646.646,0,0,0-1.043.533L97.959,97a.909.909,0,0,1-1.15.812,17.147,17.147,0,0,0-4.159-.422,2.133,2.133,0,0,1-1.669-.83l-6.388-9.6a1.158,1.158,0,0,0-1.527-.36L77.5,89.8a1.162,1.162,0,0,0-.453,1.5l5.123,10.33a2.138,2.138,0,0,1-.115,1.864,16.987,16.987,0,0,0-1.713,3.809.917.917,0,0,1-1.283.595l-7.684-3.467a.645.645,0,0,0-.985.635v9.975a2.319,2.319,0,0,0,.883,1.7m18.3,4.39c0-9.3,6.53-13.073,14.587-8.421s14.591,15.963,14.591,25.267-6.53,13.073-14.591,8.421-14.587-15.963-14.587-25.267" transform="translate(-10703.353 -12152.855)" fill="#fff"/>
      </g>
      <g id="Grupo_981930" data-name="Grupo 981930" transform="translate(-83.41 -244.112)">
        <path id="Trazado_235827" data-name="Trazado 235827" d="M.013,36.353,0,256.393a11.676,11.676,0,0,0,5.288,9.152l140.584,81.137a3.413,3.413,0,0,0,1.752.5,2.889,2.889,0,0,0,.675-.088,1.907,1.907,0,0,0,.451-.155c.1-.05.191-.1.278-.155.1-.07.208-.137.31-.209a2.02,2.02,0,0,0,.3-.258,4.172,4.172,0,0,0,.971-1.388,6.608,6.608,0,0,0,.554-2.669V123.541a11.7,11.7,0,0,0-5.288-9.152L5.288,33.337a3.844,3.844,0,0,0-3.553-.451,2.139,2.139,0,0,0-.451.276A3.735,3.735,0,0,0,.013,36.353" transform="translate(-11498.833 -12018.592)" fill="#455a64"/>
        <path id="Trazado_235828" data-name="Trazado 235828" d="M2.942,34.431a3,3,0,0,1,1.444.471l140.584,81.05a10,10,0,0,1,4.384,7.589V342.262a4.781,4.781,0,0,1-.4,1.927,2.363,2.363,0,0,1-.543.8l-.092.085-.022.025-.029.023-.079.052-.13.087a.946.946,0,0,1-.173.081,1.434,1.434,0,0,1-.341.041,1.653,1.653,0,0,1-.774-.263L6.188,263.982A9.847,9.847,0,0,1,1.8,256.393L1.816,36.353c0-1.292.5-1.711.561-1.758a.5.5,0,0,1,.126-.076,1.007,1.007,0,0,1,.439-.088m0-1.8a2.791,2.791,0,0,0-1.209.262,2.161,2.161,0,0,0-.451.273A3.743,3.743,0,0,0,.011,36.353L0,256.393a11.677,11.677,0,0,0,5.286,9.152l140.585,81.137a3.441,3.441,0,0,0,1.677.505l.074,0a2.972,2.972,0,0,0,.675-.087,1.993,1.993,0,0,0,.451-.155c.1-.052.191-.1.278-.157l.312-.208a2.243,2.243,0,0,0,.294-.26,4.157,4.157,0,0,0,.971-1.388,6.615,6.615,0,0,0,.554-2.669V123.541a11.7,11.7,0,0,0-5.286-9.152L5.286,33.337a4.815,4.815,0,0,0-2.344-.711" transform="translate(-11498.833 -12018.592)" fill="#455a64"/>
        <g id="Grupo_182676" data-name="Grupo 182676" transform="translate(-11498.833 -11985.966)" style="isolation: isolate">
          <g id="Grupo_182675" data-name="Grupo 182675" style="isolation: isolate">
            <g id="Grupo_182674" data-name="Grupo 182674" clip-path="url(#clip-path)">
              <path id="Trazado_235829" data-name="Trazado 235829" d="M.013,36.353,0,256.393a11.676,11.676,0,0,0,5.288,9.152l140.584,81.137a3.413,3.413,0,0,0,1.752.5,2.889,2.889,0,0,0,.675-.088,1.907,1.907,0,0,0,.451-.155c.1-.05.191-.1.278-.155.1-.07.208-.137.31-.209a2.02,2.02,0,0,0,.3-.258,4.172,4.172,0,0,0,.971-1.388,6.608,6.608,0,0,0,.554-2.669V123.541a11.7,11.7,0,0,0-5.288-9.152L5.288,33.337a3.844,3.844,0,0,0-3.553-.451,2.139,2.139,0,0,0-.451.276A3.735,3.735,0,0,0,.013,36.353" transform="translate(0 -32.626)" fill="#fff"/>
            </g>
          </g>
        </g>
        <path id="Trazado_235830" data-name="Trazado 235830" d="M.961,34.589a3.834,3.834,0,0,1,3.553.451L145.1,116.091a11.7,11.7,0,0,1,5.284,9.152v17.265l6.742-3.952V121.413a11.659,11.659,0,0,0-5.266-9.135L11.255,31.227a3.67,3.67,0,0,0-3.83-.312C6.474,31.487,2.087,34,.961,34.589" transform="translate(-11498.06 -12020.295)" fill="#27debf"/>
        <path id="Trazado_235831" data-name="Trazado 235831" d="M.007,36.353c.02-3.335,2.373-4.683,5.277-3.008l140.585,81.049a11.675,11.675,0,0,1,5.281,9.148l-.005,17.273L.007,53.687Z" transform="translate(-11498.828 -12018.592)" fill="#27debf"/>
        <g id="Grupo_182679" data-name="Grupo 182679" transform="translate(-11497.08 -11989.784)" opacity="0.4">
          <g id="Grupo_182678" data-name="Grupo 182678">
            <g id="Grupo_182677" data-name="Grupo 182677" clip-path="url(#clip-path-2)">
              <path id="Trazado_235832" data-name="Trazado 235832" d="M4.509,35.045l140.578,81.049a10.865,10.865,0,0,1,3.719,3.92l6.71-3.886a10.547,10.547,0,0,0-3.674-3.857L11.253,31.222a3.716,3.716,0,0,0-3.837-.314c-.947.583-5.333,3.073-6.445,3.671a3.825,3.825,0,0,1,3.537.466" transform="translate(-0.971 -30.511)" fill="#fff"/>
            </g>
          </g>
        </g>
        <g id="Grupo_182682" data-name="Grupo 182682" transform="translate(-11349.26 -11904.169)" opacity="0.15">
          <g id="Grupo_182681" data-name="Grupo 182681">
            <g id="Grupo_182680" data-name="Grupo 182680" clip-path="url(#clip-path-3)">
              <path id="Trazado_235833" data-name="Trazado 235833" d="M91.217,100.4l0-17.168a10.9,10.9,0,0,0-1.608-5.282l-6.726,3.869a10.683,10.683,0,0,1,1.577,5.248V104.34Z" transform="translate(-82.88 -77.952)"/>
            </g>
          </g>
        </g>
        <path id="Trazado_235834" data-name="Trazado 235834" d="M18.962,45.727c1.648.949,2.983,3.777,2.983,6.316s-1.335,3.821-2.983,2.871-2.983-3.781-2.983-6.316,1.335-3.822,2.983-2.871" transform="translate(-11485.973 -12008.303)" fill="#455a64"/>
        <path id="Trazado_235835" data-name="Trazado 235835" d="M13.009,42.284c1.648.951,2.983,3.779,2.983,6.316s-1.335,3.822-2.983,2.871-2.983-3.779-2.983-6.316,1.335-3.822,2.983-2.871" transform="translate(-11490.767 -12011.074)" fill="#455a64"/>
        <path id="Trazado_235836" data-name="Trazado 235836" d="M7.057,38.841c1.648.951,2.983,3.779,2.983,6.316S8.7,48.98,7.057,48.029s-2.983-3.779-2.983-6.316,1.335-3.822,2.983-2.871" transform="translate(-11495.556 -12013.845)" fill="#455a64"/>
        <path id="Trazado_235837" data-name="Trazado 235837" d="M82.683,300.226c.191-.121.415-.242.659-.381.485-.3,1.04-.608,1.63-.919l.016-.018c.3-.173.59-.347.884-.5a.132.132,0,0,1,.07-.036c.485-.276.953-.554,1.386-.8.451-.26.85-.484,1.162-.659s.554-.31.659-.363a2.987,2.987,0,0,0,.9-.729,4,4,0,0,0,.711-1.074,6.548,6.548,0,0,0,.606-2.792V90.38l-6.742,3.952V295.788a7.907,7.907,0,0,1-.556,2.669,4.157,4.157,0,0,1-.971,1.388.864.864,0,0,1-.294.26.386.386,0,0,1-.121.121" transform="translate(-11432.298 -11972.119)" fill="#afafaf"/>
        <path id="Trazado_235838" data-name="Trazado 235838" d="M78.008,101.127a.582.582,0,0,1-.2.5l-2.819,2.581a.135.135,0,0,1-.128.025c-.038-.014-.061-.025-.072-.031a.582.582,0,0,1-.22-.271.906.906,0,0,1-.094-.4v-1.96a1.763,1.763,0,0,1,.058-.541.749.749,0,0,1,.2-.3l1.487-1.366-1.487-3.084a2.874,2.874,0,0,1-.2-.534,2.506,2.506,0,0,1-.058-.6V93.182a.374.374,0,0,1,.094-.285.166.166,0,0,1,.22-.016.782.782,0,0,1,.072.052.569.569,0,0,1,.128.171l2.819,5.836a1.564,1.564,0,0,1,.2.733Z" transform="translate(-11438.904 -11970.133)" fill="#27debf"/>
        <path id="Trazado_235839" data-name="Trazado 235839" d="M76.4,109.851a.936.936,0,0,1,.027.213.383.383,0,0,1-.092.289.168.168,0,0,1-.222.016l-1.016-.585a1.061,1.061,0,0,1-.428-.471,2.591,2.591,0,0,1-.2-.556l-4.835-20.61a1.053,1.053,0,0,1-.027-.215.389.389,0,0,1,.092-.287.173.173,0,0,1,.222-.016l1.059.612a1.038,1.038,0,0,1,.415.448,2.955,2.955,0,0,1,.213.576Z" transform="translate(-11442.818 -11974.358)" fill="#27debf"/>
        <path id="Trazado_235840" data-name="Trazado 235840" d="M66.572,92.325a.585.585,0,0,1,.2-.5l2.819-2.581a.139.139,0,0,1,.128-.023.556.556,0,0,1,.07.031.574.574,0,0,1,.222.271.9.9,0,0,1,.092.393v1.962a1.832,1.832,0,0,1-.056.54.787.787,0,0,1-.2.3L68.36,94.085l1.487,3.082a3.007,3.007,0,0,1,.2.534,2.622,2.622,0,0,1,.056.606v1.96a.386.386,0,0,1-.092.289.17.17,0,0,1-.222.014c-.009-.005-.032-.023-.07-.052a.571.571,0,0,1-.128-.175l-2.819-5.833a1.569,1.569,0,0,1-.2-.733Z" transform="translate(-11445.262 -11973.058)" fill="#27debf"/>
        <path id="Trazado_235841" data-name="Trazado 235841" d="M63.73,91.778a.712.712,0,0,1,.271.334,1.111,1.111,0,0,1,.116.484v2.158a.469.469,0,0,1-.116.354.206.206,0,0,1-.271.018l-1.33-.769a.731.731,0,0,1-.273-.332,1.136,1.136,0,0,1-.114-.485V91.381a.474.474,0,0,1,.114-.352.211.211,0,0,1,.273-.02Z" transform="translate(-11448.932 -11971.646)" fill="#27debf"/>
        <path id="Trazado_235842" data-name="Trazado 235842" d="M61.266,90.354a.713.713,0,0,1,.271.334,1.111,1.111,0,0,1,.115.484V93.33a.472.472,0,0,1-.115.354.206.206,0,0,1-.271.018l-1.332-.769a.729.729,0,0,1-.271-.332,1.113,1.113,0,0,1-.116-.485V89.957a.467.467,0,0,1,.116-.352.207.207,0,0,1,.271-.018Z" transform="translate(-11450.915 -11972.789)" fill="#27debf"/>
        <path id="Trazado_235843" data-name="Trazado 235843" d="M58.8,88.932a.723.723,0,0,1,.271.334,1.105,1.105,0,0,1,.115.484v2.158a.464.464,0,0,1-.115.352.2.2,0,0,1-.271.02l-1.33-.769a.731.731,0,0,1-.273-.332,1.139,1.139,0,0,1-.116-.485V88.535a.474.474,0,0,1,.116-.352.211.211,0,0,1,.273-.02Z" transform="translate(-11452.899 -11973.936)" fill="#27debf"/>
        <path id="Trazado_235844" data-name="Trazado 235844" d="M116.983,128.874,25.956,76.32c-.769-.444-1.393-.128-1.393.706a2.988,2.988,0,0,0,1.393,2.314l91.027,52.554c.769.444,1.393.128,1.393-.706a2.989,2.989,0,0,0-1.393-2.314" transform="translate(-11479.067 -11983.596)" fill="#27debf"/>
        <path id="Trazado_235845" data-name="Trazado 235845" d="M105.394,142.256,14.367,89.7c-.769-.444-1.393-.128-1.393.706a2.988,2.988,0,0,0,1.393,2.314l91.027,52.554c.769.444,1.393.128,1.393-.706a2.989,2.989,0,0,0-1.393-2.314" transform="translate(-11488.394 -11972.825)" fill="#f4a338"/>
        <path id="Trazado_235846" data-name="Trazado 235846" d="M90.239,140.192,33.2,107.275c-.769-.444-1.393-.13-1.393.7a2.994,2.994,0,0,0,1.393,2.315l57.039,32.918c.769.444,1.393.128,1.393-.706a2.988,2.988,0,0,0-1.393-2.314" transform="translate(-11473.238 -11958.686)" fill="#f4a338"/>
        <path id="Trazado_235847" data-name="Trazado 235847" d="M90.239,146.883,33.2,113.966c-.769-.444-1.393-.13-1.393.7a3,3,0,0,0,1.393,2.315L90.239,149.9c.769.444,1.393.128,1.393-.706a2.988,2.988,0,0,0-1.393-2.314" transform="translate(-11473.238 -11953.302)" fill="#f4a338"/>
        <path id="Trazado_235848" data-name="Trazado 235848" d="M34.545,81.3,8.573,66.253c-.771-.446-1.393-.13-1.393.7a2.984,2.984,0,0,0,1.393,2.314L34.545,84.322c.769.444,1.393.128,1.393-.706A2.989,2.989,0,0,0,34.545,81.3" transform="translate(-11493.056 -11991.697)" fill="#27debf"/>
        <path id="Trazado_235849" data-name="Trazado 235849" d="M94.549,189.651,25.956,149.917c-.769-.444-1.393-.128-1.393.706a2.989,2.989,0,0,0,1.393,2.314L94.549,192.67c.769.444,1.393.128,1.393-.706a2.989,2.989,0,0,0-1.393-2.314" transform="translate(-11479.067 -11924.372)" fill="#27debf"/>
        <path id="Trazado_235850" data-name="Trazado 235850" d="M34.545,154.9,8.573,139.849c-.771-.444-1.393-.128-1.393.706a2.984,2.984,0,0,0,1.393,2.314l25.971,15.051c.769.444,1.393.128,1.393-.706a2.989,2.989,0,0,0-1.393-2.314" transform="translate(-11493.056 -11932.475)" fill="#27debf"/>
        <path id="Trazado_235851" data-name="Trazado 235851" d="M96.818,170.7,8.572,119.811c-.769-.444-1.393-.128-1.393.706a2.988,2.988,0,0,0,1.393,2.314l88.246,50.892c.769.444,1.393.128,1.393-.706a2.989,2.989,0,0,0-1.393-2.314" transform="translate(-11493.056 -11948.597)" fill="#27debf"/>
        <path id="Trazado_235852" data-name="Trazado 235852" d="M118.963,190.592,8.572,126.5c-.769-.444-1.393-.128-1.393.706a2.984,2.984,0,0,0,1.393,2.314l110.391,64.092c.771.444,1.4.128,1.4-.706a2.986,2.986,0,0,0-1.4-2.314" transform="translate(-11493.056 -11943.216)" fill="#27debf"/>
        <path id="Trazado_235853" data-name="Trazado 235853" d="M99.784,186,25.956,143.234c-.769-.446-1.393-.13-1.393.7a2.988,2.988,0,0,0,1.393,2.314l73.828,42.771c.769.444,1.393.128,1.393-.706A2.988,2.988,0,0,0,99.784,186" transform="translate(-11479.067 -11929.75)" fill="#f4a338"/>
        <path id="Trazado_235854" data-name="Trazado 235854" d="M76.249,158.832l-14.593-8.424c-.769-.444-1.393-.128-1.393.706a2.989,2.989,0,0,0,1.393,2.314l14.593,8.424c.769.444,1.393.128,1.393-.706a2.988,2.988,0,0,0-1.393-2.314" transform="translate(-11450.34 -11923.979)" fill="#27debf"/>
        <path id="Trazado_235855" data-name="Trazado 235855" d="M104.87,128.595,41.009,91.709c-.769-.444-1.393-.128-1.393.706a2.991,2.991,0,0,0,1.393,2.314l63.861,36.886c.769.444,1.393.128,1.393-.706a2.989,2.989,0,0,0-1.393-2.314" transform="translate(-11466.954 -11971.212)" fill="#27debf"/>
        <g id="Grupo_182685" data-name="Grupo 182685" transform="translate(-11427.338 -11879.705)" opacity="0.6">
          <g id="Grupo_182684" data-name="Grupo 182684">
            <g id="Grupo_182683" data-name="Grupo 182683" clip-path="url(#clip-path-4)">
              <path id="Trazado_235856" data-name="Trazado 235856" d="M104.87,128.595,41.009,91.709c-.769-.444-1.393-.128-1.393.706a2.991,2.991,0,0,0,1.393,2.314l63.861,36.886c.769.444,1.393.128,1.393-.706a2.989,2.989,0,0,0-1.393-2.314" transform="translate(-39.617 -91.507)" fill="#fff"/>
            </g>
          </g>
        </g>
        <path id="Trazado_235857" data-name="Trazado 235857" d="M82.147,122.151l-12.9-7.457c-.769-.444-1.393-.128-1.393.706a2.988,2.988,0,0,0,1.393,2.314l12.9,7.457c.769.444,1.393.128,1.393-.706a2.988,2.988,0,0,0-1.393-2.314" transform="translate(-11444.232 -11952.715)" fill="#27debf"/>
        <g id="Grupo_182688" data-name="Grupo 182688" transform="translate(-11376.376 -11838.223)" opacity="0.6">
          <g id="Grupo_182687" data-name="Grupo 182687">
            <g id="Grupo_182686" data-name="Grupo 182686" clip-path="url(#clip-path-5)">
              <path id="Trazado_235858" data-name="Trazado 235858" d="M82.147,122.151l-12.9-7.457c-.769-.444-1.393-.128-1.393.706a2.988,2.988,0,0,0,1.393,2.314l12.9,7.457c.769.444,1.393.128,1.393-.706a2.988,2.988,0,0,0-1.393-2.314" transform="translate(-67.855 -114.493)" fill="#fff"/>
            </g>
          </g>
        </g>
        <path id="Trazado_235859" data-name="Trazado 235859" d="M82.147,128.842l-12.9-7.457c-.769-.444-1.393-.128-1.393.706a2.988,2.988,0,0,0,1.393,2.314l12.9,7.457c.769.444,1.393.128,1.393-.706a2.989,2.989,0,0,0-1.393-2.314" transform="translate(-11444.232 -11947.332)" fill="#27debf"/>
        <g id="Grupo_182691" data-name="Grupo 182691" transform="translate(-11376.376 -11826.146)" opacity="0.6">
          <g id="Grupo_182690" data-name="Grupo 182690">
            <g id="Grupo_182689" data-name="Grupo 182689" clip-path="url(#clip-path-5)">
              <path id="Trazado_235860" data-name="Trazado 235860" d="M82.147,128.842l-12.9-7.457c-.769-.444-1.393-.128-1.393.706a2.988,2.988,0,0,0,1.393,2.314l12.9,7.457c.769.444,1.393.128,1.393-.706a2.989,2.989,0,0,0-1.393-2.314" transform="translate(-67.855 -121.184)" fill="#fff"/>
            </g>
          </g>
        </g>
        <path id="Trazado_235861" data-name="Trazado 235861" d="M82.147,135.533l-12.9-7.457c-.769-.444-1.393-.128-1.393.706a2.988,2.988,0,0,0,1.393,2.314l12.9,7.457c.769.444,1.393.128,1.393-.706a2.989,2.989,0,0,0-1.393-2.314" transform="translate(-11444.232 -11941.948)" fill="#27debf"/>
        <g id="Grupo_182694" data-name="Grupo 182694" transform="translate(-11376.376 -11814.072)" opacity="0.6">
          <g id="Grupo_182693" data-name="Grupo 182693">
            <g id="Grupo_182692" data-name="Grupo 182692" clip-path="url(#clip-path-7)">
              <path id="Trazado_235862" data-name="Trazado 235862" d="M82.147,135.533l-12.9-7.457c-.769-.444-1.393-.128-1.393.706a2.988,2.988,0,0,0,1.393,2.314l12.9,7.457c.769.444,1.393.128,1.393-.706a2.989,2.989,0,0,0-1.393-2.314" transform="translate(-67.855 -127.875)" fill="#fff"/>
            </g>
          </g>
        </g>
        <path id="Trazado_235863" data-name="Trazado 235863" d="M82.147,142.224l-12.9-7.457c-.769-.444-1.393-.128-1.393.706a2.988,2.988,0,0,0,1.393,2.314l12.9,7.457c.769.444,1.393.128,1.393-.706a2.989,2.989,0,0,0-1.393-2.314" transform="translate(-11444.232 -11936.563)" fill="#27debf"/>
        <g id="Grupo_182697" data-name="Grupo 182697" transform="translate(-11376.376 -11801.997)" opacity="0.6">
          <g id="Grupo_182696" data-name="Grupo 182696">
            <g id="Grupo_182695" data-name="Grupo 182695" clip-path="url(#clip-path-7)">
              <path id="Trazado_235864" data-name="Trazado 235864" d="M82.147,142.224l-12.9-7.457c-.769-.444-1.393-.128-1.393.706a2.988,2.988,0,0,0,1.393,2.314l12.9,7.457c.769.444,1.393.128,1.393-.706a2.989,2.989,0,0,0-1.393-2.314" transform="translate(-67.855 -134.566)" fill="#fff"/>
            </g>
          </g>
        </g>
        <path id="Trazado_235865" data-name="Trazado 235865" d="M90.239,193.954,33.2,161.037c-.769-.444-1.393-.128-1.393.7a2.994,2.994,0,0,0,1.393,2.315l57.039,32.918c.769.444,1.393.128,1.393-.706a2.989,2.989,0,0,0-1.393-2.314" transform="translate(-11473.238 -11915.425)" fill="#f4a338"/>
        <path id="Trazado_235866" data-name="Trazado 235866" d="M90.239,200.646,33.2,167.729c-.769-.444-1.393-.13-1.393.7a2.989,2.989,0,0,0,1.393,2.314l57.039,32.919c.769.444,1.393.128,1.393-.706a2.989,2.989,0,0,0-1.393-2.314" transform="translate(-11473.238 -11910.039)" fill="#f4a338"/>
        <path id="Trazado_235867" data-name="Trazado 235867" d="M44.58,167.569,8.744,146.953c-.769-.444-1.393-.128-1.393.706a2.991,2.991,0,0,0,1.393,2.314L44.58,170.589c.769.444,1.393.128,1.393-.706a2.988,2.988,0,0,0-1.393-2.314" transform="translate(-11492.917 -11926.757)" fill="#f4a338"/>
        <path id="Trazado_235868" data-name="Trazado 235868" d="M44.58,174.261,8.744,153.644c-.769-.446-1.393-.128-1.393.7a3,3,0,0,0,1.393,2.315L44.58,177.28c.769.444,1.393.128,1.393-.706a2.989,2.989,0,0,0-1.393-2.314" transform="translate(-11492.917 -11921.373)" fill="#f4a338"/>
        <path id="Trazado_235869" data-name="Trazado 235869" d="M82.147,189.3l-12.9-7.457c-.769-.444-1.393-.128-1.393.706a2.988,2.988,0,0,0,1.393,2.314l12.9,7.457c.769.444,1.393.128,1.393-.706a2.989,2.989,0,0,0-1.393-2.314" transform="translate(-11444.232 -11898.686)" fill="#27debf"/>
        <g id="Grupo_182700" data-name="Grupo 182700" transform="translate(-11376.376 -11717.048)" opacity="0.6">
          <g id="Grupo_182699" data-name="Grupo 182699">
            <g id="Grupo_182698" data-name="Grupo 182698" clip-path="url(#clip-path-9)">
              <path id="Trazado_235870" data-name="Trazado 235870" d="M82.147,189.3l-12.9-7.457c-.769-.444-1.393-.128-1.393.706a2.988,2.988,0,0,0,1.393,2.314l12.9,7.457c.769.444,1.393.128,1.393-.706a2.989,2.989,0,0,0-1.393-2.314" transform="translate(-67.855 -181.637)" fill="#fff"/>
            </g>
          </g>
        </g>
        <path id="Trazado_235871" data-name="Trazado 235871" d="M82.147,195.987l-12.9-7.457c-.769-.444-1.393-.128-1.393.706a2.989,2.989,0,0,0,1.393,2.314l12.9,7.457c.769.444,1.393.128,1.393-.706a2.988,2.988,0,0,0-1.393-2.314" transform="translate(-11444.232 -11893.302)" fill="#27debf"/>
        <g id="Grupo_182703" data-name="Grupo 182703" transform="translate(-11376.376 -11704.972)" opacity="0.6">
          <g id="Grupo_182702" data-name="Grupo 182702">
            <g id="Grupo_182701" data-name="Grupo 182701" clip-path="url(#clip-path-9)">
              <path id="Trazado_235872" data-name="Trazado 235872" d="M82.147,195.987l-12.9-7.457c-.769-.444-1.393-.128-1.393.706a2.989,2.989,0,0,0,1.393,2.314l12.9,7.457c.769.444,1.393.128,1.393-.706a2.988,2.988,0,0,0-1.393-2.314" transform="translate(-67.855 -188.328)" fill="#fff"/>
            </g>
          </g>
        </g>
        <path id="Trazado_235873" data-name="Trazado 235873" d="M45.39,94.223,28.855,84.707c-.771-.444-1.393-.128-1.393.706a2.984,2.984,0,0,0,1.393,2.314L45.39,97.242c.769.444,1.393.128,1.393-.706a2.989,2.989,0,0,0-1.393-2.314" transform="translate(-11476.735 -11976.846)" fill="#27debf"/>
        <g id="Grupo_182706" data-name="Grupo 182706" transform="translate(-11449.273 -11892.341)" opacity="0.6">
          <g id="Grupo_182705" data-name="Grupo 182705">
            <g id="Grupo_182704" data-name="Grupo 182704" clip-path="url(#clip-path-11)">
              <path id="Trazado_235874" data-name="Trazado 235874" d="M45.39,94.223,28.855,84.707c-.771-.444-1.393-.128-1.393.706a2.984,2.984,0,0,0,1.393,2.314L45.39,97.242c.769.444,1.393.128,1.393-.706a2.989,2.989,0,0,0-1.393-2.314" transform="translate(-27.461 -84.506)" fill="#fff"/>
            </g>
          </g>
        </g>
        <path id="Trazado_235875" data-name="Trazado 235875" d="M101.26,159.859,20.727,113.43c-.769-.444-1.393-.128-1.393.7a2.989,2.989,0,0,0,1.393,2.315l80.533,46.429c.769.444,1.393.128,1.393-.706a2.988,2.988,0,0,0-1.393-2.314" transform="translate(-11483.274 -11953.732)" fill="#f4a338"/>
        <path id="Trazado_235876" data-name="Trazado 235876" d="M130.973,183.976,8.573,113.13c-.771-.444-1.4-.128-1.4.706a2.986,2.986,0,0,0,1.4,2.314L130.973,187c.771.444,1.4.128,1.4-.706a2.986,2.986,0,0,0-1.4-2.314" transform="translate(-11493.058 -11953.975)" fill="#f4a338"/>
        <path id="Trazado_235877" data-name="Trazado 235877" d="M25.108,115.944,8.573,106.428c-.771-.444-1.393-.128-1.393.706a2.984,2.984,0,0,0,1.393,2.314l16.535,9.516c.769.444,1.391.128,1.391-.706a2.982,2.982,0,0,0-1.391-2.314" transform="translate(-11493.056 -11959.368)" fill="#ffa8a7"/>
        <path id="Trazado_235878" data-name="Trazado 235878" d="M93.281,128.582,29.42,91.7c-.769-.444-1.393-.128-1.393.706a2.991,2.991,0,0,0,1.393,2.314L93.281,131.6c.769.444,1.393.128,1.393-.706a2.989,2.989,0,0,0-1.393-2.314" transform="translate(-11476.28 -11971.222)" fill="#27debf"/>
        <g id="Grupo_182709" data-name="Grupo 182709" transform="translate(-11448.253 -11879.727)" opacity="0.6">
          <g id="Grupo_182708" data-name="Grupo 182708">
            <g id="Grupo_182707" data-name="Grupo 182707" clip-path="url(#clip-path-4)">
              <path id="Trazado_235879" data-name="Trazado 235879" d="M93.281,128.582,29.42,91.7c-.769-.444-1.393-.128-1.393.706a2.991,2.991,0,0,0,1.393,2.314L93.281,131.6c.769.444,1.393.128,1.393-.706a2.989,2.989,0,0,0-1.393-2.314" transform="translate(-28.027 -91.495)" fill="#fff"/>
            </g>
          </g>
        </g>
        <path id="Trazado_235880" data-name="Trazado 235880" d="M33.8,94.211,17.265,84.695c-.771-.444-1.393-.128-1.393.706a2.984,2.984,0,0,0,1.393,2.314L33.8,97.23c.769.444,1.393.128,1.393-.706A2.988,2.988,0,0,0,33.8,94.211" transform="translate(-11486.061 -11976.855)" fill="#27debf"/>
        <g id="Grupo_182712" data-name="Grupo 182712" transform="translate(-11470.188 -11892.363)" opacity="0.6">
          <g id="Grupo_182711" data-name="Grupo 182711">
            <g id="Grupo_182710" data-name="Grupo 182710" clip-path="url(#clip-path-11)">
              <path id="Trazado_235881" data-name="Trazado 235881" d="M33.8,94.211,17.265,84.695c-.771-.444-1.393-.128-1.393.706a2.984,2.984,0,0,0,1.393,2.314L33.8,97.23c.769.444,1.393.128,1.393-.706A2.988,2.988,0,0,0,33.8,94.211" transform="translate(-15.872 -84.493)" fill="#fff"/>
            </g>
          </g>
        </g>
      </g>
    </g>
    <g id="Grupo_984253" data-name="Grupo 984253" transform="translate(-11616.333 -12221.953) rotate(-90)">
      <rect id="Rectángulo_46697" data-name="Rectángulo 46697" width="55.455" height="17.101" rx="3.059" fill="#f4a338"/>
      <path id="Trazado_196813" data-name="Trazado 196813" d="M396.115,131.686l-3.266-2.805a.5.5,0,0,0-.65,0l-3.266,2.805h.994a.5.5,0,0,1,.5.5v2.346a.5.5,0,0,0,.5.5h3.2a.5.5,0,0,0,.5-.5v-2.346a.5.5,0,0,1,.5-.5Z" transform="translate(-380.819 -123.843)" fill="#fff"/>
      <g id="Grupo_156476" data-name="Grupo 156476" transform="translate(22.082 6.537)">
        <rect id="Rectángulo_46698" data-name="Rectángulo 46698" width="16.998" height="3.985" fill="#fff"/>
        <rect id="Rectángulo_46699" data-name="Rectángulo 46699" width="4.857" height="3.985" transform="translate(19.364)" fill="#fff"/>
      </g>
    </g>
  </g>
</svg>
