<svg xmlns="http://www.w3.org/2000/svg" width="85" height="54.488" viewBox="0 0 85 54.488">
  <g id="Grupo_983020" data-name="Grupo 983020" transform="translate(-285 -11212.512)">
    <g id="programacion-web" transform="translate(301.5 11212.012)">
      <path id="Trazado_657421" data-name="Trazado 657421" d="M.5,7.677V45.3a7.24,7.24,0,0,0,7.177,7.177H45.3A7.24,7.24,0,0,0,52.476,45.3V7.677A7.24,7.24,0,0,0,45.3.5H7.677A7.24,7.24,0,0,0,.5,7.677ZM48.344,18.115V45.3a2.879,2.879,0,0,1-2.827,2.827H7.677A2.879,2.879,0,0,1,4.849,45.3V18.115a2.879,2.879,0,0,1,2.827-2.827H45.3A2.93,2.93,0,0,1,48.344,18.115ZM24.857,6.154h18.92a2.339,2.339,0,0,1,2.175,2.175A2.339,2.339,0,0,1,43.777,10.5H24.857a2.175,2.175,0,0,1,0-4.349Zm-9.569,0a2.175,2.175,0,1,1-2.175,2.175,2.179,2.179,0,0,1,2.175-2.175ZM11.374,8.329A2.179,2.179,0,0,1,9.2,10.5,2.339,2.339,0,0,1,7.024,8.329,2.339,2.339,0,0,1,9.2,6.154,2.179,2.179,0,0,1,11.374,8.329Z" transform="translate(0 0)" fill="#fff"/>
      <path id="Trazado_657422" data-name="Trazado 657422" d="M19.6,11.952A2.153,2.153,0,0,0,16.552,15l3.262,3.262-3.262,3.262A2.153,2.153,0,0,0,19.6,24.566l5-4.784a2.1,2.1,0,0,0,0-3.045Z" transform="translate(18.091 12.687)" fill="#fff"/>
      <path id="Trazado_657423" data-name="Trazado 657423" d="M13.5,12.052a2.1,2.1,0,0,0-3.045,0l-5,4.784a2.1,2.1,0,0,0,0,3.045l5,4.784A2.153,2.153,0,0,0,13.5,21.621l-3.262-3.262L13.5,15.1a2.1,2.1,0,0,0,0-3.045Z" transform="translate(5.051 12.805)" fill="#fff"/>
      <path id="Trazado_657424" data-name="Trazado 657424" d="M18.569,9.023a2.236,2.236,0,0,0-2.61,1.522L10.523,30.117a2.236,2.236,0,0,0,1.522,2.61,2.236,2.236,0,0,0,2.61-1.522l5.437-19.573a2.362,2.362,0,0,0-1.522-2.61Z" transform="translate(11.725 9.963)" fill="#fff"/>
    </g>
    <rect id="Rectángulo_343801" data-name="Rectángulo 343801" width="85" height="54" transform="translate(285 11213)" fill="none"/>
  </g>
</svg>
