<svg id="Grupo_981934" data-name="Grupo 981934" xmlns="http://www.w3.org/2000/svg" xmlns:xlink="http://www.w3.org/1999/xlink" width="72.923" height="108.581" viewBox="0 0 72.923 108.581">
  <defs>
    <clipPath id="clip-path">
      <rect id="Rect치ngulo_59204" data-name="Rect치ngulo 59204" width="57.892" height="101.031" fill="none"/>
    </clipPath>
    <clipPath id="clip-path-2">
      <rect id="Rect치ngulo_59209" data-name="Rect치ngulo 59209" width="65.579" height="37.754" fill="none"/>
    </clipPath>
  </defs>
  <g id="Grupo_182806" data-name="Grupo 182806" transform="translate(15.03 0)" opacity="0.1">
    <g id="Grupo_182805" data-name="Grupo 182805">
      <g id="Grupo_182804" data-name="Grupo 182804" clip-path="url(#clip-path)">
        <path id="Trazado_236023" data-name="Trazado 236023" d="M2.141,62.359,55.752,93.245a4.739,4.739,0,0,1,2.141,3.709v64.615c0,1.367-.96,1.92-2.141,1.237L2.141,131.92A4.73,4.73,0,0,1,0,128.211V63.6c0-1.367.958-1.92,2.141-1.237" transform="translate(-0.001 -62.066)"/>
      </g>
    </g>
  </g>
  <path id="Trazado_236027" data-name="Trazado 236027" d="M13.744,63.724,67.353,94.61A4.732,4.732,0,0,1,69.5,98.319v64.617a4.667,4.667,0,0,1-2.154,3.686l-4.08,2.315a4.8,4.8,0,0,1-4.3-.021L5.358,138.03a4.733,4.733,0,0,1-2.141-3.709V69.7a4.674,4.674,0,0,1,2.154-3.688L9.449,63.7a4.794,4.794,0,0,1,4.3.021" transform="translate(-3.217 -60.852)" fill="#c07c22"/>
  <g id="Grupo_182821" data-name="Grupo 182821" transform="translate(0.03 2.351)" opacity="0.5">
    <g id="Grupo_182820" data-name="Grupo 182820">
      <g id="Grupo_182819" data-name="Grupo 182819" clip-path="url(#clip-path-2)">
        <path id="Trazado_236029" data-name="Trazado 236029" d="M3.542,69.319c.167-1.078,1.049-1.464,2.117-.851l53.6,30.888a4.394,4.394,0,0,1,1.514,1.6l8.347-4.824a4.27,4.27,0,0,0-1.474-1.524L14.036,63.723A4.789,4.789,0,0,0,9.743,63.7L5.669,66.015a4.727,4.727,0,0,0-2.127,3.3" transform="translate(-3.542 -63.204)" fill="#fff"/>
      </g>
    </g>
  </g>
  <path id="Trazado_236030" data-name="Trazado 236030" d="M9.419,65.906,63.03,96.792a4.739,4.739,0,0,1,2.141,3.709v64.615c0,1.367-.96,1.92-2.141,1.237L9.419,135.467a4.727,4.727,0,0,1-2.141-3.709V67.143c0-1.367.958-1.92,2.141-1.237" transform="translate(-7.278 -58.289)" fill="#f4a338"/>
  <path id="Trazado_236031" data-name="Trazado 236031" d="M23.57,109a3.342,3.342,0,0,0-.24-1.33,8.573,8.573,0,0,0-.679-1.243L10,85.982A1.8,1.8,0,0,0,9.8,85.74a.891.891,0,0,0-.142-.105.362.362,0,0,0-.473.019.841.841,0,0,0-.19.622v7.886a3.437,3.437,0,0,0,.363,1.646A11.809,11.809,0,0,0,10,96.887l5.532,8.5L10,107.544a2.739,2.739,0,0,0-.648.31q-.362.229-.363,1.2v7.886a1.959,1.959,0,0,0,.19.84,1.237,1.237,0,0,0,.473.564.623.623,0,0,0,.142.058.439.439,0,0,0,.206,0l12.646-5.84a1.72,1.72,0,0,0,.679-.46,1.673,1.673,0,0,0,.24-1.055Z" transform="translate(30.783 -37.049)" fill="#fff"/>
  <path id="Trazado_236032" data-name="Trazado 236032" d="M23.507,82.592a6.512,6.512,0,0,0-.475-1.27,2.262,2.262,0,0,0-.917-.993l-4.237-2.445a.376.376,0,0,0-.489.033.85.85,0,0,0-.2.634,2.27,2.27,0,0,0,.062.477l10.688,45.549a5.8,5.8,0,0,0,.442,1.229,2.307,2.307,0,0,0,.948,1.037l4.144,2.391a.371.371,0,0,0,.487-.035.847.847,0,0,0,.207-.636,2.041,2.041,0,0,0-.066-.473Z" transform="translate(3.276 -45.3)" fill="#fff"/>
  <path id="Trazado_236033" data-name="Trazado 236033" d="M26.54,88.548a3.366,3.366,0,0,0,.237,1.33,9.04,9.04,0,0,0,.681,1.245L40.1,111.567a1.485,1.485,0,0,0,.206.242.911.911,0,0,0,.14.107.364.364,0,0,0,.475-.019.844.844,0,0,0,.188-.622v-7.886a3.286,3.286,0,0,0-.361-1.621c-.242-.432-.46-.785-.648-1.057l-5.532-8.549L40.1,90.054a2.358,2.358,0,0,0,.648-.332q.362-.254.361-1.227V80.609a1.957,1.957,0,0,0-.188-.84,1.216,1.216,0,0,0-.475-.564.613.613,0,0,0-.14-.06.5.5,0,0,0-.206,0L27.459,84.99a1.756,1.756,0,0,0-.681.458A1.7,1.7,0,0,0,26.54,86.5Z" transform="translate(-22.996 -43.888)" fill="#fff"/>
</svg>
