<svg xmlns="http://www.w3.org/2000/svg" xmlns:xlink="http://www.w3.org/1999/xlink" width="47.759" height="112.966" viewBox="0 0 47.759 112.966">
  <defs>
    <clipPath id="clip-path">
      <rect id="Rectángulo_59199" data-name="Rectángulo 59199" width="7.457" height="42.111" fill="none"/>
    </clipPath>
    <clipPath id="clip-path-2">
      <rect id="Rectángulo_59200" data-name="Rectángulo 59200" width="38.064" height="21.972" fill="none"/>
    </clipPath>
    <clipPath id="clip-path-3">
      <rect id="Rectángulo_59201" data-name="Rectángulo 59201" width="15.732" height="15.302" fill="none"/>
    </clipPath>
  </defs>
  <g id="Grupo_981935" data-name="Grupo 981935" transform="translate(10807.677 12217.207)">
    <path id="Trazado_236004" data-name="Trazado 236004" d="M35.328,53.84,5.44,71.13a2.357,2.357,0,0,0-1.069,1.847v36.531a2.326,2.326,0,0,0,1.075,1.836l4.243,2.413a2.393,2.393,0,0,0,2.14-.011l29.89-17.29a2.361,2.361,0,0,0,1.067-1.849V58.081a2.33,2.33,0,0,0-1.073-1.838L37.467,53.83a2.393,2.393,0,0,0-2.14.011" transform="translate(-10802.703 -12218.246)" fill="#fdc77f"/>
    <path id="Trazado_236005" data-name="Trazado 236005" d="M11.829,104a2.446,2.446,0,0,1-2.142.013L5.444,101.6a2.325,2.325,0,0,1-1.073-1.834V63.235a2.189,2.189,0,0,1,.34-1.088l6.365,3.664c-.2.329-.314.71-.314.13v36.527c0,1.541.438,1.9,1.067,1.537" transform="translate(-10802.703 -12208.504)" fill="#d9953b"/>
    <path id="Trazado_236007" data-name="Trazado 236007" d="M6.419,83.473C5.748,83.073.64,80.194.477,80.1a.992.992,0,0,1-.212-1.522L9.343,68.171l6.389,3.664L6.238,81.977a1.008,1.008,0,0,0,.182,1.5" transform="translate(-10807.676 -12201.651)" fill="#fdc77f"/>
    <path id="Trazado_236009" data-name="Trazado 236009" d="M43.523,55.476,13.635,72.766a2.354,2.354,0,0,0-1.067,1.847V86.444l-9.5,10.138a.957.957,0,0,0,.611,1.635l8.888-.648v13.573c0,.682.477.958,1.067.616l29.888-17.29a2.354,2.354,0,0,0,1.067-1.847V56.092c0-.68-.477-.955-1.067-.616" transform="translate(-10804.509 -12216.257)" fill="#f4a338"/>
    <path id="Trazado_236010" data-name="Trazado 236010" d="M29.152,81.232l-6.079-4.6L29.4,64.554a2.3,2.3,0,1,0-4.068-2.131L19.361,73.83,13.893,69.7a2.3,2.3,0,1,0-2.77,3.664l6.077,4.6L11.144,89.528a2.3,2.3,0,1,0,4.07,2.129l5.7-10.892L26.382,84.9a2.3,2.3,0,0,0,2.77-3.664" transform="translate(-10796.06 -12209.59)" fill="#fafafa"/>
    <path id="Trazado_236016" data-name="Trazado 236016" d="M35.328.258,5.44,17.548c-.59.34-1.069,1.169-1.069,2.768V56.845c0-.239.481.584,1.075.917l4.243,2.413a2.393,2.393,0,0,0,2.14-.011l29.89-17.29a2.36,2.36,0,0,0,1.067-1.847V4.5A2.334,2.334,0,0,0,41.712,2.66L37.467.249a2.393,2.393,0,0,0-2.14.009" transform="translate(-10802.703 -12217.206)" fill="#27debf"/>
    <g id="Grupo_182793" data-name="Grupo 182793" transform="translate(-10798.332 -12198.898)" opacity="0.2">
      <g id="Grupo_182792" data-name="Grupo 182792" transform="translate(0 0)">
        <g id="Grupo_182791" data-name="Grupo 182791" clip-path="url(#clip-path)">
          <path id="Trazado_236017" data-name="Trazado 236017" d="M11.829,50.423a2.446,2.446,0,0,1-2.142.013L5.444,48.018c-.59-.331-1.073-1.154-1.073-.915V10.574a3.532,3.532,0,0,1,.34-2.009l6.365,3.664c-.2.331-.314.71-.314.13V48.886c0,1.541.438,1.9,1.067,1.537" transform="translate(-4.371 -8.566)"/>
        </g>
      </g>
    </g>
    <g id="Grupo_182796" data-name="Grupo 182796" transform="translate(-10797.997 -12217.207)" opacity="0.4">
      <g id="Grupo_182795" data-name="Grupo 182795" transform="translate(0)">
        <g id="Grupo_182794" data-name="Grupo 182794" clip-path="url(#clip-path-2)">
          <path id="Trazado_236018" data-name="Trazado 236018" d="M42.592,4.307c-.083-.537-.522-.729-1.054-.423L11.652,21.173a2.2,2.2,0,0,0-.755.8l-6.37-3.664a2.164,2.164,0,0,1,.733-.761L35.151.258a2.393,2.393,0,0,1,2.14-.011l4.241,2.413a2.355,2.355,0,0,1,1.06,1.646" transform="translate(-4.527 0)" fill="#fff"/>
        </g>
      </g>
    </g>
    <path id="Trazado_236019" data-name="Trazado 236019" d="M6.419,29.892c-.671-.4-5.78-3.279-5.942-3.373A.992.992,0,0,1,.266,25L9.343,14.59l6.389,3.664L6.238,28.4a1.008,1.008,0,0,0,.182,1.5" transform="translate(-10807.676 -12200.611)" fill="#27debf"/>
    <g id="Grupo_182799" data-name="Grupo 182799" transform="translate(-10807.675 -12186.022)" opacity="0.4">
      <g id="Grupo_182798" data-name="Grupo 182798" transform="translate(0 0)">
        <g id="Grupo_182797" data-name="Grupo 182797" clip-path="url(#clip-path-3)">
          <path id="Trazado_236020" data-name="Trazado 236020" d="M6.419,29.892c-.671-.4-5.78-3.279-5.942-3.373A.992.992,0,0,1,.266,25L9.343,14.59l6.389,3.664L6.238,28.4a1.008,1.008,0,0,0,.182,1.5" transform="translate(-0.001 -14.589)" fill="#fff"/>
        </g>
      </g>
    </g>
    <path id="Trazado_236021" data-name="Trazado 236021" d="M43.523,1.894,13.635,19.184a2.355,2.355,0,0,0-1.067,1.849V32.862L3.069,43a.957.957,0,0,0,.611,1.635l8.888-.648V57.56c0,.682.477.958,1.067.616l29.888-17.29a2.354,2.354,0,0,0,1.067-1.847V2.51c0-.68-.477-.955-1.067-.616" transform="translate(-10804.509 -12215.218)" fill="#27debf"/>
    <path id="Trazado_236022" data-name="Trazado 236022" d="M30.108,6.7A2.66,2.66,0,0,0,26.63,8.117L16.6,32l-2.39-2.326a2.655,2.655,0,1,0-3.7,3.809l5.179,5.036a2.655,2.655,0,0,0,4.3-.874L31.525,10.178A2.659,2.659,0,0,0,30.108,6.7" transform="translate(-10796.639 -12209.821)" fill="#fafafa"/>
  </g>
</svg>
