<svg xmlns="http://www.w3.org/2000/svg" xmlns:xlink="http://www.w3.org/1999/xlink" width="820" height="354" viewBox="0 0 820 354">
  <defs>
    <clipPath id="clip-path">
      <rect id="Rectángulo_343487" data-name="Rectángulo 343487" width="109.417" height="148.52" fill="none"/>
    </clipPath>
  </defs>
  <g id="Grupo_984192" data-name="Grupo 984192" transform="translate(9005 5048)">
    <g id="Grupo_984191" data-name="Grupo 984191" transform="translate(-9395 -11700)">
      <path id="Trazado_656173" data-name="Trazado 656173" d="M0,0H820V354H0Z" transform="translate(390 6652)" fill="none"/>
      <g id="Grupo_982143" data-name="Grupo 982143" transform="translate(618.583 6755)">
        <g id="Grupo_982140" data-name="Grupo 982140" clip-path="url(#clip-path)">
          <path id="Trazado_656174" data-name="Trazado 656174" d="M104.882,148.52H4.536A4.536,4.536,0,0,1,0,143.985V4.536A4.536,4.536,0,0,1,4.536,0H104.882a4.535,4.535,0,0,1,4.535,4.536V143.985a4.535,4.535,0,0,1-4.535,4.535" fill="#dedede"/>
          <path id="Trazado_656175" data-name="Trazado 656175" d="M104.882,0H4.536A4.536,4.536,0,0,0,0,4.535V20.394H109.417V4.535A4.535,4.535,0,0,0,104.882,0" fill="#f4a338"/>
          <path id="Trazado_656176" data-name="Trazado 656176" d="M0,135.622v8.362a4.536,4.536,0,0,0,4.535,4.536H104.882a4.535,4.535,0,0,0,4.535-4.536v-8.362Z" fill="#5573c6"/>
          <rect id="Rectángulo_343483" data-name="Rectángulo 343483" width="109.417" height="21.402" transform="translate(0 114.22)" fill="#bab9b9"/>
          <rect id="Rectángulo_343484" data-name="Rectángulo 343484" width="15.591" height="9.354" transform="translate(5.952 5.229)" fill="#274391"/>
          <path id="Trazado_656177" data-name="Trazado 656177" d="M94.677,14.583h-60.8a4.677,4.677,0,0,1,0-9.354h60.8a4.677,4.677,0,0,1,0,9.354" fill="#fff"/>
          <path id="Trazado_656178" data-name="Trazado 656178" d="M71.362,49.449H31.535a2.339,2.339,0,0,1,0-4.677H71.362a2.339,2.339,0,1,1,0,4.677" fill="#040405"/>
          <path id="Trazado_656179" data-name="Trazado 656179" d="M86.669,71.181H31.535a2.339,2.339,0,0,1,0-4.677H86.669a2.339,2.339,0,1,1,0,4.677" fill="#040405"/>
          <path id="Trazado_656180" data-name="Trazado 656180" d="M86.669,90.646H31.535a2.339,2.339,0,0,1,0-4.677H86.669a2.339,2.339,0,1,1,0,4.677" fill="#040405"/>
          <path id="Trazado_656181" data-name="Trazado 656181" d="M66.26,128.63H11.126a2.339,2.339,0,0,1,0-4.677H66.26a2.339,2.339,0,1,1,0,4.677" fill="#fff"/>
          <rect id="Rectángulo_343485" data-name="Rectángulo 343485" width="5.78" height="5.78" transform="translate(10.063 68.843) rotate(-45)" fill="#82b2d2"/>
          <rect id="Rectángulo_343486" data-name="Rectángulo 343486" width="5.78" height="5.78" transform="translate(10.063 88.307) rotate(-45)" fill="#82b2d2"/>
          <path id="Trazado_656182" data-name="Trazado 656182" d="M85.215,126.292v-5.145l4.455,2.573,4.456,2.572-4.456,2.572-4.455,2.573Z" fill="#555554"/>
          <path id="Trazado_656183" data-name="Trazado 656183" d="M14.531,56.2l1.449-1.222a.592.592,0,0,0,.209-.452V45.318a4.418,4.418,0,1,0-4.079,0v1.1l-1.135.651a.591.591,0,0,0,0,1.025l1.018.583-1.018.584a.591.591,0,0,0,0,1.025l1.018.584-1.018.583a.591.591,0,0,0,0,1.025l1.135.651v1.391a.592.592,0,0,0,.209.452L13.768,56.2a.591.591,0,0,0,.763,0M12.6,41.423a1.545,1.545,0,1,1,1.545,1.538A1.543,1.543,0,0,1,12.6,41.423" fill="#ffce1d"/>
          <path id="Trazado_656184" data-name="Trazado 656184" d="M14.155,42.961H14.15a1.538,1.538,0,1,1,0-3.076h.005V37.033H14.15a4.387,4.387,0,0,0-2.04,8.286v1.1l-1.134.65a.591.591,0,0,0,0,1.025l1.017.584-1.017.583a.592.592,0,0,0,0,1.026l1.017.583-1.017.583a.592.592,0,0,0,0,1.026l1.134.65v1.391a.592.592,0,0,0,.21.452L13.769,56.2a.59.59,0,0,0,.386.139Z" fill="#f99514"/>
        </g>
      </g>
      <g id="Grupo_982144" data-name="Grupo 982144" transform="translate(1100.583 6755)">
        <g id="Grupo_982140-2" data-name="Grupo 982140" clip-path="url(#clip-path)">
          <path id="Trazado_656174-2" data-name="Trazado 656174" d="M104.882,148.52H4.536A4.536,4.536,0,0,1,0,143.985V4.536A4.536,4.536,0,0,1,4.536,0H104.882a4.535,4.535,0,0,1,4.535,4.536V143.985a4.535,4.535,0,0,1-4.535,4.535" fill="#dedede"/>
          <path id="Trazado_656175-2" data-name="Trazado 656175" d="M104.882,0H4.536A4.536,4.536,0,0,0,0,4.535V20.394H109.417V4.535A4.535,4.535,0,0,0,104.882,0" fill="#f4a338"/>
          <path id="Trazado_656176-2" data-name="Trazado 656176" d="M0,135.622v8.362a4.536,4.536,0,0,0,4.535,4.536H104.882a4.535,4.535,0,0,0,4.535-4.536v-8.362Z" fill="#5573c6"/>
          <rect id="Rectángulo_343483-2" data-name="Rectángulo 343483" width="109.417" height="21.402" transform="translate(0 114.22)" fill="#bab9b9"/>
          <rect id="Rectángulo_343484-2" data-name="Rectángulo 343484" width="15.591" height="9.354" transform="translate(5.952 5.229)" fill="#274391"/>
          <path id="Trazado_656177-2" data-name="Trazado 656177" d="M94.677,14.583h-60.8a4.677,4.677,0,0,1,0-9.354h60.8a4.677,4.677,0,0,1,0,9.354" fill="#fff"/>
          <path id="Trazado_656178-2" data-name="Trazado 656178" d="M71.362,49.449H31.535a2.339,2.339,0,0,1,0-4.677H71.362a2.339,2.339,0,1,1,0,4.677" fill="#040405"/>
          <path id="Trazado_656179-2" data-name="Trazado 656179" d="M86.669,71.181H31.535a2.339,2.339,0,0,1,0-4.677H86.669a2.339,2.339,0,1,1,0,4.677" fill="#040405"/>
          <path id="Trazado_656180-2" data-name="Trazado 656180" d="M86.669,90.646H31.535a2.339,2.339,0,0,1,0-4.677H86.669a2.339,2.339,0,1,1,0,4.677" fill="#040405"/>
          <path id="Trazado_656181-2" data-name="Trazado 656181" d="M66.26,128.63H11.126a2.339,2.339,0,0,1,0-4.677H66.26a2.339,2.339,0,1,1,0,4.677" fill="#fff"/>
          <rect id="Rectángulo_343485-2" data-name="Rectángulo 343485" width="5.78" height="5.78" transform="translate(10.063 68.843) rotate(-45)" fill="#82b2d2"/>
          <rect id="Rectángulo_343486-2" data-name="Rectángulo 343486" width="5.78" height="5.78" transform="translate(10.063 88.307) rotate(-45)" fill="#82b2d2"/>
          <path id="Trazado_656182-2" data-name="Trazado 656182" d="M85.215,126.292v-5.145l4.455,2.573,4.456,2.572-4.456,2.572-4.455,2.573Z" fill="#555554"/>
          <path id="Trazado_656183-2" data-name="Trazado 656183" d="M14.531,56.2l1.449-1.222a.592.592,0,0,0,.209-.452V45.318a4.418,4.418,0,1,0-4.079,0v1.1l-1.135.651a.591.591,0,0,0,0,1.025l1.018.583-1.018.584a.591.591,0,0,0,0,1.025l1.018.584-1.018.583a.591.591,0,0,0,0,1.025l1.135.651v1.391a.592.592,0,0,0,.209.452L13.768,56.2a.591.591,0,0,0,.763,0M12.6,41.423a1.545,1.545,0,1,1,1.545,1.538A1.543,1.543,0,0,1,12.6,41.423" fill="#ffce1d"/>
          <path id="Trazado_656184-2" data-name="Trazado 656184" d="M14.155,42.961H14.15a1.538,1.538,0,1,1,0-3.076h.005V37.033H14.15a4.387,4.387,0,0,0-2.04,8.286v1.1l-1.134.65a.591.591,0,0,0,0,1.025l1.017.584-1.017.583a.592.592,0,0,0,0,1.026l1.017.583-1.017.583a.592.592,0,0,0,0,1.026l1.134.65v1.391a.592.592,0,0,0,.21.452L13.769,56.2a.59.59,0,0,0,.386.139Z" fill="#f99514"/>
        </g>
      </g>
      <path id="Trazado_656185" data-name="Trazado 656185" d="M-7408.227-4957.521h59.649v61.734h59.153" transform="translate(7908 11700)" fill="none" stroke="#5573c6" stroke-width="2"/>
      <path id="Trazado_656186" data-name="Trazado 656186" d="M-7289.424-4957.521h-59.649v61.734h-59.153" transform="translate(7908 11812.786)" fill="none" stroke="#5573c6" stroke-width="2"/>
      <path id="Trazado_656187" data-name="Trazado 656187" d="M-7228.24-4953.9v-40.5h188.175" transform="translate(7901.532 11708.902)" fill="none" stroke="#5573c6" stroke-width="2"/>
      <path id="Trazado_656189" data-name="Trazado 656189" d="M-7040.064-4953.9v-40.5H-7228.24" transform="translate(8198.658 11708.902)" fill="none" stroke="#5573c6" stroke-width="2"/>
      <path id="Trazado_656188" data-name="Trazado 656188" d="M-7040.064-4953.9v-40.5H-7228.24" transform="translate(-6366.773 1949.618) rotate(180)" fill="none" stroke="#5573c6" stroke-width="2"/>
      <path id="Trazado_656190" data-name="Trazado 656190" d="M188.175,0V40.5H0" transform="translate(970.417 6903.52)" fill="none" stroke="#5573c6" stroke-width="2"/>
      <path id="Trazado_656191" data-name="Trazado 656191" d="M-7405.583-4965.578l7.871,7.871-7.871,7.871" transform="translate(7905 11700)" fill="none" stroke="#5573c6" stroke-linecap="round" stroke-width="2"/>
      <path id="Trazado_656193" data-name="Trazado 656193" d="M-7405.583-4965.578l7.871,7.871-7.871,7.871" transform="translate(8376.002 11672.207)" fill="none" stroke="#5573c6" stroke-linecap="round" stroke-width="2"/>
      <path id="Trazado_656195" data-name="Trazado 656195" d="M-7405.583-4965.578l7.871,7.871-7.871,7.871" transform="translate(-6544.583 1986.313) rotate(180)" fill="none" stroke="#5573c6" stroke-linecap="round" stroke-width="2"/>
      <path id="Trazado_656194" data-name="Trazado 656194" d="M-7405.583-4965.578l7.871,7.871-7.871,7.871" transform="translate(8376.002 11901.727)" fill="none" stroke="#5573c6" stroke-linecap="round" stroke-width="2"/>
      <path id="Trazado_656196" data-name="Trazado 656196" d="M-7405.583-4965.578l7.871,7.871-7.871,7.871" transform="translate(-6544.583 1756.793) rotate(180)" fill="none" stroke="#5573c6" stroke-linecap="round" stroke-width="2"/>
      <path id="Trazado_656192" data-name="Trazado 656192" d="M-7405.583-4965.578l7.871,7.871-7.871,7.871" transform="translate(7905 11874.707)" fill="none" stroke="#5573c6" stroke-linecap="round" stroke-width="2"/>
      <g id="Grupo_982141" data-name="Grupo 982141" transform="translate(390 6668.22)">
        <g id="Grupo_982140-3" data-name="Grupo 982140" clip-path="url(#clip-path)">
          <path id="Trazado_656174-3" data-name="Trazado 656174" d="M104.882,148.52H4.536A4.536,4.536,0,0,1,0,143.985V4.536A4.536,4.536,0,0,1,4.536,0H104.882a4.535,4.535,0,0,1,4.535,4.536V143.985a4.535,4.535,0,0,1-4.535,4.535" fill="#dedede"/>
          <path id="Trazado_656175-3" data-name="Trazado 656175" d="M104.882,0H4.536A4.536,4.536,0,0,0,0,4.535V20.394H109.417V4.535A4.535,4.535,0,0,0,104.882,0" fill="#f4a338"/>
          <path id="Trazado_656176-3" data-name="Trazado 656176" d="M0,135.622v8.362a4.536,4.536,0,0,0,4.535,4.536H104.882a4.535,4.535,0,0,0,4.535-4.536v-8.362Z" fill="#5573c6"/>
          <rect id="Rectángulo_343483-3" data-name="Rectángulo 343483" width="109.417" height="21.402" transform="translate(0 114.22)" fill="#bab9b9"/>
          <rect id="Rectángulo_343484-3" data-name="Rectángulo 343484" width="15.591" height="9.354" transform="translate(5.952 5.229)" fill="#274391"/>
          <path id="Trazado_656177-3" data-name="Trazado 656177" d="M94.677,14.583h-60.8a4.677,4.677,0,0,1,0-9.354h60.8a4.677,4.677,0,0,1,0,9.354" fill="#fff"/>
          <path id="Trazado_656178-3" data-name="Trazado 656178" d="M71.362,49.449H31.535a2.339,2.339,0,0,1,0-4.677H71.362a2.339,2.339,0,1,1,0,4.677" fill="#040405"/>
          <path id="Trazado_656179-3" data-name="Trazado 656179" d="M86.669,71.181H31.535a2.339,2.339,0,0,1,0-4.677H86.669a2.339,2.339,0,1,1,0,4.677" fill="#040405"/>
          <path id="Trazado_656180-3" data-name="Trazado 656180" d="M86.669,90.646H31.535a2.339,2.339,0,0,1,0-4.677H86.669a2.339,2.339,0,1,1,0,4.677" fill="#040405"/>
          <path id="Trazado_656181-3" data-name="Trazado 656181" d="M66.26,128.63H11.126a2.339,2.339,0,0,1,0-4.677H66.26a2.339,2.339,0,1,1,0,4.677" fill="#fff"/>
          <rect id="Rectángulo_343485-3" data-name="Rectángulo 343485" width="5.78" height="5.78" transform="translate(10.063 68.843) rotate(-45)" fill="#82b2d2"/>
          <rect id="Rectángulo_343486-3" data-name="Rectángulo 343486" width="5.78" height="5.78" transform="translate(10.063 88.307) rotate(-45)" fill="#82b2d2"/>
          <path id="Trazado_656182-3" data-name="Trazado 656182" d="M85.215,126.292v-5.145l4.455,2.573,4.456,2.572-4.456,2.572-4.455,2.573Z" fill="#555554"/>
          <path id="Trazado_656183-3" data-name="Trazado 656183" d="M14.531,56.2l1.449-1.222a.592.592,0,0,0,.209-.452V45.318a4.418,4.418,0,1,0-4.079,0v1.1l-1.135.651a.591.591,0,0,0,0,1.025l1.018.583-1.018.584a.591.591,0,0,0,0,1.025l1.018.584-1.018.583a.591.591,0,0,0,0,1.025l1.135.651v1.391a.592.592,0,0,0,.209.452L13.768,56.2a.591.591,0,0,0,.763,0M12.6,41.423a1.545,1.545,0,1,1,1.545,1.538A1.543,1.543,0,0,1,12.6,41.423" fill="#ffce1d"/>
          <path id="Trazado_656184-3" data-name="Trazado 656184" d="M14.155,42.961H14.15a1.538,1.538,0,1,1,0-3.076h.005V37.033H14.15a4.387,4.387,0,0,0-2.04,8.286v1.1l-1.134.65a.591.591,0,0,0,0,1.025l1.017.584-1.017.583a.592.592,0,0,0,0,1.026l1.017.583-1.017.583a.592.592,0,0,0,0,1.026l1.134.65v1.391a.592.592,0,0,0,.21.452L13.769,56.2a.59.59,0,0,0,.386.139Z" fill="#f99514"/>
        </g>
      </g>
      <g id="Grupo_982142" data-name="Grupo 982142" transform="translate(390 6842.74)">
        <g id="Grupo_982140-4" data-name="Grupo 982140" clip-path="url(#clip-path)">
          <path id="Trazado_656174-4" data-name="Trazado 656174" d="M104.882,148.52H4.536A4.536,4.536,0,0,1,0,143.985V4.536A4.536,4.536,0,0,1,4.536,0H104.882a4.535,4.535,0,0,1,4.535,4.536V143.985a4.535,4.535,0,0,1-4.535,4.535" fill="#dedede"/>
          <path id="Trazado_656175-4" data-name="Trazado 656175" d="M104.882,0H4.536A4.536,4.536,0,0,0,0,4.535V20.394H109.417V4.535A4.535,4.535,0,0,0,104.882,0" fill="#f4a338"/>
          <path id="Trazado_656176-4" data-name="Trazado 656176" d="M0,135.622v8.362a4.536,4.536,0,0,0,4.535,4.536H104.882a4.535,4.535,0,0,0,4.535-4.536v-8.362Z" fill="#5573c6"/>
          <rect id="Rectángulo_343483-4" data-name="Rectángulo 343483" width="109.417" height="21.402" transform="translate(0 114.22)" fill="#bab9b9"/>
          <rect id="Rectángulo_343484-4" data-name="Rectángulo 343484" width="15.591" height="9.354" transform="translate(5.952 5.229)" fill="#274391"/>
          <path id="Trazado_656177-4" data-name="Trazado 656177" d="M94.677,14.583h-60.8a4.677,4.677,0,0,1,0-9.354h60.8a4.677,4.677,0,0,1,0,9.354" fill="#fff"/>
          <path id="Trazado_656178-4" data-name="Trazado 656178" d="M71.362,49.449H31.535a2.339,2.339,0,0,1,0-4.677H71.362a2.339,2.339,0,1,1,0,4.677" fill="#040405"/>
          <path id="Trazado_656179-4" data-name="Trazado 656179" d="M86.669,71.181H31.535a2.339,2.339,0,0,1,0-4.677H86.669a2.339,2.339,0,1,1,0,4.677" fill="#040405"/>
          <path id="Trazado_656180-4" data-name="Trazado 656180" d="M86.669,90.646H31.535a2.339,2.339,0,0,1,0-4.677H86.669a2.339,2.339,0,1,1,0,4.677" fill="#040405"/>
          <path id="Trazado_656181-4" data-name="Trazado 656181" d="M66.26,128.63H11.126a2.339,2.339,0,0,1,0-4.677H66.26a2.339,2.339,0,1,1,0,4.677" fill="#fff"/>
          <rect id="Rectángulo_343485-4" data-name="Rectángulo 343485" width="5.78" height="5.78" transform="translate(10.063 68.843) rotate(-45)" fill="#82b2d2"/>
          <rect id="Rectángulo_343486-4" data-name="Rectángulo 343486" width="5.78" height="5.78" transform="translate(10.063 88.307) rotate(-45)" fill="#82b2d2"/>
          <path id="Trazado_656182-4" data-name="Trazado 656182" d="M85.215,126.292v-5.145l4.455,2.573,4.456,2.572-4.456,2.572-4.455,2.573Z" fill="#555554"/>
          <path id="Trazado_656183-4" data-name="Trazado 656183" d="M14.531,56.2l1.449-1.222a.592.592,0,0,0,.209-.452V45.318a4.418,4.418,0,1,0-4.079,0v1.1l-1.135.651a.591.591,0,0,0,0,1.025l1.018.583-1.018.584a.591.591,0,0,0,0,1.025l1.018.584-1.018.583a.591.591,0,0,0,0,1.025l1.135.651v1.391a.592.592,0,0,0,.209.452L13.768,56.2a.591.591,0,0,0,.763,0M12.6,41.423a1.545,1.545,0,1,1,1.545,1.538A1.543,1.543,0,0,1,12.6,41.423" fill="#ffce1d"/>
          <path id="Trazado_656184-4" data-name="Trazado 656184" d="M14.155,42.961H14.15a1.538,1.538,0,1,1,0-3.076h.005V37.033H14.15a4.387,4.387,0,0,0-2.04,8.286v1.1l-1.134.65a.591.591,0,0,0,0,1.025l1.017.584-1.017.583a.592.592,0,0,0,0,1.026l1.017.583-1.017.583a.592.592,0,0,0,0,1.026l1.134.65v1.391a.592.592,0,0,0,.21.452L13.769,56.2a.59.59,0,0,0,.386.139Z" fill="#f99514"/>
        </g>
      </g>
      <g id="Grupo_982145" data-name="Grupo 982145" transform="translate(861 6668.22)">
        <g id="Enmascarar_grupo_982140" data-name="Enmascarar grupo 982140" clip-path="url(#clip-path)">
          <path id="Trazado_656174-5" data-name="Trazado 656174" d="M104.882,148.52H4.536A4.536,4.536,0,0,1,0,143.985V4.536A4.536,4.536,0,0,1,4.536,0H104.882a4.535,4.535,0,0,1,4.535,4.536V143.985a4.535,4.535,0,0,1-4.535,4.535" fill="#dedede"/>
          <path id="Trazado_656175-5" data-name="Trazado 656175" d="M104.882,0H4.536A4.536,4.536,0,0,0,0,4.535V20.394H109.417V4.535A4.535,4.535,0,0,0,104.882,0" fill="#f4a338"/>
          <path id="Trazado_656176-5" data-name="Trazado 656176" d="M0,135.622v8.362a4.536,4.536,0,0,0,4.535,4.536H104.882a4.535,4.535,0,0,0,4.535-4.536v-8.362Z" fill="#5573c6"/>
          <rect id="Rectángulo_343483-5" data-name="Rectángulo 343483" width="109.417" height="21.402" transform="translate(0 114.22)" fill="#bab9b9"/>
          <rect id="Rectángulo_343484-5" data-name="Rectángulo 343484" width="15.591" height="9.354" transform="translate(5.952 5.229)" fill="#274391"/>
          <path id="Trazado_656177-5" data-name="Trazado 656177" d="M94.677,14.583h-60.8a4.677,4.677,0,0,1,0-9.354h60.8a4.677,4.677,0,0,1,0,9.354" fill="#fff"/>
          <path id="Trazado_656178-5" data-name="Trazado 656178" d="M71.362,49.449H31.535a2.339,2.339,0,0,1,0-4.677H71.362a2.339,2.339,0,1,1,0,4.677" fill="#040405"/>
          <path id="Trazado_656179-5" data-name="Trazado 656179" d="M86.669,71.181H31.535a2.339,2.339,0,0,1,0-4.677H86.669a2.339,2.339,0,1,1,0,4.677" fill="#040405"/>
          <path id="Trazado_656180-5" data-name="Trazado 656180" d="M86.669,90.646H31.535a2.339,2.339,0,0,1,0-4.677H86.669a2.339,2.339,0,1,1,0,4.677" fill="#040405"/>
          <path id="Trazado_656181-5" data-name="Trazado 656181" d="M66.26,128.63H11.126a2.339,2.339,0,0,1,0-4.677H66.26a2.339,2.339,0,1,1,0,4.677" fill="#fff"/>
          <rect id="Rectángulo_343485-5" data-name="Rectángulo 343485" width="5.78" height="5.78" transform="translate(10.063 68.843) rotate(-45)" fill="#82b2d2"/>
          <rect id="Rectángulo_343486-5" data-name="Rectángulo 343486" width="5.78" height="5.78" transform="translate(10.063 88.307) rotate(-45)" fill="#82b2d2"/>
          <path id="Trazado_656182-5" data-name="Trazado 656182" d="M85.215,126.292v-5.145l4.455,2.573,4.456,2.572-4.456,2.572-4.455,2.573Z" fill="#555554"/>
          <path id="Trazado_656183-5" data-name="Trazado 656183" d="M14.531,56.2l1.449-1.222a.592.592,0,0,0,.209-.452V45.318a4.418,4.418,0,1,0-4.079,0v1.1l-1.135.651a.591.591,0,0,0,0,1.025l1.018.583-1.018.584a.591.591,0,0,0,0,1.025l1.018.584-1.018.583a.591.591,0,0,0,0,1.025l1.135.651v1.391a.592.592,0,0,0,.209.452L13.768,56.2a.591.591,0,0,0,.763,0M12.6,41.423a1.545,1.545,0,1,1,1.545,1.538A1.543,1.543,0,0,1,12.6,41.423" fill="#ffce1d"/>
          <path id="Trazado_656184-5" data-name="Trazado 656184" d="M14.155,42.961H14.15a1.538,1.538,0,1,1,0-3.076h.005V37.033H14.15a4.387,4.387,0,0,0-2.04,8.286v1.1l-1.134.65a.591.591,0,0,0,0,1.025l1.017.584-1.017.583a.592.592,0,0,0,0,1.026l1.017.583-1.017.583a.592.592,0,0,0,0,1.026l1.134.65v1.391a.592.592,0,0,0,.21.452L13.769,56.2a.59.59,0,0,0,.386.139Z" fill="#f99514"/>
        </g>
      </g>
      <g id="Grupo_982146" data-name="Grupo 982146" transform="translate(861 6842.74)">
        <g id="Enmascarar_grupo_982140-2" data-name="Enmascarar grupo 982140" clip-path="url(#clip-path)">
          <path id="Trazado_656174-6" data-name="Trazado 656174" d="M104.882,148.52H4.536A4.536,4.536,0,0,1,0,143.985V4.536A4.536,4.536,0,0,1,4.536,0H104.882a4.535,4.535,0,0,1,4.535,4.536V143.985a4.535,4.535,0,0,1-4.535,4.535" fill="#dedede"/>
          <path id="Trazado_656175-6" data-name="Trazado 656175" d="M104.882,0H4.536A4.536,4.536,0,0,0,0,4.535V20.394H109.417V4.535A4.535,4.535,0,0,0,104.882,0" fill="#f4a338"/>
          <path id="Trazado_656176-6" data-name="Trazado 656176" d="M0,135.622v8.362a4.536,4.536,0,0,0,4.535,4.536H104.882a4.535,4.535,0,0,0,4.535-4.536v-8.362Z" fill="#5573c6"/>
          <rect id="Rectángulo_343483-6" data-name="Rectángulo 343483" width="109.417" height="21.402" transform="translate(0 114.22)" fill="#bab9b9"/>
          <rect id="Rectángulo_343484-6" data-name="Rectángulo 343484" width="15.591" height="9.354" transform="translate(5.952 5.229)" fill="#274391"/>
          <path id="Trazado_656177-6" data-name="Trazado 656177" d="M94.677,14.583h-60.8a4.677,4.677,0,0,1,0-9.354h60.8a4.677,4.677,0,0,1,0,9.354" fill="#fff"/>
          <path id="Trazado_656178-6" data-name="Trazado 656178" d="M71.362,49.449H31.535a2.339,2.339,0,0,1,0-4.677H71.362a2.339,2.339,0,1,1,0,4.677" fill="#040405"/>
          <path id="Trazado_656179-6" data-name="Trazado 656179" d="M86.669,71.181H31.535a2.339,2.339,0,0,1,0-4.677H86.669a2.339,2.339,0,1,1,0,4.677" fill="#040405"/>
          <path id="Trazado_656180-6" data-name="Trazado 656180" d="M86.669,90.646H31.535a2.339,2.339,0,0,1,0-4.677H86.669a2.339,2.339,0,1,1,0,4.677" fill="#040405"/>
          <path id="Trazado_656181-6" data-name="Trazado 656181" d="M66.26,128.63H11.126a2.339,2.339,0,0,1,0-4.677H66.26a2.339,2.339,0,1,1,0,4.677" fill="#fff"/>
          <rect id="Rectángulo_343485-6" data-name="Rectángulo 343485" width="5.78" height="5.78" transform="translate(10.063 68.843) rotate(-45)" fill="#82b2d2"/>
          <rect id="Rectángulo_343486-6" data-name="Rectángulo 343486" width="5.78" height="5.78" transform="translate(10.063 88.307) rotate(-45)" fill="#82b2d2"/>
          <path id="Trazado_656182-6" data-name="Trazado 656182" d="M85.215,126.292v-5.145l4.455,2.573,4.456,2.572-4.456,2.572-4.455,2.573Z" fill="#555554"/>
          <path id="Trazado_656183-6" data-name="Trazado 656183" d="M14.531,56.2l1.449-1.222a.592.592,0,0,0,.209-.452V45.318a4.418,4.418,0,1,0-4.079,0v1.1l-1.135.651a.591.591,0,0,0,0,1.025l1.018.583-1.018.584a.591.591,0,0,0,0,1.025l1.018.584-1.018.583a.591.591,0,0,0,0,1.025l1.135.651v1.391a.592.592,0,0,0,.209.452L13.768,56.2a.591.591,0,0,0,.763,0M12.6,41.423a1.545,1.545,0,1,1,1.545,1.538A1.543,1.543,0,0,1,12.6,41.423" fill="#ffce1d"/>
          <path id="Trazado_656184-6" data-name="Trazado 656184" d="M14.155,42.961H14.15a1.538,1.538,0,1,1,0-3.076h.005V37.033H14.15a4.387,4.387,0,0,0-2.04,8.286v1.1l-1.134.65a.591.591,0,0,0,0,1.025l1.017.584-1.017.583a.592.592,0,0,0,0,1.026l1.017.583-1.017.583a.592.592,0,0,0,0,1.026l1.134.65v1.391a.592.592,0,0,0,.21.452L13.769,56.2a.59.59,0,0,0,.386.139Z" fill="#f99514"/>
        </g>
      </g>
      <g id="Grupo_982147" data-name="Grupo 982147" transform="translate(95 61.471)">
        <path id="Trazado_656197" data-name="Trazado 656197" d="M-7395.948-4965.578v16.642" transform="translate(7911 11700)" fill="none" stroke="#5573c6" stroke-width="2"/>
        <path id="Trazado_656198" data-name="Trazado 656198" d="M-7395.948-4965.578v16.642" transform="translate(7914.892 11700)" fill="none" stroke="#5573c6" stroke-width="2"/>
      </g>
      <g id="Grupo_982153" data-name="Grupo 982153" transform="translate(-4 -0.449)">
        <path id="Trazado_656197-2" data-name="Trazado 656197" d="M-7395.948-4965.578v16.642" transform="translate(7911 11700)" fill="none" stroke="#5573c6" stroke-width="2"/>
      </g>
      <g id="Grupo_982155" data-name="Grupo 982155" transform="translate(333.478 -28.693)">
        <path id="Trazado_656197-3" data-name="Trazado 656197" d="M-7395.948-4965.578v16.642" transform="translate(7911 11700)" fill="none" stroke="#5573c6" stroke-width="2"/>
      </g>
      <g id="Grupo_982158" data-name="Grupo 982158" transform="translate(467.836 -28.693)">
        <path id="Trazado_656197-4" data-name="Trazado 656197" d="M-7395.948-4965.578v16.642" transform="translate(7911 11700)" fill="none" stroke="#5573c6" stroke-width="2"/>
      </g>
      <g id="Grupo_982156" data-name="Grupo 982156" transform="translate(333.478 200.826)">
        <path id="Trazado_656197-5" data-name="Trazado 656197" d="M-7395.948-4965.578v16.642" transform="translate(7911 11700)" fill="none" stroke="#5573c6" stroke-width="2"/>
      </g>
      <g id="Grupo_982157" data-name="Grupo 982157" transform="translate(467.836 200.826)">
        <path id="Trazado_656197-6" data-name="Trazado 656197" d="M-7395.948-4965.578v16.642" transform="translate(7911 11700)" fill="none" stroke="#5573c6" stroke-width="2"/>
      </g>
      <g id="Grupo_982154" data-name="Grupo 982154" transform="translate(-4 174.257)">
        <path id="Trazado_656197-7" data-name="Trazado 656197" d="M-7395.948-4965.578v16.642" transform="translate(7911 11700)" fill="none" stroke="#5573c6" stroke-width="2"/>
      </g>
      <g id="Grupo_982149" data-name="Grupo 982149" transform="translate(7416.034 6231.681) rotate(90)">
        <path id="Trazado_656197-8" data-name="Trazado 656197" d="M-7395.948-4965.578v16.642" transform="translate(7911 11700)" fill="none" stroke="#5573c6" stroke-width="2"/>
        <path id="Trazado_656198-2" data-name="Trazado 656198" d="M-7395.948-4965.578v16.642" transform="translate(7914.892 11700)" fill="none" stroke="#5573c6" stroke-width="2"/>
      </g>
      <g id="Grupo_982151" data-name="Grupo 982151" transform="translate(7901.335 6231.681) rotate(90)">
        <path id="Trazado_656197-9" data-name="Trazado 656197" d="M-7395.948-4965.578v16.642" transform="translate(7911 11700)" fill="none" stroke="#5573c6" stroke-width="2"/>
        <path id="Trazado_656198-3" data-name="Trazado 656198" d="M-7395.948-4965.578v16.642" transform="translate(7914.892 11700)" fill="none" stroke="#5573c6" stroke-width="2"/>
      </g>
      <g id="Grupo_982150" data-name="Grupo 982150" transform="translate(7416.034 6392.843) rotate(90)">
        <path id="Trazado_656197-10" data-name="Trazado 656197" d="M-7395.948-4965.578v16.642" transform="translate(7911 11700)" fill="none" stroke="#5573c6" stroke-width="2"/>
        <path id="Trazado_656198-4" data-name="Trazado 656198" d="M-7395.948-4965.578v16.642" transform="translate(7914.892 11700)" fill="none" stroke="#5573c6" stroke-width="2"/>
      </g>
      <g id="Grupo_982152" data-name="Grupo 982152" transform="translate(7901.335 6392.843) rotate(90)">
        <path id="Trazado_656197-11" data-name="Trazado 656197" d="M-7395.948-4965.578v16.642" transform="translate(7911 11700)" fill="none" stroke="#5573c6" stroke-width="2"/>
        <path id="Trazado_656198-5" data-name="Trazado 656198" d="M-7395.948-4965.578v16.642" transform="translate(7914.892 11700)" fill="none" stroke="#5573c6" stroke-width="2"/>
      </g>
      <g id="Grupo_982148" data-name="Grupo 982148" transform="translate(95 112.523)">
        <path id="Trazado_656197-12" data-name="Trazado 656197" d="M-7395.948-4965.578v16.642" transform="translate(7911 11700)" fill="none" stroke="#5573c6" stroke-width="2"/>
        <path id="Trazado_656198-6" data-name="Trazado 656198" d="M-7395.948-4965.578v16.642" transform="translate(7914.892 11700)" fill="none" stroke="#5573c6" stroke-width="2"/>
      </g>
    </g>
  </g>
</svg>
