<svg xmlns="http://www.w3.org/2000/svg" xmlns:xlink="http://www.w3.org/1999/xlink" width="85" height="85" viewBox="0 0 85 85">
  <defs>
    <clipPath id="clip-path">
      <rect id="Rectángulo_343505" data-name="Rectángulo 343505" width="78.464" height="74.938" fill="none"/>
    </clipPath>
    <clipPath id="clip-path-2">
      <path id="Trazado_656388" data-name="Trazado 656388" d="M40.692,0l0,0a1.461,1.461,0,0,0-.654.2L1.171,22.642A2.689,2.689,0,0,0,0,24.945v0a2.788,2.788,0,0,0,.091.715L8.527,57.59A1.209,1.209,0,0,0,9.656,58.61h.011l.616.053-.043-.176L49.791,35.652a2.125,2.125,0,0,0,.82-2.295L42.176,1.429A1.831,1.831,0,0,0,41.312.235l.035-.183Z" fill="none"/>
    </clipPath>
    <linearGradient id="linear-gradient" x1="0.152" y1="1.165" x2="0.163" y2="1.165" gradientUnits="objectBoundingBox">
      <stop offset="0" stop-color="#a0a6c0"/>
      <stop offset="0.014" stop-color="#a0a6c0"/>
      <stop offset="0.383" stop-color="#a0a6c0"/>
      <stop offset="0.386" stop-color="#acb1c8"/>
      <stop offset="0.394" stop-color="#c6c8d9"/>
      <stop offset="0.403" stop-color="#d8d9e6"/>
      <stop offset="0.412" stop-color="#e3e3ed"/>
      <stop offset="0.422" stop-color="#e7e7f0"/>
      <stop offset="1" stop-color="#e7e7f0"/>
    </linearGradient>
    <clipPath id="clip-path-4">
      <rect id="Rectángulo_343501" data-name="Rectángulo 343501" width="16.856" height="48.439" fill="none"/>
    </clipPath>
    <clipPath id="clip-path-5">
      <path id="Trazado_656402" data-name="Trazado 656402" d="M53.621,47.033,16.509,68.6l-2.54.3v1.6l0,0a.96.96,0,0,0,.577.845L39.13,85.546a4.193,4.193,0,0,0,3.8,0L80.992,63.429a1.349,1.349,0,0,0,.778-1.066h0V60.836l-1.219.144L56.4,47.033a3.06,3.06,0,0,0-2.778,0" transform="translate(-13.969 -46.7)" fill="none"/>
    </clipPath>
    <linearGradient id="linear-gradient-2" x1="-0.157" y1="0.996" x2="-0.146" y2="0.996" gradientUnits="objectBoundingBox">
      <stop offset="0" stop-color="#a0a6c0"/>
      <stop offset="0.014" stop-color="#a0a6c0"/>
      <stop offset="0.383" stop-color="#a0a6c0"/>
      <stop offset="0.385" stop-color="#a3a8c2"/>
      <stop offset="0.4" stop-color="#b5bace"/>
      <stop offset="0.416" stop-color="#c0c4d5"/>
      <stop offset="0.433" stop-color="#c4c8d8"/>
      <stop offset="0.979" stop-color="#c4c8d8"/>
      <stop offset="1" stop-color="#c4c8d8"/>
    </linearGradient>
  </defs>
  <g id="Grupo_982300" data-name="Grupo 982300" transform="translate(-390 -12618)">
    <circle id="Elipse_6108" data-name="Elipse 6108" cx="42.5" cy="42.5" r="42.5" transform="translate(390 12618)" fill="#5573c6"/>
    <g id="Grupo_982299" data-name="Grupo 982299" transform="translate(396.536 12623.031)">
      <g id="Grupo_982298" data-name="Grupo 982298" clip-path="url(#clip-path)">
        <g id="Grupo_982288" data-name="Grupo 982288">
          <g id="Grupo_982287" data-name="Grupo 982287" clip-path="url(#clip-path-2)">
            <rect id="Rectángulo_343500" data-name="Rectángulo 343500" width="73.064" height="68.595" transform="translate(-19.755 51.012) rotate(-68.831)" fill="url(#linear-gradient)"/>
          </g>
        </g>
        <g id="Grupo_982293" data-name="Grupo 982293" transform="translate(0 0)">
          <g id="Grupo_982292" data-name="Grupo 982292" clip-path="url(#clip-path)">
            <path id="Trazado_656389" data-name="Trazado 656389" d="M40.811.271,1.945,22.71A2.8,2.8,0,0,0,.865,25.729L9.3,57.658c.23.872.971,1.26,1.655.865L50.6,35.633a2.125,2.125,0,0,0,.821-2.3L42.988,1.409C42.685.262,41.71-.248,40.811.271" transform="translate(-0.183 -0.016)" fill="#494855"/>
            <path id="Trazado_656390" data-name="Trazado 656390" d="M42.114,1.459,1.8,24.733l8.239,31.183L50.352,32.644Z" transform="translate(-0.427 -0.346)" fill="#4adbd1"/>
            <path id="Trazado_656391" data-name="Trazado 656391" d="M11.548,42.192l-1.379.8a.183.183,0,0,1-.259-.05l-.042-.063a.183.183,0,0,0-.259-.05l-1.241.717a.378.378,0,0,0-.176.315l0,.235a.3.3,0,0,0,.008.075l.574,2.387a.139.139,0,0,0,.217.093l3.245-1.873a.28.28,0,0,0,.124-.29l-.52-2.166a.187.187,0,0,0-.291-.125" transform="translate(-1.941 -9.989)" fill="#ffe568"/>
            <path id="Trazado_656392" data-name="Trazado 656392" d="M11.691,42.45,8.446,44.324a.28.28,0,0,0-.124.29l.481,2a.139.139,0,0,0,.217.094l3.245-1.874a.28.28,0,0,0,.124-.29l-.481-2a.139.139,0,0,0-.217-.093" transform="translate(-1.97 -10.052)" fill="#ffec8b"/>
            <path id="Trazado_656393" data-name="Trazado 656393" d="M9.34,34.893l-1.379.8a.183.183,0,0,1-.259-.05l-.042-.063a.183.183,0,0,0-.259-.05l-1.242.716a.379.379,0,0,0-.175.315l0,.235a.3.3,0,0,0,.008.075l.574,2.387a.139.139,0,0,0,.217.093l3.245-1.873a.28.28,0,0,0,.124-.29l-.52-2.166a.187.187,0,0,0-.291-.125" transform="translate(-1.418 -8.26)" fill="#ffe568"/>
            <path id="Trazado_656394" data-name="Trazado 656394" d="M9.483,35.151,6.238,37.024a.282.282,0,0,0-.124.291l.481,2a.139.139,0,0,0,.217.093l3.245-1.873a.28.28,0,0,0,.124-.29l-.481-2a.139.139,0,0,0-.217-.093" transform="translate(-1.447 -8.323)" fill="#ffec8b"/>
            <path id="Trazado_656395" data-name="Trazado 656395" d="M52.463,8.4l-1.379.8a.184.184,0,0,1-.259-.05l-.042-.063a.183.183,0,0,0-.259-.05l-1.242.717a.379.379,0,0,0-.175.315l0,.235a.3.3,0,0,0,.008.075l.574,2.387a.139.139,0,0,0,.217.093L53.15,10.98a.28.28,0,0,0,.124-.29l-.52-2.166a.187.187,0,0,0-.291-.125" transform="translate(-11.635 -1.982)" fill="#ffe568"/>
            <path id="Trazado_656396" data-name="Trazado 656396" d="M52.606,8.657,49.361,10.53a.282.282,0,0,0-.124.291l.481,2a.139.139,0,0,0,.217.093l3.245-1.873a.28.28,0,0,0,.124-.29l-.481-2a.139.139,0,0,0-.217-.093" transform="translate(-11.664 -2.045)" fill="#ffec8b"/>
            <path id="Trazado_656397" data-name="Trazado 656397" d="M52.441,40.548,12.13,63.822l.359,1.356L52.8,41.905Z" transform="translate(-2.874 -9.607)" fill="#c4c8d8"/>
            <path id="Trazado_656398" data-name="Trazado 656398" d="M44.934,35.206,20.616,49.246,15.407,29.531l-.789-2.987L38.937,12.5l.79,2.987Z" transform="translate(-3.464 -2.962)" fill="#eff0f5"/>
            <path id="Trazado_656399" data-name="Trazado 656399" d="M39.726,15.491,15.408,29.531l-.79-2.987L38.936,12.5Z" transform="translate(-3.464 -2.962)" fill="#c4c8d8"/>
            <path id="Trazado_656400" data-name="Trazado 656400" d="M16.3,32.668l1.608-.928L17.582,30.5l-1.608.928Z" transform="translate(-3.785 -7.225)" fill="#fc797e"/>
            <g id="Grupo_982291" data-name="Grupo 982291" transform="translate(16.182 4.637)" style="mix-blend-mode: screen;isolation: isolate">
              <g id="Grupo_982290" data-name="Grupo 982290">
                <g id="Grupo_982289" data-name="Grupo 982289" clip-path="url(#clip-path-4)">
                  <path id="Trazado_656401" data-name="Trazado 656401" d="M38.063,6.077v38.71L21.207,54.516V15.806Z" transform="translate(-21.207 -6.077)" fill="#323333"/>
                </g>
              </g>
            </g>
          </g>
        </g>
        <g id="Grupo_982295" data-name="Grupo 982295" transform="translate(10.659 35.635)">
          <g id="Grupo_982294" data-name="Grupo 982294" clip-path="url(#clip-path-5)">
            <rect id="Rectángulo_343503" data-name="Rectángulo 343503" width="67.818" height="39.455" transform="translate(-0.014 0)" fill="url(#linear-gradient-2)"/>
          </g>
        </g>
        <g id="Grupo_982297" data-name="Grupo 982297" transform="translate(0 0)">
          <g id="Grupo_982296" data-name="Grupo 982296" clip-path="url(#clip-path)">
            <path id="Trazado_656403" data-name="Trazado 656403" d="M80.98,59.289,56.4,45.1a3.061,3.061,0,0,0-2.778,0L14.54,67.809a.85.85,0,0,0,.009,1.609L39.13,83.609a4.191,4.191,0,0,0,3.8,0L80.992,61.493a1.165,1.165,0,0,0-.012-2.2" transform="translate(-3.31 -10.606)" fill="#eff0f5"/>
            <path id="Trazado_656404" data-name="Trazado 656404" d="M71.382,54.8l-14.5-8.372a2.024,2.024,0,0,0-1.837,0L16.84,68.631a.562.562,0,0,0,.005,1.064l14.5,8.372a2.022,2.022,0,0,0,1.836,0l38.207-22.2a.562.562,0,0,0-.006-1.064" transform="translate(-3.9 -10.948)" fill="#e1e3eb"/>
            <path id="Trazado_656405" data-name="Trazado 656405" d="M78.287,71.936l-7.21-4.163a1.677,1.677,0,0,0-1.524,0l-15.838,9.2a.466.466,0,0,0,0,.882l7.21,4.163a1.681,1.681,0,0,0,1.524,0l15.838-9.2a.467.467,0,0,0,0-.883" transform="translate(-12.653 -16.014)" fill="#d9dbe6"/>
            <path id="Trazado_656406" data-name="Trazado 656406" d="M53.715,77.2l15.838-9.2a1.681,1.681,0,0,1,1.524,0l7.21,4.163a.611.611,0,0,1,.3.334c.061-.2-.038-.4-.3-.556l-7.21-4.163a1.681,1.681,0,0,0-1.524,0l-15.838,9.2c-.256.15-.353.355-.295.548a.606.606,0,0,1,.295-.327" transform="translate(-12.653 -16.014)" fill="#c5c9d8"/>
            <path id="Trazado_656407" data-name="Trazado 656407" d="M24.088,77v-.207h-.171l-1.737-1a.709.709,0,0,0-.643,0L19.794,76.8h-.151v.209h0a.231.231,0,0,0,.132.173l1.773,1.024a.712.712,0,0,0,.644,0l1.762-1.025A.223.223,0,0,0,24.088,77" transform="translate(-4.654 -17.939)" fill="#393842"/>
            <path id="Trazado_656408" data-name="Trazado 656408" d="M38.756,85.471v-.207h-.17l-1.737-1a.707.707,0,0,0-.642,0l-1.744,1.013h-.151v.2h0v.012h0a.235.235,0,0,0,.132.173l1.773,1.024a.71.71,0,0,0,.643,0l1.763-1.025a.222.222,0,0,0,.131-.186" transform="translate(-8.13 -19.946)" fill="#393842"/>
            <path id="Trazado_656409" data-name="Trazado 656409" d="M42.376,83.368v-.207h-.17l-1.737-1a.707.707,0,0,0-.642,0l-1.744,1.013h-.151v.209h0a.235.235,0,0,0,.132.173l1.773,1.024a.71.71,0,0,0,.643,0l1.763-1.025a.222.222,0,0,0,.131-.186" transform="translate(-8.987 -19.448)" fill="#393842"/>
            <path id="Trazado_656410" data-name="Trazado 656410" d="M46,81.264v-.207h-.17l-1.738-1a.707.707,0,0,0-.642,0L41.7,81.067h-.151v.209h0a.234.234,0,0,0,.132.173l1.773,1.024a.71.71,0,0,0,.643,0l1.763-1.025A.222.222,0,0,0,46,81.264" transform="translate(-9.845 -18.949)" fill="#393842"/>
            <path id="Trazado_656411" data-name="Trazado 656411" d="M49.615,79.161v-.207h-.17l-1.737-1a.707.707,0,0,0-.642,0l-1.744,1.013h-.151v.209h0a.235.235,0,0,0,.132.173l1.773,1.024a.71.71,0,0,0,.643,0l1.763-1.025a.222.222,0,0,0,.131-.186" transform="translate(-10.703 -18.451)" fill="#393842"/>
            <path id="Trazado_656412" data-name="Trazado 656412" d="M27.707,74.9v-.207h-.17l-1.738-1a.707.707,0,0,0-.642,0L23.414,74.7h-.151v.209h0a.235.235,0,0,0,.132.173l1.773,1.024a.71.71,0,0,0,.643,0l1.763-1.025a.222.222,0,0,0,.131-.186" transform="translate(-5.512 -17.441)" fill="#393842"/>
            <path id="Trazado_656413" data-name="Trazado 656413" d="M33.4,75.814v-.207h-.17l-1.738-1a.707.707,0,0,0-.642,0L29.1,75.617h-.151v.2h0v.012h0a.235.235,0,0,0,.132.173l1.773,1.024a.71.71,0,0,0,.643,0L33.264,76a.222.222,0,0,0,.131-.186" transform="translate(-6.859 -17.658)" fill="#393842"/>
            <path id="Trazado_656414" data-name="Trazado 656414" d="M37.015,73.71V73.5h-.17l-1.737-1a.707.707,0,0,0-.642,0l-1.744,1.013h-.151v.209h0a.237.237,0,0,0,.132.174l1.773,1.023a.71.71,0,0,0,.643,0L36.884,73.9a.222.222,0,0,0,.131-.186" transform="translate(-7.717 -17.159)" fill="#393842"/>
            <path id="Trazado_656415" data-name="Trazado 656415" d="M38.9,76.893v-.207h-.171l-1.737-1a.709.709,0,0,0-.643,0L34.6,76.7h-.151v.209h0a.237.237,0,0,0,.132.174L36.359,78.1a.709.709,0,0,0,.643,0l1.763-1.024a.226.226,0,0,0,.131-.187" transform="translate(-8.163 -17.914)" fill="#393842"/>
            <path id="Trazado_656416" data-name="Trazado 656416" d="M42.588,79.024v-.207h-.17l-1.737-1a.707.707,0,0,0-.642,0L38.3,78.827h-.151v.209h0a.235.235,0,0,0,.132.173l1.773,1.024a.71.71,0,0,0,.643,0l1.763-1.025a.222.222,0,0,0,.131-.186" transform="translate(-9.038 -18.418)" fill="#393842"/>
            <path id="Trazado_656417" data-name="Trazado 656417" d="M46.207,76.921v-.207h-.17l-1.738-1a.707.707,0,0,0-.642,0l-1.744,1.013h-.151v.2h0v.012h0a.235.235,0,0,0,.132.173l1.773,1.024a.71.71,0,0,0,.643,0l1.763-1.025a.222.222,0,0,0,.131-.186" transform="translate(-9.895 -17.92)" fill="#393842"/>
            <path id="Trazado_656418" data-name="Trazado 656418" d="M49.827,74.817V74.61h-.169l-1.738-1a.709.709,0,0,0-.643,0L45.533,74.62h-.151v.2h0v.012h0a.234.234,0,0,0,.132.173l1.774,1.024a.709.709,0,0,0,.643,0L49.7,75a.224.224,0,0,0,.131-.186" transform="translate(-10.753 -17.422)" fill="#393842"/>
            <path id="Trazado_656419" data-name="Trazado 656419" d="M53.446,72.714v-.207h-.17l-1.738-1a.707.707,0,0,0-.642,0l-1.744,1.013H49v.2h0v.012h0a.235.235,0,0,0,.132.173l1.773,1.024a.71.71,0,0,0,.643,0L53.315,72.9a.222.222,0,0,0,.131-.186" transform="translate(-11.61 -16.923)" fill="#393842"/>
            <path id="Trazado_656420" data-name="Trazado 656420" d="M57.065,70.611V70.4h-.17l-1.737-1a.707.707,0,0,0-.642,0l-1.744,1.013h-.151v.2h0v.012h0a.234.234,0,0,0,.132.173l1.773,1.024a.71.71,0,0,0,.643,0L56.934,70.8a.222.222,0,0,0,.131-.186" transform="translate(-12.468 -16.425)" fill="#393842"/>
            <path id="Trazado_656421" data-name="Trazado 656421" d="M60.685,68.507V68.3h-.169l-1.738-1a.707.707,0,0,0-.642,0L56.392,68.31h-.151v.209h0a.237.237,0,0,0,.132.174l1.773,1.023a.71.71,0,0,0,.643,0l1.763-1.024a.224.224,0,0,0,.131-.187" transform="translate(-13.325 -15.927)" fill="#393842"/>
            <path id="Trazado_656422" data-name="Trazado 656422" d="M64.3,66.4V66.2h-.17l-1.738-1a.707.707,0,0,0-.642,0l-1.744,1.013H59.86v.209h0a.237.237,0,0,0,.132.174l1.773,1.023a.71.71,0,0,0,.643,0l1.763-1.024A.224.224,0,0,0,64.3,66.4" transform="translate(-14.183 -15.428)" fill="#393842"/>
            <path id="Trazado_656423" data-name="Trazado 656423" d="M67.924,64.3v-.207h-.17l-1.737-1a.707.707,0,0,0-.642,0L63.631,64.1H63.48v.2h0v.012h0a.235.235,0,0,0,.132.173l1.773,1.024a.711.711,0,0,0,.643,0l1.763-1.025a.222.222,0,0,0,.131-.186" transform="translate(-15.041 -14.93)" fill="#393842"/>
            <path id="Trazado_656424" data-name="Trazado 656424" d="M71.543,62.2V61.99h-.17l-1.738-1a.707.707,0,0,0-.642,0L67.25,62H67.1v.209h0a.237.237,0,0,0,.132.174l1.773,1.023a.71.71,0,0,0,.643,0l1.763-1.024a.224.224,0,0,0,.131-.187" transform="translate(-15.898 -14.432)" fill="#393842"/>
            <path id="Trazado_656425" data-name="Trazado 656425" d="M75.42,64.164v-.207h-.17l-1.738-1a.707.707,0,0,0-.642,0l-1.744,1.013h-.151v.209h0a.237.237,0,0,0,.132.174l1.773,1.023a.71.71,0,0,0,.643,0l1.763-1.024a.224.224,0,0,0,.131-.187" transform="translate(-16.817 -14.898)" fill="#393842"/>
            <path id="Trazado_656426" data-name="Trazado 656426" d="M79.04,62.061v-.207h-.17l-1.738-1a.707.707,0,0,0-.642,0l-1.744,1.013H74.6v.209h0a.235.235,0,0,0,.132.173L76.5,63.271a.71.71,0,0,0,.643,0l1.763-1.025a.222.222,0,0,0,.131-.186" transform="translate(-17.674 -14.399)" fill="#393842"/>
            <path id="Trazado_656427" data-name="Trazado 656427" d="M86.368,57.8v-.207H86.2l-1.738-1a.707.707,0,0,0-.642,0l-1.744,1.013h-.151v.209h0a.237.237,0,0,0,.132.174l1.773,1.023a.71.71,0,0,0,.643,0l1.763-1.024a.224.224,0,0,0,.131-.187" transform="translate(-19.411 -13.39)" fill="#393842"/>
            <path id="Trazado_656428" data-name="Trazado 656428" d="M82.478,55.493l-1.738-1a.706.706,0,0,0-.641,0l-.247.143-1.5.87H78.2v.088l-.1.056h-.151v.209h0a.233.233,0,0,0,.132.174l1.773,1.023a.709.709,0,0,0,.643,0l2.01-1.167a.225.225,0,0,0,.131-.187v-.207Z" transform="translate(-18.471 -12.892)" fill="#393842"/>
            <path id="Trazado_656429" data-name="Trazado 656429" d="M75.163,60.094v-.207h-.169l-1.738-1a.707.707,0,0,0-.642,0L70.87,59.9h-.151v.2h0v.012h0a.235.235,0,0,0,.132.173L72.626,61.3a.71.71,0,0,0,.643,0l1.763-1.025a.222.222,0,0,0,.131-.186" transform="translate(-16.756 -13.933)" fill="#393842"/>
            <path id="Trazado_656430" data-name="Trazado 656430" d="M78.782,57.99v-.207h-.17l-1.737-1a.707.707,0,0,0-.642,0l-1.744,1.013h-.151V58h0a.237.237,0,0,0,.132.174L76.245,59.2a.71.71,0,0,0,.643,0l1.763-1.024a.224.224,0,0,0,.131-.187" transform="translate(-17.613 -13.435)" fill="#393842"/>
            <path id="Trazado_656431" data-name="Trazado 656431" d="M42.515,74.789v-.207h-.169l-1.738-1a.707.707,0,0,0-.642,0l-1.744,1.013h-.151v.2h0V74.8h0a.235.235,0,0,0,.132.173L39.978,76a.71.71,0,0,0,.643,0l1.763-1.025a.222.222,0,0,0,.131-.186" transform="translate(-9.02 -17.415)" fill="#393842"/>
            <path id="Trazado_656432" data-name="Trazado 656432" d="M46.134,72.686v-.207h-.17l-1.738-1a.707.707,0,0,0-.642,0l-1.744,1.013H41.69V72.7h0a.237.237,0,0,0,.132.174L43.6,73.9a.71.71,0,0,0,.643,0L46,72.873a.224.224,0,0,0,.131-.187" transform="translate(-9.878 -16.917)" fill="#393842"/>
            <path id="Trazado_656433" data-name="Trazado 656433" d="M49.754,70.582v-.207h-.17l-1.738-1a.707.707,0,0,0-.642,0l-1.744,1.013H45.31v.2h0v.012h0a.234.234,0,0,0,.132.173l1.773,1.024a.71.71,0,0,0,.643,0l1.763-1.025a.222.222,0,0,0,.131-.186" transform="translate(-10.735 -16.418)" fill="#393842"/>
            <path id="Trazado_656434" data-name="Trazado 656434" d="M53.373,68.479v-.207H53.2l-1.737-1a.707.707,0,0,0-.642,0L49.08,68.282h-.151v.209h0a.237.237,0,0,0,.132.174l1.773,1.023a.71.71,0,0,0,.643,0l1.763-1.024a.224.224,0,0,0,.131-.187" transform="translate(-11.593 -15.92)" fill="#393842"/>
            <path id="Trazado_656435" data-name="Trazado 656435" d="M56.993,66.376v-.207h-.17l-1.738-1a.707.707,0,0,0-.642,0L52.7,66.179h-.151v.209h0a.234.234,0,0,0,.132.173l1.773,1.024a.71.71,0,0,0,.643,0l1.763-1.025a.222.222,0,0,0,.131-.186" transform="translate(-12.451 -15.422)" fill="#393842"/>
            <path id="Trazado_656436" data-name="Trazado 656436" d="M60.612,64.272v-.207h-.17l-1.737-1a.707.707,0,0,0-.642,0l-1.744,1.013h-.151v.209h0a.237.237,0,0,0,.132.174l1.773,1.023a.711.711,0,0,0,.643,0l1.763-1.025a.222.222,0,0,0,.131-.186" transform="translate(-13.308 -14.923)" fill="#393842"/>
            <path id="Trazado_656437" data-name="Trazado 656437" d="M64.232,62.169v-.207h-.17l-1.737-1a.707.707,0,0,0-.642,0l-1.744,1.013h-.151v.209h0a.234.234,0,0,0,.132.173l1.773,1.024a.71.71,0,0,0,.643,0L64.1,62.355a.222.222,0,0,0,.131-.186" transform="translate(-14.166 -14.425)" fill="#393842"/>
            <path id="Trazado_656438" data-name="Trazado 656438" d="M67.851,60.065v-.207h-.17l-1.738-1a.707.707,0,0,0-.642,0l-1.744,1.013h-.151v.2h0v.012h0a.235.235,0,0,0,.132.173l1.773,1.024a.71.71,0,0,0,.643,0l1.763-1.025a.222.222,0,0,0,.131-.186" transform="translate(-15.023 -13.926)" fill="#393842"/>
            <path id="Trazado_656439" data-name="Trazado 656439" d="M71.471,57.962v-.207H71.3l-1.737-1a.707.707,0,0,0-.642,0l-1.744,1.013h-.151v.209h0a.235.235,0,0,0,.132.173l1.773,1.024a.71.71,0,0,0,.643,0l1.763-1.025a.222.222,0,0,0,.131-.186" transform="translate(-15.881 -13.428)" fill="#393842"/>
            <path id="Trazado_656440" data-name="Trazado 656440" d="M40.634,71.607V71.4h-.17l-1.738-1a.707.707,0,0,0-.642,0L36.341,71.41H36.19v.209h0a.234.234,0,0,0,.132.173L38.1,72.817a.71.71,0,0,0,.643,0L40.5,71.793a.222.222,0,0,0,.131-.186" transform="translate(-8.575 -16.661)" fill="#393842"/>
            <path id="Trazado_656441" data-name="Trazado 656441" d="M44.254,69.5V69.3h-.17l-1.738-1a.707.707,0,0,0-.642,0l-1.744,1.013H39.81v.209h0a.235.235,0,0,0,.132.173l1.773,1.024a.71.71,0,0,0,.643,0l1.763-1.025a.222.222,0,0,0,.131-.186" transform="translate(-9.432 -16.163)" fill="#393842"/>
            <path id="Trazado_656442" data-name="Trazado 656442" d="M47.873,67.4v-.207H47.7l-1.738-1a.707.707,0,0,0-.642,0L43.58,67.2h-.151v.209h0a.235.235,0,0,0,.132.173l1.773,1.024a.71.71,0,0,0,.643,0l1.763-1.025a.222.222,0,0,0,.131-.186" transform="translate(-10.29 -15.664)" fill="#393842"/>
            <path id="Trazado_656443" data-name="Trazado 656443" d="M51.493,65.3V65.09h-.17l-1.738-1a.707.707,0,0,0-.642,0L47.2,65.1h-.151v.209h0a.235.235,0,0,0,.132.173l1.773,1.024a.71.71,0,0,0,.643,0l1.763-1.025a.222.222,0,0,0,.131-.186" transform="translate(-11.147 -15.166)" fill="#393842"/>
            <path id="Trazado_656444" data-name="Trazado 656444" d="M55.112,63.193v-.207h-.17l-1.738-1a.707.707,0,0,0-.642,0L50.819,63h-.151v.209h0a.235.235,0,0,0,.132.173L52.575,64.4a.71.71,0,0,0,.643,0l1.763-1.025a.222.222,0,0,0,.131-.186" transform="translate(-12.005 -14.668)" fill="#393842"/>
            <path id="Trazado_656445" data-name="Trazado 656445" d="M58.731,61.09v-.207h-.17l-1.738-1a.707.707,0,0,0-.642,0l-1.744,1.013h-.151v.2h0V61.1h0a.234.234,0,0,0,.132.173L56.194,62.3a.71.71,0,0,0,.643,0L58.6,61.276a.222.222,0,0,0,.131-.186" transform="translate(-12.862 -14.169)" fill="#393842"/>
            <path id="Trazado_656446" data-name="Trazado 656446" d="M62.351,58.986v-.207h-.17l-1.738-1a.707.707,0,0,0-.642,0l-1.744,1.013h-.151v.2h0V59h0a.235.235,0,0,0,.132.173L59.814,60.2a.71.71,0,0,0,.643,0l1.763-1.025a.222.222,0,0,0,.131-.186" transform="translate(-13.72 -13.671)" fill="#393842"/>
            <path id="Trazado_656447" data-name="Trazado 656447" d="M65.97,56.883v-.207H65.8l-1.738-1a.707.707,0,0,0-.642,0l-1.744,1.013h-.151v.2h0V56.9h0a.235.235,0,0,0,.132.173l1.773,1.024a.71.71,0,0,0,.643,0l1.763-1.025a.222.222,0,0,0,.131-.186" transform="translate(-14.578 -13.172)" fill="#393842"/>
            <path id="Trazado_656448" data-name="Trazado 656448" d="M69.59,54.78v-.207h-.17l-1.738-1a.707.707,0,0,0-.642,0L65.3,54.583h-.151v.2h0v.012h0a.234.234,0,0,0,.132.173l1.773,1.024a.71.71,0,0,0,.643,0l1.763-1.025a.222.222,0,0,0,.131-.186" transform="translate(-15.435 -12.674)" fill="#393842"/>
            <path id="Trazado_656449" data-name="Trazado 656449" d="M31.326,72.795v-.207h-.17l-1.738-1a.707.707,0,0,0-.642,0L27.033,72.6h-.151v.209h0a.235.235,0,0,0,.132.173L28.789,74a.71.71,0,0,0,.643,0l1.763-1.025a.222.222,0,0,0,.131-.186" transform="translate(-6.369 -16.943)" fill="#393842"/>
            <path id="Trazado_656450" data-name="Trazado 656450" d="M34.946,70.692v-.207h-.17l-1.738-1a.707.707,0,0,0-.642,0l-1.744,1.013H30.5V70.7h0a.234.234,0,0,0,.132.173L32.409,71.9a.711.711,0,0,0,.643,0l1.763-1.025a.222.222,0,0,0,.131-.186" transform="translate(-7.227 -16.444)" fill="#393842"/>
            <path id="Trazado_656451" data-name="Trazado 656451" d="M38.565,68.589v-.207h-.17l-1.737-1a.707.707,0,0,0-.642,0l-1.744,1.013h-.151V68.6h0a.235.235,0,0,0,.132.173L36.028,69.8a.71.71,0,0,0,.643,0l1.763-1.025a.222.222,0,0,0,.131-.186" transform="translate(-8.084 -15.946)" fill="#393842"/>
            <path id="Trazado_656452" data-name="Trazado 656452" d="M42.185,66.485v-.207h-.17l-1.738-1a.707.707,0,0,0-.642,0l-1.744,1.013h-.151v.2h0V66.5h0a.235.235,0,0,0,.132.173l1.773,1.024a.71.71,0,0,0,.643,0l1.763-1.025a.222.222,0,0,0,.131-.186" transform="translate(-8.942 -15.448)" fill="#393842"/>
            <path id="Trazado_656453" data-name="Trazado 656453" d="M45.8,64.382v-.207h-.169l-1.738-1a.707.707,0,0,0-.642,0l-1.744,1.013H41.36v.209h0a.237.237,0,0,0,.132.174l1.773,1.023a.71.71,0,0,0,.643,0l1.763-1.025a.222.222,0,0,0,.131-.186" transform="translate(-9.8 -14.949)" fill="#393842"/>
            <path id="Trazado_656454" data-name="Trazado 656454" d="M49.424,62.278v-.207h-.17l-1.738-1a.707.707,0,0,0-.642,0l-1.744,1.013H44.98v.2h0v.012h0a.235.235,0,0,0,.132.173l1.773,1.024a.71.71,0,0,0,.643,0l1.763-1.025a.222.222,0,0,0,.131-.186" transform="translate(-10.657 -14.451)" fill="#393842"/>
            <path id="Trazado_656455" data-name="Trazado 656455" d="M53.043,60.175v-.207h-.17l-1.738-1a.707.707,0,0,0-.642,0L48.75,59.978H48.6v.209h0a.237.237,0,0,0,.132.174l1.773,1.023a.711.711,0,0,0,.643,0l1.763-1.025a.222.222,0,0,0,.131-.186" transform="translate(-11.515 -13.952)" fill="#393842"/>
            <path id="Trazado_656456" data-name="Trazado 656456" d="M56.662,58.072v-.207h-.17l-1.738-1a.707.707,0,0,0-.642,0l-1.744,1.013h-.151v.209h0a.235.235,0,0,0,.132.173l1.773,1.024a.71.71,0,0,0,.643,0l1.763-1.025a.222.222,0,0,0,.131-.186" transform="translate(-12.372 -13.454)" fill="#393842"/>
            <path id="Trazado_656457" data-name="Trazado 656457" d="M60.282,55.968v-.207h-.169l-1.738-1a.707.707,0,0,0-.642,0l-1.744,1.013h-.151v.209h0a.237.237,0,0,0,.132.174l1.773,1.023a.71.71,0,0,0,.643,0l1.763-1.024a.224.224,0,0,0,.131-.187" transform="translate(-13.23 -12.956)" fill="#393842"/>
            <path id="Trazado_656458" data-name="Trazado 656458" d="M63.9,53.865v-.207h-.17l-1.738-1a.707.707,0,0,0-.642,0l-1.744,1.013h-.151v.209h0a.237.237,0,0,0,.132.174l1.773,1.023a.71.71,0,0,0,.643,0l1.763-1.024a.224.224,0,0,0,.131-.187" transform="translate(-14.087 -12.457)" fill="#393842"/>
            <path id="Trazado_656459" data-name="Trazado 656459" d="M67.521,51.761v-.207h-.17l-1.737-1a.707.707,0,0,0-.642,0l-1.744,1.013h-.151v.2h0v.012h0a.235.235,0,0,0,.132.173l1.773,1.024a.71.71,0,0,0,.643,0l1.763-1.025a.222.222,0,0,0,.131-.186" transform="translate(-14.945 -11.959)" fill="#393842"/>
            <path id="Trazado_656460" data-name="Trazado 656460" d="M71.566,49.115l-.173.009-1.734-1a.708.708,0,0,0-.643,0L66.87,49.371l-.175.01,0,.188a.147.147,0,0,0,0,.026v.011h0a.24.24,0,0,0,.13.163L68.6,50.792a.71.71,0,0,0,.644,0l2.188-1.271a.219.219,0,0,0,.13-.2h0Z" transform="translate(-15.802 -11.384)" fill="#393842"/>
            <path id="Trazado_656461" data-name="Trazado 656461" d="M67.4,66.26v-.2h-.167l-1.74-1A.713.713,0,0,0,65,65a.54.54,0,0,0-.15.058L63.109,66.07h-.151v.088L50.685,73.291h0L48.941,74.3H48.79v.209h0l0,.007a.133.133,0,0,0,.009.038l.005.011a.2.2,0,0,0,.02.035.2.2,0,0,0,.018.019.16.16,0,0,0,.022.024.388.388,0,0,0,.055.039h0L50.7,75.711a.56.56,0,0,0,.151.058.755.755,0,0,0,.172.019.651.651,0,0,0,.32-.076L53.1,74.687l14.168-8.233a.219.219,0,0,0,.131-.193" transform="translate(-11.56 -15.396)" fill="#393842"/>
            <path id="Trazado_656462" data-name="Trazado 656462" d="M25.025,72.706v-.2l-.114.027-.021-.014-.478-.275a.707.707,0,0,0-.643,0l-1.631.948-.263.062,0,.211a.237.237,0,0,0,.134.176l.478.275a.707.707,0,0,0,.643,0l1.762-1.024a.227.227,0,0,0,.131-.182Z" transform="translate(-5.183 -17.098)" fill="#393842"/>
            <path id="Trazado_656463" data-name="Trazado 656463" d="M28.644,70.6v-.2l-.114.027-.021-.015-.478-.275a.707.707,0,0,0-.643,0l-1.631.948-.263.062,0,.211a.238.238,0,0,0,.134.176l.478.275a.707.707,0,0,0,.643,0l1.762-1.024a.227.227,0,0,0,.131-.182Z" transform="translate(-6.041 -16.6)" fill="#393842"/>
            <path id="Trazado_656464" data-name="Trazado 656464" d="M32.264,68.5v-.2l-.114.027a.241.241,0,0,0-.021-.015l-.478-.275a.707.707,0,0,0-.643,0l-1.63.948-.264.062,0,.211a.236.236,0,0,0,.133.176l.478.275a.7.7,0,0,0,.642,0l1.762-1.024a.23.23,0,0,0,.132-.182Z" transform="translate(-6.898 -16.101)" fill="#393842"/>
            <path id="Trazado_656465" data-name="Trazado 656465" d="M35.883,66.4v-.2l-.114.027-.021-.014-.478-.275a.707.707,0,0,0-.643,0L33,66.878l-.263.062,0,.211a.238.238,0,0,0,.134.176l.478.275a.706.706,0,0,0,.643,0l1.762-1.024a.227.227,0,0,0,.131-.182Z" transform="translate(-7.756 -15.603)" fill="#393842"/>
            <path id="Trazado_656466" data-name="Trazado 656466" d="M39.5,64.293v-.2l-.114.027-.021-.015-.478-.275a.706.706,0,0,0-.643,0l-1.631.948-.263.062,0,.211a.238.238,0,0,0,.134.176l.478.275a.706.706,0,0,0,.643,0l1.762-1.024a.227.227,0,0,0,.131-.182Z" transform="translate(-8.613 -15.104)" fill="#393842"/>
            <path id="Trazado_656467" data-name="Trazado 656467" d="M43.122,62.189v-.2l-.114.027L42.988,62l-.478-.275a.707.707,0,0,0-.643,0l-1.631.948-.263.062,0,.211a.238.238,0,0,0,.134.176l.478.275a.707.707,0,0,0,.642,0l1.762-1.024a.227.227,0,0,0,.131-.182Z" transform="translate(-9.471 -14.606)" fill="#393842"/>
            <path id="Trazado_656468" data-name="Trazado 656468" d="M46.741,60.086v-.2l-.114.027-.021-.014-.478-.275a.707.707,0,0,0-.642,0l-1.631.948-.263.062,0,.211a.238.238,0,0,0,.134.176l.478.275a.706.706,0,0,0,.643,0l1.762-1.024a.227.227,0,0,0,.131-.182Z" transform="translate(-10.329 -14.108)" fill="#393842"/>
            <path id="Trazado_656469" data-name="Trazado 656469" d="M50.361,57.982v-.2l-.114.027-.021-.014-.478-.275a.707.707,0,0,0-.643,0l-1.631.948-.263.062,0,.211a.237.237,0,0,0,.134.176l.478.275a.707.707,0,0,0,.643,0l1.762-1.024a.227.227,0,0,0,.131-.182Z" transform="translate(-11.186 -13.609)" fill="#393842"/>
            <path id="Trazado_656470" data-name="Trazado 656470" d="M53.98,55.879v-.2l-.114.027-.021-.014-.478-.275a.707.707,0,0,0-.643,0l-1.631.948-.263.062,0,.211a.238.238,0,0,0,.134.176l.478.275a.707.707,0,0,0,.643,0l1.762-1.024a.227.227,0,0,0,.131-.182Z" transform="translate(-12.044 -13.111)" fill="#393842"/>
            <path id="Trazado_656471" data-name="Trazado 656471" d="M57.6,53.776v-.2l-.114.027-.021-.014-.478-.275a.707.707,0,0,0-.643,0l-1.631.948-.263.062,0,.211a.237.237,0,0,0,.134.176l.478.275a.707.707,0,0,0,.643,0l1.762-1.024a.227.227,0,0,0,.131-.182Z" transform="translate(-12.901 -12.613)" fill="#393842"/>
            <path id="Trazado_656472" data-name="Trazado 656472" d="M61.219,51.672v-.2l-.114.027-.021-.014-.478-.275a.707.707,0,0,0-.643,0l-1.631.948-.263.062,0,.211a.238.238,0,0,0,.134.176l.478.275a.707.707,0,0,0,.643,0l1.762-1.024a.227.227,0,0,0,.131-.182Z" transform="translate(-13.759 -12.114)" fill="#393842"/>
            <path id="Trazado_656473" data-name="Trazado 656473" d="M64.839,49.569v-.2l-.114.027-.021-.014-.478-.275a.707.707,0,0,0-.643,0l-1.631.948-.263.062,0,.211a.238.238,0,0,0,.134.176l.478.275a.707.707,0,0,0,.643,0l1.762-1.024a.227.227,0,0,0,.131-.182Z" transform="translate(-14.617 -11.616)" fill="#393842"/>
            <path id="Trazado_656474" data-name="Trazado 656474" d="M68.458,47.465v-.2l-.114.027-.021-.014L67.846,47a.707.707,0,0,0-.643,0l-1.631.948-.263.062,0,.211a.237.237,0,0,0,.134.176l.478.275a.707.707,0,0,0,.643,0l1.762-1.024a.227.227,0,0,0,.131-.182Z" transform="translate(-15.474 -11.117)" fill="#393842"/>
            <path id="Trazado_656475" data-name="Trazado 656475" d="M29.316,77.732l-.125.019-.008-.006-1.775-1.024a.708.708,0,0,0-.641,0l-3.276,1.9-.179.027v.2h0a.231.231,0,0,0,.132.177l1.774,1.025a.71.71,0,0,0,.642,0l3.324-1.932a.224.224,0,0,0,.131-.186Z" transform="translate(-5.523 -18.16)" fill="#393842"/>
            <path id="Trazado_656476" data-name="Trazado 656476" d="M34.364,78.79l-.122.028-.012-.008-1.773-1.024a.709.709,0,0,0-.642,0l-4.6,2.674-.235.055v.2h0a.227.227,0,0,0,.134.182l1.773,1.024a.707.707,0,0,0,.642,0l4.7-2.734a.224.224,0,0,0,.132-.187Z" transform="translate(-6.392 -18.412)" fill="#393842"/>
            <path id="Trazado_656477" data-name="Trazado 656477" d="M38.056,80.922l-.122.028-.012-.008-1.773-1.024a.709.709,0,0,0-.642,0l-4.6,2.674-.235.055v.2h0a.227.227,0,0,0,.134.182l1.773,1.024a.707.707,0,0,0,.642,0l4.7-2.734a.224.224,0,0,0,.132-.187Z" transform="translate(-7.267 -18.917)" fill="#393842"/>
            <path id="Trazado_656478" data-name="Trazado 656478" d="M74.861,51.247l-.129.021,0,0L72.953,50.24a.711.711,0,0,0-.643,0l-3.333,1.937-.188.03v.2h0a.232.232,0,0,0,.132.176L70.7,53.607a.706.706,0,0,0,.641,0l3.39-1.97a.225.225,0,0,0,.133-.188Z" transform="translate(-16.298 -11.885)" fill="#393842"/>
            <path id="Trazado_656479" data-name="Trazado 656479" d="M77.965,53.382l-1.773-1.024a.71.71,0,0,0-.644,0L70.777,55.13c-.177.1-.175.269,0,.372l1.773,1.024a.7.7,0,0,0,.641,0l4.771-2.772a.2.2,0,0,0,0-.372" transform="translate(-16.738 -12.387)" fill="#393842"/>
            <path id="Trazado_656480" data-name="Trazado 656480" d="M81.363,59.213v-.2l-.114.027-.021-.014-.478-.275a.707.707,0,0,0-.643,0l-1.631.948-.263.062,0,.211a.237.237,0,0,0,.134.176l.478.275a.706.706,0,0,0,.643,0L81.232,59.4a.227.227,0,0,0,.131-.182Z" transform="translate(-18.532 -13.901)" fill="#393842"/>
            <path id="Trazado_656481" data-name="Trazado 656481" d="M83.061,60.193v-.2l-.114.027L82.927,60l-.478-.275a.707.707,0,0,0-.643,0l-1.631.948-.263.062,0,.211a.236.236,0,0,0,.134.176l.478.275a.706.706,0,0,0,.642,0l1.762-1.024a.227.227,0,0,0,.131-.182Z" transform="translate(-18.934 -14.133)" fill="#393842"/>
            <path id="Trazado_656482" data-name="Trazado 656482" d="M42.455,78.839l-1.773-1.024a.71.71,0,0,0-.644,0l-1.762,1.024a.2.2,0,0,0,0,.372l1.773,1.024a.707.707,0,0,0,.642,0l1.762-1.024a.2.2,0,0,0,0-.372" transform="translate(-9.038 -18.419)" fill="#393842"/>
            <path id="Trazado_656483" data-name="Trazado 656483" d="M21.272,74.8h0v-.211l-.128.037-.006,0-.478-.275a.706.706,0,0,0-.643,0l-2.031,1.18-.29.082v.217l0,0a.24.24,0,0,0,.131.166l.477.275a.711.711,0,0,0,.643,0l2.189-1.272a.217.217,0,0,0,.13-.194" transform="translate(-4.193 -17.596)" fill="#393842"/>
            <path id="Trazado_656484" data-name="Trazado 656484" d="M23.953,76.558l-1.773-1.024a.707.707,0,0,0-.642,0l-1.763,1.025a.2.2,0,0,0,0,.372l1.773,1.024a.71.71,0,0,0,.643,0l1.763-1.025a.2.2,0,0,0,0-.372" transform="translate(-4.654 -17.878)" fill="#57565e"/>
            <path id="Trazado_656485" data-name="Trazado 656485" d="M27.573,74.454,25.8,73.43a.707.707,0,0,0-.642,0L23.4,74.455a.2.2,0,0,0,0,.372l1.773,1.024a.71.71,0,0,0,.643,0l1.763-1.025a.2.2,0,0,0,0-.372" transform="translate(-5.512 -17.38)" fill="#57565e"/>
            <path id="Trazado_656486" data-name="Trazado 656486" d="M31.192,72.351l-1.773-1.024a.707.707,0,0,0-.642,0l-1.763,1.025a.2.2,0,0,0,0,.372l1.773,1.024a.71.71,0,0,0,.643,0l1.763-1.025a.2.2,0,0,0,0-.372" transform="translate(-6.369 -16.881)" fill="#57565e"/>
            <path id="Trazado_656487" data-name="Trazado 656487" d="M34.812,70.248l-1.773-1.024a.706.706,0,0,0-.642,0l-1.762,1.024a.2.2,0,0,0,0,.372l1.773,1.024a.71.71,0,0,0,.643,0l1.762-1.024a.2.2,0,0,0,0-.373" transform="translate(-7.227 -16.383)" fill="#57565e"/>
            <path id="Trazado_656488" data-name="Trazado 656488" d="M38.431,68.144,36.657,67.12a.708.708,0,0,0-.643,0l-1.761,1.024a.2.2,0,0,0,0,.372l1.773,1.024a.711.711,0,0,0,.643,0l1.762-1.024a.2.2,0,0,0,0-.373" transform="translate(-8.084 -15.885)" fill="#57565e"/>
            <path id="Trazado_656489" data-name="Trazado 656489" d="M42.051,66.041l-1.773-1.024a.708.708,0,0,0-.643,0l-1.761,1.024a.2.2,0,0,0,0,.372l1.773,1.024a.708.708,0,0,0,.643,0l1.762-1.024a.2.2,0,0,0,0-.373" transform="translate(-8.942 -15.386)" fill="#57565e"/>
            <path id="Trazado_656490" data-name="Trazado 656490" d="M45.67,63.937,43.9,62.913a.707.707,0,0,0-.643,0l-1.762,1.024c-.178.1-.176.269,0,.372l1.773,1.024a.708.708,0,0,0,.643,0l1.762-1.024a.2.2,0,0,0,0-.373" transform="translate(-9.799 -14.888)" fill="#57565e"/>
            <path id="Trazado_656491" data-name="Trazado 656491" d="M49.288,61.835l-1.773-1.024a.7.7,0,0,0-.642,0l-1.762,1.024a.2.2,0,0,0,0,.372l1.773,1.024a.707.707,0,0,0,.642,0l1.762-1.024c.178-.1.176-.269,0-.372" transform="translate(-10.657 -14.39)" fill="#57565e"/>
            <path id="Trazado_656492" data-name="Trazado 656492" d="M52.907,59.731l-1.773-1.024a.7.7,0,0,0-.642,0L48.73,59.731a.2.2,0,0,0,0,.372l1.773,1.024a.707.707,0,0,0,.643,0L52.91,60.1c.178-.1.176-.269,0-.372" transform="translate(-11.514 -13.891)" fill="#57565e"/>
            <path id="Trazado_656493" data-name="Trazado 656493" d="M56.527,57.628,54.754,56.6a.7.7,0,0,0-.642,0L52.35,57.628a.2.2,0,0,0,0,.372l1.773,1.024a.706.706,0,0,0,.643,0L56.53,58c.178-.1.175-.269,0-.372" transform="translate(-12.372 -13.393)" fill="#57565e"/>
            <path id="Trazado_656494" data-name="Trazado 656494" d="M60.146,55.525,58.373,54.5a.7.7,0,0,0-.642,0l-1.762,1.024a.2.2,0,0,0,0,.372l1.773,1.024a.708.708,0,0,0,.643,0L60.149,55.9c.178-.1.176-.269,0-.372" transform="translate(-13.23 -12.895)" fill="#57565e"/>
            <path id="Trazado_656495" data-name="Trazado 656495" d="M36.88,73.266l-1.773-1.024a.707.707,0,0,0-.642,0L32.7,73.267a.2.2,0,0,0,0,.372l1.773,1.024a.711.711,0,0,0,.643,0l1.763-1.025a.2.2,0,0,0,0-.372" transform="translate(-7.717 -17.098)" fill="#57565e"/>
            <path id="Trazado_656496" data-name="Trazado 656496" d="M40.5,71.162l-1.773-1.024a.707.707,0,0,0-.642,0l-1.763,1.025a.2.2,0,0,0,0,.372L38.1,72.559a.71.71,0,0,0,.643,0L40.5,71.535a.2.2,0,0,0,0-.372" transform="translate(-8.575 -16.6)" fill="#57565e"/>
            <path id="Trazado_656497" data-name="Trazado 656497" d="M44.119,69.059l-1.773-1.024a.706.706,0,0,0-.643,0L39.941,69.06a.2.2,0,0,0,0,.372l1.773,1.024a.711.711,0,0,0,.643,0l1.762-1.024a.2.2,0,0,0,0-.373" transform="translate(-9.432 -16.101)" fill="#57565e"/>
            <path id="Trazado_656498" data-name="Trazado 656498" d="M47.739,66.956l-1.773-1.024a.708.708,0,0,0-.643,0l-1.761,1.024a.2.2,0,0,0,0,.372l1.773,1.024a.71.71,0,0,0,.643,0l1.762-1.024a.2.2,0,0,0,0-.373" transform="translate(-10.29 -15.603)" fill="#57565e"/>
            <path id="Trazado_656499" data-name="Trazado 656499" d="M51.358,64.852l-1.773-1.024a.706.706,0,0,0-.643,0L47.18,64.853a.2.2,0,0,0,0,.372l1.773,1.024a.708.708,0,0,0,.643,0l1.762-1.024a.2.2,0,0,0,0-.373" transform="translate(-11.147 -15.105)" fill="#57565e"/>
            <path id="Trazado_656500" data-name="Trazado 656500" d="M54.978,62.749,53.2,61.725a.707.707,0,0,0-.642,0L50.8,62.75c-.178.1-.176.269,0,.372l1.773,1.024a.708.708,0,0,0,.643,0l1.762-1.024a.2.2,0,0,0,0-.373" transform="translate(-12.005 -14.606)" fill="#57565e"/>
            <path id="Trazado_656501" data-name="Trazado 656501" d="M58.6,60.646l-1.773-1.024a.7.7,0,0,0-.642,0l-1.762,1.024a.2.2,0,0,0,0,.372l1.773,1.024a.706.706,0,0,0,.643,0L58.6,61.018c.178-.1.176-.269,0-.372" transform="translate(-12.862 -14.108)" fill="#57565e"/>
            <path id="Trazado_656502" data-name="Trazado 656502" d="M62.215,58.543l-1.773-1.024a.7.7,0,0,0-.642,0l-1.762,1.024a.2.2,0,0,0,0,.372l1.773,1.024a.707.707,0,0,0,.643,0l1.762-1.024c.178-.1.176-.269,0-.372" transform="translate(-13.72 -13.61)" fill="#57565e"/>
            <path id="Trazado_656503" data-name="Trazado 656503" d="M65.835,56.44l-1.773-1.024a.7.7,0,0,0-.642,0L61.658,56.44a.2.2,0,0,0,0,.372l1.773,1.024a.707.707,0,0,0,.643,0l1.762-1.024c.178-.1.176-.269,0-.372" transform="translate(-14.577 -13.112)" fill="#57565e"/>
            <path id="Trazado_656504" data-name="Trazado 656504" d="M69.454,54.336l-1.773-1.024a.705.705,0,0,0-.642,0l-1.762,1.024a.2.2,0,0,0,0,.372l1.773,1.024a.708.708,0,0,0,.643,0l1.761-1.024c.178-.1.176-.269,0-.372" transform="translate(-15.435 -12.613)" fill="#57565e"/>
            <path id="Trazado_656505" data-name="Trazado 656505" d="M63.766,53.421,61.992,52.4a.7.7,0,0,0-.642,0l-1.762,1.024a.2.2,0,0,0,0,.372l1.773,1.024a.71.71,0,0,0,.644,0l1.762-1.024c.178-.1.176-.269,0-.372" transform="translate(-14.087 -12.396)" fill="#57565e"/>
            <path id="Trazado_656506" data-name="Trazado 656506" d="M67.385,51.318l-1.773-1.024a.707.707,0,0,0-.642,0l-1.762,1.024a.2.2,0,0,0,0,.372l1.774,1.024a.708.708,0,0,0,.643,0l1.762-1.024a.2.2,0,0,0,0-.372" transform="translate(-14.945 -11.898)" fill="#57565e"/>
            <path id="Trazado_656507" data-name="Trazado 656507" d="M38.622,85.027,36.849,84a.71.71,0,0,0-.642,0l-1.763,1.025a.2.2,0,0,0,0,.372l1.773,1.024a.71.71,0,0,0,.643,0L38.625,85.4a.2.2,0,0,0,0-.372" transform="translate(-8.13 -19.885)" fill="#57565e"/>
            <path id="Trazado_656508" data-name="Trazado 656508" d="M42.242,82.924,40.469,81.9a.71.71,0,0,0-.642,0l-1.763,1.025a.2.2,0,0,0,0,.372l1.773,1.024a.71.71,0,0,0,.643,0L42.245,83.3a.2.2,0,0,0,0-.372" transform="translate(-8.987 -19.387)" fill="#57565e"/>
            <path id="Trazado_656509" data-name="Trazado 656509" d="M45.861,80.82,44.088,79.8a.71.71,0,0,0-.642,0l-1.763,1.025a.2.2,0,0,0,0,.372l1.773,1.024a.71.71,0,0,0,.643,0l1.763-1.025a.2.2,0,0,0,0-.372" transform="translate(-9.845 -18.888)" fill="#57565e"/>
            <path id="Trazado_656510" data-name="Trazado 656510" d="M49.481,78.717l-1.773-1.024a.709.709,0,0,0-.642,0L45.3,78.718a.2.2,0,0,0,0,.372l1.773,1.024a.71.71,0,0,0,.643,0l1.762-1.024a.2.2,0,0,0,0-.373" transform="translate(-10.703 -18.39)" fill="#57565e"/>
            <path id="Trazado_656511" data-name="Trazado 656511" d="M33.261,75.369l-1.773-1.024a.707.707,0,0,0-.642,0L29.083,75.37a.2.2,0,0,0,0,.372l1.773,1.024a.71.71,0,0,0,.643,0l1.763-1.025a.2.2,0,0,0,0-.372" transform="translate(-6.859 -17.597)" fill="#57565e"/>
            <path id="Trazado_656512" data-name="Trazado 656512" d="M71.432,48.889l-1.773-1.024a.708.708,0,0,0-.643,0l-2.188,1.272a.2.2,0,0,0,0,.372L68.6,50.534a.71.71,0,0,0,.644,0l2.188-1.271a.2.2,0,0,0,0-.373" transform="translate(-15.802 -11.323)" fill="#57565e"/>
            <path id="Trazado_656513" data-name="Trazado 656513" d="M67.269,65.823,65.5,64.8a.709.709,0,0,0-.643,0L48.922,74.058a.2.2,0,0,0,0,.372L50.7,75.453a.711.711,0,0,0,.643,0L67.271,66.2a.2.2,0,0,0,0-.373" transform="translate(-11.56 -15.335)" fill="#57565e"/>
            <path id="Trazado_656514" data-name="Trazado 656514" d="M24.89,72.258l-.478-.275a.707.707,0,0,0-.643,0l-1.762,1.024c-.177.1-.175.269,0,.372l.478.275a.707.707,0,0,0,.642,0l1.762-1.024c.178-.1.176-.269,0-.372" transform="translate(-5.183 -17.037)" fill="#57565e"/>
            <path id="Trazado_656515" data-name="Trazado 656515" d="M28.51,70.155l-.478-.275a.707.707,0,0,0-.643,0L25.628,70.9c-.177.1-.175.269,0,.372l.478.275a.707.707,0,0,0,.642,0l1.762-1.024c.178-.1.176-.269,0-.372" transform="translate(-6.041 -16.538)" fill="#57565e"/>
            <path id="Trazado_656516" data-name="Trazado 656516" d="M32.129,68.052l-.478-.275a.707.707,0,0,0-.643,0L29.247,68.8a.2.2,0,0,0,0,.373l.477.275a.71.71,0,0,0,.644,0l1.762-1.024c.178-.1.176-.269,0-.372" transform="translate(-6.898 -16.04)" fill="#57565e"/>
            <path id="Trazado_656517" data-name="Trazado 656517" d="M35.749,65.948l-.478-.275a.706.706,0,0,0-.643,0L32.867,66.7a.2.2,0,0,0,0,.373l.477.275a.71.71,0,0,0,.644,0l1.762-1.024c.178-.1.176-.269,0-.372" transform="translate(-7.756 -15.542)" fill="#57565e"/>
            <path id="Trazado_656518" data-name="Trazado 656518" d="M39.368,63.845l-.478-.275a.709.709,0,0,0-.643,0l-1.762,1.024a.2.2,0,0,0,0,.373l.477.275a.71.71,0,0,0,.644,0l1.762-1.024a.2.2,0,0,0,0-.372" transform="translate(-8.613 -15.043)" fill="#57565e"/>
            <path id="Trazado_656519" data-name="Trazado 656519" d="M42.988,61.741l-.478-.275a.709.709,0,0,0-.642,0l-1.762,1.024a.2.2,0,0,0,0,.373l.477.275a.71.71,0,0,0,.644,0l1.762-1.024a.2.2,0,0,0,0-.372" transform="translate(-9.471 -14.545)" fill="#57565e"/>
            <path id="Trazado_656520" data-name="Trazado 656520" d="M46.607,59.638l-.478-.275a.709.709,0,0,0-.643,0l-1.762,1.024a.2.2,0,0,0,0,.373l.477.275a.71.71,0,0,0,.644,0l1.762-1.024a.2.2,0,0,0,0-.372" transform="translate(-10.329 -14.047)" fill="#57565e"/>
            <path id="Trazado_656521" data-name="Trazado 656521" d="M50.227,57.534l-.478-.275a.709.709,0,0,0-.642,0l-1.763,1.025a.2.2,0,0,0,0,.372l.477.275a.71.71,0,0,0,.643,0l1.763-1.025a.2.2,0,0,0,0-.372" transform="translate(-11.186 -13.548)" fill="#57565e"/>
            <path id="Trazado_656522" data-name="Trazado 656522" d="M53.846,55.431l-.478-.275a.709.709,0,0,0-.643,0L50.962,56.18a.2.2,0,0,0,0,.372l.477.275a.71.71,0,0,0,.643,0L53.849,55.8a.2.2,0,0,0,0-.372" transform="translate(-12.044 -13.05)" fill="#57565e"/>
            <path id="Trazado_656523" data-name="Trazado 656523" d="M57.466,53.328l-.478-.275a.709.709,0,0,0-.643,0l-1.763,1.025a.2.2,0,0,0,0,.372l.477.275a.71.71,0,0,0,.643,0L57.468,53.7a.2.2,0,0,0,0-.372" transform="translate(-12.901 -12.552)" fill="#57565e"/>
            <path id="Trazado_656524" data-name="Trazado 656524" d="M61.085,51.224l-.478-.275a.709.709,0,0,0-.643,0L58.2,51.973a.2.2,0,0,0,0,.372l.477.275a.71.71,0,0,0,.643,0L61.088,51.6a.2.2,0,0,0,0-.372" transform="translate(-13.759 -12.053)" fill="#57565e"/>
            <path id="Trazado_656525" data-name="Trazado 656525" d="M64.7,49.121l-.478-.275a.707.707,0,0,0-.642,0L61.82,49.87a.2.2,0,0,0,0,.372l.477.275a.709.709,0,0,0,.643,0l1.763-1.025a.2.2,0,0,0,0-.372" transform="translate(-14.616 -11.555)" fill="#57565e"/>
            <path id="Trazado_656526" data-name="Trazado 656526" d="M68.324,47.017l-.478-.275a.71.71,0,0,0-.644,0L65.44,47.766a.2.2,0,0,0,0,.372l.477.275a.71.71,0,0,0,.643,0l1.762-1.024a.2.2,0,0,0,0-.373" transform="translate(-15.474 -11.056)" fill="#57565e"/>
            <path id="Trazado_656527" data-name="Trazado 656527" d="M21.139,74.362l-.478-.275a.707.707,0,0,0-.643,0l-2.189,1.272a.2.2,0,0,0,0,.372l.478.275a.709.709,0,0,0,.643,0l2.189-1.272c.178-.1.176-.269,0-.372" transform="translate(-4.193 -17.535)" fill="#57565e"/>
            <path id="Trazado_656528" data-name="Trazado 656528" d="M29.182,77.487l-1.775-1.025a.708.708,0,0,0-.641,0l-3.324,1.931a.2.2,0,0,0,0,.372l1.774,1.024a.71.71,0,0,0,.642,0l3.324-1.931a.2.2,0,0,0,0-.372" transform="translate(-5.523 -18.098)" fill="#57565e"/>
            <path id="Trazado_656529" data-name="Trazado 656529" d="M34.229,78.553l-1.773-1.024a.709.709,0,0,0-.643,0l-4.705,2.734c-.176.1-.175.269,0,.372l1.773,1.024a.706.706,0,0,0,.641,0l4.705-2.734a.2.2,0,0,0,0-.372" transform="translate(-6.392 -18.351)" fill="#57565e"/>
            <path id="Trazado_656530" data-name="Trazado 656530" d="M37.922,80.684l-1.776-1.025a.708.708,0,0,0-.641,0L30.8,82.393a.2.2,0,0,0,0,.372l1.774,1.025a.71.71,0,0,0,.642,0l4.705-2.734a.2.2,0,0,0,0-.372" transform="translate(-7.267 -18.856)" fill="#57565e"/>
            <path id="Trazado_656531" data-name="Trazado 656531" d="M74.728,51.007l-1.776-1.025a.709.709,0,0,0-.643,0l-3.389,1.97a.2.2,0,0,0,0,.372L70.7,53.349a.709.709,0,0,0,.643,0l3.39-1.969a.2.2,0,0,0,0-.372" transform="translate(-16.298 -11.824)" fill="#57565e"/>
            <path id="Trazado_656532" data-name="Trazado 656532" d="M77.965,53.124,76.192,52.1a.71.71,0,0,0-.644,0l-4.771,2.772c-.177.1-.175.269,0,.372l1.773,1.024a.7.7,0,0,0,.641,0L77.966,53.5a.2.2,0,0,0,0-.372" transform="translate(-16.738 -12.326)" fill="#57565e"/>
            <path id="Trazado_656533" data-name="Trazado 656533" d="M81.23,58.766l-.478-.276a.707.707,0,0,0-.642,0l-1.762,1.024a.2.2,0,0,0,0,.372l.478.276a.7.7,0,0,0,.642,0l1.762-1.024a.2.2,0,0,0,0-.372" transform="translate(-18.532 -13.84)" fill="#57565e"/>
            <path id="Trazado_656534" data-name="Trazado 656534" d="M82.927,59.745l-.478-.275a.707.707,0,0,0-.643,0l-1.762,1.024a.2.2,0,0,0,0,.372l.478.275a.707.707,0,0,0,.643,0l1.762-1.024c.178-.1.176-.269,0-.372" transform="translate(-18.934 -14.072)" fill="#57565e"/>
            <path id="Trazado_656535" data-name="Trazado 656535" d="M67.717,59.623,65.943,58.6a.707.707,0,0,0-.643,0l-1.762,1.024c-.178.1-.176.269,0,.372l1.773,1.024a.7.7,0,0,0,.642,0l1.762-1.024a.2.2,0,0,0,0-.372" transform="translate(-15.023 -13.866)" fill="#57565e"/>
            <path id="Trazado_656536" data-name="Trazado 656536" d="M71.336,57.519l-1.773-1.024a.706.706,0,0,0-.643,0l-1.762,1.024c-.178.1-.175.269,0,.372l1.773,1.024a.7.7,0,0,0,.642,0l1.762-1.024a.2.2,0,0,0,0-.372" transform="translate(-15.881 -13.367)" fill="#57565e"/>
            <path id="Trazado_656537" data-name="Trazado 656537" d="M71.409,61.755,69.634,60.73a.707.707,0,0,0-.642,0l-1.761,1.024a.2.2,0,0,0,0,.372l1.775,1.025a.707.707,0,0,0,.642,0l1.762-1.024a.2.2,0,0,0,0-.372" transform="translate(-15.898 -14.371)" fill="#57565e"/>
            <path id="Trazado_656538" data-name="Trazado 656538" d="M75.029,59.651l-1.775-1.025a.707.707,0,0,0-.642,0L70.851,59.65a.2.2,0,0,0,0,.372l1.775,1.025a.707.707,0,0,0,.642,0l1.762-1.024a.2.2,0,0,0,0-.372" transform="translate(-16.756 -13.872)" fill="#57565e"/>
            <path id="Trazado_656539" data-name="Trazado 656539" d="M78.648,57.548l-1.775-1.025a.706.706,0,0,0-.641,0L74.47,57.547a.2.2,0,0,0,0,.372l1.775,1.025a.707.707,0,0,0,.642,0L78.65,57.92a.2.2,0,0,0,0-.372" transform="translate(-17.613 -13.374)" fill="#57565e"/>
            <path id="Trazado_656540" data-name="Trazado 656540" d="M82.515,55.256,80.74,54.231a.709.709,0,0,0-.643,0L78.089,55.4a.2.2,0,0,0,0,.372L79.865,56.8a.707.707,0,0,0,.642,0l2.008-1.167a.2.2,0,0,0,0-.372" transform="translate(-18.471 -12.831)" fill="#57565e"/>
            <path id="Trazado_656541" data-name="Trazado 656541" d="M60.478,63.83,58.7,62.806a.708.708,0,0,0-.643,0L56.3,63.829c-.178.1-.176.269,0,.372l1.773,1.024a.7.7,0,0,0,.642,0L60.48,64.2a.2.2,0,0,0,0-.372" transform="translate(-13.308 -14.862)" fill="#57565e"/>
            <path id="Trazado_656542" data-name="Trazado 656542" d="M64.1,61.726,62.324,60.7a.708.708,0,0,0-.643,0L59.92,61.725c-.178.1-.176.269,0,.372L61.7,63.122a.7.7,0,0,0,.642,0L64.1,62.1a.2.2,0,0,0,0-.372" transform="translate(-14.166 -14.364)" fill="#57565e"/>
            <path id="Trazado_656543" data-name="Trazado 656543" d="M64.17,65.961l-1.775-1.025a.706.706,0,0,0-.641,0L59.992,65.96a.2.2,0,0,0,0,.372l1.775,1.025a.707.707,0,0,0,.642,0l1.762-1.024a.2.2,0,0,0,0-.372" transform="translate(-14.183 -15.367)" fill="#57565e"/>
            <path id="Trazado_656544" data-name="Trazado 656544" d="M67.79,63.858l-1.775-1.025a.706.706,0,0,0-.641,0l-1.762,1.024a.2.2,0,0,0,0,.372l1.775,1.025a.707.707,0,0,0,.642,0l1.762-1.024a.2.2,0,0,0,0-.372" transform="translate(-15.04 -14.869)" fill="#57565e"/>
            <path id="Trazado_656545" data-name="Trazado 656545" d="M53.24,68.036l-1.773-1.024a.71.71,0,0,0-.644,0l-1.762,1.024c-.177.1-.175.269,0,.372l1.774,1.024a.7.7,0,0,0,.641,0l1.762-1.024a.2.2,0,0,0,0-.372" transform="translate(-11.593 -15.859)" fill="#57565e"/>
            <path id="Trazado_656546" data-name="Trazado 656546" d="M56.86,65.932l-1.773-1.024a.71.71,0,0,0-.644,0L52.68,65.932c-.177.1-.175.269,0,.372l1.773,1.024a.7.7,0,0,0,.642,0L56.86,66.3a.2.2,0,0,0,0-.372" transform="translate(-12.451 -15.36)" fill="#57565e"/>
            <path id="Trazado_656547" data-name="Trazado 656547" d="M56.932,70.167l-1.775-1.025a.709.709,0,0,0-.643,0l-1.762,1.024a.2.2,0,0,0,0,.372l1.774,1.025a.707.707,0,0,0,.642,0l1.762-1.024a.2.2,0,0,0,0-.372" transform="translate(-12.468 -16.364)" fill="#57565e"/>
            <path id="Trazado_656548" data-name="Trazado 656548" d="M60.551,68.064l-1.775-1.025a.709.709,0,0,0-.643,0l-1.762,1.024a.2.2,0,0,0,0,.372l1.774,1.025a.707.707,0,0,0,.642,0l1.762-1.024a.2.2,0,0,0,0-.372" transform="translate(-13.325 -15.866)" fill="#57565e"/>
            <path id="Trazado_656549" data-name="Trazado 656549" d="M46,72.242l-1.773-1.024a.71.71,0,0,0-.644,0l-1.762,1.024c-.177.1-.175.269,0,.372L43.6,73.638a.7.7,0,0,0,.642,0L46,72.614a.2.2,0,0,0,0-.372" transform="translate(-9.878 -16.856)" fill="#57565e"/>
            <path id="Trazado_656550" data-name="Trazado 656550" d="M49.62,70.139l-1.773-1.024a.71.71,0,0,0-.644,0l-1.762,1.024c-.177.1-.175.269,0,.372l1.773,1.024a.7.7,0,0,0,.642,0l1.762-1.024a.2.2,0,0,0,0-.372" transform="translate(-10.735 -16.357)" fill="#57565e"/>
            <path id="Trazado_656551" data-name="Trazado 656551" d="M49.693,74.374l-1.775-1.025a.709.709,0,0,0-.643,0l-1.762,1.024a.2.2,0,0,0,0,.372l1.774,1.025a.707.707,0,0,0,.642,0l1.762-1.024a.2.2,0,0,0,0-.372" transform="translate(-10.753 -17.361)" fill="#57565e"/>
            <path id="Trazado_656552" data-name="Trazado 656552" d="M53.312,72.271l-1.775-1.025a.709.709,0,0,0-.643,0l-1.762,1.024a.2.2,0,0,0,0,.372l1.774,1.025a.707.707,0,0,0,.642,0l1.762-1.024a.2.2,0,0,0,0-.372" transform="translate(-11.61 -16.862)" fill="#57565e"/>
            <path id="Trazado_656553" data-name="Trazado 656553" d="M38.763,76.449l-1.773-1.024a.71.71,0,0,0-.644,0l-1.762,1.024a.2.2,0,0,0,0,.372l1.773,1.024a.707.707,0,0,0,.642,0l1.762-1.024a.2.2,0,0,0,0-.372" transform="translate(-8.163 -17.852)" fill="#57565e"/>
            <path id="Trazado_656554" data-name="Trazado 656554" d="M42.381,74.346l-1.773-1.024a.71.71,0,0,0-.644,0L38.2,74.346c-.177.1-.175.269,0,.372l1.774,1.024a.7.7,0,0,0,.641,0l1.762-1.024a.2.2,0,0,0,0-.372" transform="translate(-9.02 -17.354)" fill="#57565e"/>
            <path id="Trazado_656555" data-name="Trazado 656555" d="M42.455,78.581,40.68,77.556a.709.709,0,0,0-.643,0l-1.762,1.024a.2.2,0,0,0,0,.372l1.774,1.025a.71.71,0,0,0,.642,0l1.762-1.024a.2.2,0,0,0,0-.372" transform="translate(-9.038 -18.357)" fill="#57565e"/>
            <path id="Trazado_656556" data-name="Trazado 656556" d="M46.073,76.477,44.3,75.452a.709.709,0,0,0-.642,0l-1.762,1.024a.2.2,0,0,0,0,.372l1.774,1.025a.707.707,0,0,0,.642,0l1.762-1.024a.2.2,0,0,0,0-.372" transform="translate(-9.895 -17.859)" fill="#57565e"/>
            <path id="Trazado_656557" data-name="Trazado 656557" d="M75.288,63.719,73.514,62.7a.709.709,0,0,0-.643,0L71.11,63.72a.2.2,0,0,0,0,.372l1.773,1.024a.708.708,0,0,0,.643,0l1.762-1.024a.2.2,0,0,0,0-.373" transform="translate(-16.817 -14.836)" fill="#57565e"/>
            <path id="Trazado_656558" data-name="Trazado 656558" d="M78.906,61.617l-1.773-1.024a.707.707,0,0,0-.642,0l-1.762,1.024a.2.2,0,0,0,0,.372L76.5,63.013a.706.706,0,0,0,.643,0l1.762-1.024c.178-.1.175-.269,0-.372" transform="translate(-17.675 -14.338)" fill="#57565e"/>
            <path id="Trazado_656559" data-name="Trazado 656559" d="M86.234,57.358l-1.773-1.024a.709.709,0,0,0-.643,0l-1.762,1.024a.2.2,0,0,0,0,.372l1.773,1.024a.71.71,0,0,0,.643,0l1.762-1.024a.2.2,0,0,0,0-.373" transform="translate(-19.411 -13.329)" fill="#57565e"/>
          </g>
        </g>
      </g>
    </g>
  </g>
</svg>
