<svg xmlns="http://www.w3.org/2000/svg" xmlns:xlink="http://www.w3.org/1999/xlink" width="190" height="289" viewBox="0 0 190 289">
  <defs>
    <clipPath id="clip-path">
      <rect id="Rect치ngulo_343830" data-name="Rect치ngulo 343830" width="137.151" height="212.266" fill="none"/>
    </clipPath>
  </defs>
  <g id="Grupo_983058" data-name="Grupo 983058" transform="translate(0.349 -0.33)">
    <rect id="Rect치ngulo_343833" data-name="Rect치ngulo 343833" width="190" height="289" transform="translate(-0.349 0.33)" fill="none"/>
    <g id="Grupo_983053" data-name="Grupo 983053" transform="translate(0.754 76.762)">
      <path id="Trazado_657449" data-name="Trazado 657449" d="M345.713,516.628l-3.375-.642,14.584-77.621,3.375.642Z" transform="translate(-327.224 -305.093)" fill="#0e2e35"/>
      <path id="Trazado_657450" data-name="Trazado 657450" d="M267.673,516.982h4.06L256.6,438.366l-3.375.642Z" transform="translate(-211.568 -305.093)" fill="#0e2e35"/>
      <path id="Trazado_657451" data-name="Trazado 657451" d="M99.1,517.79l-3.3.04,14.505-78.3,3.375.642Z" transform="translate(-5.653 -305.901)" fill="#0e2e35"/>
      <g id="Grupo_983052" data-name="Grupo 983052">
        <g id="Grupo_983051" data-name="Grupo 983051" clip-path="url(#clip-path)">
          <path id="Trazado_657452" data-name="Trazado 657452" d="M78.716,89.344c13.366,1.437,30.662,2.951,48.027,32.519,18.978,32.316,8.988,80.587-5.991,94s-63.9,29.977-105.026,5.181c0,0-24.832-15.026-12.088-39.965,19.612-38.377,16.84-46.38,25.609-61.42S50.345,86.3,78.716,89.344" transform="translate(0 -61.948)" fill="#5573c6"/>
          <path id="Trazado_657453" data-name="Trazado 657453" d="M118.675,127.869C106.824,107.688,95,100.577,84.443,97.638a88.715,88.715,0,0,1,12.371,16.756c18.978,32.315,8.988,80.586-5.991,94C77.539,220.29,37.562,234.657,0,220.465a38.2,38.2,0,0,0,7.658,6.585c41.125,24.8,90.047,8.233,105.026-5.181s24.969-61.685,5.991-94" transform="translate(8.067 -67.954)" fill="#3d579d"/>
          <path id="Trazado_657454" data-name="Trazado 657454" d="M313.651,251.672l-3.435,10.341,10.47-4.132Z" transform="translate(-277.846 -175.159)" fill="#f79c8d"/>
          <path id="Trazado_657455" data-name="Trazado 657455" d="M290.074,150.451c-.7.029-2.61.669-5.407,5.955-3.572,6.75-8.792,27.14-8.792,27.14l15.582,5.8,2-4.256,3.3-32.765s-6.488-1.884-6.681-1.876" transform="translate(-243.476 -104.711)" fill="#39bfb6"/>
          <path id="Trazado_657456" data-name="Trazado 657456" d="M160.79,140.784c-4.455.006-15.48,1.306-20.6,2.941,0,0-3.759,32.308,3.384,56.858,1.6,5.5-1.323,22.781-1.323,22.781l46.17-.609s-5.47-41.789-3.409-48.538,2.11-30.274,2.11-30.274-.316-.049-10.373-1.788a104.51,104.51,0,0,0-15.962-1.37" transform="translate(-93.594 -97.983)" fill="#4adbd1"/>
          <path id="Trazado_657457" data-name="Trazado 657457" d="M172.948,609.652s-1.022,11.789-2.9,15.053.1,8.815.2,9.576,3.954,1.85,10.082,1.2,6.03-2.068,5.535-4.353-3.756-5.224-3.953-7.4,1.878-10.012,1.878-10.012Z" transform="translate(-100.372 -424.305)" fill="#f7a491"/>
          <path id="Trazado_657458" data-name="Trazado 657458" d="M178.462,378.748s-31.871-1.77-38.988,2.541,1.287,13.161,1.287,13.161,25.947,11.282,69.386,13.788c10.287.594,11.173-26.821,9.25-29.09s-40.934-.4-40.934-.4" transform="translate(-124.593 -263.097)" fill="#373f51"/>
          <path id="Trazado_657459" data-name="Trazado 657459" d="M180.52,672.48c6.311-.672,5.53-3.773,5.022-6.126-.319-1.474-2.129-3.211-3.208-4.854a10.519,10.519,0,0,1-4.222,2.052c-2.846.84-6.747-.823-9.233-1.865a30.5,30.5,0,0,0-.844,8.14c.1.784,6.175,3.324,12.485,2.652" transform="translate(-99.801 -460.39)" fill="#184655"/>
          <path id="Trazado_657460" data-name="Trazado 657460" d="M125.209,402.273c-1.273,9.635-7.578,57.6-7.578,57.6l14.629,1.814s17.989-62.609,17.067-72.186-7.656-10.382-7.656-10.382-13.091-2.356-16.462,23.151" transform="translate(-47.972 -263.822)" fill="#373f51"/>
          <path id="Trazado_657461" data-name="Trazado 657461" d="M171.779,162.871c-4.317-1.62-6.429,37.276-7.01,53.286-7.645.735-20.97.006-24.287-.243-1.561-.117-5.158-1.435-6.71-1.638a15.535,15.535,0,0,0-3.814-.181c-.287.05-8.255,3.309-8.937,4.023-.845.886-3.131,3.121-2.745,4.088s4.4-2.693,4.4-2.693l1.959-1.1c-2.439,2.383-7.092,5.522-6.422,6.664.654,1.115,4.851-2.07,7.842-4.241-2.566,2.318-5.753,6.465-5.019,7.111.66.581,4.286-4.22,8.161-5.6,1.436-.512,2.867.907,4,1.078a8.121,8.121,0,0,0,2.926.163l4.2-1.19c1.429.129,1.465.975,2.909,1.282,1.675.357,4.424.732,6.558,1.253,12.287,3,16.386,4.4,20.148,4.394,11.4-.007,12.056-62.627,1.854-66.454" transform="translate(-77.746 -113.32)" fill="#f7a491"/>
          <path id="Trazado_657462" data-name="Trazado 657462" d="M131.361,191.066c.809-16.4.69-36.611-8.5-40.06-3.627-1.36-10.021,6.821-8.871,40.393,4.908.405,12.112.731,17.374-.333" transform="translate(-29.135 -104.999)" fill="#39bfb6"/>
          <path id="Trazado_657463" data-name="Trazado 657463" d="M234.628,259.919h.937l14.087,34.618-.97-.148Z" transform="translate(-183.832 -180.898)" fill="#f79c8d"/>
          <path id="Trazado_657464" data-name="Trazado 657464" d="M330.594,642.821s1.276,4.092-1.009,6.8-11.783,5.362-13.029,6.827a4.108,4.108,0,0,0-1.152,2.714l26.656-.734-.29-8.05-1.227-5.786Z" transform="translate(-300.796 -447.39)" fill="#f7a491"/>
          <path id="Trazado_657465" data-name="Trazado 657465" d="M327.132,668.219s6.849,2.771,10.158,1.13,3.208-2.1,4.166-1.483,1.3,8.158,1.3,8.158l-29.974.881c-2.086-.048-3.14-1.584-1.446-2.9a24.418,24.418,0,0,1,3.268-1.943c2.345-1.345,12.528-3.844,12.528-3.844" transform="translate(-300.001 -464.639)" fill="#184655"/>
          <path id="Trazado_657466" data-name="Trazado 657466" d="M340.559,387.8c-2.06-4.336-6.746-9.98-14.991-6.581-7.863,3.243-9.974,11.212-7.493,19.373s18.814,56.133,19.383,62.729l13.041.086s-2.37-37.985-2.952-47.167c-.559-8.835-3.423-20.937-6.989-28.441" transform="translate(-309.751 -264.598)" fill="#373f51"/>
          <path id="Trazado_657467" data-name="Trazado 657467" d="M143.034,259.919h43.592a2.842,2.842,0,0,1,2.63,1.77l13.422,32.848H226.71a1.22,1.22,0,0,1,0,2.44h-68.4a4.775,4.775,0,0,1-4.356-2.829l-13.515-30.209a2.851,2.851,0,0,1,2.593-4.02" transform="translate(-133.396 -180.898)"/>
          <path id="Trazado_657468" data-name="Trazado 657468" d="M326.746,315.553a2.4,2.4,0,1,0,1.8-3.139,2.566,2.566,0,0,0-1.8,3.139" transform="translate(-293.638 -217.405)" fill="#fff"/>
          <path id="Trazado_657469" data-name="Trazado 657469" d="M191.344,3.341A33.369,33.369,0,0,0,195.2,1.8,19.358,19.358,0,0,1,199.6.14c2.433-.376,6.612-.125,8.92,2.378,2.875,3.119,7.985.563,6.955,16.9-1.165,18.491-11.447,16.462-11.7,16.148s-9.17-11.83-9.17-11.83-3.119,6.823-3.119,6.572-15.926-21.654-.144-26.968" transform="translate(-134.508 0)" fill="#0e2e35"/>
          <path id="Trazado_657470" data-name="Trazado 657470" d="M205.393,97.658l-.887,6.607s-1.988,9.519.57,11.354,10.878-11.625,10.878-11.625l-.879-16.742Z" transform="translate(-140.751 -60.726)" fill="#f7a491"/>
          <path id="Trazado_657471" data-name="Trazado 657471" d="M216.444,92.676a18.957,18.957,0,0,1-10.718,10.582l.753-5.6L216.16,87.25Z" transform="translate(-141.837 -60.724)" fill="#f47458"/>
          <path id="Trazado_657472" data-name="Trazado 657472" d="M210.18,27.068a8.811,8.811,0,0,0-10.147,8.91,67.034,67.034,0,0,0,.742,8.475C201.955,52.08,207.158,58.8,210.6,58.2s12.1-7.179,10.574-18.033c-.941-6.7-5.3-12.177-10.993-13.1" transform="translate(-145.014 -18.76)" fill="#f7a491"/>
          <path id="Trazado_657473" data-name="Trazado 657473" d="M192.06,66.649a2.565,2.565,0,1,0,1.949-3.468,2.837,2.837,0,0,0-1.949,3.468" transform="translate(-118.288 -43.951)" fill="#f7a491"/>
          <path id="Trazado_657474" data-name="Trazado 657474" d="M219.575,32.2s-4.16,1.034-5.7-1.642-7.065-8.45-14.082-6.056,6.175-5.821,6.737-5.821,7.3-.047,7.3-.047,5.193,4.272,5.38,4.742,1.684,5.586,1.684,5.586Z" transform="translate(-143.853 -12.966)" fill="#0e2e35"/>
          <path id="Trazado_657475" data-name="Trazado 657475" d="M234.57,99.971,227,101.418a3.369,3.369,0,0,0,4.07,2.311c4.081-.658,3.5-3.759,3.5-3.759" transform="translate(-166.46 -69.578)" fill="#fff"/>
        </g>
      </g>
    </g>
  </g>
</svg>
