<svg xmlns="http://www.w3.org/2000/svg" width="400" height="594" viewBox="0 0 400 594">
  <g id="Grupo_984202" data-name="Grupo 984202" transform="translate(5621.72 -6976)">
    <g id="Trazado_659008" data-name="Trazado 659008" transform="translate(-5621.72 6976)" fill="#fff">
      <path d="M 380 593.5 L 20 593.5 C 17.36730766296387 593.5 14.8136157989502 592.9844360351562 12.40984630584717 591.9677734375 C 10.08792304992676 590.9857177734375 8.002461433410645 589.57958984375 6.211384773254395 587.7886352539062 C 4.420384407043457 585.99755859375 3.014307737350464 583.9120483398438 2.032230854034424 581.5901489257812 C 1.015538454055786 579.1864013671875 0.5 576.6326904296875 0.5 574 L 0.5 20 C 0.5 17.36730766296387 1.015538454055786 14.8136157989502 2.032230854034424 12.40984630584717 C 3.014307737350464 10.08792304992676 4.420384407043457 8.002461433410645 6.211384773254395 6.211384773254395 C 8.002461433410645 4.420384407043457 10.08792304992676 3.014307737350464 12.40984630584717 2.032230854034424 C 14.8136157989502 1.015538454055786 17.36730766296387 0.5 20 0.5 L 380 0.5 C 382.6326904296875 0.5 385.1863708496094 1.015538454055786 387.5901489257812 2.032230854034424 C 389.9120788574219 3.014307737350464 391.9975280761719 4.420384407043457 393.7886047363281 6.211384773254395 C 395.5796203613281 8.002461433410645 396.9856872558594 10.08792304992676 397.9677734375 12.40984630584717 C 398.9844665527344 14.8136157989502 399.5 17.36730766296387 399.5 20 L 399.5 574 C 399.5 576.6326904296875 398.9844665527344 579.1864013671875 397.9677734375 581.5901489257812 C 396.9856872558594 583.9120483398438 395.5796203613281 585.99755859375 393.7886047363281 587.7886352539062 C 391.9975280761719 589.57958984375 389.9120788574219 590.9857177734375 387.5901489257812 591.9677734375 C 385.1863708496094 592.9844360351562 382.6326904296875 593.5 380 593.5 Z" stroke="none"/>
      <path d="M 20 1 C 17.43453979492188 1 14.94638061523438 1.50225830078125 12.6046142578125 2.49267578125 C 10.34222412109375 3.4495849609375 8.31024169921875 4.8197021484375 6.56500244140625 6.56500244140625 C 4.8197021484375 8.31024169921875 3.449615478515625 10.34222412109375 2.492706298828125 12.6046142578125 C 1.502227783203125 14.9464111328125 1 17.43450927734375 1 20 L 1 574 C 1 576.5654907226562 1.502227783203125 579.0535888671875 2.492706298828125 581.3953857421875 C 3.449615478515625 583.6577758789062 4.8197021484375 585.6897583007812 6.56500244140625 587.4349975585938 C 8.31024169921875 589.1802978515625 10.34222412109375 590.5504150390625 12.6046142578125 591.50732421875 C 14.94638061523438 592.4977416992188 17.43453979492188 593 20 593 L 380 593 C 382.5654602050781 593 385.0536193847656 592.4977416992188 387.3953857421875 591.50732421875 C 389.6577758789062 590.5504150390625 391.6897583007812 589.1802978515625 393.4349975585938 587.4349975585938 C 395.1802978515625 585.6897583007812 396.5503845214844 583.6577758789062 397.5072937011719 581.3953857421875 C 398.4977722167969 579.0535888671875 399 576.5654907226562 399 574 L 399 20 C 399 17.43450927734375 398.4977722167969 14.9464111328125 397.5072937011719 12.6046142578125 C 396.5503845214844 10.34222412109375 395.1802978515625 8.31024169921875 393.4349975585938 6.56500244140625 C 391.6897583007812 4.8197021484375 389.6577758789062 3.4495849609375 387.3953857421875 2.49267578125 C 385.0536193847656 1.50225830078125 382.5654602050781 1 380 1 L 20 1 M 20 0 L 380 0 C 391.0456848144531 0 400 8.95428466796875 400 20 L 400 574 C 400 585.0457153320312 391.0456848144531 594 380 594 L 20 594 C 8.954315185546875 594 0 585.0457153320312 0 574 L 0 20 C 0 8.95428466796875 8.954315185546875 0 20 0 Z" stroke="none" fill="#707070"/>
    </g>
    <path id="Trazado_657426" data-name="Trazado 657426" d="M-2736.1,6881.355h351.54" transform="translate(-2861.125 205)" fill="none" stroke="#707070" stroke-width="1"/>
    <path id="Trazado_657427" data-name="Trazado 657427" d="M-2736.1,6881.355h351.54" transform="translate(-2861.125 295)" fill="none" stroke="#707070" stroke-width="1"/>
    <path id="Trazado_657428" data-name="Trazado 657428" d="M-2736.1,6881.355h351.54" transform="translate(-2861.125 385)" fill="none" stroke="#707070" stroke-width="1"/>
    <path id="Trazado_657429" data-name="Trazado 657429" d="M-2736.1,6881.355h351.54" transform="translate(-2861.125 475)" fill="none" stroke="#707070" stroke-width="1"/>
    <path id="Trazado_659009" data-name="Trazado 659009" d="M3.3,0H1.608V-12.8H3.3ZM7.664-9.51l.053,1.2a3.465,3.465,0,0,1,2.848-1.371q3.015,0,3.041,3.4V0H11.979V-6.293a2.189,2.189,0,0,0-.47-1.521,1.884,1.884,0,0,0-1.437-.492,2.347,2.347,0,0,0-1.389.422,2.865,2.865,0,0,0-.932,1.107V0H6.126V-9.51Zm8.007,4.676A5.589,5.589,0,0,1,16.7-8.372a3.289,3.289,0,0,1,2.725-1.314,3.271,3.271,0,0,1,2.716,1.23l.079-1.055H23.7V-.229A3.869,3.869,0,0,1,22.61,2.681a4.038,4.038,0,0,1-2.94,1.063A4.891,4.891,0,0,1,17.657,3.3a3.465,3.465,0,0,1-1.5-1.2L17,1.125a3.18,3.18,0,0,0,2.558,1.292,2.491,2.491,0,0,0,1.85-.668,2.553,2.553,0,0,0,.664-1.881V-.949A3.342,3.342,0,0,1,19.406.176a3.248,3.248,0,0,1-2.7-1.345A5.876,5.876,0,0,1,15.671-4.834Zm1.635.185a4.264,4.264,0,0,0,.659,2.527,2.142,2.142,0,0,0,1.846.918,2.382,2.382,0,0,0,2.259-1.4V-6.943a2.41,2.41,0,0,0-2.241-1.362,2.161,2.161,0,0,0-1.854.923A4.644,4.644,0,0,0,17.306-4.649Zm13.447-3.4a4.873,4.873,0,0,0-.8-.062A2.143,2.143,0,0,0,27.782-6.75V0H26.156V-9.51h1.582l.026,1.1a2.532,2.532,0,0,1,2.268-1.274,1.661,1.661,0,0,1,.721.123ZM36.026.176a4.155,4.155,0,0,1-3.146-1.27,4.714,4.714,0,0,1-1.213-3.4v-.3a5.707,5.707,0,0,1,.541-2.527,4.217,4.217,0,0,1,1.512-1.74,3.8,3.8,0,0,1,2.1-.628,3.562,3.562,0,0,1,2.883,1.222,5.289,5.289,0,0,1,1.028,3.5v.677H33.293a3.38,3.38,0,0,0,.822,2.272,2.583,2.583,0,0,0,2,.866A2.832,2.832,0,0,0,37.573-1.5a3.666,3.666,0,0,0,1.046-.932l.993.773A3.993,3.993,0,0,1,36.026.176Zm-.2-8.525a2.169,2.169,0,0,0-1.652.716,3.482,3.482,0,0,0-.826,2.008h4.764v-.123a3.1,3.1,0,0,0-.668-1.92A2.042,2.042,0,0,0,35.824-8.35ZM47.153-2.522a1.2,1.2,0,0,0-.5-1.024,4.78,4.78,0,0,0-1.731-.628,8.186,8.186,0,0,1-1.96-.633,2.788,2.788,0,0,1-1.072-.879A2.1,2.1,0,0,1,41.546-6.9a2.467,2.467,0,0,1,.989-1.978,3.861,3.861,0,0,1,2.527-.809,3.974,3.974,0,0,1,2.624.835,2.652,2.652,0,0,1,1.006,2.136H47.057a1.468,1.468,0,0,0-.567-1.151,2.124,2.124,0,0,0-1.428-.483,2.223,2.223,0,0,0-1.389.387,1.217,1.217,0,0,0-.5,1.011.986.986,0,0,0,.466.888,5.731,5.731,0,0,0,1.683.571,8.77,8.77,0,0,1,1.973.65,2.878,2.878,0,0,1,1.121.91,2.237,2.237,0,0,1,.365,1.3A2.434,2.434,0,0,1,47.76-.593a4.277,4.277,0,0,1-2.646.769,4.789,4.789,0,0,1-2.021-.4,3.288,3.288,0,0,1-1.375-1.129,2.722,2.722,0,0,1-.5-1.569h1.626a1.683,1.683,0,0,0,.655,1.3,2.54,2.54,0,0,0,1.613.479A2.622,2.622,0,0,0,46.6-1.525,1.148,1.148,0,0,0,47.153-2.522Zm7.69,2.7A4.155,4.155,0,0,1,51.7-1.094a4.714,4.714,0,0,1-1.213-3.4v-.3a5.707,5.707,0,0,1,.541-2.527,4.217,4.217,0,0,1,1.512-1.74,3.8,3.8,0,0,1,2.1-.628,3.562,3.562,0,0,1,2.883,1.222,5.289,5.289,0,0,1,1.028,3.5v.677H52.11a3.38,3.38,0,0,0,.822,2.272,2.583,2.583,0,0,0,2,.866A2.832,2.832,0,0,0,56.391-1.5a3.666,3.666,0,0,0,1.046-.932l.993.773A3.993,3.993,0,0,1,54.844.176Zm-.2-8.525a2.169,2.169,0,0,0-1.652.716,3.482,3.482,0,0,0-.826,2.008h4.764v-.123a3.1,3.1,0,0,0-.668-1.92A2.042,2.042,0,0,0,54.642-8.35ZM70.427-2.522a1.2,1.2,0,0,0-.5-1.024A4.78,4.78,0,0,0,68.2-4.175a8.186,8.186,0,0,1-1.96-.633,2.788,2.788,0,0,1-1.072-.879A2.1,2.1,0,0,1,64.819-6.9a2.467,2.467,0,0,1,.989-1.978,3.861,3.861,0,0,1,2.527-.809,3.974,3.974,0,0,1,2.624.835,2.652,2.652,0,0,1,1.006,2.136H70.33a1.468,1.468,0,0,0-.567-1.151,2.124,2.124,0,0,0-1.428-.483,2.223,2.223,0,0,0-1.389.387,1.217,1.217,0,0,0-.5,1.011.986.986,0,0,0,.466.888,5.731,5.731,0,0,0,1.683.571,8.77,8.77,0,0,1,1.973.65,2.878,2.878,0,0,1,1.121.91,2.237,2.237,0,0,1,.365,1.3,2.434,2.434,0,0,1-1.02,2.043,4.277,4.277,0,0,1-2.646.769,4.789,4.789,0,0,1-2.021-.4,3.288,3.288,0,0,1-1.375-1.129,2.722,2.722,0,0,1-.5-1.569H66.12a1.683,1.683,0,0,0,.655,1.3,2.54,2.54,0,0,0,1.613.479,2.622,2.622,0,0,0,1.481-.374A1.148,1.148,0,0,0,70.427-2.522ZM80.042-.94A3.454,3.454,0,0,1,77.256.176,2.956,2.956,0,0,1,74.94-.708a3.823,3.823,0,0,1-.8-2.615V-9.51h1.626v6.144q0,2.162,1.758,2.162A2.434,2.434,0,0,0,80-2.593V-9.51h1.626V0H80.077ZM90.088-9.51l.053,1.2a3.465,3.465,0,0,1,2.848-1.371q3.015,0,3.041,3.4V0H94.4V-6.293a2.189,2.189,0,0,0-.47-1.521A1.884,1.884,0,0,0,92.5-8.306a2.347,2.347,0,0,0-1.389.422,2.865,2.865,0,0,0-.932,1.107V0H88.55V-9.51Zm7.963,4.667A5.617,5.617,0,0,1,98.6-7.356a4.1,4.1,0,0,1,1.529-1.723,4.163,4.163,0,0,1,2.237-.606,4.01,4.01,0,0,1,3.142,1.345,5.174,5.174,0,0,1,1.2,3.577v.114a5.666,5.666,0,0,1-.532,2.492,4.038,4.038,0,0,1-1.521,1.718,4.211,4.211,0,0,1-2.272.615A4,4,0,0,1,99.25-1.169a5.147,5.147,0,0,1-1.2-3.56Zm1.635.193a4.068,4.068,0,0,0,.734,2.54,2.349,2.349,0,0,0,1.964.958,2.335,2.335,0,0,0,1.969-.971,4.449,4.449,0,0,0,.729-2.72,4.061,4.061,0,0,0-.743-2.536,2.361,2.361,0,0,0-1.973-.971,2.335,2.335,0,0,0-1.942.958A4.416,4.416,0,0,0,99.686-4.649Zm10.591-4.86.044,1.055a3.512,3.512,0,0,1,2.821-1.23,2.719,2.719,0,0,1,2.716,1.529,3.6,3.6,0,0,1,1.235-1.107,3.647,3.647,0,0,1,1.8-.422q3.129,0,3.182,3.313V0h-1.626V-6.275a2.184,2.184,0,0,0-.466-1.525,2.051,2.051,0,0,0-1.564-.505,2.156,2.156,0,0,0-1.5.541,2.193,2.193,0,0,0-.694,1.455V0h-1.635V-6.231a1.814,1.814,0,0,0-2.03-2.074,2.175,2.175,0,0,0-2.188,1.362V0h-1.626V-9.51Zm22.3,4.86a5.654,5.654,0,0,1-1,3.5A3.2,3.2,0,0,1,128.883.176,3.315,3.315,0,0,1,126.1-1.1L126.018,0h-1.494V-13.5h1.626v5.036a3.3,3.3,0,0,1,2.716-1.222,3.221,3.221,0,0,1,2.72,1.31,5.824,5.824,0,0,1,.989,3.586Zm-1.626-.185a4.394,4.394,0,0,0-.642-2.566,2.124,2.124,0,0,0-1.846-.905,2.387,2.387,0,0,0-2.312,1.494V-2.7A2.454,2.454,0,0,0,128.479-1.2a2.112,2.112,0,0,0,1.819-.905A4.672,4.672,0,0,0,130.948-4.834Zm8.271-3.217a4.873,4.873,0,0,0-.8-.062,2.143,2.143,0,0,0-2.171,1.362V0h-1.626V-9.51H136.2l.026,1.1A2.532,2.532,0,0,1,138.5-9.686a1.661,1.661,0,0,1,.721.123ZM144.492.176a4.155,4.155,0,0,1-3.146-1.27,4.714,4.714,0,0,1-1.213-3.4v-.3a5.707,5.707,0,0,1,.541-2.527,4.217,4.217,0,0,1,1.512-1.74,3.8,3.8,0,0,1,2.1-.628,3.562,3.562,0,0,1,2.883,1.222,5.289,5.289,0,0,1,1.028,3.5v.677h-6.442a3.38,3.38,0,0,0,.822,2.272,2.583,2.583,0,0,0,2,.866,2.832,2.832,0,0,0,1.459-.352,3.666,3.666,0,0,0,1.046-.932l.993.773A3.993,3.993,0,0,1,144.492.176Zm-.2-8.525a2.169,2.169,0,0,0-1.652.716,3.482,3.482,0,0,0-.826,2.008h4.764v-.123a3.1,3.1,0,0,0-.668-1.92A2.042,2.042,0,0,0,144.29-8.35Z" transform="translate(-5593.72 7058)" fill="#afafaf" opacity="0.86"/>
    <path id="Trazado_659010" data-name="Trazado 659010" d="M3.3,0H1.608V-12.8H3.3ZM7.664-9.51l.053,1.2a3.465,3.465,0,0,1,2.848-1.371q3.015,0,3.041,3.4V0H11.979V-6.293a2.189,2.189,0,0,0-.47-1.521,1.884,1.884,0,0,0-1.437-.492,2.347,2.347,0,0,0-1.389.422,2.865,2.865,0,0,0-.932,1.107V0H6.126V-9.51Zm8.007,4.676A5.589,5.589,0,0,1,16.7-8.372a3.289,3.289,0,0,1,2.725-1.314,3.271,3.271,0,0,1,2.716,1.23l.079-1.055H23.7V-.229A3.869,3.869,0,0,1,22.61,2.681a4.038,4.038,0,0,1-2.94,1.063A4.891,4.891,0,0,1,17.657,3.3a3.465,3.465,0,0,1-1.5-1.2L17,1.125a3.18,3.18,0,0,0,2.558,1.292,2.491,2.491,0,0,0,1.85-.668,2.553,2.553,0,0,0,.664-1.881V-.949A3.342,3.342,0,0,1,19.406.176a3.248,3.248,0,0,1-2.7-1.345A5.876,5.876,0,0,1,15.671-4.834Zm1.635.185a4.264,4.264,0,0,0,.659,2.527,2.142,2.142,0,0,0,1.846.918,2.382,2.382,0,0,0,2.259-1.4V-6.943a2.41,2.41,0,0,0-2.241-1.362,2.161,2.161,0,0,0-1.854.923A4.644,4.644,0,0,0,17.306-4.649Zm13.447-3.4a4.873,4.873,0,0,0-.8-.062A2.143,2.143,0,0,0,27.782-6.75V0H26.156V-9.51h1.582l.026,1.1a2.532,2.532,0,0,1,2.268-1.274,1.661,1.661,0,0,1,.721.123ZM36.026.176a4.155,4.155,0,0,1-3.146-1.27,4.714,4.714,0,0,1-1.213-3.4v-.3a5.707,5.707,0,0,1,.541-2.527,4.217,4.217,0,0,1,1.512-1.74,3.8,3.8,0,0,1,2.1-.628,3.562,3.562,0,0,1,2.883,1.222,5.289,5.289,0,0,1,1.028,3.5v.677H33.293a3.38,3.38,0,0,0,.822,2.272,2.583,2.583,0,0,0,2,.866A2.832,2.832,0,0,0,37.573-1.5a3.666,3.666,0,0,0,1.046-.932l.993.773A3.993,3.993,0,0,1,36.026.176Zm-.2-8.525a2.169,2.169,0,0,0-1.652.716,3.482,3.482,0,0,0-.826,2.008h4.764v-.123a3.1,3.1,0,0,0-.668-1.92A2.042,2.042,0,0,0,35.824-8.35ZM47.153-2.522a1.2,1.2,0,0,0-.5-1.024,4.78,4.78,0,0,0-1.731-.628,8.186,8.186,0,0,1-1.96-.633,2.788,2.788,0,0,1-1.072-.879A2.1,2.1,0,0,1,41.546-6.9a2.467,2.467,0,0,1,.989-1.978,3.861,3.861,0,0,1,2.527-.809,3.974,3.974,0,0,1,2.624.835,2.652,2.652,0,0,1,1.006,2.136H47.057a1.468,1.468,0,0,0-.567-1.151,2.124,2.124,0,0,0-1.428-.483,2.223,2.223,0,0,0-1.389.387,1.217,1.217,0,0,0-.5,1.011.986.986,0,0,0,.466.888,5.731,5.731,0,0,0,1.683.571,8.77,8.77,0,0,1,1.973.65,2.878,2.878,0,0,1,1.121.91,2.237,2.237,0,0,1,.365,1.3A2.434,2.434,0,0,1,47.76-.593a4.277,4.277,0,0,1-2.646.769,4.789,4.789,0,0,1-2.021-.4,3.288,3.288,0,0,1-1.375-1.129,2.722,2.722,0,0,1-.5-1.569h1.626a1.683,1.683,0,0,0,.655,1.3,2.54,2.54,0,0,0,1.613.479A2.622,2.622,0,0,0,46.6-1.525,1.148,1.148,0,0,0,47.153-2.522Zm7.69,2.7A4.155,4.155,0,0,1,51.7-1.094a4.714,4.714,0,0,1-1.213-3.4v-.3a5.707,5.707,0,0,1,.541-2.527,4.217,4.217,0,0,1,1.512-1.74,3.8,3.8,0,0,1,2.1-.628,3.562,3.562,0,0,1,2.883,1.222,5.289,5.289,0,0,1,1.028,3.5v.677H52.11a3.38,3.38,0,0,0,.822,2.272,2.583,2.583,0,0,0,2,.866A2.832,2.832,0,0,0,56.391-1.5a3.666,3.666,0,0,0,1.046-.932l.993.773A3.993,3.993,0,0,1,54.844.176Zm-.2-8.525a2.169,2.169,0,0,0-1.652.716,3.482,3.482,0,0,0-.826,2.008h4.764v-.123a3.1,3.1,0,0,0-.668-1.92A2.042,2.042,0,0,0,54.642-8.35ZM70.427-2.522a1.2,1.2,0,0,0-.5-1.024A4.78,4.78,0,0,0,68.2-4.175a8.186,8.186,0,0,1-1.96-.633,2.788,2.788,0,0,1-1.072-.879A2.1,2.1,0,0,1,64.819-6.9a2.467,2.467,0,0,1,.989-1.978,3.861,3.861,0,0,1,2.527-.809,3.974,3.974,0,0,1,2.624.835,2.652,2.652,0,0,1,1.006,2.136H70.33a1.468,1.468,0,0,0-.567-1.151,2.124,2.124,0,0,0-1.428-.483,2.223,2.223,0,0,0-1.389.387,1.217,1.217,0,0,0-.5,1.011.986.986,0,0,0,.466.888,5.731,5.731,0,0,0,1.683.571,8.77,8.77,0,0,1,1.973.65,2.878,2.878,0,0,1,1.121.91,2.237,2.237,0,0,1,.365,1.3,2.434,2.434,0,0,1-1.02,2.043,4.277,4.277,0,0,1-2.646.769,4.789,4.789,0,0,1-2.021-.4,3.288,3.288,0,0,1-1.375-1.129,2.722,2.722,0,0,1-.5-1.569H66.12a1.683,1.683,0,0,0,.655,1.3,2.54,2.54,0,0,0,1.613.479,2.622,2.622,0,0,0,1.481-.374A1.148,1.148,0,0,0,70.427-2.522ZM80.042-.94A3.454,3.454,0,0,1,77.256.176,2.956,2.956,0,0,1,74.94-.708a3.823,3.823,0,0,1-.8-2.615V-9.51h1.626v6.144q0,2.162,1.758,2.162A2.434,2.434,0,0,0,80-2.593V-9.51h1.626V0H80.077Zm12.322-.211a2.342,2.342,0,0,0,1.521-.527A1.855,1.855,0,0,0,94.605-3h1.538a2.949,2.949,0,0,1-.562,1.556A3.7,3.7,0,0,1,94.2-.264a3.994,3.994,0,0,1-1.833.439,3.918,3.918,0,0,1-3.089-1.3,5.163,5.163,0,0,1-1.147-3.546v-.272a5.725,5.725,0,0,1,.51-2.47A3.883,3.883,0,0,1,90.1-9.088a4.157,4.157,0,0,1,2.254-.6,3.814,3.814,0,0,1,2.659.958A3.424,3.424,0,0,1,96.144-6.24H94.605a2.241,2.241,0,0,0-.7-1.516,2.174,2.174,0,0,0-1.551-.593,2.276,2.276,0,0,0-1.92.892,4.19,4.19,0,0,0-.681,2.58v.308a4.106,4.106,0,0,0,.677,2.531A2.287,2.287,0,0,0,92.364-1.151ZM103.843,0a3.416,3.416,0,0,1-.229-1A3.628,3.628,0,0,1,100.907.176,3.357,3.357,0,0,1,98.6-.62a2.573,2.573,0,0,1-.9-2.017,2.688,2.688,0,0,1,1.129-2.307,5.325,5.325,0,0,1,3.177-.822h1.582v-.747a1.826,1.826,0,0,0-.51-1.358,2.049,2.049,0,0,0-1.5-.505,2.371,2.371,0,0,0-1.459.439,1.3,1.3,0,0,0-.589,1.063H97.893A2.244,2.244,0,0,1,98.4-8.249,3.449,3.449,0,0,1,99.769-9.3a4.613,4.613,0,0,1,1.9-.387,3.759,3.759,0,0,1,2.575.822,2.964,2.964,0,0,1,.967,2.263v4.377a5.351,5.351,0,0,0,.334,2.083V0Zm-2.7-1.239a2.858,2.858,0,0,0,1.45-.4,2.392,2.392,0,0,0,.993-1.028V-4.614h-1.274q-2.988,0-2.988,1.749a1.48,1.48,0,0,0,.51,1.2A1.959,1.959,0,0,0,101.145-1.239Zm11.215-6.812a4.873,4.873,0,0,0-.8-.062,2.143,2.143,0,0,0-2.171,1.362V0h-1.626V-9.51h1.582l.026,1.1a2.532,2.532,0,0,1,2.268-1.274,1.661,1.661,0,0,1,.721.123Zm.94,3.217a5.589,5.589,0,0,1,1.028-3.538,3.289,3.289,0,0,1,2.725-1.314,3.271,3.271,0,0,1,2.716,1.23l.079-1.055h1.485V-.229a3.869,3.869,0,0,1-1.094,2.909,4.038,4.038,0,0,1-2.94,1.063,4.891,4.891,0,0,1-2.013-.439,3.465,3.465,0,0,1-1.5-1.2l.844-.976a3.18,3.18,0,0,0,2.558,1.292,2.491,2.491,0,0,0,1.85-.668A2.553,2.553,0,0,0,119.7-.132V-.949A3.342,3.342,0,0,1,117.035.176a3.248,3.248,0,0,1-2.7-1.345A5.876,5.876,0,0,1,113.3-4.834Zm1.635.185a4.264,4.264,0,0,0,.659,2.527,2.142,2.142,0,0,0,1.846.918A2.382,2.382,0,0,0,119.7-2.6V-6.943a2.41,2.41,0,0,0-2.241-1.362,2.161,2.161,0,0,0-1.854.923A4.644,4.644,0,0,0,114.935-4.649Zm8.42-.193a5.617,5.617,0,0,1,.549-2.514,4.1,4.1,0,0,1,1.529-1.723,4.163,4.163,0,0,1,2.237-.606,4.01,4.01,0,0,1,3.142,1.345,5.174,5.174,0,0,1,1.2,3.577v.114a5.666,5.666,0,0,1-.532,2.492,4.038,4.038,0,0,1-1.521,1.718,4.211,4.211,0,0,1-2.272.615,4,4,0,0,1-3.133-1.345,5.147,5.147,0,0,1-1.2-3.56Zm1.635.193a4.068,4.068,0,0,0,.734,2.54,2.349,2.349,0,0,0,1.964.958,2.335,2.335,0,0,0,1.969-.971,4.449,4.449,0,0,0,.729-2.72,4.061,4.061,0,0,0-.743-2.536,2.361,2.361,0,0,0-1.973-.971,2.335,2.335,0,0,0-1.942.958A4.416,4.416,0,0,0,124.989-4.649Z" transform="translate(-5593.72 7148)" fill="#afafaf" opacity="0.86"/>
    <path id="Trazado_659011" data-name="Trazado 659011" d="M3.3,0H1.608V-12.8H3.3ZM7.664-9.51l.053,1.2a3.465,3.465,0,0,1,2.848-1.371q3.015,0,3.041,3.4V0H11.979V-6.293a2.189,2.189,0,0,0-.47-1.521,1.884,1.884,0,0,0-1.437-.492,2.347,2.347,0,0,0-1.389.422,2.865,2.865,0,0,0-.932,1.107V0H6.126V-9.51Zm8.007,4.676A5.589,5.589,0,0,1,16.7-8.372a3.289,3.289,0,0,1,2.725-1.314,3.271,3.271,0,0,1,2.716,1.23l.079-1.055H23.7V-.229A3.869,3.869,0,0,1,22.61,2.681a4.038,4.038,0,0,1-2.94,1.063A4.891,4.891,0,0,1,17.657,3.3a3.465,3.465,0,0,1-1.5-1.2L17,1.125a3.18,3.18,0,0,0,2.558,1.292,2.491,2.491,0,0,0,1.85-.668,2.553,2.553,0,0,0,.664-1.881V-.949A3.342,3.342,0,0,1,19.406.176a3.248,3.248,0,0,1-2.7-1.345A5.876,5.876,0,0,1,15.671-4.834Zm1.635.185a4.264,4.264,0,0,0,.659,2.527,2.142,2.142,0,0,0,1.846.918,2.382,2.382,0,0,0,2.259-1.4V-6.943a2.41,2.41,0,0,0-2.241-1.362,2.161,2.161,0,0,0-1.854.923A4.644,4.644,0,0,0,17.306-4.649Zm13.447-3.4a4.873,4.873,0,0,0-.8-.062A2.143,2.143,0,0,0,27.782-6.75V0H26.156V-9.51h1.582l.026,1.1a2.532,2.532,0,0,1,2.268-1.274,1.661,1.661,0,0,1,.721.123ZM36.026.176a4.155,4.155,0,0,1-3.146-1.27,4.714,4.714,0,0,1-1.213-3.4v-.3a5.707,5.707,0,0,1,.541-2.527,4.217,4.217,0,0,1,1.512-1.74,3.8,3.8,0,0,1,2.1-.628,3.562,3.562,0,0,1,2.883,1.222,5.289,5.289,0,0,1,1.028,3.5v.677H33.293a3.38,3.38,0,0,0,.822,2.272,2.583,2.583,0,0,0,2,.866A2.832,2.832,0,0,0,37.573-1.5a3.666,3.666,0,0,0,1.046-.932l.993.773A3.993,3.993,0,0,1,36.026.176Zm-.2-8.525a2.169,2.169,0,0,0-1.652.716,3.482,3.482,0,0,0-.826,2.008h4.764v-.123a3.1,3.1,0,0,0-.668-1.92A2.042,2.042,0,0,0,35.824-8.35ZM47.153-2.522a1.2,1.2,0,0,0-.5-1.024,4.78,4.78,0,0,0-1.731-.628,8.186,8.186,0,0,1-1.96-.633,2.788,2.788,0,0,1-1.072-.879A2.1,2.1,0,0,1,41.546-6.9a2.467,2.467,0,0,1,.989-1.978,3.861,3.861,0,0,1,2.527-.809,3.974,3.974,0,0,1,2.624.835,2.652,2.652,0,0,1,1.006,2.136H47.057a1.468,1.468,0,0,0-.567-1.151,2.124,2.124,0,0,0-1.428-.483,2.223,2.223,0,0,0-1.389.387,1.217,1.217,0,0,0-.5,1.011.986.986,0,0,0,.466.888,5.731,5.731,0,0,0,1.683.571,8.77,8.77,0,0,1,1.973.65,2.878,2.878,0,0,1,1.121.91,2.237,2.237,0,0,1,.365,1.3A2.434,2.434,0,0,1,47.76-.593a4.277,4.277,0,0,1-2.646.769,4.789,4.789,0,0,1-2.021-.4,3.288,3.288,0,0,1-1.375-1.129,2.722,2.722,0,0,1-.5-1.569h1.626a1.683,1.683,0,0,0,.655,1.3,2.54,2.54,0,0,0,1.613.479A2.622,2.622,0,0,0,46.6-1.525,1.148,1.148,0,0,0,47.153-2.522Zm7.69,2.7A4.155,4.155,0,0,1,51.7-1.094a4.714,4.714,0,0,1-1.213-3.4v-.3a5.707,5.707,0,0,1,.541-2.527,4.217,4.217,0,0,1,1.512-1.74,3.8,3.8,0,0,1,2.1-.628,3.562,3.562,0,0,1,2.883,1.222,5.289,5.289,0,0,1,1.028,3.5v.677H52.11a3.38,3.38,0,0,0,.822,2.272,2.583,2.583,0,0,0,2,.866A2.832,2.832,0,0,0,56.391-1.5a3.666,3.666,0,0,0,1.046-.932l.993.773A3.993,3.993,0,0,1,54.844.176Zm-.2-8.525a2.169,2.169,0,0,0-1.652.716,3.482,3.482,0,0,0-.826,2.008h4.764v-.123a3.1,3.1,0,0,0-.668-1.92A2.042,2.042,0,0,0,54.642-8.35ZM70.427-2.522a1.2,1.2,0,0,0-.5-1.024A4.78,4.78,0,0,0,68.2-4.175a8.186,8.186,0,0,1-1.96-.633,2.788,2.788,0,0,1-1.072-.879A2.1,2.1,0,0,1,64.819-6.9a2.467,2.467,0,0,1,.989-1.978,3.861,3.861,0,0,1,2.527-.809,3.974,3.974,0,0,1,2.624.835,2.652,2.652,0,0,1,1.006,2.136H70.33a1.468,1.468,0,0,0-.567-1.151,2.124,2.124,0,0,0-1.428-.483,2.223,2.223,0,0,0-1.389.387,1.217,1.217,0,0,0-.5,1.011.986.986,0,0,0,.466.888,5.731,5.731,0,0,0,1.683.571,8.77,8.77,0,0,1,1.973.65,2.878,2.878,0,0,1,1.121.91,2.237,2.237,0,0,1,.365,1.3,2.434,2.434,0,0,1-1.02,2.043,4.277,4.277,0,0,1-2.646.769,4.789,4.789,0,0,1-2.021-.4,3.288,3.288,0,0,1-1.375-1.129,2.722,2.722,0,0,1-.5-1.569H66.12a1.683,1.683,0,0,0,.655,1.3,2.54,2.54,0,0,0,1.613.479,2.622,2.622,0,0,0,1.481-.374A1.148,1.148,0,0,0,70.427-2.522ZM80.042-.94A3.454,3.454,0,0,1,77.256.176,2.956,2.956,0,0,1,74.94-.708a3.823,3.823,0,0,1-.8-2.615V-9.51h1.626v6.144q0,2.162,1.758,2.162A2.434,2.434,0,0,0,80-2.593V-9.51h1.626V0H80.077ZM90.316,0H88.69V-13.5h1.626Zm8.473-.94A3.454,3.454,0,0,1,96,.176a2.956,2.956,0,0,1-2.316-.883,3.823,3.823,0,0,1-.8-2.615V-9.51h1.626v6.144q0,2.162,1.758,2.162a2.434,2.434,0,0,0,2.479-1.389V-9.51h1.626V0H98.824Zm3.665-3.894a5.589,5.589,0,0,1,1.028-3.538,3.289,3.289,0,0,1,2.725-1.314,3.271,3.271,0,0,1,2.716,1.23L109-9.51h1.485V-.229a3.869,3.869,0,0,1-1.094,2.909,4.038,4.038,0,0,1-2.94,1.063A4.891,4.891,0,0,1,104.44,3.3a3.465,3.465,0,0,1-1.5-1.2l.844-.976a3.18,3.18,0,0,0,2.558,1.292,2.491,2.491,0,0,0,1.85-.668,2.553,2.553,0,0,0,.664-1.881V-.949A3.342,3.342,0,0,1,106.189.176a3.248,3.248,0,0,1-2.7-1.345A5.876,5.876,0,0,1,102.454-4.834Zm1.635.185a4.264,4.264,0,0,0,.659,2.527,2.142,2.142,0,0,0,1.846.918,2.382,2.382,0,0,0,2.259-1.4V-6.943a2.41,2.41,0,0,0-2.241-1.362,2.161,2.161,0,0,0-1.854.923A4.644,4.644,0,0,0,104.089-4.649ZM118.811,0a3.416,3.416,0,0,1-.229-1A3.628,3.628,0,0,1,115.875.176a3.357,3.357,0,0,1-2.307-.8,2.573,2.573,0,0,1-.9-2.017A2.688,2.688,0,0,1,113.8-4.944a5.325,5.325,0,0,1,3.177-.822h1.582v-.747a1.826,1.826,0,0,0-.51-1.358,2.049,2.049,0,0,0-1.5-.505,2.371,2.371,0,0,0-1.459.439,1.3,1.3,0,0,0-.589,1.063H112.86a2.244,2.244,0,0,1,.505-1.375,3.449,3.449,0,0,1,1.371-1.05,4.613,4.613,0,0,1,1.9-.387,3.759,3.759,0,0,1,2.575.822,2.964,2.964,0,0,1,.967,2.263v4.377a5.351,5.351,0,0,0,.334,2.083V0Zm-2.7-1.239a2.858,2.858,0,0,0,1.45-.4,2.392,2.392,0,0,0,.993-1.028V-4.614h-1.274q-2.988,0-2.988,1.749a1.48,1.48,0,0,0,.51,1.2A1.959,1.959,0,0,0,116.112-1.239Zm11.215-6.812a4.873,4.873,0,0,0-.8-.062,2.143,2.143,0,0,0-2.171,1.362V0H122.73V-9.51h1.582l.026,1.1a2.532,2.532,0,0,1,2.268-1.274,1.661,1.661,0,0,1,.721.123Zm5.555,3.217a5.571,5.571,0,0,1,1.037-3.52,3.28,3.28,0,0,1,2.716-1.332,3.3,3.3,0,0,1,2.646,1.143V-13.5h1.626V0h-1.494l-.079-1.02a3.311,3.311,0,0,1-2.716,1.2,3.248,3.248,0,0,1-2.694-1.354,5.634,5.634,0,0,1-1.042-3.533Zm1.626.185a4.218,4.218,0,0,0,.668,2.531,2.159,2.159,0,0,0,1.846.914,2.372,2.372,0,0,0,2.259-1.389V-6.961a2.39,2.39,0,0,0-2.241-1.345,2.17,2.17,0,0,0-1.863.923A4.644,4.644,0,0,0,134.508-4.649ZM147.375.176a4.155,4.155,0,0,1-3.146-1.27,4.714,4.714,0,0,1-1.213-3.4v-.3a5.707,5.707,0,0,1,.541-2.527,4.217,4.217,0,0,1,1.512-1.74,3.8,3.8,0,0,1,2.1-.628,3.562,3.562,0,0,1,2.883,1.222,5.289,5.289,0,0,1,1.028,3.5v.677h-6.442a3.38,3.38,0,0,0,.822,2.272,2.583,2.583,0,0,0,2,.866,2.832,2.832,0,0,0,1.459-.352,3.666,3.666,0,0,0,1.046-.932l.993.773A3.993,3.993,0,0,1,147.375.176Zm-.2-8.525a2.169,2.169,0,0,0-1.652.716,3.482,3.482,0,0,0-.826,2.008h4.764v-.123a3.1,3.1,0,0,0-.668-1.92A2.042,2.042,0,0,0,147.173-8.35Zm12.454-3.463v2.3H161.4v1.257h-1.775v5.9a1.32,1.32,0,0,0,.237.858,1,1,0,0,0,.809.286,3.937,3.937,0,0,0,.773-.105V0A4.742,4.742,0,0,1,160.2.176a2.025,2.025,0,0,1-1.644-.659A2.832,2.832,0,0,1,158-2.355v-5.9H156.27V-9.51H158v-2.3ZM167.9-8.051a4.873,4.873,0,0,0-.8-.062,2.143,2.143,0,0,0-2.171,1.362V0H163.3V-9.51h1.582l.026,1.1a2.532,2.532,0,0,1,2.268-1.274,1.661,1.661,0,0,1,.721.123ZM174.911,0a3.416,3.416,0,0,1-.229-1A3.628,3.628,0,0,1,171.976.176a3.357,3.357,0,0,1-2.307-.8,2.573,2.573,0,0,1-.9-2.017A2.688,2.688,0,0,1,169.9-4.944a5.325,5.325,0,0,1,3.177-.822h1.582v-.747a1.826,1.826,0,0,0-.51-1.358,2.049,2.049,0,0,0-1.5-.505,2.371,2.371,0,0,0-1.459.439,1.3,1.3,0,0,0-.589,1.063h-1.635a2.244,2.244,0,0,1,.505-1.375,3.449,3.449,0,0,1,1.371-1.05,4.613,4.613,0,0,1,1.9-.387,3.759,3.759,0,0,1,2.575.822,2.964,2.964,0,0,1,.967,2.263v4.377a5.351,5.351,0,0,0,.334,2.083V0Zm-2.7-1.239a2.858,2.858,0,0,0,1.45-.4,2.392,2.392,0,0,0,.993-1.028V-4.614h-1.274q-2.988,0-2.988,1.749a1.48,1.48,0,0,0,.51,1.2A1.959,1.959,0,0,0,172.213-1.239Zm14.669-3.41a5.654,5.654,0,0,1-1,3.5A3.2,3.2,0,0,1,183.19.176,3.315,3.315,0,0,1,180.4-1.1L180.325,0h-1.494V-13.5h1.626v5.036a3.3,3.3,0,0,1,2.716-1.222,3.221,3.221,0,0,1,2.72,1.31,5.824,5.824,0,0,1,.989,3.586Zm-1.626-.185a4.394,4.394,0,0,0-.642-2.566,2.124,2.124,0,0,0-1.846-.905,2.387,2.387,0,0,0-2.312,1.494V-2.7A2.454,2.454,0,0,0,182.786-1.2a2.112,2.112,0,0,0,1.819-.905A4.672,4.672,0,0,0,185.256-4.834ZM194.8,0a3.416,3.416,0,0,1-.229-1A3.628,3.628,0,0,1,191.865.176a3.357,3.357,0,0,1-2.307-.8,2.573,2.573,0,0,1-.9-2.017,2.688,2.688,0,0,1,1.129-2.307,5.325,5.325,0,0,1,3.177-.822h1.582v-.747a1.826,1.826,0,0,0-.51-1.358,2.049,2.049,0,0,0-1.5-.505,2.371,2.371,0,0,0-1.459.439,1.3,1.3,0,0,0-.589,1.063h-1.635a2.244,2.244,0,0,1,.505-1.375,3.449,3.449,0,0,1,1.371-1.05,4.613,4.613,0,0,1,1.9-.387,3.759,3.759,0,0,1,2.575.822,2.964,2.964,0,0,1,.967,2.263v4.377a5.351,5.351,0,0,0,.334,2.083V0Zm-2.7-1.239a2.858,2.858,0,0,0,1.45-.4,2.392,2.392,0,0,0,.993-1.028V-4.614h-1.274q-2.988,0-2.988,1.749a1.48,1.48,0,0,0,.51,1.2A1.959,1.959,0,0,0,192.1-1.239Zm8.3-8.271V1.1q0,2.742-2.487,2.742a3.034,3.034,0,0,1-.993-.157V2.391a3.144,3.144,0,0,0,.738.07,1.1,1.1,0,0,0,.831-.295,1.457,1.457,0,0,0,.286-1.025V-9.51Zm-1.793-2.522a.975.975,0,0,1,.242-.664.889.889,0,0,1,.708-.277.922.922,0,0,1,.721.272.96.96,0,0,1,.246.668.929.929,0,0,1-.246.659.938.938,0,0,1-.721.264.909.909,0,0,1-.712-.264A.949.949,0,0,1,198.606-12.032Zm3.981,7.189a5.617,5.617,0,0,1,.549-2.514,4.1,4.1,0,0,1,1.529-1.723,4.163,4.163,0,0,1,2.237-.606,4.01,4.01,0,0,1,3.142,1.345,5.174,5.174,0,0,1,1.2,3.577v.114a5.666,5.666,0,0,1-.532,2.492,4.038,4.038,0,0,1-1.521,1.718,4.211,4.211,0,0,1-2.272.615,4,4,0,0,1-3.133-1.345,5.147,5.147,0,0,1-1.2-3.56Zm1.635.193a4.068,4.068,0,0,0,.734,2.54,2.349,2.349,0,0,0,1.964.958,2.335,2.335,0,0,0,1.969-.971,4.449,4.449,0,0,0,.729-2.72,4.061,4.061,0,0,0-.743-2.536A2.361,2.361,0,0,0,206.9-8.35a2.335,2.335,0,0,0-1.942.958A4.416,4.416,0,0,0,204.223-4.649Z" transform="translate(-5593.72 7238)" fill="#afafaf" opacity="0.86"/>
    <path id="Trazado_659012" data-name="Trazado 659012" d="M9.088-5.458a7.436,7.436,0,0,1-.976,4.245A3.47,3.47,0,0,1,5.063.176,3.5,3.5,0,0,1,2.03-1.182a7.058,7.058,0,0,1-1.02-4.056V-7.409A7.271,7.271,0,0,1,1.986-11.6a3.5,3.5,0,0,1,3.059-1.371A3.528,3.528,0,0,1,8.086-11.65a7.017,7.017,0,0,1,1,4.083ZM7.462-7.682a5.958,5.958,0,0,0-.58-3.01,2,2,0,0,0-1.837-.945,1.97,1.97,0,0,0-1.819.94A5.817,5.817,0,0,0,2.637-7.8v2.6a6.053,6.053,0,0,0,.6,3.063,1.993,1.993,0,0,0,1.824.989,1.966,1.966,0,0,0,1.789-.932,5.834,5.834,0,0,0,.611-2.936Z" transform="translate(-5593.72 7328)" fill="#afafaf" opacity="0.86"/>
    <path id="Trazado_659013" data-name="Trazado 659013" d="M5,0H124a5,5,0,0,1,5,5V44a5,5,0,0,1-5,5H5a5,5,0,0,1-5-5V5A5,5,0,0,1,5,0Z" transform="translate(-5411.72 7433)" fill="#26a699"/>
    <path id="Trazado_659014" data-name="Trazado 659014" d="M5,0H124a5,5,0,0,1,5,5V44a5,5,0,0,1-5,5H5a5,5,0,0,1-5-5V5A5,5,0,0,1,5,0Z" transform="translate(-5560.72 7433)" fill="#26a699"/>
    <path id="Trazado_659015" data-name="Trazado 659015" d="M10.934-1.679A3.9,3.9,0,0,1,9.119-.286,7.331,7.331,0,0,1,6.407.176,5.258,5.258,0,0,1,3.63-.558,4.889,4.889,0,0,1,1.753-2.646a7.21,7.21,0,0,1-.681-3.138V-6.9a6.73,6.73,0,0,1,1.349-4.482,4.7,4.7,0,0,1,3.792-1.591,4.856,4.856,0,0,1,3.226,1.024,4.461,4.461,0,0,1,1.494,2.9H9.246a2.79,2.79,0,0,0-3.023-2.549A2.987,2.987,0,0,0,3.652-10.4a5.82,5.82,0,0,0-.883,3.453V-5.9a5.454,5.454,0,0,0,.984,3.426A3.191,3.191,0,0,0,6.416-1.2a5.882,5.882,0,0,0,1.661-.21,2.569,2.569,0,0,0,1.178-.71V-4.992H6.293v-1.38h4.641ZM22.755-12.8v8.7a4.082,4.082,0,0,1-1.138,2.962A4.586,4.586,0,0,1,18.554.158l-.448.018A4.79,4.79,0,0,1,14.757-.958a4.055,4.055,0,0,1-1.266-3.12V-12.8h1.67v8.666a2.927,2.927,0,0,0,.765,2.158,2.939,2.939,0,0,0,2.18.769A2.959,2.959,0,0,0,20.3-1.969a2.921,2.921,0,0,0,.76-2.153V-12.8Zm9.536,9.448H26.93L25.726,0h-1.74l4.887-12.8h1.477L35.244,0H33.513Zm-4.852-1.38H31.79l-2.18-5.985ZM41.66-5.177H38.654V0h-1.7V-12.8h4.236a5.014,5.014,0,0,1,3.327.984,3.542,3.542,0,0,1,1.165,2.865,3.445,3.445,0,0,1-.646,2.083,3.856,3.856,0,0,1-1.8,1.327L46.248-.105V0H44.438Zm-3.006-1.38h2.593a2.924,2.924,0,0,0,2-.652,2.2,2.2,0,0,0,.743-1.743,2.32,2.32,0,0,0-.708-1.823,3,3,0,0,0-2.043-.643H38.654ZM48.05,0V-12.8h3.612a5.815,5.815,0,0,1,2.953.738,4.993,4.993,0,0,1,1.982,2.1A6.837,6.837,0,0,1,57.3-6.829v.817a6.861,6.861,0,0,1-.7,3.173,4.915,4.915,0,0,1-2,2.092A6.185,6.185,0,0,1,51.592,0Zm1.688-11.417V-1.38h1.775a3.863,3.863,0,0,0,3.037-1.214,5.016,5.016,0,0,0,1.085-3.457V-6.8a5.1,5.1,0,0,0-1.024-3.391,3.644,3.644,0,0,0-2.9-1.227Zm17,8.068H61.374L60.17,0H58.43l4.887-12.8h1.477L69.688,0H67.957Zm-4.852-1.38h4.351l-2.18-5.985ZM76.1-5.177H73.1V0H71.4V-12.8h4.236a5.014,5.014,0,0,1,3.327.984A3.542,3.542,0,0,1,80.13-8.947a3.445,3.445,0,0,1-.646,2.083,3.856,3.856,0,0,1-1.8,1.327L80.692-.105V0H78.882ZM73.1-6.557h2.593a2.924,2.924,0,0,0,2-.652,2.2,2.2,0,0,0,.743-1.743,2.32,2.32,0,0,0-.708-1.823,3,3,0,0,0-2.043-.643H73.1Z" transform="translate(-5536.72 7464)" fill="#fff" opacity="0.86"/>
    <path id="Trazado_659016" data-name="Trazado 659016" d="M3.182-1.38H9.246V0H1.485V-12.8h1.7ZM12.981,0H11.294V-12.8h1.688Zm5.265-12.8L22.43-2.355,26.613-12.8H28.8V0H27.114V-4.983l.158-5.379L23.071,0H21.779L17.587-10.336l.167,5.353V0H16.066V-12.8ZM33.469-5.01V0H31.781V-12.8H36.5a4.742,4.742,0,0,1,3.292,1.072,3.635,3.635,0,0,1,1.191,2.839,3.587,3.587,0,0,1-1.165,2.87A4.954,4.954,0,0,1,36.483-5.01Zm0-1.38H36.5a3.032,3.032,0,0,0,2.074-.638A2.334,2.334,0,0,0,39.3-8.873a2.411,2.411,0,0,0-.721-1.831,2.84,2.84,0,0,0-1.978-.713H33.469ZM44.947,0H43.26V-12.8h1.688Zm10.31-3.349H49.9L48.691,0h-1.74l4.887-12.8h1.477L58.21,0H56.479Zm-4.852-1.38h4.351l-2.18-5.985Zm14.221-.448H61.62V0h-1.7V-12.8H64.16a5.014,5.014,0,0,1,3.327.984,3.542,3.542,0,0,1,1.165,2.865,3.445,3.445,0,0,1-.646,2.083,3.856,3.856,0,0,1-1.8,1.327L69.214-.105V0H67.4ZM61.62-6.557h2.593a2.924,2.924,0,0,0,2-.652,2.2,2.2,0,0,0,.743-1.743,2.32,2.32,0,0,0-.708-1.823,3,3,0,0,0-2.043-.643H61.62Z" transform="translate(-5381.72 7464)" fill="#fff" opacity="0.86"/>
  </g>
</svg>
