<svg xmlns="http://www.w3.org/2000/svg" xmlns:xlink="http://www.w3.org/1999/xlink" width="400" height="164.187" viewBox="0 0 400 164.187">
  <defs>
    <clipPath id="clip-path">
      <rect id="Rectángulo_344449" data-name="Rectángulo 344449" width="306.586" height="159.187" fill="none"/>
    </clipPath>
  </defs>
  <g id="Grupo_984190" data-name="Grupo 984190" transform="translate(-1020.439 -3123)">
    <g id="Grupo_984189" data-name="Grupo 984189" transform="translate(1072.55 3128)">
      <g id="Grupo_984188" data-name="Grupo 984188" clip-path="url(#clip-path)">
        <path id="Trazado_658967" data-name="Trazado 658967" d="M702.653,0a22.759,22.759,0,1,0,22.759,22.759A22.786,22.786,0,0,0,702.653,0m0,37.167a14.407,14.407,0,1,1,14.407-14.407,14.42,14.42,0,0,1-14.407,14.407" transform="translate(-457.729 0.001)" fill="#fff"/>
        <path id="Trazado_658968" data-name="Trazado 658968" d="M725.414,22.758a22.759,22.759,0,1,1-45.519,0h8.352A14.4,14.4,0,1,0,702.654,8.351V0a22.791,22.791,0,0,1,22.759,22.759" transform="translate(-457.73 0.001)" fill="#4adbd1"/>
        <path id="Trazado_658969" data-name="Trazado 658969" d="M765.572,6.619l-5.988,5.821a14.342,14.342,0,0,0-10.039-4.088V0a22.665,22.665,0,0,1,16.027,6.619" transform="translate(-504.621)" fill="#f4a338"/>
        <path id="Trazado_658970" data-name="Trazado 658970" d="M702.581,84.057v8.352A22.786,22.786,0,0,1,679.822,69.65h8.352a14.42,14.42,0,0,0,14.407,14.407" transform="translate(-457.681 -46.891)" fill="#7c6b72"/>
        <path id="Trazado_658971" data-name="Trazado 658971" d="M854.032,10.542a10.67,10.67,0,1,0,10.67,10.67,10.682,10.682,0,0,0-10.67-10.67m0,17.424a6.754,6.754,0,1,1,6.754-6.754,6.761,6.761,0,0,1-6.754,6.754" transform="translate(-567.782 -7.097)" fill="#fff"/>
        <path id="Trazado_658972" data-name="Trazado 658972" d="M886.685,21.212a10.681,10.681,0,0,1-10.67,10.67V27.966a6.754,6.754,0,0,0,0-13.508V10.542a10.684,10.684,0,0,1,10.67,10.67" transform="translate(-589.765 -7.097)" fill="#f7be8f"/>
        <path id="Trazado_658973" data-name="Trazado 658973" d="M883.517,13.633,880.649,16.3a6.726,6.726,0,0,0-4.634-1.844V10.542a10.623,10.623,0,0,1,7.5,3.091" transform="translate(-589.765 -7.097)" fill="#f18d4f"/>
        <path id="Trazado_659007" data-name="Trazado 659007" d="M0,0H35.921V35.921H0Z" transform="translate(0.05 6.824)" fill="#f4a338"/>
        <rect id="Rectángulo_344352" data-name="Rectángulo 344352" width="16.702" height="16.702" transform="translate(0 44.462)" fill="#7c6b72"/>
        <rect id="Rectángulo_344353" data-name="Rectángulo 344353" width="17.64" height="16.737" transform="translate(18.331 44.462)" fill="#4adbd1"/>
        <path id="Trazado_658974" data-name="Trazado 658974" d="M330.219,22.426v98.957a7.321,7.321,0,0,1-5.844,7.17,7.139,7.139,0,0,1-1.473.148H190.578a7.142,7.142,0,0,1-1.474-.148,7.321,7.321,0,0,1-5.844-7.17V22.426a7.318,7.318,0,0,1,7.318-7.318H322.9a7.318,7.318,0,0,1,7.318,7.318" transform="translate(-123.377 -10.171)" fill="#7c6b72"/>
        <rect id="Rectángulo_344354" data-name="Rectángulo 344354" width="31.555" height="40.149" transform="translate(110.443 118.527)" fill="#fff"/>
        <rect id="Rectángulo_344355" data-name="Rectángulo 344355" width="31.555" height="7.652" transform="translate(110.443 118.527)" fill="#a3b0bc"/>
        <path id="Trazado_658975" data-name="Trazado 658975" d="M330.219,285.953v17.772a7.321,7.321,0,0,1-5.844,7.17,7.162,7.162,0,0,1-1.473.148H190.578a7.164,7.164,0,0,1-1.474-.148,7.322,7.322,0,0,1-5.844-7.17V285.953Z" transform="translate(-123.377 -192.514)" fill="#fff"/>
        <rect id="Rectángulo_344356" data-name="Rectángulo 344356" width="63.933" height="5.313" transform="translate(94.254 153.874)" fill="#7c6b72"/>
        <path id="Trazado_658976" data-name="Trazado 658976" d="M859.749,163.022H849.3V152.575h10.446Zm-9.174-1.273h7.9v-7.9h-7.9Z" transform="translate(-571.781 -102.719)" fill="#fff"/>
        <rect id="Rectángulo_344357" data-name="Rectángulo 344357" width="9.398" height="1.372" transform="translate(289.649 50.493)" fill="#fff"/>
        <rect id="Rectángulo_344358" data-name="Rectángulo 344358" width="9.398" height="1.372" transform="translate(289.649 53.371)" fill="#fff"/>
        <path id="Trazado_658977" data-name="Trazado 658977" d="M859.749,115.053H849.3V104.606h10.446Zm-9.174-1.273h7.9v-7.9h-7.9Z" transform="translate(-571.781 -70.425)" fill="#7c6b72"/>
        <rect id="Rectángulo_344359" data-name="Rectángulo 344359" width="9.398" height="1.372" transform="translate(289.649 34.818)" fill="#7c6b72"/>
        <rect id="Rectángulo_344360" data-name="Rectángulo 344360" width="9.398" height="1.372" transform="translate(289.649 37.697)" fill="#7c6b72"/>
        <path id="Trazado_658978" data-name="Trazado 658978" d="M96.111,231.86H85.665V221.413H96.111Zm-9.174-1.273h7.9v-7.9h-7.9Z" transform="translate(-57.673 -149.063)" fill="#fff"/>
        <rect id="Rectángulo_344361" data-name="Rectángulo 344361" width="9.397" height="1.372" transform="translate(40.12 72.987)" fill="#fff"/>
        <rect id="Rectángulo_344362" data-name="Rectángulo 344362" width="9.397" height="1.372" transform="translate(40.12 75.865)" fill="#fff"/>
        <path id="Trazado_658979" data-name="Trazado 658979" d="M551.552,425.939H527.37a6.663,6.663,0,0,1-6.663-6.663V402.887a6.663,6.663,0,0,1,6.663-6.663h24.182a6.663,6.663,0,0,1,6.663,6.663v16.389a6.663,6.663,0,0,1-6.663,6.663" transform="translate(-362.52 -291.883)" fill="#4adbd1"/>
        <path id="Trazado_658980" data-name="Trazado 658980" d="M560.878,428.767a7.393,7.393,0,1,1,7.393-7.393,7.4,7.4,0,0,1-7.393,7.393m0-12.886a5.493,5.493,0,1,0,5.492,5.493,5.5,5.5,0,0,0-5.492-5.493" transform="translate(-384.587 -303.837)" fill="#7c6b72"/>
        <rect id="Rectángulo_344363" data-name="Rectángulo 344363" width="1.9" height="8.108" transform="translate(179.954 122.817) rotate(-38.155)" fill="#7c6b72"/>
        <rect id="Rectángulo_344364" data-name="Rectángulo 344364" width="3.098" height="3.098" transform="translate(82.411 19.033)" fill="#dedede"/>
        <rect id="Rectángulo_344365" data-name="Rectángulo 344365" width="3.098" height="3.098" transform="translate(82.411 25.685)" fill="#dedede"/>
        <rect id="Rectángulo_344366" data-name="Rectángulo 344366" width="3.098" height="3.098" transform="translate(82.411 32.337)" fill="#dedede"/>
        <rect id="Rectángulo_344367" data-name="Rectángulo 344367" width="3.098" height="3.098" transform="translate(82.411 38.989)" fill="#dedede"/>
        <rect id="Rectángulo_344368" data-name="Rectángulo 344368" width="3.098" height="3.098" transform="translate(82.411 45.641)" fill="#dedede"/>
        <rect id="Rectángulo_344369" data-name="Rectángulo 344369" width="3.098" height="3.098" transform="translate(82.411 52.293)" fill="#dedede"/>
        <rect id="Rectángulo_344370" data-name="Rectángulo 344370" width="3.098" height="3.098" transform="translate(82.411 58.945)" fill="#dedede"/>
        <rect id="Rectángulo_344371" data-name="Rectángulo 344371" width="3.098" height="3.098" transform="translate(82.411 65.597)" fill="#dedede"/>
        <rect id="Rectángulo_344372" data-name="Rectángulo 344372" width="3.098" height="3.098" transform="translate(82.411 72.249)" fill="#dedede"/>
        <rect id="Rectángulo_344373" data-name="Rectángulo 344373" width="3.098" height="3.098" transform="translate(82.411 78.901)" fill="#dedede"/>
        <rect id="Rectángulo_344374" data-name="Rectángulo 344374" width="14.459" height="3.098" transform="translate(102.841 19.033)" fill="#fff"/>
        <rect id="Rectángulo_344375" data-name="Rectángulo 344375" width="24.454" height="3.098" transform="translate(102.841 24.971)" fill="#f18d4f"/>
        <rect id="Rectángulo_344376" data-name="Rectángulo 344376" width="7.23" height="3.098" transform="translate(102.841 32.337)" fill="#f18d4f"/>
        <rect id="Rectángulo_344377" data-name="Rectángulo 344377" width="10.845" height="3.098" transform="translate(108.006 38.988)" fill="#f18d4f"/>
        <rect id="Rectángulo_344378" data-name="Rectángulo 344378" width="10.845" height="3.098" transform="translate(108.006 45.641)" fill="#f18d4f"/>
        <rect id="Rectángulo_344379" data-name="Rectángulo 344379" width="10.845" height="3.098" transform="translate(102.067 52.293)" fill="#f18d4f"/>
        <rect id="Rectángulo_344380" data-name="Rectángulo 344380" width="4.217" height="3.098" transform="translate(108.006 58.945)" fill="#f18d4f"/>
        <rect id="Rectángulo_344381" data-name="Rectángulo 344381" width="10.845" height="3.098" transform="translate(163.437 45.641)" fill="#f18d4f"/>
        <rect id="Rectángulo_344382" data-name="Rectángulo 344382" width="10.845" height="3.098" transform="translate(121.088 45.641)" fill="#fff"/>
        <rect id="Rectángulo_344383" data-name="Rectángulo 344383" width="27.833" height="3.098" transform="translate(133.654 45.641)" fill="#fff"/>
        <rect id="Rectángulo_344384" data-name="Rectángulo 344384" width="6.197" height="3.098" transform="translate(120.572 38.988)" fill="#72cffd"/>
        <rect id="Rectángulo_344385" data-name="Rectángulo 344385" width="6.197" height="3.098" transform="translate(149.323 38.988)" fill="#f7be8f"/>
        <rect id="Rectángulo_344386" data-name="Rectángulo 344386" width="19.197" height="3.098" transform="translate(128.318 38.988)" fill="#fff"/>
        <rect id="Rectángulo_344387" data-name="Rectángulo 344387" width="13.087" height="3.098" transform="translate(114.375 58.945)" fill="#72cffd"/>
        <rect id="Rectángulo_344388" data-name="Rectángulo 344388" width="9.642" height="3.098" transform="translate(150.015 58.945)" fill="#f7be8f"/>
        <rect id="Rectángulo_344389" data-name="Rectángulo 344389" width="19.197" height="3.098" transform="translate(129.01 58.945)" fill="#fff"/>
        <rect id="Rectángulo_344390" data-name="Rectángulo 344390" width="4.562" height="3.098" transform="translate(148.986 24.971)" fill="#f7be8f"/>
        <rect id="Rectángulo_344391" data-name="Rectángulo 344391" width="17.216" height="3.098" transform="translate(129.447 24.971)" fill="#72cffd"/>
        <rect id="Rectángulo_344392" data-name="Rectángulo 344392" width="7.23" height="3.098" transform="translate(108.006 65.597)" fill="#f18d4f"/>
        <rect id="Rectángulo_344393" data-name="Rectángulo 344393" width="11.451" height="3.098" transform="translate(133.482 65.597)" fill="#f7be8f"/>
        <rect id="Rectángulo_344394" data-name="Rectángulo 344394" width="13.771" height="3.098" transform="translate(117.387 65.597)" fill="#72cffd"/>
        <rect id="Rectángulo_344395" data-name="Rectángulo 344395" width="10.674" height="3.098" transform="translate(120.399 19.033)" fill="#fff"/>
        <rect id="Rectángulo_344396" data-name="Rectángulo 344396" width="14.46" height="3.098" transform="translate(108.005 72.962)" fill="#fff"/>
        <rect id="Rectángulo_344397" data-name="Rectángulo 344397" width="21.009" height="3.098" transform="translate(108.006 78.901)" fill="#f18d4f"/>
        <rect id="Rectángulo_344398" data-name="Rectángulo 344398" width="21.786" height="3.098" transform="translate(147.261 78.901)" fill="#f7be8f"/>
        <rect id="Rectángulo_344399" data-name="Rectángulo 344399" width="13.771" height="3.098" transform="translate(131.166 78.901)" fill="#72cffd"/>
        <rect id="Rectángulo_344400" data-name="Rectángulo 344400" width="7.23" height="3.098" transform="translate(125.564 72.962)" fill="#fff"/>
        <path id="Trazado_658981" data-name="Trazado 658981" d="M53.682,288.811v59.3a3.488,3.488,0,0,1-3.654,3.3H3.654A3.492,3.492,0,0,1,0,348.111v-59.3a3.492,3.492,0,0,1,3.654-3.3H50.028a3.488,3.488,0,0,1,3.654,3.3" transform="translate(0 -192.22)" fill="#fff"/>
        <rect id="Rectángulo_344401" data-name="Rectángulo 344401" width="43.91" height="55.806" transform="translate(4.896 98.326)" fill="#7c6b72"/>
        <path id="Trazado_658982" data-name="Trazado 658982" d="M81.464,293.02a.645.645,0,1,1-.641-.579.613.613,0,0,1,.641.579" transform="translate(-53.981 -196.882)" fill="#7c6b72"/>
        <rect id="Rectángulo_344402" data-name="Rectángulo 344402" width="1.654" height="1.654" transform="translate(8.609 109.306)" fill="#dedede"/>
        <rect id="Rectángulo_344403" data-name="Rectángulo 344403" width="1.654" height="1.654" transform="translate(8.609 112.858)" fill="#dedede"/>
        <rect id="Rectángulo_344404" data-name="Rectángulo 344404" width="1.654" height="1.654" transform="translate(8.609 116.41)" fill="#dedede"/>
        <rect id="Rectángulo_344405" data-name="Rectángulo 344405" width="1.654" height="1.654" transform="translate(8.609 119.962)" fill="#dedede"/>
        <rect id="Rectángulo_344406" data-name="Rectángulo 344406" width="1.654" height="1.654" transform="translate(8.609 123.514)" fill="#dedede"/>
        <rect id="Rectángulo_344407" data-name="Rectángulo 344407" width="1.654" height="1.654" transform="translate(8.609 127.066)" fill="#dedede"/>
        <rect id="Rectángulo_344408" data-name="Rectángulo 344408" width="1.654" height="1.654" transform="translate(8.609 130.618)" fill="#dedede"/>
        <rect id="Rectángulo_344409" data-name="Rectángulo 344409" width="1.654" height="1.654" transform="translate(8.609 134.17)" fill="#dedede"/>
        <rect id="Rectángulo_344410" data-name="Rectángulo 344410" width="1.654" height="1.654" transform="translate(8.609 137.722)" fill="#dedede"/>
        <rect id="Rectángulo_344411" data-name="Rectángulo 344411" width="1.654" height="1.654" transform="translate(8.609 141.274)" fill="#dedede"/>
        <rect id="Rectángulo_344412" data-name="Rectángulo 344412" width="2.567" height="1.654" transform="translate(13.571 109.306)" fill="#fff"/>
        <rect id="Rectángulo_344413" data-name="Rectángulo 344413" width="10.679" height="1.654" transform="translate(13.571 112.477)" fill="#f18d4f"/>
        <rect id="Rectángulo_344414" data-name="Rectángulo 344414" width="2.275" height="1.654" transform="translate(13.571 116.41)" fill="#f18d4f"/>
        <rect id="Rectángulo_344415" data-name="Rectángulo 344415" width="4.998" height="1.654" transform="translate(14.743 119.962)" fill="#f18d4f"/>
        <rect id="Rectángulo_344416" data-name="Rectángulo 344416" width="4.998" height="1.654" transform="translate(14.743 123.514)" fill="#f18d4f"/>
        <rect id="Rectángulo_344417" data-name="Rectángulo 344417" width="3.412" height="1.654" transform="translate(13.157 127.066)" fill="#f18d4f"/>
        <rect id="Rectángulo_344418" data-name="Rectángulo 344418" width="1.459" height="1.654" transform="translate(14.743 130.618)" fill="#f18d4f"/>
        <rect id="Rectángulo_344419" data-name="Rectángulo 344419" width="5.791" height="1.654" transform="translate(39.584 123.514)" fill="#f18d4f"/>
        <rect id="Rectángulo_344420" data-name="Rectángulo 344420" width="5.791" height="1.654" transform="translate(20.936 123.514)" fill="#fff"/>
        <rect id="Rectángulo_344421" data-name="Rectángulo 344421" width="10.897" height="1.654" transform="translate(27.646 123.514)" fill="#fff"/>
        <rect id="Rectángulo_344422" data-name="Rectángulo 344422" width="3.309" height="1.654" transform="translate(20.66 119.962)" fill="#72cffd"/>
        <rect id="Rectángulo_344423" data-name="Rectángulo 344423" width="3.309" height="1.654" transform="translate(32.047 119.962)" fill="#f7be8f"/>
        <rect id="Rectángulo_344424" data-name="Rectángulo 344424" width="6.286" height="1.654" transform="translate(24.796 119.962)" fill="#fff"/>
        <rect id="Rectángulo_344425" data-name="Rectángulo 344425" width="6.988" height="1.654" transform="translate(17.351 130.618)" fill="#72cffd"/>
        <rect id="Rectángulo_344426" data-name="Rectángulo 344426" width="5.148" height="1.654" transform="translate(33.606 130.618)" fill="#f7be8f"/>
        <rect id="Rectángulo_344427" data-name="Rectángulo 344427" width="7.476" height="1.654" transform="translate(25.166 130.618)" fill="#fff"/>
        <rect id="Rectángulo_344428" data-name="Rectángulo 344428" width="2.436" height="1.654" transform="translate(29.886 112.477)" fill="#f7be8f"/>
        <rect id="Rectángulo_344429" data-name="Rectángulo 344429" width="3.246" height="1.654" transform="translate(25.399 112.477)" fill="#72cffd"/>
        <rect id="Rectángulo_344430" data-name="Rectángulo 344430" width="3.068" height="1.654" transform="translate(14.743 134.17)" fill="#f18d4f"/>
        <rect id="Rectángulo_344431" data-name="Rectángulo 344431" width="3.34" height="1.654" transform="translate(27.553 134.17)" fill="#f7be8f"/>
        <rect id="Rectángulo_344432" data-name="Rectángulo 344432" width="7.353" height="1.654" transform="translate(18.959 134.17)" fill="#72cffd"/>
        <rect id="Rectángulo_344433" data-name="Rectángulo 344433" width="5.7" height="1.654" transform="translate(17.793 109.306)" fill="#fff"/>
        <rect id="Rectángulo_344434" data-name="Rectángulo 344434" width="6.928" height="1.654" transform="translate(14.743 138.102)" fill="#fff"/>
        <rect id="Rectángulo_344435" data-name="Rectángulo 344435" width="10.425" height="1.654" transform="translate(14.743 141.274)" fill="#f18d4f"/>
        <rect id="Rectángulo_344436" data-name="Rectángulo 344436" width="7.272" height="1.654" transform="translate(32.136 141.274)" fill="#f7be8f"/>
        <rect id="Rectángulo_344437" data-name="Rectángulo 344437" width="4.578" height="1.654" transform="translate(26.317 141.274)" fill="#72cffd"/>
        <rect id="Rectángulo_344438" data-name="Rectángulo 344438" width="3.86" height="1.654" transform="translate(23.325 138.102)" fill="#fff"/>
        <path id="Trazado_658983" data-name="Trazado 658983" d="M813.672,357.506v1.582H788.561v32.3h48.913V357.506a1.739,1.739,0,0,0-1.779-1.7H815.451a1.739,1.739,0,0,0-1.779,1.7" transform="translate(-530.888 -239.544)" fill="#f18d4f"/>
        <rect id="Rectángulo_344439" data-name="Rectángulo 344439" width="47.597" height="34.87" transform="translate(258.423 120.795)" fill="#dedede"/>
        <rect id="Rectángulo_344440" data-name="Rectángulo 344440" width="47.595" height="35.439" transform="translate(258.425 122.15)" fill="#fcfcfb"/>
        <path id="Trazado_658984" data-name="Trazado 658984" d="M813.672,379.872v1.582H788.561v32.3h48.913V379.872a1.739,1.739,0,0,0-1.779-1.7H815.451a1.739,1.739,0,0,0-1.779,1.7" transform="translate(-530.888 -254.602)" fill="#f7be8f"/>
        <path id="Trazado_658985" data-name="Trazado 658985" d="M836.481,221.135l1.511-.023a13.512,13.512,0,0,1,1.516-3.885l-1.1-1.113a1.831,1.831,0,0,1-.039-2.513l1.8-1.929a1.678,1.678,0,0,1,2.425-.037l1.121,1.131a12.7,12.7,0,0,1,3.682-1.633l-.022-1.637a1.755,1.755,0,0,1,1.687-1.806l1.525-.023,1.063-.018a1.756,1.756,0,0,1,1.74,1.751l.022,1.642a12.551,12.551,0,0,1,3.726,1.518l1.089-1.163a1.669,1.669,0,0,1,2.421-.037l1.858,1.87a1.83,1.83,0,0,1,.035,2.513l-1.072,1.145a13.56,13.56,0,0,1,1.626,3.84l1.507-.023a1.751,1.751,0,0,1,1.74,1.756l.039,2.681a1.755,1.755,0,0,1-1.687,1.806l-1.472.023a13.461,13.461,0,0,1-1.485,3.958l1.033,1.04a1.832,1.832,0,0,1,.035,2.517l-1.8,1.925a1.669,1.669,0,0,1-2.421.036l-1.015-1.021a12.529,12.529,0,0,1-3.787,1.71l.022,1.455a1.754,1.754,0,0,1-1.691,1.8l-1.525.023-1.059.018a1.75,1.75,0,0,1-1.74-1.751l-.018-1.455a12.407,12.407,0,0,1-3.836-1.592l-.984,1.053a1.682,1.682,0,0,1-2.425.037l-1.854-1.87a1.832,1.832,0,0,1-.035-2.517l1-1.072a13.642,13.642,0,0,1-1.6-3.913l-1.467.023a1.749,1.749,0,0,1-1.735-1.751l-.04-2.686a1.76,1.76,0,0,1,1.687-1.806m14.1,11.6h.123a8.61,8.61,0,0,0-.123-17.2h-.119a8.61,8.61,0,0,0,.119,17.2" transform="translate(-562.013 -139.797)" fill="#7c6b72"/>
        <rect id="Rectángulo_344441" data-name="Rectángulo 344441" width="3.661" height="1.657" transform="translate(297.863 100.261)" fill="#fff"/>
        <rect id="Rectángulo_344442" data-name="Rectángulo 344442" width="2.271" height="1.657" transform="translate(303.794 100.261)" fill="#fff"/>
        <rect id="Rectángulo_344443" data-name="Rectángulo 344443" width="6.517" height="1.657" transform="translate(295.26 103.991)" fill="#fff"/>
        <rect id="Rectángulo_344444" data-name="Rectángulo 344444" width="4.979" height="1.824" transform="translate(258.224 73.948)" fill="#fff"/>
        <rect id="Rectángulo_344445" data-name="Rectángulo 344445" width="2.271" height="1.824" transform="translate(268.591 77.613)" fill="#fff"/>
        <rect id="Rectángulo_344446" data-name="Rectángulo 344446" width="6.748" height="1.824" transform="translate(260.228 77.613) rotate(-0.341)" fill="#fff"/>
        <path id="Trazado_658986" data-name="Trazado 658986" d="M791.095,277.461l.841-.013a7.513,7.513,0,0,1,.843-2.162l-.614-.619a1.019,1.019,0,0,1-.022-1.4l1-1.073a.934.934,0,0,1,1.35-.02l.623.629a7.061,7.061,0,0,1,2.049-.908l-.012-.911a.976.976,0,0,1,.939-1l.848-.013.591-.01a.978.978,0,0,1,.968.974l.012.914a6.983,6.983,0,0,1,2.073.845l.606-.647a.929.929,0,0,1,1.347-.02l1.034,1.041a1.019,1.019,0,0,1,.02,1.4l-.6.637a7.546,7.546,0,0,1,.9,2.136l.838-.013a.974.974,0,0,1,.968.977l.022,1.492a.977.977,0,0,1-.939,1l-.819.013a7.5,7.5,0,0,1-.826,2.2l.575.578a1.02,1.02,0,0,1,.019,1.4l-1,1.07a.929.929,0,0,1-1.347.021l-.565-.569a6.972,6.972,0,0,1-2.107.952l.012.809a.976.976,0,0,1-.941,1l-.848.013-.589.01a.974.974,0,0,1-.968-.974l-.01-.809a6.9,6.9,0,0,1-2.134-.885l-.547.586a.936.936,0,0,1-1.35.021l-1.032-1.041a1.02,1.02,0,0,1-.02-1.4l.557-.6a7.6,7.6,0,0,1-.89-2.177l-.816.013a.973.973,0,0,1-.966-.974l-.022-1.495a.979.979,0,0,1,.939-1m7.847,6.455h.069a4.791,4.791,0,0,0-.069-9.571h-.066a4.791,4.791,0,0,0,.066,9.571" transform="translate(-531.961 -181.745)" fill="#ff785f"/>
        <path id="Trazado_658987" data-name="Trazado 658987" d="M628.705,242.354l-2.576,3.136,22.332,18.346,4.843-5.895Z" transform="translate(-421.533 -163.162)" fill="#f18d4f"/>
        <path id="Trazado_658988" data-name="Trazado 658988" d="M617.784,240.762h0a4.208,4.208,0,0,0,3.778,4.6l1.127.11.41-4.188Z" transform="translate(-415.901 -162.09)" fill="#f18d4f"/>
        <path id="Trazado_658989" data-name="Trazado 658989" d="M691.185,204.207a1.691,1.691,0,0,1,1.691,1.691v-1.691h-1.691Z" transform="translate(-465.027 -137.48)" fill="#f18d4f"/>
        <path id="Trazado_658990" data-name="Trazado 658990" d="M671.89,254.75h23.169V217.726a5.043,5.043,0,0,0-5.043-5.043H676.933a5.042,5.042,0,0,0-5.043,5.043Z" transform="translate(-452.341 -143.186)" fill="#fff"/>
        <path id="Trazado_658991" data-name="Trazado 658991" d="M685.924,176.845h1.733A7.646,7.646,0,0,0,695.3,169.2v-.368a5.351,5.351,0,0,0-5.351-5.351h-.933a5.351,5.351,0,0,0-5.351,5.351v5.758a2.256,2.256,0,0,0,2.256,2.256" transform="translate(-460.27 -110.061)" fill="#f18d4f"/>
        <path id="Trazado_658992" data-name="Trazado 658992" d="M687.831,164.558c4.151,0,6.7-.227,5.773,5.773a5.773,5.773,0,1,0-5.773-5.773" transform="translate(-463.073 -106.9)" fill="#5d474a"/>
        <path id="Trazado_658993" data-name="Trazado 658993" d="M697.292,204.254l5.362-2.439V196.29h-5.362Z" transform="translate(-469.442 -132.15)" fill="#f18d4f"/>
        <path id="Trazado_658994" data-name="Trazado 658994" d="M680.71,189.591h.7v-2.313l-1.038,1.714a.4.4,0,0,0,.337.6" transform="translate(-458.012 -126.082)" fill="#f18d4f"/>
        <path id="Trazado_658995" data-name="Trazado 658995" d="M703.74,181.29c3.27-4.707,3.073-8.342,3.073-8.342l-3.541-1.556c-2.434,0-4.368.663-4.368,3.1l.7.1c-.7,7.38,4.136,6.7,4.136,6.7" transform="translate(-470.527 -115.387)" fill="#5d474a"/>
        <path id="Trazado_658996" data-name="Trazado 658996" d="M701.1,187.028h1.309a1.309,1.309,0,0,0,1.309-1.309V184.7a1.309,1.309,0,0,0-2.618,0Z" transform="translate(-472.005 -123.462)" fill="#f18d4f"/>
        <path id="Trazado_658997" data-name="Trazado 658997" d="M682.107,165.09h2.476a5.514,5.514,0,0,0-5.514-5.514h-2.476a5.514,5.514,0,0,0,5.514,5.514" transform="translate(-455.507 -107.432)" fill="#5d474a"/>
        <path id="Trazado_658998" data-name="Trazado 658998" d="M693.821,162.768l2.442.41a5.514,5.514,0,0,0-4.525-6.351l-2.442-.41a5.514,5.514,0,0,0,4.525,6.351" transform="translate(-464.007 -105.306)" fill="#5d474a"/>
        <path id="Trazado_658999" data-name="Trazado 658999" d="M697.588,183.683h0a1.165,1.165,0,0,0,1.165-1.165v-3.58h-1.165Z" transform="translate(-469.641 -120.468)" fill="#5d474a"/>
        <path id="Trazado_659000" data-name="Trazado 659000" d="M683.668,175.431h4.1a1.582,1.582,0,0,0,0-3.164H685.27a1.6,1.6,0,0,0-1.6,1.6Z" transform="translate(-460.27 -115.976)" fill="#f18d4f"/>
        <path id="Trazado_659001" data-name="Trazado 659001" d="M711.756,384.47h6.82V341.421H706.822Z" transform="translate(-475.858 -229.857)" fill="#5d474a"/>
        <path id="Trazado_659002" data-name="Trazado 659002" d="M676.939,384.47h6.82V341.421H672Z" transform="translate(-452.417 -229.857)" fill="#5d474a"/>
        <path id="Trazado_659003" data-name="Trazado 659003" d="M723.017,300.78h4.058V273.209h-7.629Z" transform="translate(-484.357 -183.934)" fill="#f18d4f"/>
        <path id="Trazado_659004" data-name="Trazado 659004" d="M737.134,352.235h0a4.209,4.209,0,0,1-5.952,0l-.8-.8,2.976-2.976Z" transform="translate(-491.72 -234.595)" fill="#f18d4f"/>
        <rect id="Rectángulo_344447" data-name="Rectángulo 344447" width="3.814" height="1.77" transform="translate(238.904 154.613)" fill="#f18d4f"/>
        <path id="Trazado_659005" data-name="Trazado 659005" d="M718.1,481.386h8.067v-2.8h-3.577c-4.49,0-4.49,2.8-4.49,2.8" transform="translate(-483.453 -322.199)" fill="#5d474a"/>
        <path id="Trazado_659006" data-name="Trazado 659006" d="M683.287,481.386h8.068v-2.8h-3.577c-4.49,0-4.49,2.8-4.49,2.8" transform="translate(-460.013 -322.199)" fill="#5d474a"/>
        <rect id="Rectángulo_344448" data-name="Rectángulo 344448" width="3.815" height="1.77" transform="translate(227.526 154.613)" fill="#f18d4f"/>
      </g>
    </g>
    <rect id="Rectángulo_344450" data-name="Rectángulo 344450" width="400" height="164" transform="translate(1020.439 3123)" fill="none"/>
  </g>
</svg>
